/* XPM */
static char *a2bqz_tf8ic[] = {
/* columns rows colors chars-per-pixel */
"64 64 203 2 ",
"   c #07050B",
".  c #09070C",
"X  c #0B090E",
"o  c #090710",
"O  c #0D0A13",
"+  c #0E0B1A",
"@  c #110D13",
"#  c #110D1C",
"$  c #151015",
"%  c #1C1517",
"&  c #15111A",
"*  c #19131A",
"=  c #1D181C",
"-  c #110F12",
";  c #22191C",
":  c #271B17",
">  c #36231B",
",  c #130E24",
"<  c #150F29",
"1  c #0E1D2D",
"2  c #151125",
"3  c #1B1524",
"4  c #1E1923",
"5  c #16112B",
"6  c #19132D",
"7  c #181A2B",
"8  c #1D1536",
"9  c #1E1638",
"0  c #1D193D",
"q  c #231B24",
"w  c #291E27",
"e  c #241E29",
"r  c #291E2B",
"t  c #211723",
"y  c #241937",
"u  c #20173D",
"i  c #22193C",
"p  c #2B1C3B",
"a  c #271937",
"s  c #351E39",
"d  c #14202D",
"f  c #132534",
"g  c #26202A",
"h  c #2C222E",
"j  c #2B2025",
"k  c #3A2A2D",
"l  c #32282B",
"z  c #2E2331",
"x  c #2F2833",
"c  c #2B223A",
"v  c #312634",
"b  c #332A36",
"n  c #3C2D34",
"m  c #342238",
"M  c #352C3B",
"N  c #382E3D",
"B  c #3A243A",
"V  c #3A303E",
"C  c #4A361E",
"Z  c #472738",
"A  c #453234",
"S  c #453A3F",
"D  c #4E393B",
"F  c #463639",
"G  c #5B3037",
"H  c #543D3E",
"J  c #583A39",
"K  c #4A3030",
"L  c #663539",
"P  c #723B39",
"I  c #5E452E",
"U  c #7D413D",
"Y  c #6F5138",
"T  c #7F4828",
"R  c #1F1542",
"E  c #1D1E42",
"W  c #211742",
"Q  c #241A43",
"!  c #2A1E44",
"~  c #221749",
"^  c #24194B",
"/  c #291F49",
"(  c #261A53",
")  c #281B56",
"_  c #271C58",
"`  c #291B5A",
"'  c #311E50",
"]  c #1E2345",
"[  c #1B2349",
"{  c #1A2B52",
"}  c #1C3053",
"|  c #18335A",
" . c #2B2046",
".. c #2B214B",
"X. c #232147",
"o. c #36224A",
"O. c #3E3445",
"+. c #2E2451",
"@. c #27285D",
"#. c #312653",
"$. c #342959",
"%. c #332854",
"&. c #223558",
"*. c #2B1E64",
"=. c #2D1F69",
"-. c #2A2366",
";. c #3C2B64",
":. c #3D3065",
">. c #3F3269",
",. c #2F2271",
"<. c #29316A",
"1. c #452946",
"2. c #403747",
"3. c #4C3B42",
"4. c #413748",
"5. c #443A4B",
"6. c #493D4D",
"7. c #4D3241",
"8. c #5A3B42",
"9. c #573F41",
"0. c #4D2F52",
"q. c #493F50",
"w. c #5E3A55",
"e. c #403369",
"r. c #483A76",
"t. c #473974",
"y. c #154867",
"u. c #165070",
"i. c #4E404E",
"p. c #52424E",
"a. c #554543",
"s. c #4D4253",
"d. c #524555",
"f. c #5A4752",
"g. c #5C4956",
"h. c #524758",
"j. c #55495A",
"k. c #5A4D5D",
"l. c #544957",
"z. c #5E505F",
"x. c #6C4E4E",
"c. c #63484A",
"v. c #624C55",
"b. c #6B4E51",
"n. c #644E59",
"m. c #684F58",
"M. c #65525E",
"N. c #6C525A",
"B. c #6F5050",
"V. c #72555D",
"C. c #77585F",
"Z. c #7B5A5D",
"A. c #715152",
"S. c #766748",
"D. c #5C4F60",
"F. c #5E5161",
"G. c #635565",
"H. c #695764",
"J. c #6C5966",
"K. c #725B66",
"L. c #7B5D64",
"P. c #755E68",
"I. c #795F68",
"U. c #7C6169",
"Y. c #7F6066",
"T. c #8B4C3B",
"R. c #8E5C33",
"E. c #A15D3C",
"W. c #8E6535",
"Q. c #A9643D",
"!. c #AA7D3C",
"~. c #8C5643",
"^. c #805C5D",
"/. c #976142",
"(. c #97604F",
"). c #81714A",
"_. c #976051",
"`. c #A26945",
"'. c #BF7C45",
"]. c #825F62",
"[. c #846165",
"{. c #8A6467",
"}. c #83646A",
"|. c #8B666A",
" X c #8E686B",
".X c #946B6C",
"XX c #906768",
"oX c #C27F44",
"OX c #C98F44",
"+X c #D8A04F",
"@X c #E2B148",
"#X c #4E3F80",
"$X c #155887",
"%X c #116897",
"&X c #147195",
"*X c #24728F",
"=X c #277697",
"-X c #1173A1",
";X c #4F4080",
":X c #514284",
">X c #614F9B",
",X c #1180AE",
"<X c #16AFD7",
/* pixels */
"9 9 9 W ^ ~ 9 9 8 9 9 9 9 9 9 8 9 u 9 9 9 8 8 8 8 9 W ^ ~ u i 9 9 9 9 W ^ ~ 0 9 8 8 9 9 9 9 9 9 9 u 9 9 9 9 8 9 9 9 9 u ^ ^ u 9 ",
"9 9 ~ ` ) ~ 9 Q ..u 9 9 8 8 y i i ~ 9 9 8 u Q y 9 ~ ` ` ^ ..e...9 9 W ) ` ~ 9 i ..i 8 9 9 8 9 i i ~ u 9 9 9 Q i 9 9 u ( ` ^ 0 9 ",
"9 W ` =.( u 8 #.#X .m y u Q Q #.i 9 9 9 8 Q $.Q ~ -.,.) Q :.>Xe.i u ( =.` W 8 / #X#.m y 9 Q i +.Q 9 9 9 9 i $.! 8 u ( =.` W 9 9 ",
"0 ^ ` ( u 9 9 i ..8./.F ! $.Q i 9 9 9 9 9 9 X.&.@.,.-.~ 9 / :...y ~ ` ) W 9 9 u ..7./.J p $.! i 9 9 8 9 9 9 Q &.] ~ ( ` ~ 9 9 9 ",
"0 ~ ~ u 9 9 9 8 B `.+X~.p Q 9 8 9 9 W 9 9 8 } =X<.( Q 9 8 9 i 9 9 ~ ~ u 9 9 8 8 p ~.+X`.B Q y 8 9 9 Q 9 9 8 ] *X&.W ~ W 9 9 9 9 ",
"9 9 9 9 9 9 9 9 y 8._.0.i 8 9 9 8 8 9 < , , 6 [ 8 5 5 < < < 8 8 9 9 9 9 9 9 8 8 y 7.(.w.Q 8 9 9 9 0 ) Q 8 9 0 @.X.9 9 9 9 9 9 9 ",
"9 0 9 8 9 9 9 8 u ` ;.) 0 8 8 y z & O X X X X X . . o . X O 2 8 8 8 8 8 8 8 9 8 9 ) ;.` u 9 9 u N c u 9 8 8 9 9 9 0 9 8 8 9 9 9 ",
"u ~ i i 9 8 9 9 u ( ( W 9 8 # = C k A D F b b z q q q q l A w + + , + + , 8 9 8 0 ( _ W 9 9 9 c ).S 8 9 u u 9 8 9 ~ Q i u 8 8 9 ",
"9 0 Q +.i Q 9 8 9 u 9 6 6 2 O @ q a.].{.L.H.H.k.6.4.4.O.f.Z.D ; % % % % = 6 8 8 9 u u 9 9 9 9 u M a 9 9 ( ` ~ 9 9 0 i +.! i u 9 ",
"9 9 u i / $.i 8 9 8 < o o # g V p.L.XX.X X|.|.I.z.k.j.6.g.{.^.B.B.x.x.x.9.q < 8 9 8 9 9 9 9 8 8 9 9 8 9 ( =._ W 8 9 9 i i $./ 8 ",
"i 9 9 8 u Q 9 9 8 5 # @ $ q V s.G.I.|..X.X.X.X XI.J.G.g.V.XX.X.X.X{.L.C.b.A e 2 8 9 u ~ ~ u Q u 9 9 [ 0 u ( ( W u 9 8 8 9 Q i 9 ",
"_ 0 8 9 8 8 8 8 5 O & g M O.4.d.G.G.P.|.XX.X.X.X|.P.J.}.XX.X.X.XXXK.d.6.f.V.H * 2 9 ( ` ~ Q $.! 9 | %Xy.0 u Q Q ) ~ 8 8 9 9 9 9 ",
"Q p M u 9 9 8 < # * e N 6.h.h.k.G.G.J.P.I.I.I.I.P.J.J.|..X.X.XXXU.H.d.5.p.].Z.H e < ^ ( W 9 Q y E %X<X,X{ Q :.+.Q i M c 9 9 9 9 ",
"8 S ).c 8 8 5 + @ e b 2.j.G.G.G.G.F.k.k.G.G.G.G.G.G.J.}.|. X.X|.I.J.F.d.f.C.{.].F t 8 9 9 9 8 8 0 | -Xu.E $.>Xt.Q c S.3.8 9 9 9 ",
"9 c V u 8 < O * q h M 2.j.G.G.G.F.d.6.6.h.G.G.G.G.G.G.J.J.K.}..X XU.G.F.k.f.V.{.^.9.= , 8 8 8 9 9 9 [ 0 9 ! >.#.y u V c 9 8 9 9 ",
"8 9 9 8 < # @ q z b N 2.s.j.G.J.J.k.6.4.q.h.j.k.G.J.K.H.G.G.P.}.XX|.I.J.F.d.g.V.{.Z.F w , , 5 8 9 9 9 9 9 9 i y 9 9 9 9 8 8 9 9 ",
"/ 9 y r o @ e h v V O.4.5.s.G.U.|.J.j.6.4.4.4.s.z.I.|.K.G.G.G.J.}..X|.I.G.H.k.f.L.XX[.H $ X O 6 8 W ~ 0 9 9 8 9 9 9 9 9 9 9 9 9 ",
":X! L T.- @ r h v O.6.d.j.n.I. X|.K.F.j.6.O.O.4.s.K.XX|.}.U.J.G.K.}..X|.}.}.L.L.{..X.XN.V z 4 # + < 0 0 9 9 9 9 9 9 9 ~ ^ ^ u 9 ",
"+.Z E.W.: = z v v O.q.k.H.I.|..X}.J.G.F.j.6.4.O.4.v.L.].{.XX}.J.G.P..X.X.X.X.X.X.X.X.X}.H.d.M * O # 5 5 5 8 8 9 9 i i ( *.` W 9 ",
"^ a > > l M O.b v O.4.s.K.|..X}.J.G.G.G.F.j.6.O.2.6.p.p.N. XXX}.J.P.XX.X.X.X.X.X.X.X.X.X}.H.s.V M z & . o , 8 8 i $./ ( *.` ! y ",
"` ~ + $ 3.g.s.O.N O.O.6.C..X.XU.G.G.G.G.G.F.q.4.s.5.O.O.p.N.[.XX}.}.XX].V.V.V.V.{..X.X.XXXP.F.d.s.6.h * * & , 8 9 Q i ~ ^ o.U G ",
"` ^ + % b.U.G.s.4.O.O.5.V.XX.X}.J.G.G.G.G.k.6.q.k.d.4.2.2.6.V.XX.X.X|.N.6.6.5.6.V. X.X.XXXI.G.G.F.k.6.O.O.g & 5 8 8 9 0 i P OXQ.",
"` ~ + ; A.}.G.k.d.4.O.5.n.U.XX|.}.J.G.G.j.s.4.q.F.D.d.5.O.5.V.XX.X.XXXJ.j.j.s.4.p.N. X.X.X|.U.J.G.G.k.k.V.b.H t , 8 9 ~ Q Z T.P ",
"] 8 # q v.I.K.G.k.s.4.4.j.J.}.|.XXU.J.G.k.f.f.g.G.G.F.s.5.5.V..X.X.X}.K.G.G.j.q.4.f.[..X.X.X XP.J.J.K.U.XX.X^.A t 5 8 u 0 y s a ",
"y.+ 4 M 6.m.[.K.G.k.s.5.j.G.J.U.XX|.}.J.P.[.[.I.G.G.G.F.d.6.V..X.X}.K.G.G.G.F.k.q.f.[..X.XXXXX|.|.|. X.X.X.XXX^.H * < 9 9 8 9 0 ",
"f X e O.O.p.N.K.K.k.q.4.s.j.G.J.}.|.|.}.|..X}.P.G.G.G.G.G.N.]..X.X XU.J.G.G.k.j.g.V. X[.V.N.N.N.N.V.{..X.X.X.X}.v.b 4 u Q 9 9 ) ",
"# . e O.O.2.6.N.C.i.O.O.2.6.k.G.J.}.|.|..X|.I.J.G.G.G.G.K.|..X.X.X.XXXI.J.H.k.f.C. X{.N.6.6.6.5.4.6.V. X.X.XXXI.G.j.h 7 %.Q 9 Q ",
", X e O.O.O.2.p.d.5.O.O.O.4.q.j.G.J.K.P.}..X|.U.G.G.G.G.P.XX.X.X.X.X.X X}.}.[.L. X[.m.g.j.j.s.4.O.4.p.N. X.X.X|.I.M.h # i i i u ",
", . e 2.p.f.f.6.O.O.O.O.O.O.O.s.j.k.k.G.P.|..X|.P.K.K.K.U.XX|.|..X.X.X.X.X.X.X.X.X[.g.j.G.G.k.s.5.O.2.f.|..X.X.X|.K.D w 3 8 #...",
", . g 6.C.[.L.f.4.4.O.O.O.O.O.4.5.6.s.F.G.K.|..X X|.|. X|.XXU.P. X.XXXXXXX.X.X.X.X|.H.G.G.G.G.F.s.4.2.f.{..X.X.XXX|.].c.; + i i ",
", X n V. X|.I.M.d.s.6.O.O.O.O.6.s.d.j.F.G.G.P.U.U.U.U.U.U.U.U.}.XX[.V.N.V. X.X.X.XXX}.J.G.G.G.G.k.s.5.f.{..X.X.X{.V.N.a.% O 8 9 ",
", - H  X|.U.J.G.G.F.d.4.O.O.5.d.F.F.k.F.F.F.G.G.G.G.G.J.J.K.}.XX{.V.i.5.p.L. X.X.XXXXX}.J.J.H.G.G.k.6.f.{..X.X.XL.d.5.N * , 0 0 ",
"< @ H |.U.J.G.G.G.G.h.4.O.5.h.F.F.d.q.q.6.s.k.G.G.G.J.U.}.}..X{.m.g.j.6.5.d.V. X}.U.|.|.|.}.U.J.G.F.q.f.{..X.X.X[.k.q.O.x 7 , 5 ",
", @ H |.U.J.G.G.G.G.h.4.O.6.k.J.J.n.f.s.4.4.s.j.k.F.J.U.|..X.X[.g.h.F.j.6.4.v.|.P.J.U. X.X.X|.I.K.J.n.N. X.X.X|.U.G.j.6.O.g X , ",
"# X H  X|.U.J.G.G.G.h.4.O.q.F.P.|.|.L.G.d.4.4.5.5.h.G.G.I.|..X|.J.G.G.F.j.6.v.|.P.G.J.U.XX.X.XXX|.|. X X.X.X.XP.G.G.F.k.5.g - 1 ",
", X n N. X|.U.J.G.G.h.4.s.j.G.J.U.|.XX}.G.d.d.s.4.6.d.F.J.U.|..X}.K.G.G.k.6.v. X}.P.G.J.I.U.}.XX.X.X.X.X.X.X|.K.G.G.G.k.6.g o 2 ",
", . e 6.C. XXXU.H.F.d.q.j.F.F.z.G.I.{.|.P.G.G.k.6.4.5.j.F.G.U.|..X}.J.J.G.f.N.|..X|.K.J.J.G.K.}.|.|..X.X.X.X XP.J.J.G.k.O.e O , ",
", . e 2.p.V. X|.L.d.s.k.F.k.s.6.6.d.g.J.J.G.G.F.k.s.4.6.d.F.J.P. XXX|.|.}.].I.P.|..X|.}.}.J.G.J.K.P. X.X.X.X.X X|.}.P.l.g 2 6 8 ",
", . e O.O.d.V.C.N.d.j.G.J.H.d.s.s.s.d.F.G.G.G.G.G.j.q.4.6.j.F.J.U.|..X.X.X.X|.U.|..X|.}.}.J.G.G.G.G.U.|..X.X.X.X.X.X}.g.= + 8 9 ",
", . e O.O.4.6.6.s.k.F.G.U.}.H.G.F.F.F.F.G.G.G.G.G.F.k.6.4.5.h.G.G.I.|..X.X.X.X|..X}.K.J.G.G.G.G.G.G.G.P.|..XXX.X.X.X Xb.; + 8 9 ",
", . q O.O.O.O.O.6.k.G.J.}.XX}.K.G.G.F.h.M.I.J.G.G.G.F.j.s.4.6.d.F.J.P.I.}.XX|.U.I.K.G.G.G.j.s.s.s.d.F.J.P.I.U.|..XXXx.k 6 8 9 9 ",
", O 3 M O.O.O.O.6.k.G.G.U.|..X}.J.G.h.6.N.|.I.J.G.G.G.G.j.4.O.6.k.G.G.G.J.}.U.G.G.G.F.k.k.6.O.O.O.4.h.F.G.G.J.}. X[.A @ 0 ^ 0 9 ",
"8 6 < 3 M O.O.O.6.k.G.G.J.I.|..X[.g.5.5.N.|.|.U.J.G.G.G.j.4.O.6.k.G.G.G.G.J.J.G.G.k.s.6.6.4.O.O.O.4.5.s.F.G.G.J.J.M.l + R ~ 9 9 ",
"0 W , O h O.O.O.5.d.k.G.G.J.U.}.I.g.s.s.M.}.XX XU.P.J.k.s.4.6.d.F.F.j.F.G.G.F.j.h.s.4.5.s.s.s.s.s.s.4.5.h.F.G.G.G.k.h O 8 9 9 9 ",
"u W , X e M O.O.O.4.s.F.G.G.G.G.G.G.F.F.G.J.}.XX.X.X[.g.5.5.d.F.G.j.6.j.G.G.k.6.6.6.5.s.F.F.F.F.F.k.s.4.6.h.F.F.F.l.h O 5 9 9 9 ",
"9 9 + X q v M O.O.O.5.s.k.G.G.G.G.G.D.d.j.G.K.}..X.XXXL.M.k.k.G.G.j.5.h.H.U.I.V.V.N.k.k.G.G.G.G.G.F.k.h.h.d.s.s.2.h 3 < 8 9 9 9 ",
"9 8 # O 3 r z M O.O.O.O.s.k.k.F.G.F.h.5.d.G.G.K.}.|.|.|.I.G.G.G.D.s.4.h.J.}.|.|.XX|.P.J.J.G.G.G.G.J.J.J.J.k.6.4.h X # 8 8 9 9 9 ",
"u W 8 2 O * g v v v v M O.6.6.h.D.s.5.4.d.G.G.G.J.J.J.J.J.G.G.D.s.4.4.h.G.J.J.K.}..X X|.}.K.G.G.P.}.|.|.}.K.j.5.h X , 9 9 8 8 9 ",
"9 u Q  ., # = e z b M M O.O.O.6.s.5.4.s.k.G.G.G.G.G.G.G.G.G.k.s.4.O.4.s.h.j.k.G.P.}.}.|.XX}.I.P.K.V.V.L.|.U.k.M 4 # 6 ..Q u 9 9 ",
"9 8 i Q Q y O = h N O.O.O.O.O.O.4.O.6.j.F.F.F.F.F.G.G.G.G.F.h.5.4.4.O.4.4.4.s.F.G.G.H.P.|.{.{.[.m.6.5.f.L.K.i.4 + 6 8 Q Q #./ 8 ",
"9 9 9 9 i i < # * z N O.O.O.O.O.O.O.4.s.s.s.s.s.s.k.G.G.G.G.k.j.j.s.4.O.O.O.5.s.s.s.s.f.g.g.g.g.6.O.M V 3.n e 2 5 8 9 9 9 / Q 9 ",
") 0 9 9 8 8 8 # O 3 z O.O.O.O.O.O.O.O.O.O.O.O.O.4.s.k.k.k.k.k.k.k.s.4.O.O.O.O.O.O.O.O.O.O.O.O.O.O.N v r q & + 8 ( Q 8 9 9 9 9 9 ",
"~ u a 9 8 9 8 8 < O 4 O.O.O.O.O.O.O.O.O.M b O.O.O.4.5.6.5.5.5.5.5.4.O.O.O.O.O.O.O.O.b v v v v v v v z q & 7 8 8 ~ i a u 9 9 9 9 ",
"8 S S.c 8 9 8 9 8 5 2 q q h O.O.N M M M v v N O.O.O.O.O.O.O.O.O.O.O.N O.O.O.O.O.O.O.M M M v h h h r 3 d y.u.{ 9 8 c S.S 8 9 9 9 ",
"9 M a.a 9 9 8 8 0 ( 0 O . & z v h h z z z v N O.O.O.O.O.O.O.O.O.O.M v N O.O.O.O.O.O.O.O.N v h r e q @ 1 &X$X-.Q 8 a a.M 9 9 9 9 ",
"9 9 9 9 9 9 9 9 9 ~ ( 9 5 2 & @ @ q h h h z v M O.O.O.O.O.O.N b b v v N O.O.O.O.O.O.O.N b v e $ O O # 6 | [ ~ u 8 9 9 9 9 9 9 9 ",
"9 9 9 9 9 9 9 9 y y ~ ^ ~ 6 O o O * t t t q r v N O.V V O.N b h h h z M N O.V O.O.O.x g t t * O o O 5 8 8 9 9 9 9 9 9 9 9 9 9 9 ",
"9 9 9 ~ ~ W 9 9 F R.b u u 8 8 6 5 O . . . O t h z z z z z z h h h h h h z z z v M b & X . . O 5 6 6 8 9 9 i #.! 8 9 9 Q ~ W 0 9 ",
"9 9 W ` *.( 9 n !.@XW.c 9 9 9 9 8 5 + + , < & * * * * * * * * * * * * * * * * * = l C = + + , 8 9 i 9 9 ~ ( +.Q 9 9 9 ( *.` W 9 ",
"! #.Q ` *.) y m W.OXY a 9 9 9 8 ..r.! W ( ~ +             . .   . o .       . . X C I p 8 8 8 8 Q r.+.W ( ` W 8 i #./ ( *.` Q y ",
"Q ..Q ^ ( 1.L p m J ! ( 0 8 9 8 ! ;.! ~ ( ~ 6 < < < < < < 5 5 < 5 6 5 < < < < < 2 k c ( Q 9 9 8 i ;...~ ( ^ u 8 y ..Q ~ ( ' L Z ",
"9 8 9 W s T.oXP y 9 0 ~ 9 9 9 9 9 9 9 u u u 9 9 8 8 8 8 9 9 8 8 9 9 8 8 0 ( i 8 8 8 9 ^ i 9 9 9 9 9 9 u u u 9 9 9 8 9 0 Q L '.E.",
"9 9 u ~ ! P Q.G y 9 9 9 9 9 9 9 9 9 9 9 9 9 9 9 9 8 8 9 9 9 9 9 9 9 9 9 0 ~ u 9 9 8 8 8 9 9 9 9 9 9 9 9 9 9 9 9 9 9 9 ~ Q G Q.T.",
"9 9 0 ~ 0 p Z y 9 9 9 9 9 9 9 9 9 9 9 9 9 9 9 9 9 8 8 9 ^ ^ 9 9 8 i ..i 9 9 9 9 8 8 8 8 9 9 9 9 9 9 9 9 9 9 9 9 9 9 9 Q W y Z s "
};
