/* XPM */
static char *a0o4o_tdbv8[] = {
/* columns rows colors chars-per-pixel */
"64 64 238 2 ",
"   c #020405",
".  c #07080A",
"X  c #0B0A0C",
"o  c #110D0B",
"O  c #10100B",
"+  c #0B0B13",
"@  c #0E0A19",
"#  c #120E12",
"$  c #120D1D",
"%  c #0E1011",
"&  c #131414",
"*  c #14141B",
"=  c #191719",
"-  c #16191A",
";  c #1B1B1D",
":  c #241D18",
">  c #25201A",
",  c #130E23",
"<  c #160E28",
"1  c #1D1E22",
"2  c #16112A",
"3  c #181229",
"4  c #1D1536",
"5  c #1E1833",
"6  c #1E1639",
"7  c #1E1A3C",
"8  c #221B2B",
"9  c #221C34",
"0  c #20173D",
"q  c #221A3C",
"w  c #2B1A39",
"e  c #321D39",
"r  c #1E2022",
"t  c #222324",
"y  c #2B2925",
"u  c #242529",
"i  c #29262A",
"p  c #26292A",
"a  c #2B2B2D",
"s  c #342C28",
"d  c #2E302E",
"f  c #39332A",
"g  c #252133",
"h  c #2D2B33",
"j  c #26213B",
"k  c #2B2739",
"l  c #2A253D",
"z  c #352438",
"x  c #352C3C",
"c  c #382E3D",
"v  c #2F3031",
"b  c #333434",
"n  c #3B3836",
"m  c #353639",
"M  c #393739",
"N  c #363939",
"B  c #39393A",
"V  c #402E26",
"C  c #473B2C",
"Z  c #482837",
"A  c #552D37",
"S  c #483B37",
"D  c #553537",
"F  c #733E34",
"G  c #3E403A",
"H  c #4A423A",
"J  c #594237",
"K  c #7C4136",
"L  c #1F1E40",
"P  c #211741",
"I  c #231A42",
"U  c #24194A",
"Y  c #291E48",
"T  c #271A54",
"R  c #291B56",
"E  c #271C59",
"W  c #291B5A",
"Q  c #1D274C",
"!  c #1B2E57",
"~  c #2A2343",
"^  c #2B214B",
"/  c #242A49",
"(  c #332B44",
")  c #353242",
"_  c #3C3C43",
"`  c #3A354A",
"'  c #3B3948",
"]  c #2E2452",
"[  c #25275C",
"{  c #302552",
"}  c #332857",
"|  c #35295A",
" . c #213556",
".. c #343456",
"X. c #2B1C60",
"o. c #2D1F69",
"O. c #193A64",
"+. c #2D216A",
"@. c #382869",
"#. c #3E3167",
"$. c #443C46",
"%. c #49314E",
"&. c #543744",
"*. c #41336B",
"=. c #453370",
"-. c #3E4043",
";. c #3B454B",
":. c #3D4E5A",
">. c #19416F",
",. c #274F6D",
"<. c #2B627D",
"1. c #434344",
"2. c #494746",
"3. c #45444A",
"4. c #4B4C4C",
"5. c #554B46",
"6. c #484854",
"7. c #564E55",
"8. c #4D5356",
"9. c #525354",
"0. c #53555B",
"q. c #5B5558",
"w. c #555A5D",
"e. c #5B5C5D",
"r. c #675647",
"t. c #6A5A50",
"y. c #5E615F",
"u. c #796756",
"i. c #746A54",
"p. c #435C66",
"a. c #555A62",
"s. c #5C5D61",
"d. c #5D6266",
"f. c #636464",
"g. c #6B6663",
"h. c #64656B",
"j. c #66686A",
"k. c #6A6C6D",
"l. c #746D67",
"z. c #7A736C",
"x. c #6C6D72",
"c. c #6E7174",
"v. c #687378",
"b. c #737475",
"n. c #767578",
"m. c #74797C",
"M. c #7A7B7C",
"N. c #85453A",
"B. c #8A4A39",
"V. c #A45C34",
"C. c #8A613A",
"Z. c #A97B3B",
"A. c #945E42",
"S. c #95634B",
"D. c #83744A",
"F. c #87735C",
"G. c #8E7966",
"H. c #867D75",
"J. c #978574",
"K. c #AA9277",
"L. c #AE9378",
"P. c #CD8C47",
"I. c #D59F50",
"U. c #D9A150",
"Y. c #E9AE44",
"T. c #126D9B",
"R. c #25758F",
"E. c #1172A3",
"W. c #4F4081",
"Q. c #594991",
"!. c #614F9B",
"~. c #757A80",
"^. c #7B7C83",
"/. c #26899F",
"(. c #248FAA",
"). c #7D8184",
"_. c #7D848B",
"`. c #16B1D8",
"'. c #838485",
"]. c #888784",
"[. c #838489",
"{. c #85898C",
"}. c #8A8B8D",
"|. c #9A9089",
" X c #8C8E93",
".X c #8A8D97",
"XX c #8E9396",
"oX c #929496",
"OX c #93959A",
"+X c #969A9C",
"@X c #9A9C9E",
"#X c #A6998D",
"$X c #9799A4",
"%X c #9B9DA2",
"&X c #A09FA1",
"*X c #9EA2A4",
"=X c #9BA2AA",
"-X c #A3A3A4",
";X c #A3A5AA",
":X c #A6A9AC",
">X c #A9AAAB",
",X c #B5ADAC",
"<X c #B7B3AD",
"1X c #A9AAB4",
"2X c #ADB3B7",
"3X c #B3B4BA",
"4X c #B6B8BA",
"5X c #C5BEBE",
"6X c #BBBDC3",
"7X c #B8BBC6",
"8X c #BEC4C6",
"9X c #BDC4C9",
"0X c #BECAD0",
"qX c #C3C4CB",
"wX c #C4C6C8",
"eX c #CBCACD",
"rX c #C5C5D3",
"tX c #C7CBD6",
"yX c #CACCD3",
"uX c #CCD2D9",
"iX c #D2D4DB",
"pX c #D4D7DA",
"aX c #CFDBE4",
"sX c #D3DCE3",
"dX c #DBDCE3",
"fX c #D8D9E5",
"gX c #D6E1E7",
"hX c #DBE1E4",
"jX c #DCE3EB",
"kX c #E3E5EB",
"lX c #E4E6EA",
"zX c #E3EBF3",
"xX c #EBEBF6",
"cX c #EBECF4",
"vX c #ECF1F6",
"bX c #EBF2F8",
"nX c #F0F2F6",
"mX c #F1F2FB",
/* pixels */
"6 6 6 P U U 6 6 4 6 6 6 6 6 6 4 6 0 6 6 6 6 6 6 6 6 P U U q q 6 6 6 6 P U U 6 6 6 6 6 6 6 6 6 4 6 0 6 6 6 6 4 6 6 6 6 P U U 6 6 ",
"6 6 P R R U 6 q ^ q 6 6 6 4 6 q q U q j l l l j j ~ ] ] ^ ( #.( j j ~ { ] ^ j l ~ l 0 6 6 4 6 q q U 0 6 6 6 I 0 6 6 P R R U 6 6 ",
"6 0 R o.R 0 6 ^ W.^ z 0 6 I I { P q l _ _ _ ' m _ ' $.' ' 6.6.3._ _ $.6.' ) ) _ 6.' x q 6 I I { I 6 6 6 6 q | I 6 0 R o.R P 6 6 ",
"6 U R R P 6 6 q ^ &.A.D I | I q q l $.0.e.e.e.e.f.j.j.j.j.j.j.h.f.f.j.k.h.d.a.w.w.q.t.S I | I q 0 6 4 6 6 6 ~  .L U R R P 6 6 6 ",
"6 U U 0 6 6 6 6 e A.U.S.z P 6 0 l _ d.M.'.{.oX*X-X-X;X;X;X;X:X:X-X-X;X;X;X*XoX[.[.^.g.5.x I 0 6 6 6 P 6 6 4 Q R. .P U P 6 6 6 6 ",
"6 6 6 6 6 6 6 6 0 &.S.%.q 4 9 9 h N 9.k.b.n.'. XoXOX:X4X8XwXeXeXeXyXyXuXuXyX7X3X2X;Xm.0.` j 0 6 4 0 R P 4 4 P [ I 6 6 6 6 6 6 6 ",
"6 6 6 4 6 6 6 6 6 R @.R 0 6 9 u 1 - ; t t p a b b B k.%X4XwXeXyXpXkXkXkXkXkXjXdXfXyX;X^.a.) l q c q P 6 6 6 6 6 6 6 6 4 6 6 6 6 ",
"0 U 0 q 6 6 6 6 0 T R P 9 9 g h b a ; X X X X X X - -.k.'.OX>X6XuXlXcXcXcXvXmXmXcXkXqX;X^.w.` ) i.M 6 6 0 0 6 4 6 U q q 6 4 6 6 ",
"6 6 P { I I 0 6 6 0 0 6 9 u h B f.M.9.t ; ; ; ; ; ; t p a B c.-X6XuXdXcXvXmXvXcXcXzXdXtX:X^.a._ _ q 6 0 T R P 6 6 6 q ] I I 0 6 ",
"6 6 6 q I | I 4 6 6 6 0 9 a 1.e.M.}.e.b a a a a a p ; + X * 1.b.+X4XuXkXcXmXcXcXcXcXcXkXyX1X^.0.` j 0 0 R o.R 0 4 6 6 q I | I 4 ",
"P 6 6 6 6 I 6 6 6 6 0 U j v y.}.M.q.2.N m m m b b b p 1 1 1 t b k.%X6XiXlXnXvXcXcXcXcXcXlXiX:X^.9.m / 7 P R T 0 P 6 6 6 6 I 0 6 ",
"W P 6 6 6 4 6 6 6 0 U ^ ` 9.b.].f.1.B B B B B B B m v a h a ; - -.c.+X6XpXlXcXcXcXcXcXmXmXzXqX+Xf.;.<.O.7 0 P P R P 6 6 6 4 6 6 ",
"P q c q 6 6 6 4 6 U Y k e.}.n.9.2.B B B B B B B B m b b N N a 1 1 b k.%X6XiXkXcXcXcXcXmXnXzXiX1Xx.:./.E.Q Y #.^ P q c q 6 6 6 6 ",
"4 c D.c 6 6 6 6 6 U q h k.-XM.1.B B B m B B B B N m m N B _ m a ; ; 1.c.*XqXdXcXcXcXnXmXnXcXfX6X[.a.<.,.~ #.!.*.q x D.M 6 6 6 6 ",
"6 q c q 6 6 6 6 6 0 9 b k.-XM.2.B B m m N B m m m m m m N B N b a t t m ).wXfXcXxXcXmXmXmXxXfXqX%Xm.a.' l ^ #.^ 6 0 c q 6 6 6 6 ",
"4 6 6 6 6 6 6 6 0 9 g b k.@XM.2.B B m m N B m m m m m m N N N N b a & ; k.4XpXcXcXmXmXmXmXxXfXqX:X{.f.1.l 0 q 6 6 6 6 6 4 6 6 6 ",
"^ q 9 e 9 6 6 q j h a b k.@Xn.2.B B B B B B B B N N N N N N N N N b - - d.;XuXcXmXmXmXmXmXxXfX9X:X{.y._ k 6 6 6 6 6 6 6 6 6 6 6 ",
"Q.^ A V.D 0 U R ~ h a m e.M.f.1.B B B B B B B B N N N N N N N N B m r ; 2.m.4XkXcXmXmXmXcXdXiX6X:X{.y._ k 6 6 6 6 6 6 U U U 6 6 ",
"] z V.Y.V.( +.+.~ a b B 2.4.2.B B B B B B B B B N N N N N N N N N m a t t m {.yXlXnXmXxXdXiXtXqX>X}.f._ k 6 6 6 6 I P R o.R 6 4 ",
"T I D V.D R +.+.j a b B B B B B B B B B B B B B N N N N N N N N N N v t & ; b.qXdXcXnXcXfXtXtXqX1X}.f.-.l 6 6 6 P | Y R W R e 0 ",
"W T q z Y R R U 9 a m B B B B B B B B B B B B B N N N N N N N N B N v t % ; x.6XfXcXnXzXiXrXrXqX1X Xf.1.l 6 6 6 6 I q U U %.B.A ",
"W R 0 6 U U P I 9 a b B B N B B B B B B B B B B B N N N N N N N N N v t & ; x.6XfXcXnXzXsXrXtXqX1X Xf.1.l 6 6 6 6 6 6 0 e N.P.V.",
"R T 0 6 6 6 I } g u a m N B B B B B B B B B B B B B N N N N N N N m v u & 1 n.7XdXcXnXcXfXtXtXqX1X}.f.1.l 6 6 4 6 6 6 U U Z B.A ",
" .I 6 6 6 4 0 I l i a m B B B B B B B B B B B B B B N N N N N N N m v u & 1 n.qXdXxXcXkXfXtXqX3X;X}.f.-.l 6 q ^ q 6 6 6 6 0 e 0 ",
"/./ 6 I 6 6 4 Y ..h b B B B B B N N N N N N N N B B B B B B B B B N v t & 1 n.qXdXcXdXfXuXrX3X=X%X}.f.-.l z ^ W.] 6 6 q 6 6 6 P ",
" .7 I | I 6 6 0 l a b B B B B N N N N N N N N N B B B B B B B B N b t ; 1 m [.wXfXdXfXuXtXrX1X$X.X^.e._ S A.&.{ U U ^ #.^ 6 0 E ",
"6 6 q I 0 6 6 4 g d b B B B B N N N N N N N N N B B B N N m m m b p - & b d.@XqXiXiXuXtXtX7X1X$X^.j.8.$.u.I.A.z T T #.!.*.q 6 P ",
"0 T T P 0 6 6 4 g a b m B B B B N N N N N N N N B B B m m m b b d p & & 3.^.:XqXyXyXtXrX7X7X1XOXb.0.1.) %.S.&.q T U ^ #.^ 0 I 0 ",
"0 T W W T 0 6 4 9 a d m N B B N N N N N N N N N B B N m b b d a d a - - 0.oX3XqXyXyXrXqX3X;X$X.Xj.3.( q R *.R P U 0 6 q 6 q | Y ",
"6 P W +.W P 6 4 9 i a b m B B N N N N N N N N N B B B m b d a a t t t b b.>X6XqXqXqX7X3X1X$X.X^.s.1.l 0 P R R 0 6 6 6 6 6 6 I 0 ",
"6 0 R X.W T 0 4 9 u a b m N B N N N N N N N N N B B N m b a a t - - b e.oX4XwXqXwX7X2X=X$XOX^.h.9._ l 6 4 0 0 6 6 6 6 6 6 6 6 6 ",
"0 U R R R T 0 4 9 8 i a b b b b b b b b b b b b b b b a t ; ; ; r a 9.M.@X2X4X3X3X2X;X$X.X_.x.0.3.) j 0 0 6 4 4 6 6 6 6 P R R 0 ",
"I | Y 0 0 0 6 6 4 9 g a a a a p p u p p a a a i i i i t - X X & m e.m. X+X*X%X%X%X%X+X.X^.x.w.3.( ~ q U U 0 6 6 6 6 6 6 R o.R 0 ",
"0 I 0 6 q 6 6 6 6 q Y l 8 ; ; - - - - - ; ; ; = = = = ; 1 u v _ e.m.}.+X@X+X X[.[.).^.b.h.a.6.) ~ | Y U R R 0 6 6 4 6 6 T [  .L ",
"6 0 U U { q 6 6 6 U R U , X X X X . X X X X X X X X X = m 0.c.).{. XoX+X@XOX).x.j.h.w.4.6.p.<./ 0 I 0 0 T R U 6 6 I 0 6 0 / R. .",
"6 U W U P 6 6 P 0 U U 6 2 @ * ; ; ; r t u u i a b B _ 3.s.m.}.+X+XOX}.).M.m.h.w.0.9.6.) ' ,. .7 4 4 6 6 0 U U 6 q | I 6 6 7 / L ",
"6 0 U 0 6 6 6 P 6 6 6 6 4 5 k B B B 3.9.9.9.9.e.x.^.'.[.{. XXXXX+XXXc.w.8.8.4.4.4.3.) q q / 7 6 6 6 6 6 6 6 6 6 6 I 0 6 6 q 6 6 ",
"6 6 6 6 6 6 6 6 6 0 I 0 6 0 l ) ) ) 3.9.0.9.q.s.k.n.^.^.m.m.m.m.m.m.h.w.d.f.k.c.j.w.( 2 4 4 6 6 6 6 6 6 6 6 6 6 6 6 6 6 q R P 4 ",
"6 6 6 6 6 6 6 6 6 I | I 4 6 0 q q j ) 3.2.2.3.3.4.8.9.0.0.0.0.w.w.a.d.c.).XX*X:X%X^._ $ 2 4 6 6 6 6 6 6 0 0 6 6 6 6 q 6 6 P 6 6 ",
"6 6 6 6 6 6 6 6 4 0 I 6 6 q 6 6 6 0 l ) ` ` h h _ 8.a.h.x.m._.{.).^.{.OX*X2XwXyXwX:Xx._ g 3 4 6 6 6 6 6 T T 0 4 6 q { P 6 6 6 6 ",
"6 6 6 0 U U 6 6 7 / 7 6 q ] q 6 4 6 0 q ^ Y 3 * B d.~..X=X7XtXuXqX3X3X4X6XwXpXlXlXpX1Xm._ , 3 4 4 6 4 0 T T 0 4 6 6 P P U U 6 6 ",
"6 6 P R R U 6 4 / R./ 6 q U 6 6 4 4 4 0 l l h v 8.~.$X3XrXsXjXzXsX9X:X%X2XyXhXvXnXlXqX+X9.u 5 4 4 4 6 6 0 0 6 6 6 6 P R R U 6 6 ",
"6 0 R o.R 0 6 6 7  .7 6 T R P 6 6 0 e q x $.4.e.m.XX7XsXjXzXzXzXsX6X{.x.+XwXhXcXnXcXuX>Xk._ l 4 4 0 e 0 6 6 q 6 6 0 R o.R P 6 6 ",
"6 U R R P 6 6 6 6 4 4 0 R +.R 6 0 Z F Z M 2.f.M.XX1X0XsXfXjXzXzXpX6X Xc.).@X8XdXcXcXhXwX Xs.( 2 3 Z N.Z 0 Y #.^ 6 U R R P 6 6 6 ",
"6 U U P 6 6 6 6 6 P 6 6 P R R 6 e K C.S S 2.c.oX1X9XtXuXtXuXjXzXiX6X*X{.c.k.+XwXhXvXcXpX2X^.M + 8 N.P.B.e #.!.*.P U U P 6 6 6 6 ",
"6 6 6 6 6 6 6 4 P | I 6 6 0 0 6 w Z J H H 4.M.:X9XpXsXaXsXsXfXfXuX8X>XoXk.9.k.oXwXkXcXhX4X[.B + < Z B.Z 0 ^ *.^ 6 6 6 6 6 6 6 6 ",
"6 6 6 6 6 6 6 6 6 I 6 6 6 6 6 4 8 s S 5.5.9.'.4XpXzXzXzXzXzXsXyXwX4X-X}.f.2.4.f.&XyXhXdX4X).N + , 0 e 0 6 P U U 6 6 6 6 6 6 6 6 ",
"0 U 0 q 6 6 6 6 6 6 q 6 6 6 q ~ 8 : n 7.4.9.{.8XgXbXbXbXbXxXdXwX@Xb.g.q.2.H y.'.>XeXpXeX@Xh.a + < 4 6 U U R R U 0 U q q 6 4 6 6 ",
"6 6 P { I P 6 6 6 q R P 4 4 ^ =.8 # d 4.2.8.{.8XsXzXbXbXbXcXpX,Xg.y : : s 5.H.,X5XeXeX4Xn._ 1 $ 3 6 U R W W R P 6 6 q { I P 0 6 ",
"4 6 6 q I | I 6 6 6 P 6 6 6 q ^ 3 $ 8 b N 4.).2XtXsXgXhXjXpX-Xz.5.s V S r.u.H.|.,XwX5X-Xe.u * , 4 6 U W o.W U 6 4 6 6 q I | I 6 ",
"P 6 6 6 0 I 0 6 6 6 6 6 6 6 6 4 4 4 2 * u ;.v.$X3X0XtXuXpXwXk.y C r.u.F.J.J.u.t.|.<X,X}.1.# , 4 4 0 R W W R U 6 q 6 6 4 6 I 0 6 ",
"W P 6 6 6 6 6 6 6 6 6 6 6 6 6 6 6 P 6 2 k ;.d._.:X0XuXsXhXwXf.: C u.G.K.#XK.F.t.l.H.H.g.d . , 4 6 U R E [ U 0 P R P 4 6 6 6 6 6 ",
"P q c q 6 6 6 6 6 0 0 6 6 P 6 6 6 U U ! ,.:.w.v.=XtXgXzXvXiXk.: J F.K.L.L.K.G.u.5.S H S ; X < 4 6 U U O.E.O.7 6 P q c q 6 6 6 6 ",
"4 c D.c 6 6 6 4 0 T R P I | I 4 6 6 Q T.(.<.:.d.XX0XgXbXbXpXk.= C u.J.K.K.J.F.r.V : > : = 5 5 4 6 6 Q T.`.E.! 6 4 x D.M 6 6 6 6 ",
"6 q M q 6 6 6 4 0 R +.R P I 0 6 6 6 7 O.T.O...8.{.9XgXbXbXuXk.; f r.u.F.F.F.r.C > o X X , 0 6 4 6 6 7 O.E.>.[ P 4 q M q 6 6 6 6 ",
"6 6 4 6 6 6 6 6 6 P R R U 6 6 6 6 6 6 7 Q L ( 6.{.8XhXvXbXpX'.B f f C H H H C f y : o . 2 6 6 6 6 6 6 7 Q L P 6 6 6 6 6 6 6 6 6 ",
"6 6 6 6 6 6 6 6 0 z I U U 6 6 6 6 6 6 6 4 0 ( 4.{.8XdXcXzXpX+Xw.d O o o X & y G n b ; + 3 6 6 6 6 6 6 6 4 6 q 6 6 6 6 6 6 6 6 6 ",
"6 4 6 U U U 6 0 D Z.D q 6 6 6 6 6 4 6 6 6 Y ` 4.M.2XpXlXeX:X).8.p         X p H 1.B d t 9 6 6 6 6 4 4 6 6 U | I 4 4 6 U U U 6 6 ",
"6 q q R o.R 6 z Z.Y.Z.z 6 6 6 6 q ^ q 0 U T ) 2.b.-XeXpX;Xc.w.-.r .       + p G G B B m k 6 6 6 q Y q 0 T R Y 0 6 P q R o.R 6 4 ",
"I | Y R W R e w J Z.J q 6 6 6 4 ^ W.^ P P 5 v 5.z.#X<X<X].9.N t %       + * r p t t t t 9 4 6 4 Y W.^ U R R 0 4 q | Y R W R e 0 ",
"0 I q U U %.N.Z w z q R P 4 6 6 q ^ P P < # s t.H.|.#X|.l.1.t X       . , 4 , + X X . @ 2 4 6 6 q ^ P U U U 6 6 6 I q U U %.N.A ",
"6 6 6 0 e B.P.B.e 6 6 P 6 4 6 6 6 4 6 4 $ o n i.H.J.J.z.y.1.r . . @ @ , 4 T 4 , $ @ @ , 3 4 6 6 6 4 6 6 6 6 6 6 6 6 6 0 e N.P.V.",
"6 6 6 U U Z B.Z 0 6 6 6 6 6 6 6 6 6 6 5 $ o H z.H.H.z.g.q.2.t X $ 4 6 4 6 q 6 4 5 5 5 4 4 6 6 6 6 6 6 6 6 6 6 6 6 6 6 U U Z B.A ",
"6 6 6 0 6 0 e 0 6 6 6 6 6 6 6 6 6 6 6 4 < , c 7.q.7.6.3.%.` 8 $ 2 q } I 4 4 6 6 6 6 6 6 6 6 6 6 6 6 6 6 6 6 6 6 6 6 6 0 6 0 e q "
};
