/* XPM */
static char *anbi0_ru0tc[] = {
/* columns rows colors chars-per-pixel */
"64 64 215 2 ",
"   c None",
".  c #020202",
"X  c #050608",
"o  c #09070A",
"O  c #07090B",
"+  c #0B0C0D",
"@  c #080507",
"#  c #100D0A",
"$  c #150C08",
"%  c #1B140B",
"&  c #0C0E10",
"*  c #0F1111",
"=  c #121414",
"-  c #161618",
";  c #171A1B",
":  c #1B1B1D",
">  c #1A1715",
",  c #0D100E",
"<  c #21180E",
"1  c #221D15",
"2  c #231E1B",
"3  c #241410",
"4  c #1E201F",
"5  c #26231C",
"6  c #36291F",
"7  c #1D1E21",
"8  c #201F22",
"9  c #1F2023",
"0  c #232424",
"q  c #242528",
"w  c #26292B",
"e  c #2B2C2C",
"r  c #292626",
"t  c #342B28",
"y  c #332925",
"u  c #2E302F",
"i  c #3B332D",
"p  c #36332C",
"a  c #2D2E31",
"s  c #2E3132",
"d  c #343435",
"f  c #393635",
"g  c #3A3A35",
"h  c #353639",
"j  c #393739",
"k  c #363938",
"l  c #39393A",
"z  c #373933",
"x  c #463C36",
"c  c #433725",
"v  c #3E413E",
"b  c #47423A",
"n  c #564739",
"m  c #65533F",
"M  c #3C3D42",
"N  c #363F44",
"B  c #3D4043",
"V  c #3E484E",
"C  c #3F4A50",
"Z  c #434444",
"A  c #464845",
"S  c #44464B",
"D  c #474A4B",
"F  c #4B4B4D",
"G  c #4A4744",
"H  c #544A46",
"J  c #55524F",
"K  c #5F564D",
"L  c #4C4E52",
"P  c #424D53",
"I  c #504E52",
"U  c #4D5154",
"Y  c #4B5359",
"T  c #535454",
"R  c #5A5955",
"E  c #53555A",
"W  c #56595C",
"Q  c #5A5C5C",
"!  c #595553",
"~  c #4C504F",
"^  c #675746",
"/  c #625B54",
"(  c #6A645D",
")  c #746256",
"_  c #70604B",
"`  c #5A5D62",
"'  c #575B60",
"]  c #5C6163",
"[  c #5D656B",
"{  c #626465",
"}  c #63666B",
"|  c #66696B",
" . c #6B6C6E",
".. c #686665",
"X. c #7B736B",
"o. c #656B71",
"O. c #6B6C71",
"+. c #6D7074",
"@. c #727375",
"#. c #73747B",
"$. c #757B7D",
"%. c #7A7C7C",
"&. c #7B7677",
"*. c #846E57",
"=. c #8A775E",
"-. c #89776A",
";. c #987F66",
":. c #867E77",
">. c #8D827A",
",. c #99897B",
"<. c #9A8265",
"1. c #A28B6E",
"2. c #A68D75",
"3. c #B29779",
"4. c #A79179",
"5. c #7B7D83",
"6. c #727D83",
"7. c #6D7980",
"8. c #807E83",
"9. c #7D8183",
"0. c #7E818A",
"q. c #7F8B92",
"w. c #838485",
"e. c #838589",
"r. c #86898D",
"t. c #898A8C",
"y. c #898784",
"u. c #938A83",
"i. c #978F8C",
"p. c #9A938B",
"a. c #8B8D92",
"s. c #8C8C96",
"d. c #8C9194",
"f. c #8F979A",
"g. c #929495",
"h. c #93949B",
"j. c #96999C",
"k. c #9A9C9C",
"l. c #9A9491",
"z. c #908F9E",
"x. c #B89E85",
"c. c #A99F9B",
"v. c #ABA39B",
"b. c #9A9DA2",
"n. c #989AA5",
"m. c #9DA1A3",
"M. c #9AA3A9",
"N. c #A1A3A6",
"B. c #A3A4AA",
"V. c #A5A9AB",
"C. c #A9ABAD",
"Z. c #A9A5A6",
"A. c #B7ADA9",
"S. c #B3B0AD",
"D. c #A3A3B2",
"F. c #ABADB3",
"G. c #A9ACB8",
"H. c #ACB2B5",
"J. c #ACB6BC",
"K. c #B1B3B6",
"L. c #B3B4BB",
"P. c #B5B9BC",
"I. c #BBBCBD",
"U. c #B9B1B0",
"Y. c #BBBDC2",
"T. c #BDBECC",
"R. c #B2B8C3",
"E. c #BCC1C6",
"W. c #BDC4CA",
"Q. c #BFC9CF",
"!. c #C2C4C6",
"~. c #CBC4C4",
"^. c #C3C4CB",
"/. c #C6CACD",
"(. c #C9CBCE",
"). c #D2CCCD",
"_. c #C4C4D2",
"`. c #CBCCD3",
"'. c #CCCCD9",
"]. c #C3CDD3",
"[. c #CDD0D6",
"{. c #C6D1DC",
"}. c #CBD5DB",
"|. c #CDD8DD",
" X c #D2D2D6",
".X c #D1D4DB",
"XX c #D4DADC",
"oX c #D9DBDD",
"OX c #D3D0CC",
"+X c #CFD9E2",
"@X c #D4D5E1",
"#X c #D4DDE6",
"$X c #DCDDE2",
"%X c #DCDCE9",
"&X c #DDE1E5",
"*X c #DCE2EB",
"=X c #DAE4EA",
"-X c #DDE7F1",
";X c #DDE8F1",
":X c #E3E4EC",
">X c #E4EAED",
",X c #E9ECEF",
"<X c #E3E2E4",
"1X c #E5E6F1",
"2X c #E4EBF2",
"3X c #EDEEF5",
"4X c #EAEBF3",
"5X c #EEEFF8",
"6X c #E6EEF8",
"7X c #EDF0F5",
"8X c #EDF4FA",
"9X c #EEF8FB",
"0X c #E7F0F6",
"qX c #F2F3FC",
"wX c #F1F4F8",
/* pixels */
"                                                                                                                                ",
"                                                                                                                                ",
"                                    Z Z A Z l l Z Z Z Z A Z B B B Z F S M M M M Z Z                                             ",
"                                    Q Q Q Q Q { ..| | ..} } { { { { | | { ` W E E E                                             ",
"                                A Q %.r.t.g.m.V.C.C.C.V.B.B.V.B.N.N.B.B.B.n.a.e.e.#.L h                                         ",
"                                s Z { @.#.9.d.j.j.N.P.!.(.`.`.[.`.[. X.X.X`.Y.K.K.j.} L                                         ",
"                            e 0 = = : 0 0 e a a e F t.K.^.`.`..X&X>X>X>X:X:X:X&X$X!.j.#.E M                                     ",
"                            e e e 0 + . X X X . . : ! %.d.N.P.(.$X,X3X7X7X8XqXqX3X$XY.j.o.E                                     ",
"                        0 e s F %.@.f = ; : : ; ; : 0 q e F r.K.(.oX>X3XqXqX7X3X3X1X$X!.n.#.E M                                 ",
"                        0 d F  .g.w.A 0 e e e e e 0 * X . 7 E e.C.^.oX>XqXqX3X4X4X4X3X*X^.n.o.E                                 ",
"                        0 Z >.d. .L l f f f d f f a 0 : : : 7 Z e.K./.$X3XqX7X4X4X4X5X3X1X`.j.+.L l                             ",
"                        A ( t.w.F f l l l l l l l d a e a q & : T e.F.(.$X4X3X4X4X4X5XqXqX:XY.r.E l                             ",
"                    : A w.t...F l l l l l l l l k h d h l h 0 : : Z w.H./.@X:X4X4X4X8XqXqX1X`.b.` l                             ",
"                    0 F j.k.! d f l l h l l l l h h h l M M d 0 + : E e.K. X<X4X4X4XqXqX5X1X@XF.@.T                             ",
"                    0 F g.k.Q f l l f f l l h h h h h h l l k s 0 : 9 L b. X<X4X3X5XqXqXqX4X@XY.g.@.W S                         ",
"                    0 F g.j.Q l l l f f l l h f h h h h k k l k d 9 X e a.`.<X3XqXqXqXqXqX4X@XY.B.9.W A                         ",
"                t e r F g.j.Q k l l l l l l l h k k k k k k k l l w O 0 5.Y.<XqXqXqXqXqXqX1X.XY.N.9.E v                         ",
"                e e e A %.w.T l l l l l l l l l k k k k k k k k l a = 0 Q g.`.3XqXqXqXqX4X%X'.Y.N.9.T l                         ",
"                e e d l T T A l l l l l l l l l k k k k k k k k l d w 9 0 L C.$X3XqXqX4X%X.X`.Y.B.w.T v                         ",
"                e e l l l l l l l l l l l l l l k k k k k k k k k h s : . e h..X2XqX8X1X.X_.`.E.V.w.W Z                         ",
"                e d l l l f l l l l l l l l l l k k k k k k k k l k e : . e a.`.:X8X5X:X'._.`.!.C.w.Q Z                         ",
"                e e l l l f l l l l l l l l l l k k k k k k k k l f e : X a a.`.:X8X5X:X'._.`.!.C.w.Q Z                         ",
"                0 e d k l l l l l l l l l l l l l k k k k k k k k d e 7 O s g.`.1XqXqX1X@X'.'.!.V.w.T Z                         ",
"                0 e d f l l l l l l l l l l l l l l k k k k k k k d s 7 O s h..X2X5X4X:X@X'.^.P.B.w.W Z                         ",
"                e e f l l l l l j j j j j j j j l l l l l l l l l k s : X a g..X2X4X%X@X'._.G.B.m.e.Q Z                         ",
"                e u f l l l l f j j j j j j j j l l l l l l l l l d 0 : - Z b..X<X:X@X'.'.T.D.n.g.%.! Z                         ",
"                e e f l l l l f j j j j j j j j l l l l l k f f d 0 = - k o.F.[.XX@X'.'.'.T.D.s.5...F v                         ",
"                e e f l l l l j j j j j j j j j l l k f f f f d u 4 X ; E a.P.`.'.'.'._.T.R.D.s. .E A v                         ",
"                e e d k l l l j j j j j j j j j l l k f d d s s d 0 X :  .m.Y.`.`.`.`.T.L.D.n.r.` F                             ",
"                0 e d f l l l l l j j j j j j j l l k f d u e e q 4 = l e.K.!./.`.^.T.L.D.n.z.5.E Z                             ",
"                0 e e f l l l l l j j j j j j l l l k f s e e 9 * = h | N.!.^.^.^.Y.G.B.n.h.5.} L Z                             ",
"                0 e e d f f f f d d d f h f d d f f d e 0 : : ; = e Q e.C.E.Y.Y.Y.K.N.n.h.0.} E F Z                             ",
"                    e e e e e e w w e a a a e e e e e 8 * X X = k Q 5.g.m.B.N.N.B.N.n.s.5.o.E F                                 ",
"                    e 0 0 : : : ; ; 7 7 9 8 : : : : - - - ; : k ] 9.g.b.k.h.a.r.r.r.e.$.} W L Z                                 ",
"                        + O O O O O O O O O o o X X o : l E  .%.r.d.k.m.m.g.5.+.O.} ' E L L                                     ",
"                        . X * = = = - ; : ; : : 0 r e M { 0.g.b.k.h.d.r.r.%.} W W U S B S S                                     ",
"                            f f d k S F F F L Q O.&.%.5.r.d.j.b.m.d.O.W E U D S S S                                             ",
"                            F F A F Q Q Q Q {  .8.t.a.r.e.0.0.0.e.$.` U U E Q ` W L                                             ",
"                                    F F F F F T E Q ' ' W W E W W ' ] | $.t.j.j.r.{ 9 .                                         ",
"                                    Z Z Z l d h Z L U W ` [ o.o.} o.5.d.m.K.^./.P.r.S 7                                         ",
"                                            & 7 S } #.r.n.H.E.E.H.C.H.P.I./.&X>X&X!.s.' q .                                     ",
"                                            - e W 0.n.J.].#X6X2XXXE.H.H.!.XX,XqXqX<XY.5.d &                                     ",
"                                        A A F W $.n.Q.#X-X2X0X2XXXH.$.%.H.oX,XqXwX:X/.g.L e                                     ",
"                                        Z J | 9.f.J.|.;X-X2X6X:X}.V.+.| g.I.oX,XwX4XXXF.@.F                                     ",
"                                    t i x ! %.j.H.W.{.|.{.#X2X2X[.H.d.#. .9.P.oX7XqX,X`.b.} 0 .                                 ",
"                                    x x b Q t.H.].|.|.{.{.+X*X*X`.I.V.w.W W r.K.oX7X7X$XK.@.0 .                                 ",
"                                y f H H G ( k./.=X;X;X-X-X*XXX[.`.!.C.y.R A T %.P.$X,X$XK.@.q .                                 ",
"                                2 t H ! G { B.}.2X8X8X8X8X2X.XY.N.i.:...G b ! &.S. X<X`.b.` 7 .                                 ",
"                                # 2 G ! A { V.XX2X8X9X9XqX4XoXZ.! y r y t H u.U.~.). XK.#.M = .                                 ",
"                                . > d b B ] M.].&X;X>X2X4XoXS.&.i % 3 6 x ) i.U.~.).~.k.I 8 O .                                 ",
"                                    = : s W d.J.Q.}.}.XXoXK.Q i x n ^ ) -.-.) -.A.~.I.w.d o                                     ",
"                                    . * s Y 6.M.R.].}.XXXXN.u % n *.;.4.x.,.^ ^ u.c.l...2 .                                     ",
"                                        N P [ q.J.|.=X2X0XH.k < m ;.3.x.x.4.-._ ^ K / b = .                                     ",
"                                        V P Y 7.J.+X2X9X9XK.k % m <.3.3.3.1.=.^ i 5 y r + .                                     ",
"                                            C o.V.|.2X9X9XH.f % n *.<.1.1.=.^ c < # # #                                         ",
"                                            B [ M.}.>X9X9XP.F 2 i n ^ _ _ ^ b y 1 # . .                                         ",
"                                            M ] B..X>X9X9X/.#.v 5 % 1 1 1 5 i g z 0 + .                                         ",
"                                            l Q k.(.>X,XXXJ.9.D - . . . . , p A A k 5 =                                         ",
"                                            l R t.I.<XoXN.#.] M = . . . . * d A A b k d                                         ",
"                                            x R y.S.OXI.%.~ l w + . . . . = e h d d d d                                         ",
"                                        . > x ( u.v.A.l.( k : + . . . .     ; - = = = =                                         ",
"                                        . > n X.,.p.u.X.! u + . . . . .     O X . . . .                                         ",
"                                        . 2 / :.>.:.X.( J k = .                                                                 ",
"                                        . 2 / >.>.X.( / J g = .                                                                 "
};
