/* XPM */
static char *airda_0syag[] = {
/* columns rows colors chars-per-pixel */
"64 64 239 2 ",
"   c #07070A",
".  c #0B0B0D",
"X  c #100B0E",
"o  c #0D0C11",
"O  c #0E0B18",
"+  c #120D13",
"@  c #130D1A",
"#  c #0E1113",
"$  c #131415",
"%  c #141519",
"&  c #181718",
"*  c #1B1C1D",
"=  c #211F1E",
"-  c #26211F",
";  c #140E21",
":  c #150E29",
">  c #151125",
",  c #1B1C22",
"<  c #191429",
"1  c #19132D",
"2  c #1D1536",
"3  c #1E1639",
"4  c #1F193A",
"5  c #231C24",
"6  c #251A36",
"7  c #2C1A37",
"8  c #20173D",
"9  c #22193C",
"0  c #2A1D3C",
"q  c #331D38",
"w  c #1D2121",
"e  c #222324",
"r  c #2A2727",
"t  c #242629",
"y  c #26292B",
"u  c #2A2B2C",
"i  c #372B29",
"p  c #352D2D",
"a  c #36322E",
"s  c #282134",
"d  c #2D2E31",
"f  c #26213B",
"g  c #2B253C",
"h  c #2E2A3E",
"j  c #362837",
"k  c #322C3D",
"l  c #2F3132",
"z  c #333435",
"x  c #3B3435",
"c  c #363837",
"v  c #363639",
"b  c #39363A",
"n  c #373939",
"m  c #393A3B",
"M  c #4A2839",
"N  c #453735",
"B  c #433B3C",
"V  c #563538",
"C  c #653939",
"Z  c #71383A",
"A  c #3E403F",
"S  c #4F403B",
"D  c #59423B",
"F  c #6E4C3B",
"G  c #211741",
"H  c #231A42",
"J  c #291E45",
"K  c #24194A",
"L  c #281E49",
"P  c #321C41",
"I  c #261A53",
"U  c #291B56",
"Y  c #291B5A",
"T  c #1F2546",
"R  c #252546",
"E  c #2E2943",
"W  c #2C224C",
"Q  c #322D43",
"!  c #352649",
"~  c #2D364A",
"^  c #353243",
"/  c #3C3B43",
"(  c #3A3849",
")  c #2E2451",
"_  c #262A5B",
"`  c #302552",
"'  c #342A57",
"]  c #342959",
"[  c #253654",
"{  c #3B3856",
"}  c #2B1D61",
"|  c #2D1F69",
" . c #2D216B",
".. c #3A2A65",
"X. c #3D3166",
"o. c #302372",
"O. c #453B44",
"+. c #4E3048",
"@. c #413568",
"#. c #4A3B79",
"$. c #3E4143",
"%. c #3E4049",
"&. c #3E4F58",
"*. c #274767",
"=. c #3D697E",
"-. c #434444",
";. c #4A4547",
":. c #43444B",
">. c #4B4C4C",
",. c #5B4C47",
"<. c #534B4B",
"1. c #444350",
"2. c #464B56",
"3. c #4C4D53",
"4. c #4F4E52",
"5. c #4D5253",
"6. c #4D5759",
"7. c #535354",
"8. c #5A5455",
"9. c #54555B",
"0. c #5D565A",
"q. c #545A5B",
"w. c #5B5B5C",
"e. c #6B564B",
"r. c #635958",
"t. c #785D55",
"y. c #56605F",
"u. c #796758",
"i. c #5B5D62",
"p. c #504970",
"a. c #625E62",
"s. c #5A6366",
"d. c #5D6364",
"f. c #4F6574",
"g. c #636364",
"h. c #6A6466",
"j. c #646569",
"k. c #66696C",
"l. c #6B6C6C",
"z. c #756D6C",
"x. c #676B73",
"c. c #6C6E72",
"v. c #6D7174",
"b. c #6F7578",
"n. c #727474",
"m. c #72747A",
"M. c #787678",
"N. c #75797C",
"B. c #7C7C7D",
"V. c #87473A",
"C. c #925039",
"Z. c #A45D31",
"A. c #AA6337",
"S. c #A6783A",
"D. c #935D41",
"F. c #935C51",
"G. c #886D4C",
"H. c #9B6345",
"J. c #897369",
"K. c #8C7D7B",
"L. c #B3843C",
"P. c #A28770",
"I. c #CA8846",
"U. c #D9A150",
"Y. c #E9AE44",
"T. c #2A6D87",
"R. c #4F4081",
"E. c #5D4C96",
"W. c #614F9C",
"Q. c #797C81",
"!. c #807F81",
"~. c #26899F",
"^. c #598089",
"/. c #7D8184",
"(. c #7E8489",
"). c #828384",
"_. c #878787",
"`. c #828489",
"'. c #85898C",
"]. c #8A8B8C",
"[. c #868A91",
"{. c #8C8E93",
"}. c #8E9193",
"|. c #8F979A",
" X c #919091",
".X c #929494",
"XX c #979697",
"oX c #93969A",
"OX c #96999C",
"+X c #9B9C9E",
"@X c #A98F87",
"#X c #A09C9F",
"$X c #9699A1",
"%X c #9C9EA2",
"&X c #A29FA2",
"*X c #9EA1A3",
"=X c #9FA4A9",
"-X c #A2A4A4",
";X c #A3A5AA",
":X c #A7A9AC",
">X c #AAACAD",
",X c #A8ABB4",
"<X c #B0ACB0",
"1X c #AEB2B6",
"2X c #B3B4B5",
"3X c #B2B5BA",
"4X c #B6B8BB",
"5X c #BABCBD",
"6X c #BBBDC2",
"7X c #BABDC8",
"8X c #C1BEC4",
"9X c #BDC1C3",
"0X c #BFC2C9",
"qX c #C5C7CA",
"wX c #C3C4CC",
"eX c #C4CCD3",
"rX c #C7CAD4",
"tX c #CACDD3",
"yX c #D0CDD0",
"uX c #CDD1D4",
"iX c #C8D2D9",
"pX c #CDD4DA",
"aX c #D2D6DB",
"sX c #D4D9DD",
"dX c #D8DADD",
"fX c #CFDAE1",
"gX c #D4DCE3",
"hX c #DADDE3",
"jX c #DCDEE9",
"kX c #DCE2E6",
"lX c #DBE6EB",
"zX c #DDE4EB",
"xX c #DFE9F1",
"cX c #E1E3E6",
"vX c #E2E5EC",
"bX c #E3E9EE",
"nX c #E7EBF3",
"mX c #E4ECF3",
"MX c #EAF1F7",
/* pixels */
"3 3 3 G K K 4 3 2 3 3 3 3 2 3 3 3 8 3 3 3 3 3 3 3 3 G K K 8 G 9 3 3 3 G K K 4 3 2 3 3 3 3 3 3 3 3 8 3 3 3 3 3 3 3 3 3 8 K K 8 3 ",
"3 3 G U U K 3 9 W 9 3 3 2 2 3 H 9 K 8 3 3 3 H 9 3 H Y U K W @.) 8 3 G U Y K 4 9 W H 3 3 3 3 3 G 9 K 8 3 3 3 H 9 3 3 G U U K 4 3 ",
"3 G U | U 8 3 W R.) j 9 9 H H ) H 3 3 3 3 9 ] H G  .o.] E { p.@.E f W ] ' E g Q p.' j 9 3 H G ) H 3 3 3 3 9 ] J 2 4 I | Y G 3 3 ",
"3 K U U G 3 3 9 W +.H.V 0 ] H 9 3 3 2 3 3 3 H [ _ o...( :.:.1.%./ / ( 1.:.%.%.:.{ +.H.C 0 ] L 9 3 3 2 3 3 3 H [ T G U U H 3 3 3 ",
"3 H K 8 3 3 3 3 7 D.U.H.j 9 3 2 3 3 G 3 3 2 R T.*.' { 9.j.c.v.v.v.c.v.m.N.m.x.k.i.t.P.G.^ G 9 3 3 3 G 4 3 2 T T.*.G K G 3 3 3 3 ",
"3 3 3 3 3 3 3 3 9 +.F.+.9 2 3 3 3 4 U G 3 3 R { 2.9.s.Q.}.;X1X3X3X3X3X4X4X3X,X$X(.c.h.3.^ 9 2 3 3 4 U H 3 3 4 _ R 3 3 3 3 3 3 3 ",
"3 8 3 2 3 3 3 3 4 U ..U 4 3 3 0 b 0 9 f h h Q 3.k.N.{.;X6XrXaXsXgXgXhXhXgXfXtX0X1XoXQ.x.9.^ E g ^ f 4 3 3 3 3 3 3 8 3 2 3 3 3 3 ",
"8 K 9 9 3 3 3 3 8 I U G 3 3 3 k G.b 8 Q :.:.3.c.}.;X6XpXzXvXvXmXmXnXnXnXmXbXbXvXhXwX1X$XQ.9.1.:.e.O.3 3 8 8 3 3 3 K G 9 8 2 3 3 ",
"3 3 9 ) H H 8 3 3 4 8 3 3 3 3 8 k g Q 3.k.n./.%X6XrXsXvXnXvXhXhXjXzXzXjXjXjXvXnXnXjXpX7X;X[.m.x.9.^ f 8 I Y H 3 3 3 9 ) J H 9 3 ",
"3 3 3 9 H ] H 3 3 3 3 3 4 3 2 2 8 Q 1.c..X:X6XuXjXvXvXvXjXtX0X0X0XwXwXwXwXwXtXhXvXbXbXzXfX7X,XoXb.1.k 8 I | Y G 2 3 3 9 9 ] L 2 ",
"G 3 3 3 3 9 3 3 3 3 8 K K 9 H 8 8 ( i.).>XqXsXhXhXaXwX=X'.N.v.c.v.m.m.m.m.m.Q.Q.$X7XpXhXjXgXrX3X'.w.{ R 8 I U G G 4 3 3 3 9 9 3 ",
"Y G 2 3 3 2 3 3 3 8 I U K H ] H 9 2.x.XX9XaXkXuX6X>X[.3., , * & * , , , , , , , :.`.,X7XtXjXhXqX%Xc.=.*.4 8 H G U H 3 3 3 3 3 3 ",
"G 0 b 0 3 3 3 2 3 K U U G 3 H 0 ~ f.(.>XuXuX9X.Xl.i.>.u % # # # # $ % % % % $ % t :.i.x.{.6XuXaX4X'.^.T.[ J X.` G 9 b g 3 3 3 3 ",
"3 k G.k 3 3 3 3 3 H K 8 3 3 3 g %.k.XX9XaX5X].>.* $ & t d y e t e e e y y y t t , % $ * :.'.4XdXqX*XN.6.^ ' E.#.H f u.;.2 3 2 2 ",
"3 9 k 0 3 3 3 3 3 3 3 3 3 3 8 ^ 7.Q.:X5X2X).>.u $ # w 5.j.:.z l l d d l z l l l t & $ % u >./.4XwX2X].w./ W X.) 3 8 k f 2 2 2 2 ",
"2 3 3 3 3 3 3 3 3 3 3 3 3 3 9 O.j..X4X:X_.>.* w u u A N.}.d.m m m c c c c c c n z u t t , & -._.>X5X+Xl.1.f 9 8 3 3 3 3 2 2 2 2 ",
") 9 6 j 9 3 3 8 K H 8 9 8 f ^ 9.B.-X5X_.>.d t >.l.c.c.n.l.5.m m m m c c c c c c c z z z y * u >.).4X:X/.q.^ f 3 3 3 3 3 4 4 3 3 ",
"E.W V A.V 9 H U U K W @.W h :.k..X<X2Xg.* * m n.-X-X}.g.-.m m m c c c c c c c c c m m c z u * & w.>X<X.Xk.-.h 8 3 3 3 H I K 8 3 ",
") j Z.Y.A.!  .o.U H X.W.@.Q :.l..X-X*X7.# $ c B.:X].l.>.m m m m m c c c c c c m m m m m z u * # >.XX-XXXn.>.k 8 3 H 9 I | Y G 3 ",
"I H V Z.V U o. .H 3 W X.W h :.l.}..X).-.$ * A N.XXl.-.m m c m m m m c c c c m m m m m b z u * $ m N..XXXM.5.^ 8 9 ] L I Y U P 6 ",
"Y I 9 q L U U H 3 3 3 9 8 h :.l.].c.-.u e >.n.n.g.>.m m m c c c m m c c c c m m m m m m c c y w y $.l.].n.>.^ 8 3 G 9 H K +.V.C ",
"Y U 8 3 H K G H 3 3 3 3 3 h :.l._.7.& $ u j.].g.m c c c m c c c m m c c c c m m m m m m m m c y * $ >.'.n.>.k 8 3 3 3 8 9 Z I.A.",
"U I 8 3 3 3 G ] H 3 3 3 3 h :.l._.5.$ $ u >.d.>.c z z c c c c m m m c c c c c m m m m m m m z y & . ;.'.n.>.k 8 3 3 3 K K j V.C ",
"[ H 3 2 3 3 3 J W 9 3 3 8 h :.k./.>.$ $ t z m m c c z c c m m m m m c c c c c c m m m m m c z u & . -.).v.:.Q W H 3 3 4 4 3 7 6 ",
"~.[ 3 G 3 3 2 L R.) j 9 8 Q :.w.k.m . $ y z c c c c c n b b m m m m m m m c c c m m m n m m n d * . c k.g.:.^ p.] 3 3 9 3 3 3 G ",
"[ 4 G ] G 3 3 9 W +.H.V 0 { :.7.w.z . % u z m c c n b b b b b b b m m m m c m c m m m n m m n d * . u w.q.>.O.! L K L X.` 3 3 U ",
"3 4 9 G 9 3 3 3 7 D.U.H.j Q -.7.q.z . % u z c c c c b b b b b b b m m m m c c c m m m b m c z y & . u w.7.<.e.j K I ..E.#.H 3 8 ",
"8 I I G 8 3 3 3 8 +.F.+.9 g / >.7.l . % y z c c c c b b b b b b b m m m m c c c c m m m m c z t $ . u 7.7.,.O.0 K K L X.` 9 G 9 ",
"8 I Y Y I 8 3 3 4 U ..U 9 9 g / :.u . & t l c c c c b b b b b b b m m m m m c c c n b m m m z t $ . e -.O.{ ] G H G 3 9 3 9 ] W ",
"3 G U  .Y G 3 3 4 I U G 3 3 8 ^ -.c y w w y l z c c b b b b b b b m m m m c c c c n b m m c d e * e u m Q U U G 3 3 3 3 3 3 G 9 ",
"3 8 U } Y I 8 3 3 8 8 3 3 3 8 h -.q.d.m $ * y l n c c n b b b b b m m m m m c c c m m b c d w $ z w.w.O.h 9 8 3 3 3 3 3 3 4 4 3 ",
"3 H U U U I 8 3 3 2 3 3 3 3 3 g / i.n.5.y w w y l z z c n m m m m m m m m m m c n z z z u e w y >.M.g./ g 8 3 3 3 3 3 3 8 I U G ",
"H ] J 8 8 8 3 3 3 3 8 K H 8 H 9 g %.q.d.d.c $ w u u y d n m O./ m b n m m m m n z u y y , $ z g.c.j.3.E L G 3 3 3 3 3 3 I | Y G ",
"9 H 8 3 9 3 3 3 3 8 I U K H ] H 4 ~ &.s.v.5.u e w * * w y z m b n z z z n n z y e * * * w y >.n.v.9.( L U U G 3 3 2 3 3 K Y _ T ",
"3 8 K H ` 9 3 3 3 K U U G 9 H 9 T *.&.>.6.j.k.n # . . . $ e u u u u y u u u e $ . o . . d d.k.w.7.:.^ 9 I U K 4 3 G 9 3 4 R T.*.",
"3 K } K G 3 3 G 8 H K G 3 8 f f E &.s.6.5.k.b.6.l z n z u e , * * * * * * * w y z c n z >.v.l.9.7.9.:.E H K K 4 9 ] L 3 3 3 [ T ",
"3 8 K 8 3 3 3 H 8 3 3 3 8 g ^ / %.d./.v.y.q.q.k.Q.{..X`.k.z # . . . . o o . y d.).}.].B.l.i.w.g.n./.k.:.h 9 3 3 3 H 9 3 3 9 3 2 ",
"3 3 3 3 3 3 3 3 3 3 H 9 g ( 9.j.v.}.:X}.b.j.s.N.[.oXOX].m.3.m m / / -.-.$.c -.l._..X.X'.N.j.k.N..X:X}.j.:.g 8 3 3 3 2 2 3 U H 3 ",
"3 3 3 3 3 3 3 3 3 H ] Q ( i.).OX>XqXuX3X|.[.'.Q.v.k.d.q.w.c.`.XX%X-X;X:X+X).c.w.9.w.g.k.n./.].XX2XuX5X{.j./ g 8 3 3 9 8 3 G 4 3 ",
"3 3 3 3 3 3 3 3 3 9 H Q >.n.*X5XuXkXcXuX3X%X[./.N.N.v.j.j.m.`..X%X=X;X;X+X`.n.j.j.c.N./.'..XOX*X5XaXqX>X'.g.1.g 9 8 ) H 3 3 3 3 ",
"3 3 3 8 K H 3 2 4 R 9 Q 3./.2XuXcXvXbXcXaX=XQ.`.oX:X1X$X/.k.i.i.d.j.k.k.j.w.j./.OX1X4X3X>X%XOX+X1XqXqX9X:X{.j./ g 8 G G H K 4 3 ",
"3 3 G U U K 3 2 R T.~ 1.j.).-XwXdXdXtX8X:X).k.Q.=X0XpX0X,XoX(.(.`.'.'.'.'.`.}.>X9XaXaXtX4X*X}.'.OX2X6XqX4X+Xn.:.h 8 8 I U K 4 3 ",
"3 8 U | U G 3 3 9 ~ %.a.).).B.%XqX6X;X!.i.3.3.N.;XrXzXkXgXsXpXpXpXaXsXsXsXaXsXhXkXcXhXtX4X%X`.v.Q.oX>X6X2X+Xv.>.k 9 I | Y G 3 3 ",
"3 K U U G 3 3 3 3 h :.g.B.!.Q.-XqX>XQ.7.d t z k.=XtXbXmXbXzXzXkXkXzXzXzXzXkXzXmXnXnXcXsX9X*X/.k.k.n.'.&X&XXXn.7.O.Q ) Y K 3 3 3 ",
"4 H K G 3 3 3 3 8 Q O.7.k.B. X2XyX+Xw.l $ . * 9.oXqXbXbXzXsXpXpXpXpXpXpXpXiXsXbXMXmXmXbXtX=X(.k.q.3.a.M.]..XB.g.7.:.Q G 3 3 3 3 ",
"3 3 3 3 3 3 3 3 H ' ^ :.9.n. X#X#XM.;.u & & * m j.1XcXkXgXgXgXgXgXgXgXgXgXgXgXkXzXmXmXmXiX;X/.s.-.d -.g.M.K.n.g.7.-.k 8 3 3 3 3 ",
"3 4 3 3 3 3 3 3 9 H 9 k :.j._.M.0.;.B p p p p 5 l {.aXaXpXkXbXlXlXlXxXmXmXmXzXpXsXbXmXbXiX=XQ.5.d % l 0.h.h.g.w.>.b g 3 3 3 3 3 ",
"8 K 8 9 3 3 3 3 3 3 9 f Q 3.h.8.B N N N V ,.,.p r h.%X5XtXsXkXgXgXgXgXgXgXgXgXiXpXlXMXmXeX|.x.2.t o e ;.<.<.<.;.O.b g 9 9 2 3 3 ",
"3 4 G ` H 9 3 3 3 8 U G 9 k -.m p i N D e.u.u.,.x -.g.-XtXpXiXiXiXeXeXeXeXeXeXiXgXmXMXmX9X(.s.%.t o * b O.B b x x b k ` J 9 8 3 ",
"3 3 3 G H ] H 2 3 3 G 3 2 6 e r p N D t.J.P.K.e.N N 8.;XhXhXgXgXgXfXfXfXfXgXgXgXlXmXmXkX3XQ.q.%.t . & x ;.8.<.O.B b g 9 G ] L 2 ",
"G 3 3 3 8 H 8 3 3 3 3 3 2 > o * p S e.J.@X@X@Xe.i N r.<XvXbXvXmXmXlXlXxXmXmXmXmXmXMXlXpX,XN.q.$.e o % l 8.z.h.8.;.x s 6 3 H 9 3 ",
"Y G 3 3 3 2 3 3 3 3 3 3 2 1 @ % = N e.J.@XP.J.S - N h.#XqXaXhXhXgXeXeXfXlXmXMXMXMXMXlXiX1X{.k.:.d : > 5 O.h.h.r.B 5 5 2 3 3 3 3 ",
"G 9 k 9 3 3 3 3 3 8 4 3 3 9 2 ; + i ,.u.J.u.,.i & B h._.&X6XrXrX7X;X=X9XpXmXMXMXMXmXkXrX3X$Xm.:.h 9 : o r <.0.8.p + 5 6 3 3 3 3 ",
"2 k G.k 3 3 3 3 8 I U G G ] H 1 ; 5 i x N a i r i B 8.a.M.>X8X:X}.N./.,XiXmXMXMXmXkXeX1XoXM.5.u < 2 > . & r p p 5 , F B 3 3 3 3 ",
"3 0 b 0 3 3 3 3 8 U | U G H 8 2 2 ; . . o X + r N B -.;.0.XX<X].k.9.j.%XrXcXMXMXkXtX3XOXm.>.u + @ 2 > o # $ + + > 2 k g 3 3 3 3 ",
"3 3 2 3 3 3 3 3 3 G U U K 3 3 3 2 1 ; ; > ; > 6 k b -.<.r.K.].M.g.3.w.}.4XuXhXdXtX4X%X).w.u & ; : 2 1 > < > ; ; 1 2 3 3 3 3 3 3 ",
"3 2 3 3 3 3 3 3 8 j H K K 3 3 3 3 2 2 2 2 2 9 8 0 k B <.r.g.h.g.w.:.7.).:X9XqXqX4X*X'.c.:.% O 1 2 3 2 2 2 2 9 3 2 3 3 3 3 3 3 3 ",
"3 2 3 H K K 3 9 N S.V 8 3 3 3 3 3 2 2 3 3 H ] H 8 6 e c ;.>.>.>.-.y m M.-X5XwX2X-X_.l.w./ < : 2 3 2 3 3 3 G ] J 3 3 3 H K K 8 3 ",
"3 9 9 U | U 4 j S.Y.S.j 3 3 3 3 8 J 9 8 I U L 9 2 ; o e a a a a r $ e k.XX>X>X+X).g.8.;.v 9 2 3 3 J 9 4 K U L 9 3 9 9 I | Y G 3 ",
"H ] J U } U 0 9 D L.F 0 3 3 3 2 J R.) H U U 8 3 2 : ; % & & & $ $ . * 7.n.M.n.l.7.x p k f 8 3 3 H #.] H U U G 3 9 ] L I } U J 6 ",
"8 H 9 K K +.V.M 6 j 0 U G 3 3 3 9 ) H H K K 4 3 2 2 2 @ . . .       & -.7.7.7.<.c $ + H H 2 3 3 8 W J H K K 8 3 3 H 9 H K ! Z V ",
"3 3 3 4 0 V.I.V.q 2 3 G 3 3 3 3 3 2 3 3 4 4 3 3 3 3 2 : > > > ; @   $ m w.g.g.8.c $ o 2 4 3 3 3 3 2 3 3 4 4 3 3 3 3 3 4 9 Z I.A.",
"3 3 4 K H M C.V 6 3 3 3 3 3 3 3 3 3 3 3 3 3 3 3 3 3 2 3 3 3 3 2 1 o $ m w.l.l.0.m $ o 1 3 3 3 3 3 3 3 3 3 3 3 3 3 3 3 K K M C.Z ",
"3 3 3 8 4 9 q 6 3 3 3 3 3 3 3 3 3 3 3 3 3 3 3 3 3 3 2 3 K I 8 3 2 2 W E E Q Q E 0 1 1 2 3 3 3 3 3 3 3 3 3 3 3 3 3 3 3 8 8 9 q 7 "
};
