/* XPM */
static char *ahnl1_34avr[] = {
/* columns rows colors chars-per-pixel */
"64 64 246 2 ",
"   c #030203",
".  c #0B0605",
"X  c #05040A",
"o  c #0B0C0D",
"O  c #120B0C",
"+  c #0C0C13",
"@  c #0C0A18",
"#  c #140E15",
"$  c #0E1014",
"%  c #141414",
"&  c #181718",
"*  c #1A1B1C",
"=  c #221C16",
"-  c #1E211F",
";  c #27221D",
":  c #32261E",
">  c #130E24",
",  c #160F29",
"<  c #181525",
"1  c #1D1E21",
"2  c #16122B",
"3  c #19132C",
"4  c #1D1536",
"5  c #1F1A35",
"6  c #1E1639",
"7  c #1E1A3C",
"8  c #241D26",
"9  c #221B35",
"0  c #2B1B36",
"q  c #20173D",
"w  c #22193C",
"e  c #2B1C3B",
"r  c #351E38",
"t  c #1F2022",
"y  c #172629",
"u  c #122839",
"i  c #222425",
"p  c #2B2926",
"a  c #25262C",
"s  c #27282B",
"d  c #2B2C2D",
"f  c #392E26",
"g  c #2E302F",
"h  c #38332C",
"j  c #252332",
"k  c #2B2731",
"l  c #2C2C32",
"z  c #26223B",
"x  c #2B243D",
"c  c #2D293E",
"v  c #37293A",
"b  c #2E3132",
"n  c #2F303B",
"m  c #343535",
"M  c #3B3637",
"N  c #363837",
"B  c #353639",
"V  c #37393A",
"C  c #3A3A3A",
"Z  c #472739",
"A  c #5A2F37",
"S  c #4E3733",
"D  c #433B37",
"F  c #6F373A",
"G  c #66383B",
"H  c #48433C",
"J  c #544539",
"K  c #7C4434",
"L  c #6E5239",
"P  c #211741",
"I  c #231A44",
"U  c #281D46",
"Y  c #24194B",
"T  c #291E4A",
"R  c #311D47",
"E  c #261A52",
"W  c #281A56",
"Q  c #251E58",
"!  c #291B5B",
"~  c #1E2448",
"^  c #1D2C5B",
"/  c #2B2642",
"(  c #282947",
")  c #2B214C",
"_  c #332A49",
"`  c #353545",
"'  c #3C3D43",
"]  c #3C3C4A",
"[  c #2B2554",
"{  c #312655",
"}  c #312A53",
"|  c #342959",
" . c #36285C",
".. c #213857",
"X. c #3B3A56",
"o. c #2B1E63",
"O. c #2D1F69",
"+. c #3A2C63",
"@. c #2F2270",
"#. c #44334B",
"$. c #623E47",
"%. c #42326B",
"&. c #483A77",
"*. c #3F4046",
"=. c #3E404B",
"-. c #154B76",
";. c #274C67",
":. c #28627C",
">. c #434444",
",. c #484947",
"<. c #43434B",
"1. c #4B4C4B",
"2. c #544B43",
"3. c #5B5349",
"4. c #454956",
"5. c #4A4C52",
"6. c #4E5052",
"7. c #49565C",
"8. c #535454",
"9. c #595857",
"0. c #53555A",
"q. c #5B5D5C",
"w. c #6F5448",
"e. c #695C53",
"r. c #5F615C",
"t. c #746549",
"y. c #6B6359",
"u. c #7A6758",
"i. c #555760",
"p. c #565A61",
"a. c #5A5C62",
"s. c #4E5170",
"d. c #5D6164",
"f. c #5F6469",
"g. c #5F6870",
"h. c #626465",
"j. c #636669",
"k. c #676A6B",
"l. c #746E6A",
"z. c #666B73",
"x. c #6B6D72",
"c. c #6D7174",
"v. c #6C7379",
"b. c #73757A",
"n. c #767878",
"m. c #76797C",
"M. c #874A3A",
"N. c #9A5835",
"B. c #A55F3C",
"V. c #9F753C",
"C. c #A8663E",
"Z. c #C97E37",
"A. c #8F5748",
"S. c #92694A",
"D. c #B77945",
"F. c #857568",
"G. c #957D69",
"H. c #897D73",
"J. c #BA8C3E",
"K. c #E0983E",
"L. c #8A8078",
"P. c #9C8876",
"I. c #A28975",
"U. c #AD917B",
"Y. c #CC9249",
"T. c #DCAB45",
"R. c #136192",
"E. c #256F8A",
"W. c #5F4E99",
"Q. c #6F7C85",
"!. c #757C82",
"~. c #7B7E82",
"^. c #128EBB",
"/. c #7D8184",
"(. c #7F8288",
"). c #7F8D95",
"_. c #15A9D2",
"`. c #828485",
"'. c #83858A",
"]. c #86898C",
"[. c #898A8B",
"{. c #978E87",
"}. c #8B8D93",
"|. c #898A96",
" X c #8E9194",
".X c #8B9298",
"XX c #919394",
"oX c #92949A",
"OX c #95999C",
"+X c #989A9B",
"@X c #AF9885",
"#X c #A3A29D",
"$X c #9A9BA4",
"%X c #9FA1A6",
"&X c #9CA5AB",
"*X c #9EA9B1",
"=X c #A2A4A5",
"-X c #A3A5AB",
";X c #A5A9AD",
":X c #A9AAA9",
">X c #B6AEA8",
",X c #A5A8B2",
"<X c #AAADB2",
"1X c #ADB2B5",
"2X c #ADB4BA",
"3X c #ADB8BE",
"4X c #B2B5BC",
"5X c #B5B9BD",
"6X c #B9BBBB",
"7X c #BDC0BE",
"8X c #C4C2BF",
"9X c #B7BAC3",
"0X c #BBBDC3",
"qX c #B4C0C7",
"wX c #BDC2C5",
"eX c #BEC2C9",
"rX c #C2C4CB",
"tX c #C5C9CD",
"yX c #C8CACA",
"uX c #C6C7D2",
"iX c #C9CBD3",
"pX c #C9CCD6",
"aX c #CCD2D5",
"sX c #C7D2D9",
"dX c #CDD4DA",
"fX c #D2D4DB",
"gX c #D4D9DD",
"hX c #D9DBDC",
"jX c #DAE0DF",
"kX c #CCDAE3",
"lX c #D6DBE4",
"zX c #DADDE4",
"xX c #DCE1E6",
"cX c #D7E4EC",
"vX c #DCE5EB",
"bX c #DDEAF2",
"nX c #E0E4E7",
"mX c #E2E5EB",
"MX c #E4EAEE",
"NX c #E5E7F0",
"BX c #E5ECF2",
"VX c #EAEDF3",
"CX c #E6F1F7",
"ZX c #EDF1F6",
"AX c #EEF2F9",
"SX c #F1F4FB",
/* pixels */
"6 6 6 I Y I 6 6 6 6 6 6 6 6 6 6 6 q 6 6 6 6 6 6 6 q I Y Y w I q 6 6 q P Y Y q 6 6 6 6 6 6 6 6 6 6 q 6 6 6 6 6 6 6 6 6 P Y Y 6 6 ",
"6 6 Y ! W P 6 U [ 6 6 6 6 6 w I P I 6 6 6 w / c / ( } } _ X.X._ x x / } } / x c _ x x c c x w I w Y q 6 6 q U w 6 6 P ! ! Y 6 6 ",
"6 I o.O.Y 6 6  .&.e v 6 w I U ) w 6 6 6 6 / ] =.=.=.=.<.4.7.7.<.] ] =.=.] ] ] =.4.=.<.<.<.] / { I 6 6 6 6 w | I 6 q W O.! P 6 6 ",
"P Y ! Y 6 6 6 w _ w.S.Z ) | w w 6 6 6 q z ] p.f.f.k.c.b.!.m.b.c.c.c.c.c.c.c.c.c.c.x.k.j.j.p.] / q 6 6 6 6 6 I ..~ I W W P 6 6 6 ",
"q Y I 6 6 6 6 6 Z D.Y.w.e w 6 6 6 q P z ` 0./. X.X$X<X2X4X2X1X<X<X1X1X1X<X<X<X<X<X-XXX].].n.8.` z 6 P 6 6 6 ~ E...P Y q 6 6 6 6 ",
"6 6 6 6 6 6 6 6 w $.A._ 6 6 6 6 6 U } ] 0.!.-X5X9XeXaXfXfXfXdXaXtXtXtXrX5X;X.X'.'.~.x.j.j.9.C k j w E P 6 6 7 [ I 6 6 6 6 6 6 6 ",
"6 6 6 6 6 6 6 6 P  .+.Y 6 6 6 x M / ] p./.-XiXxXvXmXmXmXMXMXmXzXiXrXrX5X;X~.>.s s s 1 * * * % & i j w 6 6 6 6 6 6 q 6 6 6 6 6 6 ",
"P I w w 6 6 6 6 P W E q 6 6 6 #.t.<.p./.;XtXxXVXAXAXZXZXZXBXvXfXeX;X.X~.x.6.i + $ + o o o * m C m l j 9 w q 6 6 6 Y w P q 6 6 6 ",
"6 6 U ) w I 6 6 6 6 6 6 6 6 q v <.p.(.;XiXxXMXVXAXAXAXAXVXmXfX0X;X~.>.s i t i i i i 1 1 t ' n.~.8.B k j T ! I 6 6 6 w [ I I w 6 ",
"6 6 q w ) { q 6 6 6 6 6 6 q x ] i.~.<XiXnXVXBXVXAXAXAXVXmXfX0X$Xm.5.i + + * s l l l d d l <.b.`.c.0.C j T O.! w 6 6 6 w w | U 6 ",
"P 6 6 6 w w 6 6 6 6 P Y I x ` 0.~.;XfXMXVXVXBXVXAXAXVXmXgXeX-Xn.C 1 1 1 t s m B B B m B V *.1.h.[.`.1.j w E W P P 6 6 6 6 w q 6 ",
"E 6 6 6 6 6 6 6 6 I W W I _ <.j.OXeXmXSXAXVXBXBXVXBXvXfXrX%Xn.1.t % i d l b B C C C B B C C V 1.n.`.j.5.c q e P E P 6 6 6 6 6 6 ",
"q x v q 6 6 6 6 q Y ! Y w / <.c.<XaXmXAXAXAXVXBXBXvXfXeX<Xm.C * t i b B B V B B C C B B V V V C 1.h.'./.<.j  .[ P q B z 6 6 6 6 ",
"6 2.t.9 6 6 6 6 q Y I w x ] p.'.9XgXBXAXAXAXVXVXVXmXaX<X/.6.t % i b m V C C B B C C B B V C V V V 8.XXXX6.l s.%.P x S.D 6 6 6 6 ",
"6 x v 6 6 6 6 6 6 6 q x ] p.~.%XeXlXVXSXAXAXAXSXSXMXaXOX,.i t i b m m B C C V B C C C C C C C C C 0.XXXX6.k } ) 6 q v 9 6 6 6 6 ",
"6 6 6 6 6 6 6 6 6 6 6 c <.j.}.<XrXlXVXSXSXAXAXSXSXmXrX`.d $ i b B V m B C C V V C C C C C C C C C 8.XXXX6.s j 9 5 6 6 6 6 6 6 6 ",
"U 6 0 r 6 6 6 P Y P q / >.j.}.<X0XfXBXAXSXSXAXAXAXhX1Xc.i % d N V V V V V V V V C C C C C C C C C 8.XXXX8.s s a 9 6 6 6 6 6 6 6 ",
"&.e K N.v q Y ! W I { #.<.j.XX<X0XdXzXVXAXAXVXBXMXeX'.5.i * m C C V V V V V V C C C C C C C C C m 1.n.m.1.d s a 9 6 6 I Y Y q 6 ",
"U A Z.K.K T @.O.Y U &.s.<.j. X<XrXpXfXzXVXVXVXmXgX$X<.i i s V C C V V V V V V C C C C C C C C C m C 1.6.>.V g a 9 I w W O.! P 6 ",
"Y e K N.#.o.@.o.q q { %.<.j..X<XrXiXpXlXNXVXBXvXpX}.s + i b C C C V V V V V V C C C C C C C C C m m C C C C b a 9 | U E ! ! e 9 ",
"! Y 0 v Y ! W P 6 6 w / ] j..X<XrXuXuXfXmXVXBXzXuX'.s o 1 d C C C V V V V C C C C C C C C C C C m m N C C V g a 9 I w I Y #.M.A ",
"! Y 6 6 Y I P w 6 6 6 x ] j..X<XrXuXuXfXmXVXBXzXtX'.s o * d V C C V V V V C C C C C C C C C C C V N N C C m d a 9 6 6 6 e F Y.B.",
"W Y 6 6 6 6 ) { 6 6 6 x ] j. X<XrXpXpXlXNXVXBXzXtX'.s o * s m N V V V V V C C C C C C C C C C C C C C C V m d a 9 6 6 Y I Z M.G ",
"( 7 6 6 6 6 w ) U 6 6 x >.j. X;X9XrXpXlXzXNXBXzXiX'.s o 1 s m N V V C C C C C C C C C C C C C C C C C C V m d a 9 6 6 6 6 q r 9 ",
":.7 w w 6 6 6  .&.e e x <.j..X%X-X4XuXdXdXlXNXnXiX'.s o t d m C C C C C C C C C C C C C C C C C C C N m V m d n / 6 6 w 6 6 6 6 ",
"^ 6 ) { q 6 6 U _ G A.M #.d.`.oX$X<XuXpXuXfXzXzXiXXXC * 1 i b m m C C C C C C C C C C C C C C C C C N m N m d k / I U +.) 6 6 Q ",
"6 6 P I 6 6 6 6 Z D.Y.w.#.0.x.`.oX,X0XuXpXdXfXfXiX=Xh.B * % i d m N C C C C C C C C C C C C C C C C V m m m d a U E +.W.&.I 6 P ",
"I W Y 6 6 6 6 6 e w.S.#.` <.p.b..X,X9X0XuXpXiXiXiX<X/.5.* o t d m m N C C C C C C C C C C C C C C C C V m m d a U Y ) %.{ w w q ",
"I ! ! ! Y 6 6 6 P  .%.T z ` 5.z.|.$X,X4XrXuXtXtXtX4XoXd.1 o i d g m m N V C C C C C C C C C C C V C C C m b d a w q 6 w 6 w | U ",
"6 Y O.O.E 6 6 6 P ! W q q / <.a.(.$X$X,X9XeXtXtXtX0X;Xm.B * t i s d m m N V V C C C C C C C C C V V C C m b d a 9 6 6 6 6 6 U w ",
"6 I ! o.! Y 6 6 6 P q 6 q / ] 0.c.'.$X-X<X4XtXiXtXrX5XOXh.C * % ; s d m m N V C C C C C C C C C V V C C m d d a 9 6 6 6 6 6 6 6 ",
"q Y ! ! ! Y 6 6 6 6 6 6 q x ` 4.p.v.|.$X$X<X0XrX0X9X5X=X~.0.d * * * i p g m m m m m m m m m m m m m V V b d s j 9 6 6 6 q E E P ",
") | P P P q 6 6 6 6 P Y P w / ` <.p.x.`.OX%X;X;X-X=X%XOX[.b.0.V * o o % i d g d s s d g d d d s s s d d d s j 9 5 6 6 6 E O.! P ",
"I I 6 6 q 6 6 6 6 P W W I U | x ` 4.p.z.~.].}.}.}.}.oXOXXX].n.q.C i * * - - ; - * * - t t * * * * * * i a z q 6 6 6 6 6 E ! [ 7 ",
"6 P I U ) 6 6 6 q Y ! E 6 w U q ..:.7.8.q.j.c.b.b./.oXOXoXXX[.`.n.k.8.C * o o o o o o o o o o o o o o $ 5 T I 6 6 w 6 6 q ( E.;.",
"q E ! Y I 6 q P q Y Y q 6 6 6 6 ~ ;.;.] ] 4.p.a.a.x./.'.'.[.XXOX+X Xm.q.m i i i * * * * * % % % % $ o @ 4 Y Y 6 w | U 6 6 7 ..~ ",
"6 I Y 6 6 6 q P 6 6 6 6 6 6 6 6 6 ( ( x x ` 4.5.5.8.p.a.a.c.}.OXOXoX.X].b.x.x.j.8.1.,.,.1.>.V m g s < 3 6 6 6 6 6 U w 6 6 6 6 6 ",
"6 6 6 6 6 6 6 6 6 6 w 6 6 6 6 6 6 6 6 6 3 c 4.0.a.a.p.0.6.a.m.'.`.'.].].'.`.`.m.k.q.q.9.q.9.<.' C B z 6 6 6 6 6 6 6 6 6 6 E I 6 ",
"6 6 6 6 6 6 6 6 6 U { q 6 6 6 6 6 6 6 2 @ n z.}.OXOX'.b.d.p.a.a.a.a.d.d.d.q.q.9.8.1.1.1.1.>.v x x z q 6 6 6 6 6 6 6 q 6 6 I q 6 ",
"6 6 6 6 6 6 6 6 6 w U 6 6 q 6 6 6 6 3 3 a 6.OX5XtXeX<XOX~.x.j.j.k.k.f.d.q.0.1.>.C V C C C B z 6 6 6 6 6 Y E q 6 6 w [ I 6 6 6 6 ",
"6 6 6 q I P 6 6 7 ~ 6 6 I ) q 6 6 2 @ k a..XrXzXxXfX0X2X,X-X&X,X2X2X&XOX].m.f.,.i 1 j x x _ w 6 6 6 6 q E W q 6 6 6 U P I I 6 6 ",
"6 6 I W E I 6 6 ;.E.7 6 w I 6 6 6 3 & >.].0XnXAXVXxXiX9X<X2XeXdXvXvXdXeX2XOX/.9.d y z 9 w U w 6 6 6 6 6 P P 6 6 6 6 6 Y W Y 6 6 ",
"6 P ! O.E 6 6 6 ^ ..6 P E Y 6 6 6 9 n d.=XiXMXAXVXzXiX;X~.].4XdXvXbXbXcXdXwXOXn.9.,.' B ) E q 6 6 6 9 9 6 6 q 6 6 6 E O.! I 6 6 ",
"q Y ! W P 6 6 6 6 6 6 P o.O.Y 6 4 v 8./.5XhXMXVXmXaX4X.Xz.!.2XdXvXbXbXbXvXaX1XoXm.h.2.C _ | E q 6 r F v q I | U 6 I ! ! Y 6 6 6 ",
"P Y Y P 6 6 6 6 6 q 6 6 Y ! E 2 # D n.=XaXmXMXmXgX4X'.b.~.OX9XdXbXbXkXkXdXsXwX1XXXn.3.D h c T 6 0 K Y.M.r +.W.%.I I Y I 6 6 6 6 ",
"6 q 6 6 6 6 6 6 U { q 6 6 P q > o C `.5XzXMXnXaX5X}.d.h.].;XwXdXvXcXkXsXsXdXdXrX:X`.9.D D h x q 9 A B.G e ) &.| w 6 q 6 6 6 6 6 ",
"6 6 6 6 6 6 6 6 I U 6 6 6 6 6 > + B /.4XxXmXfX1X/.h.8.h.].;XeXaXkXcXcXcXcXvXvXgXwX+Xy.H 2.H M k 9 w v e 6 w E Y 6 6 6 6 6 6 6 6 ",
"P I 6 6 6 6 6 6 6 6 6 6 6 6 6 2 + b c.;XgXxXiX=Xc.8.,.8.x.'.+X1XtXkXbXCXCXCXZXmXaX=Xh.,.3.3.M p 9 6 6 I Y E W Y q I q 6 6 6 6 6 ",
"q q U ) w q 6 6 6 I E 6 6 6 { } + i 6.'.wXaXtX5X=XH.2.M m M >.x.1XgXBXZXCXBXBXvXdX;Xj.1.9.1.p 8 9 6 I W ! ! ! I 6 P w ) I q 6 6 ",
"6 6 P U ) { 6 6 6 P I 6 6 6 U I @ * b j.&XwXrX7X>X{.e.D ; & % H [.6XjXMXMXvXvXkXsX&Xf.>.,.C * > 4 6 Y ! O.o.E q 6 6 6 U I { U 6 ",
"6 6 6 6 I U 6 6 6 6 6 6 6 6 6 4 2 < 1 ,. X1X7X=XF.u.F.u.e.2.D D ,.c.6XgXdXdXdXpX3X.Xd.' s 1 < 2 4 6 E ! o.! Y 6 6 6 6 6 q ) w 6 ",
"Y 6 6 6 6 6 6 6 6 6 6 6 6 6 6 6 6 2 + b c.XX#X[.3.t.I.@XP.F.y.H = H %XaXsXsXsXqX&X/.p.V * + 2 6 6 I W ! Q E P q E P 6 6 6 6 6 6 ",
"I q 9 6 6 6 6 6 6 6 6 6 6 q 6 6 6 4 + ; 1.r.y.y.u.G.@X@X@XP.F.2.= >.<XxXvXlXsX3X).g.7.` 5 3 4 6 6 Y E ^ R.^ 6 6 Y w 9 q 6 6 6 6 ",
"6 2.t.w 6 6 6 6 P Y Y 6 U { q 6 6 3 $ y b h h J u.G.U.@X@XI.G.3.= >.4XBXCXbXsX,XQ.p.4.` / { P 6 6 6 ~ R._.R.~ 6 6 x t.D 6 6 6 6 ",
"6 M 2.q 6 6 6 6 I o.O.Y I ) 6 6 6 4 3 u y % % : J t.G.I.I.G.u.J & >.1XMXBXvXsX*Xz.4.X.[ I ) w 6 6 6 7 -.^.R.[ P 6 9 2.v 6 6 6 6 ",
"6 6 6 6 6 6 6 6 6 E o.W P 6 6 6 6 6 6 2 + . O = S J w.u.u.t.3.D ; 6.4XMXBXvXsX&Xg.] | ! I 6 6 6 6 6 6 7 ^ ~ Y q 6 6 6 6 6 6 6 6 ",
"6 6 6 6 6 6 6 6 9 e Y Y I 6 6 6 6 6 6 > X o i f D D f f f f ; p C c.rXCXCXmXaX-Xj.] ) Y Y 6 6 6 6 6 6 6 6 6 6 6 6 6 6 6 6 6 6 6 ",
"6 6 6 I I P 6 q S L e q 6 6 6 6 6 6 6 2 + * m D D f % . . . . * 1.(.wXxXMXnXyX%Xj.2.v w q 6 6 6 6 6 6 6 6 w { I 6 6 6 P I I 6 6 ",
"6 6 P ! o.Y 6 S J.T.L w 6 6 6 6 6 q 6 9 k m C >.D p O         & *.j.].1XhXhX6X Xq.t.L v 6 6 6 6 6 w 6 6 Y E ) w 6 6 6 E o.! P 6 ",
") [ I ! O.E q v V.Y.J q 6 6 6 6 { &.I / B B B C m i +         % b ,.9.`.8XyX:XL.9.L J 0 6 6 6 6 U &.) I ! ! P 6 w { U W O.! I q ",
"U ) P E E #.A 9 v S U E 6 6 6 6 ) +.P q < * * * & & # @ X     X % s >.l.#X>X#XL.e.H 8 , 4 6 6 6 I +.U Y E Y q 6 q ) I Y E R G Z ",
"6 6 6 P Z A.D.A 9 6 P Y 6 6 6 6 6 6 6 3 @ X X X X @ 3 2 + X X   . % M 9.L.{.{.L.u.J = @ 3 6 6 6 6 6 6 q P q 6 6 6 6 6 q I F D.N.",
"6 6 P Y r M.C.Z 9 6 9 6 6 6 6 6 6 6 6 4 2 > > > > 2 4 4 , > > @ X % M 3.y.F.H.H.F.3.; O 3 6 6 6 6 6 6 6 6 6 6 6 6 6 6 I I A C.M.",
"6 6 q I 6 r Z q 6 6 6 6 6 6 6 6 6 6 6 6 6 6 6 6 6 6 6 q I I 6 > X % M 2.3.e.F.H.H.y.: O 3 6 6 6 6 6 6 6 6 6 6 6 6 6 6 I P w Z r "
};
