/* XPM */
static char *azopt_bi5zq[] = {
/* columns rows colors chars-per-pixel */
"64 64 233 2 ",
"   c #07060A",
".  c #0E100E",
"X  c #0A0A13",
"o  c #0E0B1A",
"O  c #110E1E",
"+  c #121313",
"@  c #19181A",
"#  c #23231D",
"$  c #140E27",
"%  c #051720",
"&  c #181725",
"*  c #1B1C25",
"=  c #16112A",
"-  c #18122C",
";  c #1D1537",
":  c #1E1D33",
">  c #1E1639",
",  c #1E1A3C",
"<  c #271937",
"1  c #20173D",
"2  c #221A3C",
"3  c #2A1C3C",
"4  c #361E3A",
"5  c #1A2326",
"6  c #272829",
"7  c #272730",
"8  c #26213D",
"9  c #2B233C",
"0  c #2D293E",
"q  c #33253A",
"w  c #36293A",
"e  c #2D353B",
"r  c #32333C",
"t  c #38363A",
"y  c #492A38",
"u  c #42363D",
"i  c #45393C",
"p  c #593338",
"a  c #633835",
"s  c #793D3A",
"d  c #5E443A",
"f  c #7D403A",
"g  c #6F5139",
"h  c #1E1A43",
"j  c #211741",
"k  c #231A43",
"l  c #281E45",
"z  c #22174B",
"x  c #24194A",
"c  c #291E4B",
"v  c #271A53",
"b  c #291B56",
"n  c #291C5A",
"m  c #1F2446",
"M  c #16284C",
"N  c #2B2343",
"B  c #2D2A42",
"V  c #222649",
"C  c #2D234C",
"Z  c #332E43",
"A  c #36224A",
"S  c #342D4D",
"D  c #2D334A",
"F  c #353442",
"G  c #353945",
"H  c #393A45",
"J  c #39354A",
"K  c #363848",
"L  c #3B3B4A",
"P  c #2E2451",
"I  c #25265A",
"U  c #322954",
"Y  c #342959",
"T  c #213353",
"R  c #213959",
"E  c #3E3C53",
"W  c #3A3258",
"Q  c #2B1D63",
"!  c #2D1F69",
"~  c #1A3764",
"^  c #2D206A",
"/  c #35266C",
"(  c #3E3265",
")  c #3F3268",
"_  c #4A314B",
"`  c #593841",
"'  c #413B57",
"]  c #412966",
"[  c #42356A",
"{  c #4E3F7F",
"}  c #3C4044",
"|  c #3D424C",
" . c #3A4151",
".. c #16486D",
"X. c #314562",
"o. c #414444",
"O. c #4B4647",
"+. c #43444C",
"@. c #45494E",
"#. c #4A4A4D",
"$. c #524E4A",
"%. c #454B53",
"&. c #4C4C53",
"*. c #494A57",
"=. c #514E54",
"-. c #4C5155",
";. c #4C545B",
":. c #525455",
">. c #5B5853",
",. c #52565B",
"<. c #54595D",
"1. c #5A5B5D",
"2. c #625955",
"3. c #61605C",
"4. c #4D446D",
"5. c #4C5868",
"6. c #575660",
"7. c #555C62",
"8. c #5A5E63",
"9. c #605D67",
"0. c #5C6165",
"q. c #56616A",
"w. c #5D646A",
"e. c #426778",
"r. c #5C6B75",
"t. c #62656B",
"y. c #676768",
"u. c #62696D",
"i. c #756A67",
"p. c #646C72",
"a. c #6A6E74",
"s. c #6C7176",
"d. c #60737E",
"f. c #6D747A",
"g. c #737375",
"h. c #72757B",
"j. c #7A7778",
"k. c #74797D",
"l. c #797B7D",
"z. c #88483A",
"x. c #965439",
"c. c #A45C36",
"v. c #9B6F39",
"b. c #B26933",
"n. c #915A48",
"m. c #9E6643",
"M. c #81734A",
"N. c #9C6351",
"B. c #B5853C",
"V. c #CB8A46",
"C. c #D9A050",
"Z. c #E8AC44",
"A. c #4E3F80",
"S. c #126799",
"D. c #257690",
"F. c #117AA9",
"G. c #544489",
"H. c #614F9B",
"J. c #6E7780",
"K. c #757C82",
"L. c #7A7E82",
"P. c #7C8185",
"I. c #7D848A",
"U. c #79868F",
"Y. c #16B0D7",
"T. c #808386",
"R. c #84858A",
"E. c #83898E",
"W. c #898A8D",
"Q. c #858C92",
"!. c #8B8E94",
"~. c #8B9196",
"^. c #8D939A",
"/. c #8B959A",
"(. c #96979A",
"). c #92969C",
"_. c #93999E",
"`. c #8D97A0",
"'. c #959BA1",
"]. c #9A9DA3",
"[. c #9CA1A6",
"{. c #9BA4A8",
"}. c #9EA4AA",
"|. c #9EA8B2",
" X c #A2A6AC",
".X c #A7A8AA",
"XX c #A4A9AE",
"oX c #A5ACB2",
"OX c #A6ACB6",
"+X c #A9ADB3",
"@X c #ABB0B6",
"#X c #ADB3BA",
"$X c #ABB4B9",
"%X c #B2B5BB",
"&X c #B3B9BE",
"*X c #B8B9BD",
"=X c #AEB8C1",
"-X c #B5BCC2",
";X c #BBBEC4",
":X c #BBC1C6",
">X c #BCC4CA",
",X c #BDC6CA",
"<X c #C2C2C7",
"1X c #C2C5CB",
"2X c #C2C9CE",
"3X c #C4CBD2",
"4X c #CACED5",
"5X c #CCCFDA",
"6X c #CAD1D6",
"7X c #C9D3D8",
"8X c #CDD3DA",
"9X c #D1D3D7",
"0X c #D1D5DC",
"qX c #D1D8DE",
"wX c #CFD9E1",
"eX c #D5DCE2",
"rX c #D7DDE7",
"tX c #DADEE4",
"yX c #D8E1E6",
"uX c #DDE4EB",
"iX c #DFE7F1",
"pX c #E1E5EC",
"aX c #E2E9EF",
"sX c #E5EDF4",
"dX c #E9EEF5",
"fX c #E7EFF8",
"gX c #E9EFFB",
"hX c #E6F1F7",
"jX c #EAF1F7",
"kX c #E7F1FA",
"lX c #EAF2FA",
"zX c #F0F3FA",
"xX c #F0F8FB",
/* pixels */
"> > > j x x > > ; > > > > ; > ; > 1 > > > > ; > ; > j x x 1 k > > > > j x x , > ; > > > > > > ; > 1 > > > > ; > > > > j x x , > ",
"> > k n n k > k C 1 > > ; ; 1 k 1 x > ; > 2 k 2 > k b b c C ( C 2 2 k b b c 1 2 C 2 2 > > > 1 k 1 x 1 ; > 1 k 2 > > j n n x > > ",
"> j n ! v 1 ; P A.C q 2 2 k k P 1 > > > > k Y k l Y W S Z ' 4.' F Z S W S Z Z J 4.J w 3 > k k P k > > > ; 1 Y k > 1 v ! n j > > ",
", x n v 1 > > 1 C ` m.y l Y k 1 > ; ; > > 2 V T Y ' @.#.#.#.&.:.:.&.&.&.&.=.=.&.&.=.2.` N Y l 1 > > ; > > > V T m k b b j > > > ",
", k k 1 > > > ; q m.C.n.3 1 > > > > k > 2 9 K e.5.9.a.a.g.L.R.W.W.W.W.R.R.W.R.l.g.g.j.i.#.J 9 2 > > k > > ; m D.R k x 1 > ; > > ",
"> > > > > > > > 2 ` N._ 1 ; > > ; k b k 8 F @.8.a.R.(.(. X%X:X<X1X1X<X;X;X<X*X.X]._.!.j.9.&.H 8 2 1 v k ; ; 1 I k > > > > > > > ",
"> 1 > ; > > > > 1 n / v , > > 3 t 3 k B K @.1.g.W. X%X;X2X9XtXtXtXtXtXtXtXtXtX4X<X*XXX~.j.9.&.L F 8 1 > > > > > > 1 > ; > > > > ",
"1 x 1 1 > ; > > 1 v v j > > > t M.w 8 L -.0.h.~. X;X4XtXpXsXdXdXdXdXdXdXzXzXzXdXpX0X>X+X).L.t.,.>.F 2 > 1 1 > ; > x 1 1 2 ; > > ",
"> , k P k k > > > 1 , > > > > 3 w 0 L 8.h.E.[.&X4XqXuXsXdXdXjXjXlXjXlXlXzXzXzXzXdXpXeX5X;XXX^.L.t.+.0 2 v n k > > > 1 P k k 2 > ",
"> > > 1 l Y 1 > > > > > > > ; > 2 F ;.K.].#X2XyXsXdXjXlXlXlXlXlXlXlXlXlXlXlXlXlXgXsXsXsXuX5X-X XR.8.H N v ! n 1 ; > > 1 k Y l ; ",
"k > > > 1 1 > > > > j x k 1 k > 8 | w.^.&X4XyXsXlXlXlXlXlXlXlXlXlXlXlXlXlXlXlXlXgXfXfXgXfXuX8X-X'.s.*.B j v v 1 k > > > > 1 > > ",
"n , > > > ; > > > j b b k l Y 2 B 5.K.oX4XuXhXlXlXlXlXlXlXlXlXlXlXlXlXlXlXlXlXlXlXfXfXgXgXfXuX3X+XT.r.X.2 1 k k v k > > > ; > > ",
"j 3 t 2 > > > ; > x n v 1 1 k 9  .d./.>XuXfXlXkXfXkXlXkXlXlXlXlXkXkXkXkXkXlXlXlXlXgXgXkXkXfXuX8X&X).U.e.D C ) C k 3 t 3 > > > > ",
"; u M.q > > > > > k x 1 > > 2 r -.I.OXwXkXlXlXkXfXfXkXkXkXlXkXlXkXkXkXkXkXkXkXlXkXgXgXkXkXgXaXwX>XXXE.8.L [ H.[ 1 q M.u > > > > ",
"> 3 w 2 > > > > > > > > > > 8 L t.).>XyXlXlXlXkXfXkXkXkXkXkXkXkXkXkXkXkXkXkXkXkXkXfXfXlXlXkXfXuXqX;X_.a.%.S ( C > 2 w 3 > > > > ",
"; > > > > > > > > > > > > 2 B -.k.oX7XiXkXlXlXkXfXkXkXkXkXkXkXkXkXkXkXkXkXkXkXkXkXfXlXzXzXlXlXfXuX4X+XP.6.Z 2 2 > > > > > > > > ",
"C 2 < q 1 > > j x k 1 1 2 0 +.u.~.:XyXfXkXkXkXkXkXkXkXkXkXkXkXkXkXkXlXlXlXlXlXlXlXlXlXlXlXlXlXlXpX6X%X^.a.%.0 2 > > > > > > > > ",
"G.N a c.y 2 k n b x C ) C F :.l. X4XiXkXkXkXkXkXkXkXkXkXkXkXkXkXkXkXlXlXlXlXkXkXlXlXlXlXlXlXlXlXaX8X-X[.P.<.H 8 > > > x v x , > ",
"P y b.Z.x.A ^ ^ v k [ H.( H :.L.XX7XfXkXkXkXkXkXkXkXkXkXkXkXkXkXkXkXlXkXlXlXlXlXlXlXlXlXlXlXlXlXaX8X-X}.I.7.H 8 > k 1 v ! n 1 ; ",
"x 3 a c.y n ^ ^ k > C ( C F :.L.XX8XkXkXkXkXkXkXkXkXkXkXkXkXkXkXkXkXlXkXlXlXlXlXlXlXlXlXlXlXlXlXaX8X-X}.I.7.H 8 1 Y c v n n 4 < ",
"n v 2 4 x n b k > > > 1 8 F :.L.XX8XkXkXkXkXkXkXkXkXkXkXkXkXkXkXkXlXlXlXlXlXlXlXlXlXlXlXlXlXlXlXaX8X-X}.I.7.H 8 > k 1 k x _ z.p ",
"n b , > x x k k > > > > 3 F :.L.XX8XfXkXkXkXkXkXkXkXkXkXkXkXkXkXkXlXlXlXlXlXlXlXlXlXlXlXlXlXlXlXaX8X-X}.I.7.H 8 > > > 1 3 f V.c.",
"b v > > > > k Y 1 > > > 3 F :.L.XX8XfXkXkXkXkXkXkXkXkXkXkXkXkXkXkXlXlXlXlXlXlXlXlXlXlXlXlXlXlXlXaX8X-X}.I.7.H 8 > > > x k y z.p ",
"T h > > > > 2 l C 1 > > 3 F :.L.XX8XjXlXlXlXkXkXkXkXkXkXkXkXkXkXkXlXlXlXlXlXlXlXlXlXlXlXlXlXlXlXpX8X-X}.I.7.L S 1 > > , > 1 3 < ",
"D.m 1 k > > ; P A.C 4 1 8 H :.P.+XqXlXlXlXkXlXfXfXfXkXkXkXkXkXkXkXlXlXlXlXlXlXlXlXlXlXlXlXlXlXjXuX7X-X[.I.,.L 4.P > > 1 > > > k ",
"T , k Y 1 ; ; 1 C ` n.y N L ,.P.+XeXlXlXlXlXlXfXfXfXlXlXlXlXfXlXkXlXlXlXlXjXlXlXlXlXzXlXlXzXlXdXuX6X-X}.I.:.H S c x c ( C > 1 n ",
"> 1 k k > > > ; q m.C.n.q F :.l.XXqXlXlXlXlXlXfXfXfXlXlXlXlXfXfXkXlXlXjXjXjXjXlXlXlXlXlXlXlXlXdXpXqX>X XI.<.O.Z v v ( H.[ k > k ",
"j v v j , > > > 2 ` N._ 8 r -.l.XX9XdXlXlXlXlXlXfXfXlXlXlXlXfXfXkXlXjXjXjXjXlXlXlXlXlXlXlXlXjXsXuXqX>X XI.7.' N v x c ) C 2 k 2 ",
"j b n n v > > > , n ] b 2 F :.L.XX2XrXfXlXkXlXlXlXlXlXfXlXlXlXlXlXlXlXjXjXjXlXlXlXlXzXzXlXlXsXrX8X4X:X XI.7.L N k 1 > 1 > 1 Y l ",
"> k n ! n j > > 1 v v j 3 F :.L.[.-X7XuXfXfXlXkXlXlXlXfXlXlXlXlXlXlXjXjXjXlXlXlXlXlXlXlXlXfXuX8X3X2X-X{.I.7.L N > > > > > > k 1 ",
"; j n Q n v > > > 1 1 > 3 F -.a.!.#X3X8XrXiXfXlXlXlXfXfXfXfXlXlXlXlXjXlXjXjXlXlXlXlXjXjXsXrX8X4X3X3X#X~.a.;.L 8 > > > > > , , > ",
"1 k b b n v , > > > > > 2 F @.1.k. X>X3X7XrXuXsXfXfXfXfXfXkXlXfXlXlXlXlXlXlXjXfXsXsXaXaXuX7X3X3X3X>XoXL.8.%.K 8 > > > > j v v j ",
"l Y k 1 1 1 > > > > 1 x k N J %.t.~.#X>X3X7XqXqXrXuXfXlXlXlXlXfXjXlXxXlXlXlXfXyXqXqXqXeXqX6X3X3X>X#X).a.*.J 9 2 > > > > v ! n 1 ",
"1 k > > 1 > > > > j v b x l W J ;.k.).@X>X3X3X3X4XrXaXsXsXsXsXsXsXjXlXjXfXjXuX7X2X2X3X3X4X3X3X>X#X].L.8.E P k > > > > , v n I h ",
"> 1 x l P 1 > > , x n v 1 2 k 9 K 5.s.^.@X>X3X3X3X7XqXeXeXeXqXqXqXeXrXeXeXrXeX4X2X>X>X>X>X2X>X$X_.K.8.E U P x , > 1 1 > 1 V D.R ",
"> x n x k > , k 1 x x 1 > > > > 8 K -.h.).@X;X>X>X2X3X3X3X3X2X3X3X3X3X3X4X4X4X3X3X2X>X:X-X-X@X).K.7.| B k x x , 1 Y k ; ; , T m ",
"> k x 1 > > , k > > > > > > > > 3 F %.8.a.I.^.}.#X;X>X>X>X>X>X2X2X2X3X3X3X3X3X3X3X2X>X#X}.^.P.u.;.@.} G B 2 > > > k 2 > > 1 > > ",
"> > > > > > > > > > 1 > ; > , 2 N L &.7.0.a.K.Q.'.oX#X&X-X-X:X>X>X>X>X>X>X>X>X-X-X-X@X[.Q.k.u.<.-.-.-.%.| B 2 , > ; > > 1 v k ; ",
"> > > > > > > > > k Y 1 ; > 2 Z L -.t.I.].OX XL.p.f.I.Q./.{.oXOX@X$X@XOXOXOXXX'.Q.P.f.u.p.K.I.Q.~.~.P.t.;.L B 2 > > 1 1 > k > > ",
"> > > > > > > > > 1 k > > 1 8 L ;.t.I.oX3XeX2XL.;.;.8.a.K.I.!.^./.).).^.~.^.Q.K.s.w.<.-.7.P.].&X>X>XoXP.0.&.G 8 > 1 P k > > > > ",
"> > > 1 x k > > , V , ; k P N H <.R.XX-X2X8X<X).f.0.w.K.L.s.p.p.p.p.u.u.w.w.p.P.Q.~.Q.K.f.f.Q.#X3X3X&X).f.;.G 8 > > k k k k > > ",
"> > j b b x > ; T D.m > 1 l B +.t.].;X:X<X2X:XXX!.K.f.Q.Q.a.8.8.0.7.7.0.7.<.w.Q.XX&X&X[.I.p.k.XX2X3X:X}.P.,.F 8 > > 1 v n x , > ",
"> j n ! v 1 > ; m T , 1 v S +.t.T.].@X;X2X1X;X+X].!.Q.^.).).).'.'.)._.]._.^._.oX-X>X:X}.I.w.u.^.#X>X:X}.P.<.G 8 > , v ! n j > > ",
", x n n j > > > > ; > 1 P E :.h.!.].@X<X4X2X:X+X[.)./.].oX-X3X3X6X6X6X7X6X3X2X2X3X4X>X}.I.0.7.K.].&X&X[.P.<.L B > k n n k > > > ",
", x x 1 > > > > > 1 > > N E &.1.h.+X6XtXrX8X:X+X(.E.Q.#X4XeXyXuXpXaXaXuXuXuXyXyXeX7X>X}.I.w.7.w.k.].XX].P.<.*.W k k x j > > > > ",
"> , > > > > > ; k Y 1 ; 8 L #.&.a.%XpXdXaX8X-X[.Q.f.I.>XaXsXdXlXlXlXlXlXhXhXhXsXuXqX:X{.I.p.;.| ,.P.).).L.&.L C 1 > , > > > > > ",
"> > > > > > > > 2 k > > 3 K &.t.R.&XeXaXpX<X XQ.h.a.I.2XdXdXdXlXlXjXhXlXlXkXhXfXuXqX-X/.f.q.| 7 r t.L.L.t.r * 1 , > > > > > > > ",
"1 x 1 1 > > > > > > , > 3 F :.k._.%X2XeX9X+X!.f.t.f.^.4XlXdXfXlXlXfXfXlXlXkXfXiXrX4XOXP.q.5.| 5 5 +.7.8.@.* $ > 1 x 1 1 > ; > > ",
"> 1 k P 1 1 > > > k v 1 3 F :.l.(.[.+X&X#X~.h.8.w.!.=XrXlXfXfXlXlXhXhXlXlXkXiXeX3X=X`.r.;.7.;.G 7 7 7 7 7 > h , > 1 1 P k 1 1 > ",
"> > 2 k l Y 1 > > > k > 3 F %.u.P.E.~._.~.h.0.;.w.].3XpXlXlXfXfXfXkXlXlXlXhXiXwX>X|.U.8.;.q.q.%.e & X X = z x , ; ; > k k Y k ; ",
"1 > > > 1 l > > > > > > 2 8 0 r +.0.h.L.h.0.,.7.a.).-XrXlXlXsXrXyXfXlXlXlXlXfXsX8XOXU.p.q.r.q.%.F : ; > h v x , , > > ; > l 1 > ",
"n , ; > > ; > > > > > > > > ; O & H :.<.<.&.&.8.s.E. X4XuXsXuX4X4XaXlXlXlXlXlXlXrXOX!.J.p.w.7.%.F N v v I x 1 , v k ; > > > > > ",
"k 3 9 2 > > > > > , > > > 1 ; = = * 6 6 7 t @.<.t.s.I. X;X4X3X&X-XrXjXlXlXlXlXlXrX#X^.K.w.7.%.F N c x ~ S.~ , > k 1 9 3 > > > > ",
"; u M.q > > > > 1 v v 1 k Y 1 ; - O X % 5 e +.-.<.7.a.!. X#X+X'.[.4XaXdXlXlXlXfXeX#X^.f.7.+.F 8 > , m S.Y.F.M > ; q M.u > > > > ",
"> 9 u 3 > > > ; 1 n ! v k l 1 > ; = = M ..G o.+.@.&.t.].#X'.P.a.L.%XeXaXjXlXsXeX2XoX!.p.@.7 & ; > > , ~ F...I j ; 3 u 9 > > > > ",
"> > ; > > > > > > k n n k > > > ; ; ; , M F H } } @.t.].+XT.0.&.8.].3XtXaXaXtX1X@X].L.,.r @ o - > > > , M h j , > > ; > > > > > ",
"> > > > > > > ; < 9 k x k > > > > ; > > 2 8 Z H @.:.y.l.P.s.8.#.1.~.*X3X9X9X1X#X].R.t.r & $ = ; > > > > ; > 1 > > > > > > > > > ",
"> ; , x x k > < p v.u 1 , > > > ; ; > > > l W r o.:.0.1.1.1.:.o.&.T..X;X<X*X@X].R.a.#.* o = ; ; > > > > > k Y k > > > k x x , > ",
"> 1 j n ! b , w B.Z.v.q > > > > 2 l 2 1 v v k * 6 t o.o.o.o.t 6 t j. X*X:X+X(.R.g.1.$.7 = ; > > 1 k 2 , x v c 1 > 1 1 v ! n j > ",
"l Y k n Q b 3 3 g B.d 2 > > > ; C { c x n v ; O + 5 6 6 6 6 6 . 6 y.(..X.X~.l.y.:.$.i 9 > ; > ; l { P k n b 1 ; 1 Y l v Q n 3 1 ",
"1 l 1 x x _ s 4 3 y k v , ; > > k U k x x x ; - $ + + + + + .   @ :.g.g.a.y.$.t 6 w 9 P k ; > > 1 P k k x x 1 > 1 l 1 x x A s y ",
"> ; > , 4 x.V.f < ; , k > > > > > ; > , , , > ; - o             @ #.3.:.#.O.t @ X = > k 1 ; > > > ; > , , , > > > > > , 3 f V.c.",
"> > 1 x l p x.y < > > > > > > > > > > > > > > > ; = $ $ $ $ O   @ >.g.3.:.$.i @ X = ; ; ; > > > > > > > > > > > > > > x k y x.a ",
"> > > j , 2 4 1 > > > > > > > > > > > > > > > > ; ; ; > x x - X # 3.j.y.>.>.O.@ X = ; ; > > > > > > > > > > > > > > > j 1 1 4 < "
};
