/* XPM */
static char *ag0ey_v70yv[] = {
/* columns rows colors chars-per-pixel */
"64 64 208 2 ",
"   c #170601",
".  c #1B0700",
"X  c #1C0802",
"o  c #190709",
"O  c #1C0B0D",
"+  c #1D0D13",
"@  c #1C0E1B",
"#  c #200700",
"$  c #250B01",
"%  c #2B0E01",
"&  c #240D0B",
"*  c #320E01",
"=  c #3A0E01",
"-  c #300F08",
";  c #341000",
":  c #3C1201",
">  c #33110A",
",  c #3A130B",
"<  c #220E14",
"1  c #2B1115",
"2  c #281117",
"3  c #24111B",
"4  c #361312",
"5  c #1E1123",
"6  c #1E132D",
"7  c #1E1536",
"8  c #1E1639",
"9  c #1E1A3C",
"0  c #211123",
"q  c #2A1422",
"w  c #23142B",
"e  c #321923",
"r  c #211635",
"t  c #2E1A36",
"y  c #20173D",
"u  c #251839",
"i  c #22193C",
"p  c #311B37",
"a  c #311E3A",
"s  c #24203E",
"d  c #362537",
"f  c #3C2237",
"g  c #34223B",
"h  c #382E3D",
"j  c #420F00",
"k  c #441401",
"l  c #4B1400",
"z  c #4C1801",
"x  c #491A05",
"c  c #521500",
"v  c #5C1600",
"b  c #541900",
"n  c #5C1A00",
"m  c #641600",
"M  c #641B00",
"N  c #6B1C00",
"B  c #731E00",
"V  c #7A1E00",
"C  c #542619",
"Z  c #6C2100",
"A  c #642D01",
"S  c #732200",
"D  c #7C2200",
"F  c #782B00",
"G  c #7D3301",
"H  c #482521",
"J  c #492837",
"K  c #4A2839",
"L  c #502B37",
"P  c #4F323B",
"I  c #573536",
"U  c #583F39",
"Y  c #1F1840",
"T  c #211741",
"R  c #231A42",
"E  c #281D42",
"W  c #23194A",
"Q  c #281A4B",
"!  c #271A54",
"~  c #281B56",
"^  c #271D59",
"/  c #291B5A",
"(  c #1B244A",
")  c #1F2E4E",
"_  c #1D2551",
"`  c #242146",
"'  c #2B214B",
"]  c #202E4E",
"[  c #34244A",
"{  c #383E4D",
"}  c #252659",
"|  c #302552",
" . c #372954",
".. c #35295A",
"X. c #213151",
"o. c #23315B",
"O. c #2B1D63",
"+. c #2D1F69",
"@. c #183A63",
"#. c #193B68",
"$. c #2D206A",
"%. c #2E3165",
"&. c #3E3167",
"*. c #2F2271",
"=. c #4E2A47",
"-. c #523441",
";. c #563553",
":. c #402866",
">. c #841E00",
",. c #832400",
"<. c #8B2500",
"1. c #842A00",
"2. c #8C2A01",
"3. c #932500",
"4. c #9B2401",
"5. c #942D00",
"6. c #9B2C01",
"7. c #8B3200",
"8. c #953100",
"9. c #9D3201",
"0. c #A22700",
"q. c #A32C00",
"w. c #AC2C01",
"e. c #B92C01",
"r. c #A53300",
"t. c #AB3501",
"y. c #A53A01",
"u. c #AC3A00",
"i. c #B43300",
"p. c #BA3301",
"a. c #B43900",
"s. c #BD3A01",
"d. c #C43601",
"f. c #C43A01",
"g. c #CA3901",
"h. c #D23D00",
"j. c #DA3901",
"k. c #EA3D01",
"l. c #9A4D00",
"z. c #A94B01",
"x. c #BA4700",
"c. c #BB5A01",
"v. c #BB7001",
"b. c #834B36",
"n. c #89493A",
"m. c #9D5138",
"M. c #A65F32",
"N. c #A97B3B",
"B. c #C44301",
"V. c #CC4401",
"C. c #C94B01",
"Z. c #D44201",
"A. c #DC4501",
"S. c #D24B01",
"D. c #DD4B01",
"F. c #CC5601",
"G. c #D45401",
"H. c #DD5301",
"J. c #D05D00",
"K. c #DA5D01",
"L. c #E34601",
"P. c #EB4600",
"I. c #E34B01",
"U. c #ED4C01",
"Y. c #F14A01",
"T. c #E45501",
"R. c #E85701",
"E. c #EC5B01",
"W. c #F55300",
"Q. c #F35C01",
"!. c #F95A01",
"~. c #CB6E00",
"^. c #DA6B01",
"/. c #E86601",
"(. c #F66A01",
"). c #E57801",
"_. c #F97901",
"`. c #955F43",
"'. c #83744B",
"]. c #9A6150",
"[. c #D08C01",
"{. c #E78001",
"}. c #F88501",
"|. c #FC8D01",
" X c #E99A01",
".X c #F39701",
"XX c #FD9301",
"oX c #FF9C01",
"OX c #E8AA01",
"+X c #F7A901",
"@X c #F7B401",
"#X c #FEBB01",
"$X c #EEC201",
"%X c #FDC401",
"&X c #FED801",
"*X c #FFEA01",
"=X c #CD8C47",
"-X c #C69348",
";X c #D9A150",
":X c #EAB246",
">X c #24748E",
",X c #267693",
"<X c #1171A1",
"1X c #4F4081",
"2X c #594990",
"3X c #614F9B",
"4X c #26899F",
"5X c #16B1D9",
/* pixels */
"8 8 8 T W W 8 8 7 8 8 8 8 8 8 7 8 y 8 8 8 8 8 8 8 8 T W W y i 8 8 8 8 T W W 8 8 7 8 8 8 8 8 8 8 8 y 8 8 8 8 8 8 8 8 8 T W W 8 8 ",
"8 8 T ~ / W 8 i ' i 8 8 8 7 8 i i W y 8 8 y R y 8 W ~ / W ' &.' 8 8 T ~ / W 8 i ' i 8 8 8 7 8 i i W 8 8 8 8 R y 8 8 R ~ / W 8 8 ",
"8 y ~ +.~ y 7 ' 1X' a u 8 R R | R 8 8 8 8 R ..R W $.*.~ R &.3X&.i y ~ +.~ y 7 ' 1X' a u 8 R R | R 8 8 8 7 R ..R 8 T / +.~ y 8 8 ",
"8 W / ~ T 8 8 i ' -.`.P E ..R i 8 8 8 8 8 8 ` X.} *.$.W 8 ' &.' y W / ~ R 8 8 i ' -.`.P E ..R i 8 8 7 8 8 y ` X.Y W / / R 8 8 8 ",
"8 W W y 8 8 8 8 a `.;X`.g R 8 7 8 8 R 8 8 7 ) ,X%.~ W 8 8 8 i 8 8 W W y 8 8 8 7 a `.;X`.g R 8 8 8 8 R 8 8 7 ] ,XX.T W y 8 8 8 8 ",
"8 8 8 8 8 8 8 8 u -.].;.i 7 8 8 7 T ~ R 8 7 R o.! R R 8 8 8 8 8 8 8 8 8 8 8 8 7 u -.].;.i 8 8 8 7 T ~ R 7 7 R o.R 8 8 8 8 8 8 8 ",
"8 8 8 7 8 8 8 8 8 ~ :.~ 8 8 8 i h i T 8 8 8 8 8 8 R ..R 7 8 8 8 8 8 8 8 8 8 8 7 8 ~ &.~ 8 8 8 i h i R 8 8 8 8 8 8 8 8 7 8 8 8 8 ",
"y W y i 8 8 8 8 y ! ~ T 8 8 8 h '.h 7 8 y y 8 8 8 8 R i R 8 8 8 8 W i i 8 7 8 7 8 ! ~ T 8 8 8 h '.h 8 8 y y 8 7 8 W i i 8 7 8 8 ",
"8 8 R | R R 8 8 8 y y 8 7 8 8 i h i 8 8 ! ~ R 8 8 8 7 i ..R 8 8 8 8 R | R R y 8 8 y y 8 7 8 8 i h i 7 8 ! ~ R 8 8 8 R | R R 8 8 ",
"8 8 8 i R ..R 7 8 8 8 8 8 8 7 7 8 8 7 8 ~ +.~ y 8 8 9 X.` 8 8 8 8 8 8 i R ..R 7 8 8 8 8 8 8 7 8 8 8 7 8 ~ +.~ 8 7 8 8 i R ..R 7 ",
"R 8 8 8 8 R 8 8 8 8 y W W i R 8 7 9 ( 9 T ~ ! y 8 7 ] ,X] 7 8 8 R 8 8 8 y R y 8 8 8 y W W i R 8 7 9 ( 9 T ~ ! y R 8 8 8 8 R 8 8 ",
"^ T 8 8 8 7 8 8 8 y ! ~ W R ..R 9 @.<X@.9 y R 8 8 7 Y o.R 7 7 y W y 7 7 8 8 8 8 8 y ! ~ W R ..R 9 @.<X@.9 y R R ~ T 8 8 8 7 8 8 ",
"R i h i 8 8 8 7 8 W / ! y y R y ( <X5X<X( ' &.' 8 7 6 0 3 1 > , , , 4 1 0 6 7 7 8 W / ! y y R y ( <X5X<X( Q &.' R i h i 8 8 8 8 ",
"7 h '.h 8 8 8 8 8 W W y 8 8 7 8 9 @.<X@.R &.3X&.w 1 > : k k k k k z l l k - < 5 r W W y 8 8 8 8 9 @.<X@.R &.3X&.i h '.h 8 8 8 8 ",
"8 i h i 8 8 8 8 8 8 8 8 8 8 8 8 7 9 ( 9 8 E  .e , z l l l c b b b b c l c b k % < w 7 8 8 8 8 8 8 9 ( 9 8 ' &.' 8 i h i 8 8 8 8 ",
"7 8 8 8 8 8 8 8 8 8 8 8 8 8 8 8 8 8 8 8 7 3 , k k l b v M M N B B B S D S N N M : & @ 7 8 8 8 8 8 8 8 8 8 8 i 8 8 8 8 8 7 7 8 8 ",
"' i u p u 7 8 y W W y i 8 8 8 8 y W W r 1 : k l v M B ,.5.q.q.6.<.D B B D 2.,.D D b % + 6 8 8 8 y W W 8 8 8 8 8 8 8 8 8 8 8 8 8 ",
"2X' I M.I u W / / W ' &.' 8 8 T ~ / i 1 : k n N V q.V.D.A.f.i.q.3.<.,.D B N D <.,.1.N * + 6 8 T ~ / W 8 8 8 8 8 8 8 8 W W W 8 8 ",
"| f M.:XM.[ $.*./ R &.3X&.i y ~ +.Q 1 * l B V q.H.(.E.B.q.<.,.,.,.D B S D ,.V V <.<.,.M * + r ~ +.~ y 8 8 8 8 8 y R R / +./ 8 8 ",
"! R I M.I ~ *.$.W 8 ' &.' 8 W / ! q * c D <.B._._.F.5.V D 3.i.g.h.Z.f.r.,.S D <.<.q.6.S b % 3 ! ~ T 8 8 8 8 8 8 R ..R ~ ^ ~ a y ",
"/ ! i g Q / / W 8 8 8 i 8 8 W W w % l D 3.G.|.).y.N v N B D ,.2.6.u.B.A.Z.r.S N <.w.d.t.M k % 0 y 8 8 8 8 8 8 8 y R i W W =.n.L ",
"/ ~ y 8 W W R R 8 8 8 8 8 8 8 r & k D 0.K.oX^.1.l l M D ,.,.B M c k l N 6.f.u.N c ,.d.U.r.l * & 6 8 8 8 8 8 8 8 8 7 8 Y a n.=Xm.",
"~ ! y 8 8 8 R ..R 7 8 8 8 8 7 @ * N 0.G.oX^.S j n 9.Z.L.L.L.D.H.F.z.1.n c D s.a.M : B Z.).7.* $ < 7 8 8 8 8 8 7 8 8 8 W R K n.L ",
"o.R 8 8 8 8 8 E ' i 8 8 8 8 6 & c 4.V.XX).D j B s.D.A.Z.g.Z.H./.}.|.|.).z.S D d.s.n * B ).[.b $ & w 8 8 8 8 i ' i 7 8 8 8 y t r ",
"4X] 8 R 8 8 7 ' 1X' a u 8 R 5 * D g._.XX9.l n 6.Z.A.d.q.6.2.D S D 7.x.K./.H.q.6.Z.s.z % 7.@Xl.% $ 3 i 8 u a ' 1X' 8 8 i 8 8 8 R ",
"X.9 R ..R 8 8 i ' -.`.P E | 3 z w.Q.oXF.B c D S.T.a.,.N b z : * % % : b 2.u.s.w.f.P.8.* * v.OXb . 1 | E P `.-.' W W ' &.' 8 R ^ ",
"8 8 i R 8 8 8 8 a `.;X`.g r & N j.}._.q.v n V.Q.u.N c z : * % % % % $ % k S 1.<.q.U.A.n $ A $Xl.# & w g `.;X`.g ! ! &.3X&.i 8 R ",
"y ! ! T y 8 8 8 u -.].;.i 5 % 3.!.|.T.V l r.(.B.M k z : % % % % * % % $ % k S S B a.Q.8.* * [.[.* X 3 i ;.].-.i ! W ' &.' u R y ",
"y ! / / ! 8 8 8 8 ~ :.~ 8 @ : i._._.s.v M T./.S k z k % % % % % % % % % % % c S Z D G.C.z % l.+Xb   < 8 ~ :.~ T W 8 8 i 8 R ..R ",
"8 T / $.^ T 8 8 y ! ~ T 7 @ l V.|.(.<.v 5.(.u.k k z ; % % % % % % % % % % % : n Z N r.K.M $ G |.F   + 7 R ~ ! y 8 8 8 8 8 y R y ",
"8 y / O./ ! y 8 8 8 8 8 7 + b H.|.T.V B x.(.S : z k % % % % % % % % * % % % % z Z Z <.G.G % S (.7.  O r 8 y y 8 8 8 8 8 8 y 8 8 ",
"y R ~ ~ ~ ! y 8 8 8 8 8 7 + v /.XXS.V <.G.K.l k z : % % % % % % % * * * * % % : n S <.B.7.% S /.5.. O r 8 8 8 8 8 8 8 8 R ~ ! y ",
"R ..E y y y 8 8 8 8 y W T @ v /.oXC.>.q.R.x.k k z ; % % % % % % % % % % % % % ; b D 6.s.2.* 1.R.1.. O i W y 8 8 8 8 8 y ~ +.~ y ",
"y R y 8 i 8 8 8 8 y ! / W @ b ^.+XC.<.p.E.u.: k z % % % % % % % % % % % % % % ; z 1.r.d.2.= 8.H.S . + R / ! y 8 8 7 8 y ! } o.9 ",
"8 y W R | i 8 8 8 W / ! y @ k J.@XG.3.g.W.r.: k k % % % % % % % * * % % % % % ; z 5.i.d.,.k u.V.b   + y ! ~ W 8 8 R 8 8 8 X.>XX.",
"8 W O.W R 8 8 R y W W y 8 @ = x.#X/.4.d.!.t.k k z * % % % % % % * % % % % % % ; b r.f.d.N M B.a.:   @ 7 y W W 8 R ..R 8 8 9 ) 9 ",
"8 y W y 8 8 8 R 8 8 8 8 8 5 % 8.#X}.w.p.!.x.z k z ; $ % % % % % * % % % % % % ; S s.h.i.n 2.S.2.%   5 8 8 8 8 8 8 R y 8 8 R 8 8 ",
"8 8 8 8 8 8 8 8 8 y R 8 7 6 & N  X@Xj.w.U.K.M k z : % $ % % % % % % % % % $ % k 9.Z.h.3.M s.S.M . o 6 8 8 8 8 8 8 7 8 8 R ~ i 7 ",
"8 8 8 8 8 8 8 8 8 R ..R 8 7 < j c.&XQ.e.g.(.9.l k k * $ % % % % % % % % $ $ * Z B.A.f.V 5.I.y.:   O 7 8 y y 8 8 8 8 i 8 8 R 8 8 ",
"8 8 8 8 8 8 8 8 8 y R 8 8 i 0 % 1.@XoXk.e.L.T.,.z k : % $ % % % % % % $ $ % z t.L.A.q.<.V.D.S $   @ 7 y ! ! 8 8 8 i | i 8 8 8 8 ",
"8 8 8 y W W 8 7 9 ] 9 7 i | u & l v.&X_.j.e.L.h.2.c k ; $ $ $ $ $ $ $ $ % k 2.A.A.d.4.s.T.r.k . o 6 8 y ! ! y 8 8 8 i R W W 8 8 ",
"8 8 T ~ / W 8 7 ] >X] 8 i R 8 0 * B  X%X(.g.w.g.A.t.N k ; % $ $ $ % % * k D V.I.h.e.d.T.B.M $ X @ 7 8 8 y y 8 8 8 8 T ~ / W 8 8 ",
"8 y ~ +.~ y 8 8 9 ] 9 y ! ~ R 7 1 j 8.@X%X_.d.3.p.U.A.9.Z c : : ; ; : z ,.C.E.D.j.j.R.S.D = . O 6 r t y 8 8 i 8 8 y ~ +.~ y 8 8 ",
"8 W / ~ T 8 8 8 8 7 7 y ~ +.~ 8 0 > b y.@X&X.Xs.>.6.D.W.D.a.2.S N N 1.c.).}.E.k.k.E.S.2.z $ & 5 r J n.J u ' &.' 8 W / ~ R 8 8 8 ",
"8 W W y 8 8 8 8 8 R 8 8 R ~ ! 8 t C x m y. X*X%X~.<.V r.S.E./.).). X@X#X|.E.k.Y.Q.V.2.b % % 5 8 t n.=Xn.a &.3X&.R W W y 8 8 8 8 ",
"8 8 8 8 8 8 8 7 R ..R 8 8 y y 8 y J C k N 6.).&X*XOXF.q.4.p.A.(._._.(.R.L.Y.W.T.a.,.b = * @ 7 8 y J n.J y ' &.' 8 8 8 8 8 8 8 8 ",
"8 8 8 8 8 8 8 8 8 R 8 8 8 8 8 7 8 y t 3 k M <.B. X&X&X+X(.I.P.Y.Y.Y.U.U.U.A.s.6.,.M k * @ 7 8 7 8 y t y 8 R Q W 8 8 8 8 8 8 8 8 ",
"y W i i 8 7 8 8 8 8 R 8 8 8 i ' i 8 8 T w , v V 0.G..X#X#XXX(.W.Y.j.g.p.i.i.p.w.V k & @ 7 8 i ' i 8 8 W W ~ ~ W y W i i 8 7 8 8 ",
"8 8 R | R R 8 8 8 R ~ R 7 7 ' 1X' 8 W / / u 4 l M >.w.S.(.|.|.|.}.{.).)./.H.u.M % O 7 8 8 7 ' 1X' 8 W / ^ / ~ T 8 8 i | R R y 8 ",
"8 8 8 i R ..R 8 8 8 R 8 8 8 i ' i 8 W ^ $.^ R 3 , l n N ,.r.x.J.~.~.c.l.F z $ o @ 6 y 8 8 8 i ' i 8 W ^ +.^ W 8 7 8 8 i R ..R 8 ",
"R 8 8 8 y R 8 8 8 8 8 8 8 8 8 7 8 T ~ / / / W 8 w H C x k k k j j = % $ X O 5 ] i 8 8 8 8 8 8 7 8 T ~ / / / W y R 8 8 7 8 R y 8 ",
"^ T 8 8 8 8 8 8 8 8 8 8 8 7 8 8 8 W ~ ^ } W y 8 a `.-Xb.e q 1 1 1 1 3 0 w 7 ] ,X] 7 8 8 8 8 8 8 8 W ~ ^ } W y R ~ R 7 8 8 8 8 8 ",
"R i h i 8 8 8 8 8 y y 8 8 R 8 8 8 W W #.<X#.9 i ' -.`.P R ..R u 7 7 7 8 8 y ` X.9 y y 8 8 R 8 8 8 W W #.<X#.9 8 y i h i 8 8 8 8 ",
"7 h '.h 8 8 8 7 y ! ~ T R ..R 7 8 8 ( <X5X<X_ ' 1X' a u 8 R R | R 8 8 8 7 R ..i 8 ! ~ T R ..R 7 8 8 ( <X5X<X_ 8 7 h '.h 8 8 8 8 ",
"8 i h i 8 8 8 7 y ~ $.~ R R 8 8 8 8 9 @.<X#.^ R ' i 8 8 8 8 8 i y W y 7 8 8 R y y ~ $.~ R R 8 8 8 8 9 @.<X#.} T 7 i h i 8 8 8 8 ",
"8 8 8 8 8 7 8 8 8 T ~ / W 8 8 8 8 8 8 9 ( 9 T 8 7 7 8 8 8 8 8 8 8 8 8 8 y R y 8 8 T ~ / W 8 8 8 8 8 8 9 ( 9 T 8 8 8 8 8 8 8 8 8 ",
"8 8 8 8 8 8 8 8 u d i W W 8 8 8 8 8 8 8 7 8 R 8 8 R i W W y 8 8 8 8 8 y ~ O.! 8 u d i W W 8 8 8 8 8 8 8 7 8 R 8 8 8 8 8 8 8 8 8 ",
"7 7 8 W W W 8 u U N.U u 8 8 8 8 8 7 8 8 8 R ..R R ..R W ~ ! y 8 8 8 8 y ! } o.s U N.U u 8 8 8 8 8 7 8 8 8 R ..R 8 8 8 W W W 8 8 ",
"y R i / +./ 8 d N.:XN.d 8 8 8 8 i ' i y ! ~ E 8 8 R u y ! ~ W 8 8 R y 8 8 X.>X{ N.:XN.d 8 8 8 8 i ' i y ! ~ E 8 8 R R / +./ 8 8 ",
"R ..E ~ ^ ~ a u U N.U R 8 8 8 7 ' 1X' W / ~ y 8 8 8 8 8 y W W 8 R ..R 7 7 9 ) s U N.U R 8 8 8 7 ' 1X' W / ~ y 7 R ..E ~ ^ ~ a y ",
"u R i W W =.n.J u d i ~ R 7 8 8 i ' R W W W 8 8 8 8 8 8 8 8 8 8 8 R u 8 8 i 8 8 u d i ~ R 8 8 7 i ' R W W W 8 8 8 R i W Q =.n.L ",
"8 8 8 8 a n.=Xn.t 8 8 R 8 8 8 8 8 7 8 8 8 8 8 8 8 8 8 8 8 7 8 8 8 7 8 8 R ~ R 8 8 8 8 R 8 8 8 8 8 7 8 8 8 8 8 8 8 7 8 y a n.=Xm.",
"8 8 8 W R K n.K y 8 8 8 7 8 8 8 8 8 8 8 8 8 8 8 8 8 8 8 y y 8 8 8 8 i 8 8 R 8 8 8 8 8 8 8 8 8 8 8 8 8 8 8 8 8 8 8 8 8 W R K n.L ",
"8 8 8 y 8 y p y 8 8 8 8 8 8 8 8 8 8 8 8 8 8 8 8 8 8 8 y ! ! y 8 7 R ..R 7 7 8 8 8 8 8 8 8 8 8 8 8 8 8 8 8 8 8 8 8 8 8 y 8 y p y "
};
