/* XPM */
static char *ari21_1gghq[] = {
/* columns rows colors chars-per-pixel */
"64 64 215 2 ",
"   c #170701",
".  c #1B0700",
"X  c #1C0802",
"o  c #17080A",
"O  c #1A0A0B",
"+  c #1D0C13",
"@  c #1C0E1B",
"#  c #1F101E",
"$  c #250B01",
"%  c #2B0E01",
"&  c #230C0B",
"*  c #2B0D09",
"=  c #330E01",
"-  c #3B0F01",
";  c #2E100D",
":  c #351101",
">  c #3C1201",
",  c #341109",
"<  c #371A0E",
"1  c #220E12",
"2  c #250E15",
"3  c #23101B",
"4  c #2B1319",
"5  c #331815",
"6  c #1E1125",
"7  c #1E132C",
"8  c #1E1536",
"9  c #1E1639",
"0  c #1E1A3C",
"q  c #221224",
"w  c #281628",
"e  c #3D1C23",
"r  c #231634",
"t  c #231837",
"y  c #2D1B34",
"u  c #20173D",
"i  c #28173C",
"p  c #231A3C",
"a  c #311B37",
"s  c #311D3B",
"d  c #24203E",
"f  c #362537",
"g  c #34223B",
"h  c #39223B",
"j  c #382E3D",
"k  c #440F00",
"l  c #441401",
"z  c #4B1500",
"x  c #4C1900",
"c  c #401409",
"v  c #541600",
"b  c #5A1600",
"n  c #551901",
"m  c #5C1A00",
"M  c #631701",
"N  c #641B00",
"B  c #6C1C00",
"V  c #731D00",
"C  c #7B1E00",
"Z  c #53301A",
"A  c #6B2100",
"S  c #682500",
"D  c #742300",
"F  c #7B2200",
"G  c #7D2B00",
"H  c #482938",
"J  c #502B37",
"K  c #4E323C",
"L  c #573536",
"P  c #583F39",
"I  c #6A352B",
"U  c #724A2A",
"Y  c #1F1840",
"T  c #211741",
"R  c #231A42",
"E  c #281B47",
"W  c #23194A",
"Q  c #271A54",
"!  c #281B56",
"~  c #271D59",
"^  c #291B5A",
"/  c #1B244A",
"(  c #1F2B4C",
")  c #1C2E50",
"_  c #242146",
"`  c #2B214B",
"'  c #202E4E",
"]  c #332246",
"[  c #383E4D",
"{  c #252658",
"}  c #302552",
"|  c #332857",
" . c #35295A",
".. c #223156",
"X. c #2B1D63",
"o. c #2D1F69",
"O. c #183A63",
"+. c #193B67",
"@. c #2D206A",
"#. c #283267",
"$. c #3E3167",
"%. c #2F2271",
"&. c #4E2A47",
"*. c #513441",
"=. c #563553",
"-. c #442F6D",
";. c #1D4C60",
":. c #821D00",
">. c #8B1F00",
",. c #842400",
"<. c #8B2500",
"1. c #852A00",
"2. c #8C2900",
"3. c #932500",
"4. c #9A2500",
"5. c #932B01",
"6. c #9C2B00",
"7. c #8A3500",
"8. c #953200",
"9. c #9C3100",
"0. c #9D3B00",
"q. c #A32600",
"w. c #A32C00",
"e. c #AB2C01",
"r. c #B62C01",
"t. c #A43300",
"y. c #AD3301",
"u. c #A83C00",
"i. c #B43501",
"p. c #BB3501",
"a. c #B33B00",
"s. c #BB3B00",
"d. c #C33400",
"f. c #CB3501",
"g. c #C43C01",
"h. c #CB3C01",
"j. c #D53501",
"k. c #D33D01",
"l. c #DB3D01",
"z. c #E83A01",
"x. c #AB4401",
"c. c #BC4401",
"v. c #B44801",
"b. c #BC6800",
"n. c #AE7201",
"m. c #874838",
"M. c #89493A",
"N. c #955139",
"B. c #A65F32",
"V. c #A97B3B",
"C. c #C24300",
"Z. c #CC4301",
"A. c #C44A00",
"S. c #CC4C00",
"D. c #D34401",
"F. c #DA4401",
"G. c #D34A01",
"H. c #DB4C01",
"J. c #CA5401",
"K. c #D75701",
"L. c #E34401",
"P. c #EB4401",
"I. c #E44A01",
"U. c #EC4B01",
"Y. c #F44800",
"T. c #F44B01",
"R. c #E45301",
"E. c #E55B01",
"W. c #EB5D01",
"Q. c #F25301",
"!. c #F35C01",
"~. c #FA5901",
"^. c #CD6401",
"/. c #D96601",
"(. c #C97700",
"). c #D87700",
"_. c #E66701",
"`. c #EB6401",
"'. c #F36401",
"]. c #F86801",
"[. c #EB7701",
"{. c #F47601",
"}. c #FC7401",
"|. c #FC7D01",
" X c #955E43",
".X c #83744B",
"XX c #9A6150",
"oX c #DA8E01",
"OX c #E78801",
"+X c #FA8501",
"@X c #FC8C00",
"#X c #E69701",
"$X c #FC9301",
"%X c #F29801",
"&X c #FE9B01",
"*X c #FDA401",
"=X c #F7AA01",
"-X c #FEAC01",
";X c #F9B601",
":X c #FAC801",
">X c #FED601",
",X c #FFE601",
"<X c #FFF201",
"1X c #CD8C47",
"2X c #D9A150",
"3X c #EAB246",
"4X c #136C9A",
"5X c #24748E",
"6X c #277694",
"7X c #1171A1",
"8X c #4F4081",
"9X c #594990",
"0X c #614F9C",
"qX c #26899F",
"wX c #16AED5",
/* pixels */
"9 9 9 T W W 9 9 8 9 9 9 9 9 9 8 9 u 9 9 9 9 8 9 9 9 T W W u p 9 9 9 9 T W W 9 9 8 9 9 9 9 9 9 9 9 u 9 9 9 9 8 9 9 9 9 T W W 9 9 ",
"9 9 T ! ^ W 9 p ` p 9 9 9 8 9 p p W u 9 9 9 R u 9 W ! ^ W ` $.` 9 9 R ! ^ W 9 p ` p 9 9 9 8 9 p p W 9 9 9 9 R u 9 9 R ! ^ W 9 9 ",
"9 u ! o.! u 8 ` 8X` s t 9 R R } R 9 9 9 8 R  .R W @.%.! R $.0X$.p u ! o.! u 8 ` 8X` s t 9 R R } R 9 9 9 8 R  .R 9 u ! o.! u 9 9 ",
"9 W ^ ! T 9 9 p ` *. XK R  .R p 9 9 9 9 9 9 _ ..{ %.@.W 9 ` $.` u W ^ ! T 9 9 p ` *. XK R  .R p u 9 8 9 9 u _ ..Y W ^ ^ R 9 9 9 ",
"9 W W u 9 9 9 9 s  X2X Xg R 9 8 9 9 R 9 9 8 ) 6X#.! W 9 9 9 p 9 9 W W u 9 9 9 9 s  X2X Xg R u 9 9 9 R 9 9 8 ' 6X..T W u 9 9 9 9 ",
"9 9 9 9 9 9 9 9 t *.XX=.p 8 9 9 8 T ! R 9 8 R #.Q R R 9 9 9 9 9 9 9 9 9 9 9 9 9 t *.XX=.p 8 9 9 8 T ! R 8 8 R ..R 9 9 9 9 9 9 9 ",
"9 9 9 8 9 9 9 9 9 ! -.! 9 9 9 p j p T 9 9 9 9 9 9 R  .R 8 9 9 9 9 9 9 8 9 9 9 9 9 ! -.! 9 8 9 p j p T 9 9 9 9 9 9 9 9 8 9 9 9 9 ",
"u W u p 9 9 9 9 u Q ! T 9 9 9 j .Xj 8 9 u u 9 9 9 9 R p R 9 8 8 9 W u p 9 9 9 9 u Q ! R 9 9 9 j .Xj 9 9 u u 9 8 9 W p p 9 8 9 9 ",
"9 9 R } R R 9 9 9 u u 9 8 9 9 p j p 9 u Q ! T 9 9 8 8 r g w 4 4 4 q w y r r 8 9 9 u 9 9 9 9 9 p j p 9 9 Q ! R 9 9 9 R } R R 9 9 ",
"9 9 9 p R  .R 8 9 9 9 9 9 9 8 8 9 9 8 u ! o.! 9 7 # 1 * , : > l l x x c , 4 3 q 8 8 9 9 9 9 9 9 9 9 8 9 ! o.! 9 8 9 9 p R  .R 8 ",
"R 9 9 9 9 R 9 9 9 9 u W W p R 9 8 0 / 0 T Q u 3 , > l x x x x x l l l z v z > * 1 q r W W p R 9 8 0 / 0 T ! Q u R 9 9 9 9 R 9 9 ",
"^ T 9 9 9 8 9 9 9 u Q ! W R  .R 0 O.7XO.7 3 , l x x z z z v b m m m m v z v m v - $ 3 t R R  .R 0 O.7XO.0 u R R ! T 9 9 9 8 9 9 ",
"R p j p 9 9 9 8 9 W ^ Q u u R u / 7XwX;.5 l x l z v b M N B B V V V D F F D N B B v % & 3 r R u / 7XwX7X/ E $.` R p j p 9 9 9 9 ",
"8 j .Xj 9 9 9 9 9 W W u 9 9 8 9 0 ..;.< l l z b N B B C <.3.3.<.,.F V B F <.5.,.D ,.A > $ + 7 8 0 O.7XO.R $.0X$.p j .Xj 9 9 9 9 ",
"9 p j p 9 9 9 9 9 9 9 9 9 9 9 9 8 4 > > l m B V ,.w.g.D.D.g.i.e.6.3.<.F B N B ,.3.,.2.,.z $ + 7 8 0 / 0 9 ` $.` 9 p j p 9 9 9 9 ",
"8 9 9 9 9 9 9 9 9 9 9 9 9 9 9 8 4 : > v V V ,.p.R.'.E.G.p.w.3.,.,.F F F ,.F V B V <.<.,.1.n $ + 7 9 9 9 9 9 p 9 9 9 9 9 8 8 9 9 ",
"` p t f t 8 9 u W W u p 9 9 8 4 = > M F C e.E.}.{.K.i.<.C F ,.3.5.<.,.F V F ,.,.,.C 3.4.F D z $ + u W 9 9 9 9 9 9 9 9 9 9 9 9 9 ",
"9X` L B.L t W ^ ^ W ` $.` 8 q * > N ,.>.g.}.@X_.a.F V C 3.e.d.l.L.U.I.G.i.2.V V ,.3.3.w.e.D N l $ q T 9 9 9 9 9 9 9 9 W W W 9 9 ",
"} h B.3XB.] @.%.! R $.0X$.r & = N ,.3.G.@X@XJ.,.M m N B D F F ,.2.9.i.G.I.F.i.F M V 6.e.f.p.B z = & 6 8 9 9 9 9 u R R ^ o.^ 9 9 ",
"Q R L B.L ! %.@.W 9 ` $.E 2 % m <.q.K.&X@Xc.B z z v B F F V M v z l l m F i.h.i.F v m 4.f.U.s.M > % & 7 9 9 9 9 R  .R ! ^ ! s u ",
"^ Q p s E ^ ^ W 9 9 9 p q & x ,.q.G.&X$Xx.v - v ,.i.D.F.F.k.h.s.u.5.D v l v 2.g.p.D l l 5.F.{.u.z % $ 3 8 9 9 9 u R p W W &.M.J ",
"^ ! u 9 W W R R 9 9 9 8 + = B w.Z.$X&Xv.z - B i.I.U.I.H.I.R.'.|.@X@XOX^.u.B v ,.g.h.F > - 3._.#XG = $ & 7 9 9 9 9 8 9 T s M.1XN.",
"! Q u 9 9 9 R  .p 8 9 6 & v 3.f.{.*XJ.b l V y.h.F.k.d.i.i.p.s.c.J./.[.@X+X`.a.V <.h.Z.D % - 9.;X(.v $ $ 3 8 9 8 9 9 9 W R H M.J ",
"..R 9 9 8 9 9 E ` p 8 @ = V d.W.*X[.F v b ,.g.U.F.i.6.2.F B m v z n D 9.C.K.E.k.4.y.L.g.m $ k b.:X7.% X & 7 p ` p 8 9 9 9 u y r ",
"qX' 9 R 9 9 8 ` 8X` y & l 6.P.+X$Xa.V z N g.!.H.t.F N n x > = % % $ % > n ,.9.y.p.e.F.U.9.> $ A ;XoXl . $ w ` 8X` 9 9 p 9 9 9 R ",
"..0 R  .R 8 9 p ` *.U * m f.].&X`.3.b z y.'.R.6.M x x l : % % % % % $ $ = x D 1.,.3.p.Q.D.A % = n.:XG X X Z K ` W W ` $.` 9 R ^ ",
"9 9 p R u 9 9 9 s  XU : F P.+X+Xk.B l ,.W.'.t.v l x l : % % % % % % % % $ % x D G B ,.S.!.9.> $ S :Xb.% . Z M.g Q Q $.0X$.p 9 R ",
"u Q Q T u 9 9 9 t K Z > w.~.@X].w.v v C.}.C.m l x x : % % % % % % % % % % % = n D D B 5.`.A.n $ z #X#Xl   < H p Q W ` $.` t R 9 ",
"u Q ^ ^ Q 9 9 9 9 W 3 l p.}.@XR.V v F `.`.F > l x > % % % % % % % % % % % % % > m D N C c._.D % = b.*XS   & i R W 9 9 p 9 R  .R ",
"9 T ^ @.^ T 9 9 u T 1 v D.+X|.g.B M t.}.A.z > x l : % % % % % % % % % % % % % = x A A B 5./.8.= % x.@X1.. O r u 9 9 9 9 9 u R u ",
"8 u ^ X.^ Q u 8 9 8 & m H.$X{.e.B V A.}.2.> l x > % % % % % % % % % % % % % % % > m A D ,.S.x.- = 0.}.8.X   q 9 9 9 9 9 9 u u 9 ",
"u R ! ! ! Q u 9 9 7 & N E.&X{.6.C 3.K.`.N > x x : % % % % % % % % % % % % % % % : x A F <.p.c.l = 0.].5.$ . q 8 9 9 9 9 R ! Q u ",
"R  .E u u u 9 9 9 7 & N E.*X[.4.,.e.W.K.v > x l = % % % % % % % % % % % % % % % = l N 1.6.p.a.l > u.W.1.$   q 9 9 9 8 9 ! o.! u ",
"u R u 9 p 9 9 9 9 8 & m K.-X[.4.<.d.W.A.l > x l % % % % % % % % % % % % % % % % % > m 2.t.p.y.l z a.R.D $   q 9 9 8 8 9 Q { ..0 ",
"9 u W R } p 9 9 9 u + v K.-X[.q.3.k.!.c.l > x l % % % % % % % % % % % % % % % % % > N 8.i.g.t.> M C.D.N X O r 9 9 R 9 9 9 ..5X' ",
"9 W X.W R 9 9 R u u + l A.;X+Xr.3.l.!.s.l > x l % % % % % % % % % % % % % % % % % > A t.p.g.6.> ,.Z.s.x . O r 9 R  .R 9 9 0 ) 0 ",
"9 u W u 9 9 9 R 9 8 + = u.-X*Xd.3.k.~.C.z > x l % $ % % % % % % % % % % % % % $ % l F p.f.g.,.z w.G.9.= . O 8 9 u R u 9 9 R 9 8 ",
"9 9 9 9 9 9 9 9 9 9 q % ,.%X:XF.q.d.~.K.m > l l : % % % % % % % % % % % % % % $ % z 9.g.k.i.B N g.G.D $   + 8 9 9 9 8 8 R ! R 9 ",
"9 9 9 9 9 9 9 9 8 R ] & m ).>X].p.e.T.`.F l l x > % $ % % % % % % % % % % % $ $ : A g.k.k.w.m 5.H.s.v .   6 9 9 9 9 p 9 9 R 9 9 ",
"9 9 9 9 9 9 9 9 8 u t 1 - x.>X&Xz.r.k.].v.b l l l % $ % % % % % % % % % % % $ % l 8.F.F.f.:.V g.R.2.=   O t 9 9 9 p } p 9 9 9 9 ",
"9 9 9 u W W 9 8 0 ' 0 3 % V #X>X~.j.p.U.W.3.v l l : % $ % % % % % % % % $ $ $ > D Z.L.F.r.V t.R.Z.m $ . @ W u 9 9 9 p R W W 9 9 ",
"9 9 T ! ^ W 9 8 ' 5X' q * l v.>X&XT.d.d.T.F.2.n l > : $ $ $ % % % % $ $ $ $ : m y.I.F.h.>.6.G.E.5.> .   6 9 9 9 9 9 T ! ^ W 9 9 ",
"9 u ! o.! u 9 9 0 ' 0 9 q = B oX>X|.P.r.p.L.l.w.N l > % $ $ $ $ $ $ $ $ % : n 8.F.I.D.e.q.Z.E.s.m $ . O 7 9 p 9 9 u ! o.! u 9 9 ",
"9 W ^ ! R 9 9 9 9 8 9 u u ; l 8.;X:X|.L.e.e.k.P.g.,.n l : % $ $ $ % % = > n 2.Z.R.F.d.r.k.W.Z.F > X $ 4 t ` $.` 9 W ^ ! R 9 9 9 ",
"9 W W u 9 9 9 9 9 R u 9 u q - b v.:X:X@XF.q.<.g.Q.I.p.1.N z l > : : : > b 3.G.'.R.l.j.l.W.G.2.z $ $ Z I s $.0X$.R W W u 9 9 9 9 ",
"9 9 9 9 9 9 9 9 R  .R 9 9 8 2 l B v.;X,X-XK.4.V t.R.~.U.g.6.F B m m B 5.J.{.@X'.L.z.P.!.H.3.m % $ & I H t ` $.` 9 9 9 9 9 9 9 9 ",
"9 9 9 9 9 9 9 8 u R u 9 9 8 6 * z V c.;X<X>X[.y.V C a.R.!.'.E.K.^.).#X;X;X&X'.P.z.T.!.G.5.N = % $ # y u 9 R W W 9 9 9 9 9 9 9 9 ",
"u W p p 9 8 9 9 8 9 T 9 9 9 t y , v C i.OX,X<X;X^.t.C >.y.G.`.|.&X*X-X$X'.I.z.T.~.W.g.2.B > = * @ 8 9 W W ! ! W u W p p 9 8 9 9 ",
"9 9 R } R R 9 9 9 R ! R 8 8 ` -.w = b C w.K.;X<X,X=X_.Z.d.f.z.P.T.T.T.P.L.T.T.U.G.t.,.B z > * y p 9 W ^ ^ ^ ! T 9 9 p } R R u 9 ",
"9 9 9 p R  .R 9 9 9 R 9 9 9 p ` t q , v V >.p.[.:X,X>X-X|.'.Q.Q.Q.Q.Q.Q.U.F.d.e.4.<.C b l $ @ p p 9 W ^ @.^ W 9 8 9 9 p R  .R 9 ",
"R 9 9 9 u R 9 9 9 9 9 9 9 9 9 8 9 u r ; z N C 4.Z.[.*X;X-X@X].T.z.j.d.r.e.y.p.g.p.3.m = X @ 8 9 9 u ! ^ ^ ^ W u R 9 9 8 9 R u 9 ",
"^ T 9 9 9 9 9 9 9 9 9 9 9 8 9 9 9 W ! R w > v B :.q.f.E.|.$X&X$X+XOXOXOX[.{.W.s.F - X o 6 8 9 9 9 W ! ~ { W u R ! R 8 9 9 9 9 9 ",
"R p j p 9 9 9 9 9 u u 9 9 R 9 9 9 W W +.4X( ; l n N V >.w.C.K.).OXoX).^.v.7.m = . o @ 7 u R 9 9 9 W W +.7X+.0 9 u p j p 9 9 9 9 ",
"8 j .Xj 9 9 9 8 u Q ! T R  .R 8 9 9 / 7XwX7X/ w e c x z z v v b v z k = % $ X O @ R Q T R  .R 8 9 9 / 7XwX7X/ 9 8 j .Xj 9 9 9 9 ",
"9 p j p 9 9 9 8 u ! @.! R R 9 9 9 9 0 O.7X+.~ R p q 3 ; , , : : = * * & 1 3 q r u ! @.! R R 9 9 9 9 0 O.7X+.{ R 8 p j p 9 9 9 9 ",
"9 9 9 9 9 8 9 9 9 T ! ^ W 9 9 9 9 9 9 0 / 0 u 9 9 8 8 8 8 7 6 q q q 7 7 u u u 9 9 T ! ^ W 9 9 9 9 9 9 0 / 0 T 9 9 9 9 9 9 9 9 9 ",
"9 9 9 9 9 9 9 9 t f p W W 9 9 9 9 9 9 9 8 9 R 9 9 R p W W u 9 9 9 9 9 9 ! X.Q 9 t f p W W 9 9 9 9 9 9 9 8 9 R 9 9 9 9 9 9 9 9 9 ",
"9 8 9 W W W 9 t P V.P t 9 9 9 9 9 8 9 9 9 E  .R R  .R W ! Q u 9 9 8 9 u Q { ..p P V.P t 9 9 9 9 9 8 9 9 9 E  .R 8 8 9 W W W 9 9 ",
"u R p ^ o.^ 9 f V.3XV.f 9 9 9 9 p ` p u Q ! E 9 u R u u Q ! W 9 9 R u 9 9 ..5X[ V.3XV.f 9 9 9 9 p ` p u Q ! E 9 9 R R ^ o.^ 9 9 ",
"R  .E ! ^ ! s t P V.P R 9 9 9 8 ` 8X` W ^ ! u 9 9 8 9 9 u W W 9 R  .R 9 8 0 ) d P V.P R 9 9 9 8 ` 8X` W ^ ! u 8 R  .E ! ^ ! s u ",
"u R p W E &.M.H t f R ! R 9 9 9 p ` R W W W 9 9 9 9 9 9 9 9 9 9 9 R t 9 9 p 9 9 t f R ! R 9 9 8 p ` R W W W 9 9 9 R p W E &.M.J ",
"9 9 9 9 s M.1XM.y 9 9 R 9 9 9 9 9 8 9 9 9 9 9 9 9 9 9 9 8 8 9 9 9 9 8 8 R ! R 9 9 9 9 R 9 9 9 9 9 8 9 9 9 9 9 9 9 8 9 u s M.1XN.",
"9 9 9 W R H M.H u 9 9 9 8 9 9 9 9 9 9 9 9 9 9 9 9 9 9 9 u u 9 9 9 9 p 9 9 R 9 9 9 9 9 9 9 9 9 9 9 9 9 9 9 9 9 9 9 9 9 W R H m.J ",
"9 9 9 u 9 u a u 9 9 9 9 9 9 9 9 9 9 9 9 9 9 9 9 9 9 9 u Q Q u 9 9 R | R 8 9 9 9 9 9 9 9 9 9 9 9 9 9 9 9 9 9 9 9 9 9 9 u 9 u a u "
};
