/* XPM */
static char *adnwm_ldyoz[] = {
/* columns rows colors chars-per-pixel */
"64 64 211 2 ",
"   c #160701",
".  c #190700",
"X  c #1C0904",
"o  c #1B0A09",
"O  c #170A12",
"+  c #1C0D14",
"@  c #1C0E1B",
"#  c #250B01",
"$  c #2B0E01",
"%  c #230C0B",
"&  c #290C08",
"*  c #320E01",
"=  c #3B0F01",
"-  c #2D110D",
";  c #351101",
":  c #3D1201",
">  c #371209",
",  c #220E13",
"<  c #260F17",
"1  c #2E1716",
"2  c #24111C",
"3  c #2B131C",
"4  c #321213",
"5  c #1D1023",
"6  c #1E122B",
"7  c #1E1536",
"8  c #1D1837",
"9  c #1E1639",
"0  c #1E1A3D",
"q  c #231224",
"w  c #281624",
"e  c #21132B",
"r  c #211635",
"t  c #241837",
"y  c #2D1935",
"u  c #20173D",
"i  c #221A3C",
"p  c #311C35",
"a  c #311D3A",
"s  c #23213B",
"d  c #362537",
"f  c #34223A",
"g  c #39223B",
"h  c #382E3D",
"j  c #420F00",
"k  c #441401",
"l  c #4B1500",
"z  c #4B1800",
"x  c #531500",
"c  c #5B1700",
"v  c #541900",
"b  c #5C1A00",
"n  c #631700",
"m  c #631B00",
"M  c #6B1C00",
"N  c #731E00",
"B  c #7B1E00",
"V  c #4F220E",
"C  c #652200",
"Z  c #6C2100",
"A  c #742100",
"S  c #7C2300",
"D  c #7B2A00",
"F  c #43232B",
"G  c #482837",
"H  c #492837",
"J  c #502B37",
"K  c #4E313A",
"L  c #573536",
"P  c #583F39",
"I  c #734526",
"U  c #1F1840",
"Y  c #211741",
"T  c #231A42",
"R  c #291B44",
"E  c #23194A",
"W  c #281A4A",
"Q  c #271A54",
"!  c #281B56",
"~  c #271D59",
"^  c #291B5A",
"/  c #1B244A",
"(  c #1F2D4C",
")  c #1D2551",
"_  c #232245",
"`  c #2B214B",
"'  c #202E4E",
"]  c #342347",
"[  c #383E4D",
"{  c #252659",
"}  c #302552",
"|  c #352956",
" . c #35295A",
".. c #213152",
"X. c #23315A",
"o. c #2B1D63",
"O. c #2D1F69",
"+. c #183A63",
"@. c #193B68",
"#. c #2D206A",
"$. c #302F66",
"%. c #3E3167",
"&. c #2F2271",
"*. c #4E2A47",
"=. c #513441",
"-. c #563553",
";. c #402866",
":. c #235A6A",
">. c #861F00",
",. c #832400",
"<. c #8C2500",
"1. c #852800",
"2. c #8C2A00",
"3. c #942600",
"4. c #9B2600",
"5. c #932A01",
"6. c #9A2B00",
"7. c #893400",
"8. c #9D3200",
"9. c #9D3A00",
"0. c #A62600",
"q. c #A42C00",
"w. c #AC2C01",
"e. c #B52D01",
"r. c #BA2D01",
"t. c #A53400",
"y. c #AB3301",
"u. c #A73B01",
"i. c #B43601",
"p. c #BB3401",
"a. c #B33B01",
"s. c #BB3B00",
"d. c #CF2E01",
"f. c #C33401",
"g. c #C33B01",
"h. c #CB3C00",
"j. c #D73901",
"k. c #D43D01",
"l. c #E63A01",
"z. c #924900",
"x. c #A44800",
"c. c #B94300",
"v. c #A85901",
"b. c #BA5301",
"n. c #BF6100",
"m. c #874838",
"M. c #89493A",
"N. c #935339",
"B. c #A65F32",
"V. c #A97B3B",
"C. c #CD4401",
"Z. c #C64800",
"A. c #D44301",
"S. c #DB4401",
"D. c #D34A01",
"F. c #DC4C01",
"G. c #C85501",
"H. c #D95701",
"J. c #E24501",
"K. c #EA4401",
"L. c #E54C01",
"P. c #EB4B01",
"I. c #F44B01",
"U. c #E65600",
"Y. c #EB5B01",
"T. c #F25401",
"R. c #F45C01",
"E. c #FA5D01",
"W. c #CC6601",
"Q. c #DA6701",
"!. c #CF7401",
"~. c #E46201",
"^. c #EA6801",
"/. c #F96501",
"(. c #F56B01",
"). c #EA7B01",
"_. c #F47500",
"`. c #FB7D00",
"'. c #965F43",
"]. c #83744B",
"[. c #9A6150",
"{. c #DD8401",
"}. c #D49101",
"|. c #E78501",
" X c #F88801",
".X c #FD8B00",
"XX c #E69700",
"oX c #FE9400",
"OX c #F49901",
"+X c #FD9B01",
"@X c #D2A201",
"#X c #FEA301",
"$X c #F4A801",
"%X c #FDAB01",
"&X c #F6B901",
"*X c #F8C701",
"=X c #FFD401",
"-X c #FFDB01",
";X c #FEE501",
":X c #FFF101",
">X c #CD8C47",
",X c #D9A150",
"<X c #EAB246",
"1X c #24748E",
"2X c #277694",
"3X c #1171A1",
"4X c #4F4081",
"5X c #594990",
"6X c #614F9C",
"7X c #26899F",
"8X c #16B1D9",
/* pixels */
"9 9 9 Y E E 9 9 7 9 9 9 9 9 9 7 9 u 9 9 9 9 9 9 9 9 Y E E u i 9 9 9 9 Y E E 9 9 7 9 9 9 9 9 9 9 9 u 9 9 9 9 9 9 9 9 9 Y E E 9 9 ",
"9 9 Y ! ^ E 9 i ` i 9 9 9 7 9 i i E u 9 9 u T u 9 E ! ^ E ` %.` 9 9 Y ! ^ E 9 i ` i 9 9 9 7 9 i i E 9 9 9 9 T u 9 9 T ! ^ E 9 9 ",
"9 u ! O.! u 7 ` 4X` a t 9 T T } T 9 9 9 9 T  .T E #.&.! T %.6X%.i u ! O.! u 7 ` 4X` a t 9 T T } T 9 9 9 7 T  .T 9 u ! O.! u 9 9 ",
"9 E ^ ! Y 9 9 i ` =.'.K R  .T i 9 9 9 9 9 9 _ ..{ &.#.E 9 ` %.` u E ^ ^ T 9 9 i ` =.'.K R  .T i 9 9 7 9 9 u _ ..U E ^ ^ T 9 9 9 ",
"9 E E u 9 9 9 9 a '.,X'.f T 9 7 9 9 T 9 9 7 ( 2X$.! E 9 9 9 i 9 9 E E u 9 9 7 7 a '.,X'.f T 9 9 9 9 T 9 9 7 ' 2X..E E u 9 9 9 9 ",
"9 9 9 9 9 9 9 9 t =.[.-.i 7 9 9 7 Y ! T 9 7 T X.Q T T 9 9 9 9 9 9 9 9 9 9 9 9 9 t =.[.-.i 9 9 9 7 Y ! T 7 7 T X.T 9 9 9 9 9 9 9 ",
"9 9 9 7 9 9 9 9 9 ! ;.! 9 9 9 i h i Y 9 9 9 9 9 9 T  .T 7 9 9 9 9 9 9 7 9 9 9 9 9 ! ;.! 9 9 9 i h i Y 9 9 9 9 9 9 9 9 7 9 9 9 9 ",
"u E u i 9 9 9 9 u Q ! Y 9 9 9 h ].h 7 9 u u 9 9 9 9 T i T 9 9 9 9 E i i 9 7 9 9 u Q ! T 9 9 9 h ].h 7 9 u u 9 7 9 E i i 9 7 9 9 ",
"9 9 T } T T 9 9 9 u u 9 7 9 9 i h i 9 9 ! ! T 9 9 9 7 i  .T 9 9 9 9 T } T T u 9 9 u u 9 7 9 9 i h i 9 9 Q ! T 9 9 9 T } T T 9 9 ",
"9 9 9 i T  .T 7 9 9 9 9 9 9 7 7 9 9 7 9 ! #.! u 9 9 0 .._ 9 7 7 7 7 9 i T  .T 7 9 9 9 9 9 9 7 7 9 9 7 9 ! O.! 9 7 9 9 i T  .T 7 ",
"T 9 9 9 9 T 9 9 9 9 u E E i T 9 9 0 / 0 Y ! Q u 9 7 ( :.s 2 3 4 4 4 3 2 q t r 7 9 9 u E E i T u 7 0 / 0 Y ! Q u T 9 9 9 9 T 9 9 ",
"^ Y 9 9 9 7 9 9 9 u Q ! E T  .T 0 +.3X+.0 u T 9 6 5 2 1 > : : k k z l z k - , q 6 u Q ! E T  .T 0 +.3X+.0 u T T ! Y 9 9 9 7 9 9 ",
"T i h i 9 9 9 7 9 E ^ Q u u T u / 3X8X3X/ R | w - k z l l l l l l l z z l x z * % q W Q u u T u / 3X8X3X/ W %.` T i h i 9 9 9 9 ",
"7 h ].h 9 9 9 9 9 E E u 9 9 7 9 0 +.3X+.i ] F k z l l x v c m M M M M M m c m m k $ , e 7 9 7 7 0 +.3X+.T %.6X%.i h ].h 9 9 9 9 ",
"9 i h i 9 9 9 9 9 9 9 9 9 9 9 9 7 0 / 8 2 > k k l c m m M N S S S A N A 1.2.,.A S m * X @ 7 9 9 9 0 / 0 9 ` %.` 9 i h i 9 9 9 9 ",
"7 9 9 9 9 9 9 9 9 9 9 9 9 9 9 9 9 9 7 3 : : l c M N <.y.g.g.s.y.q.3.,.N M M ,.2.1.1.S z % @ 7 9 9 9 9 9 9 9 i 9 9 9 9 9 7 7 9 9 ",
"` i t p t 7 9 u E E u i 9 9 9 9 u Y 3 ; : c N B 6.C.Y.U.D.s.q.3.<.,.S ,.S B M M 1.<.1.,.x # @ 7 u E E 9 9 9 9 9 9 9 9 9 9 9 9 9 ",
"5X` L B.L t E ^ ^ E ` %.` 9 9 T Q w * k M B <.C.(._.H.i.<.,.,.<.5.5.1.S N S ,.,.B ,.4.,.A l # @ Q ^ E 9 9 9 9 9 9 9 9 E E E 9 9 ",
"} g B.<XB.] #.&.! T %.6X%.i u ! R - k N >.q.~..X^.a.,.N S 3.y.h.S.L.L.D.i.2.N S <.3.6.e.,.m k & i ! u 9 9 9 9 9 u T T ^ O.^ 9 9 ",
"Q T L B.L ! &.#.E 9 ` %.` u E R < : N <.i._.oXH.1.c c m M N N N S 1.8.s.S.S.y.A m ,.w.f.h.S l * % r 9 9 9 9 9 9 T  .T ! ^ ! a u ",
"^ Q i f W ! ^ E 9 9 9 i 9 9 Y 2 * m 3.p. X+XG.M k l m ,.5.2.,.N c l k l m 6.g.y.M l M p.P.C.M : $ , 7 9 9 9 9 9 u T i E E *.M.J ",
"^ ! u 9 E E T T 9 9 9 9 9 9 e % x <.p.).+XG.c = m y.S.P.P.P.L.U.H.G.x.D c x S s.a.C = c f._.b.l # # q 7 9 9 9 9 9 7 9 Y a M.>XN.",
"! Q u 9 9 9 T  .T 7 9 9 9 7 + : S e.^.#XG.c k S g.J.S.A.h.C.F.~._. XoX XQ.t.M S g.g.M $ c G.$X7.* # , 7 9 9 9 7 9 9 9 E T H M.J ",
"X.T 9 9 9 9 9 R ` i 9 9 9 6 % c w.F.+X).S l M q.A.J.g.y.6.5.1.S S 2.u.G.^.(.D.6.3.A.s.v # m XX}.x # # e 9 9 i ` i 7 9 9 9 u y r ",
"7X' 9 T 9 9 7 ` 4X` a t 9 5 * S j.`.oXu.n x 1.S.U.g.2.A m v k ; * $ * z A 8.s.g.w.g.K.t.: # z.*Xz.# X 2 r a ` 4X` 9 9 i 9 9 9 T ",
"..0 T  .T 9 9 i ` =.'.K i 2 k w.E.oX~.>.x m D.R.s.A v l k ; $ $ $ $ # $ ; b D 1.3.w.P.S.Z # k @X}.k . % H '.=.` E E ` %.` 9 T ^ ",
"9 9 i T 9 9 9 9 a '.,X'.p % c k.`..Xg.n l a./.Z.M z z k ; $ $ $ $ $ $ $ $ ; b D A B s.R.t.: # z.*XD . & N.,X'.f Q Q %.6X%.i 9 T ",
"u Q Q Y u 9 9 9 t =.[.-.e & S T..X/.4.l A Y.~.S k z z ; $ $ $ $ $ $ $ $ $ $ : b D M ,.H.D.c # C &Xv.# X J [.=.i Q E ` %.` t T 9 ",
"u Q ^ ^ Q 9 9 9 9 ! ;.! 5 * 6./..XF.M c u._.u.k k z : $ $ $ $ $ $ $ $ $ $ $ $ k C Z M t.~.D # z {.!.* . y %.! Y E 9 9 i 9 T  .T ",
"9 Y ^ #.^ Y 9 9 9 Q ! Y @ = y.`.`.p.M M H.^.A : z k * $ $ $ $ $ $ $ $ $ $ $ $ ; v Z Z 1.H.9.* : W.Q.k   q ! Q u 9 9 9 9 9 u T u ",
"9 u ^ o.^ Q u 9 9 9 u 7 @ = s..X_.q.N <.^.G.l k z : $ $ $ $ $ $ $ $ $ $ $ $ $ $ k m A S s.c.= : G.U.l   + u 9 9 9 9 9 9 9 u 9 9 ",
"u T ! ! ! Q u 9 9 9 9 9 @ k Z.+X).6.,.q.(.u.: k z ; $ $ $ $ $ $ $ $ $ $ $ $ $ $ : b S 1.i.a.: k Z.F.l   + 7 9 9 9 9 9 9 T ! Q u ",
"T  .R u u u 9 9 9 9 u E 5 = c.+X).4.<.f.(.2.: z z ; $ $ $ $ $ $ $ $ $ $ $ $ $ $ ; v S 6.p.u.: v Z.C.k   2 u 9 9 9 9 9 9 ! O.! u ",
"u T u 9 i 9 9 9 9 u Q ! 6 * c.#X|.4.4.k.R.S : z k $ $ $ $ $ $ $ $ $ $ $ $ $ $ $ ; l 1.t.f.t.: M D.s.=   e Q u 9 9 7 9 u Q { X.0 ",
"9 u E T } i 9 9 9 E ^ Q 6 $ 8.#X Xw.4.J.R.S : k k $ $ $ $ $ $ $ $ $ $ $ $ $ $ $ ; l 5.i.h.8.k <.D.6.$   e ! E 9 9 T 9 9 9 ..1X..",
"9 E ^ E T 9 9 T u E E Y 6 % ,.OX%Xf.4.J.R.1.: k k ; # $ $ $ $ $ $ $ $ $ $ $ $ $ * c t.g.h.<.l y.D.A #   e E E 9 T  .T 9 9 0 ( 0 ",
"9 u E u 9 9 9 T 9 9 9 9 6 % m ).*XS.0.k./.8.k k z ; $ $ $ $ $ $ $ $ $ $ $ $ $ $ ; A g.h.p.N M C.c.x . o 6 9 9 9 9 T u 9 9 i 9 9 ",
"9 9 9 9 9 9 9 9 9 u T 9 7 , j b.=X(.r.p.E.Z.v k z : $ # $ $ $ $ $ $ $ $ $ $ # $ k 8.A.k.q.n 6.F.8.*   O 7 9 9 9 9 9 9 9 T ! T 7 ",
"9 9 9 9 9 9 9 9 9 T  .T 7 2 $ 1.&X#Xl.e.J.^.1.z k k ; # $ $ $ $ $ $ $ $ $ # # ; Z C.S.h.,.S C.D.m #   @ 9 u 9 9 9 9 i 9 9 T 9 9 ",
"9 9 9 9 9 9 9 9 9 u T 9 9 r & v !.=XE.j.p.T.C.N k k : $ # $ $ $ $ $ $ $ # # $ v y.K.S.e.B i.U.t.: . X 6 Q Q u 9 9 i } i 9 9 9 9 ",
"9 9 9 u E E 9 7 0 ' 0 7 i ` 3 * 7.*X%XI.f.f.P.g.S l k ; $ # # $ $ # # # # $ k 2.S.J.h.3.w.F.D.M # . + 9 Q Q u 9 9 9 i T E E 9 9 ",
"9 9 Y ! ^ E 9 7 ' 1X' 9 i T e - x n.=XoXP.e.r.j.k.6.c k * # # # # # # $ * k S C.L.A.e.e.F.U.5.: X X 5 9 u u 9 9 9 9 Y ! ^ E 9 9 ",
"9 u ! O.! u 9 9 0 ' 0 u Q ! u 2 = M {.=X+XL.0.4.A.P.g.1.c k ; $ $ $ * ; k S Z.U.F.j.d.F.Y.t.c # X + y u 7 9 i 9 9 u ! O.! u 9 9 ",
"9 E ^ ! Y 9 9 9 9 7 7 u ! O.! 7 - l 1.|.-X&XH.4.>.s.T.P.g.6.A m v z x M t.Q.`.Y.l.l.P.Y.a.M * # % F M.H t ` %.` 9 E ^ ! T 9 9 9 ",
"9 E E u 9 9 9 9 9 T 9 9 Y ! Q 9 q : c 3.{.;X-X|.t.N 2.Z.Y.R.H.Z.c.b.W.XX%X+X(.K.l.T.U.a.A : # % w m.>XM.a %.6X%.T E E u 9 9 9 9 ",
"9 9 9 9 9 9 9 7 T  .T 9 9 u u 9 r 3 : n 3.W.*X:X&XW.6.B 3.g.U._..X#X%X+X_.L.K.I.T.F.t.A k * & @ r H M.H u ` %.` 9 9 9 9 9 9 9 9 ",
"9 9 9 9 9 9 9 9 9 T 9 9 9 9 7 7 9 r 2 : m >.c.XX;X;X$X~.h.f.j.l.I.I.I.K.K.I.I.L.s.3.N x : $ @ 7 9 u y u 9 T W E 9 9 9 9 9 9 9 9 ",
"u E i i 9 7 9 9 9 9 T 9 9 9 i ` i 9 u q > c B q.H.$X-X=X%X`.R.T.T.T.U.P.J.k.p.q.3.,.m k # @ r ` i 9 9 E E ! ! E u E i i 9 7 9 9 ",
"9 9 T } T T 9 9 9 T ! T 7 7 ` 4X` 9 E Q y 4 x M >.e.H. X%X#X X/.P.j.f.p.a.Z.D.C.q.m * o @ 7 ` 4X` 9 E ^ ^ ^ ! Y 9 9 T } T T u 9 ",
"9 9 9 i T  .T 9 9 9 T 9 9 9 i ` i 9 E ^ O.R 3 k c M >.w.D.^. X+X#X$XOXOX).~.c.S = X O 6 7 9 i ` i 9 E ^ #.^ E 9 7 9 9 i T  .T 7 ",
"T 9 9 9 u T 9 9 9 9 9 9 9 9 9 7 9 Y ! ^ ^ ^ Y q 4 z v c M B 2.9.x.x.z.7.C k # o O 5 7 9 9 9 9 7 9 Y ! ^ ^ ^ E 9 i 9 9 7 9 T u 9 ",
"^ Y 9 9 9 9 9 9 9 9 9 9 9 7 9 9 9 E ! ~ { E u 9 p I I V : k k = = * $ # % o q :._ 7 9 9 9 7 9 9 9 E ! ~ { E u T ! T 7 9 9 9 9 9 ",
"T i h i 9 9 9 9 9 u u 9 9 T 9 9 9 E E @.3X+.0 i ` =.N.H e p w 3 2 2 2 q e r T ' 0 u u 9 9 T 9 9 9 E E @.3X+.0 9 u i h i 9 9 9 9 ",
"7 h ].h 9 9 9 7 u Q ! Y T  .T 7 9 9 / 3X8X3X) ` 4X` f t 9 T T ` i 9 9 9 9 T  .i 9 Q ! Y T  .T 7 9 9 / 3X8X3X) 9 7 h ].h 9 9 9 9 ",
"9 i h i 9 9 9 7 u ! #.! T T 9 9 9 9 0 +.3X@.~ T ` i 9 9 9 9 9 i i E u 9 7 9 T 9 u ! #.! T T 9 9 9 9 0 +.3X@.{ T 7 i h i 9 9 9 9 ",
"9 9 9 9 9 7 9 9 9 Y ! ^ E 9 9 9 9 9 9 0 / 0 Y 9 7 9 9 9 9 9 9 9 9 9 9 9 u T u 9 9 Y ! ^ E 9 9 9 9 9 9 0 / 0 Y 9 9 9 9 9 9 9 9 9 ",
"9 9 9 9 9 9 9 9 t d i E E 9 9 9 9 9 9 9 7 9 T 9 9 T i E E u 9 9 9 7 7 9 ! o.Q 9 t d i E E 9 9 9 9 9 9 9 7 9 T 9 9 9 9 9 u 9 9 9 ",
"7 7 9 E E E 9 t P V.P i 9 9 9 9 9 7 9 9 9 R  .T T  .T E ! Q u 9 9 7 9 u Q { X.i P V.P i 9 9 9 9 9 7 9 9 9 R  .T 9 7 9 E E E 9 9 ",
"u T i ^ O.^ 9 d V.<XV.d 9 9 9 9 i ` i u Q ! R 9 9 T 9 u Q ! E 9 u T u 9 9 ..1X[ V.<XV.d 9 9 9 9 i ` i u Q ! R 9 9 T T ^ O.^ 9 9 ",
"T  .R ! ^ ! a i P V.P T 9 9 9 7 ` 4X` E ^ ! u 9 9 9 9 9 u E E 9 T  .T 9 7 0 ( s P V.P T 9 9 9 7 ` 4X` E ^ ! u 7 T  .R ! ^ ! a u ",
"t T i E E *.M.H i d i ! i 7 9 9 i ` T E E E 9 9 9 9 9 9 9 9 9 9 9 T u 9 9 i 9 9 t d T ! T 7 9 9 i ` T E E E 9 9 9 T i E W *.M.J ",
"9 9 9 9 a M.>XM.y 9 9 T 9 9 9 9 9 7 9 9 9 9 9 9 9 9 9 9 9 7 9 9 9 9 7 7 T ! T 9 9 9 9 T 9 9 9 9 9 7 9 9 9 9 9 9 9 9 9 u a M.>XN.",
"9 9 9 E T H M.H u 9 9 9 7 9 9 9 9 9 9 9 9 9 9 9 9 9 9 9 u u 9 9 9 9 i 9 9 T 9 9 9 9 9 9 9 9 9 9 9 9 9 9 9 9 9 9 9 9 9 E T H m.J ",
"9 9 9 9 9 u p u 9 9 9 9 9 9 9 9 9 9 9 9 9 9 9 9 9 9 9 u Q Q u 9 9 T | T 7 9 9 9 9 9 9 9 9 9 9 9 9 9 9 9 9 9 9 9 9 9 9 u 9 u p u "
};
