/* XPM */
static char *a2urh_latiw[] = {
/* columns rows colors chars-per-pixel */
"64 64 242 2 ",
"   c #07080A",
".  c #060619",
"X  c #1A1A1A",
"o  c #21201D",
"O  c #0F0D26",
"+  c #0D0C2A",
"@  c #100E26",
"#  c #110F2A",
"$  c #0F122B",
"%  c #121027",
"&  c #13132D",
"*  c #1A152B",
"=  c #1A1828",
"-  c #0D0C33",
";  c #0E0C3B",
":  c #110D33",
">  c #110E3B",
",  c #0F1635",
"<  c #131532",
"1  c #191534",
"2  c #141934",
"3  c #191B34",
"4  c #13153A",
"5  c #1C143C",
"6  c #131A3A",
"7  c #1B1C3A",
"8  c #25192B",
"9  c #2E1B35",
"0  c #1D2126",
"q  c #0C2C3C",
"w  c #192238",
"e  c #1B223C",
"r  c #252628",
"t  c #362427",
"y  c #272739",
"u  c #352D3A",
"i  c #2F3231",
"p  c #37383A",
"a  c #463332",
"s  c #423A39",
"d  c #50483B",
"f  c #5C513D",
"g  c #675938",
"h  c #7B612F",
"j  c #0D0D43",
"k  c #0D0E4C",
"l  c #110F44",
"z  c #110F4D",
"x  c #0F1149",
"c  c #151545",
"v  c #131B44",
"b  c #131D4B",
"n  c #0D0D55",
"m  c #0E1257",
"M  c #111254",
"N  c #131A56",
"B  c #261E4D",
"V  c #1A2543",
"C  c #12224B",
"Z  c #1B254A",
"A  c #1B2A4C",
"S  c #10334D",
"D  c #122453",
"F  c #1A2A52",
"G  c #14265B",
"H  c #1A2C5B",
"J  c #222847",
"K  c #2C3748",
"L  c #353A46",
"P  c #283557",
"I  c #333656",
"U  c #0E106B",
"Y  c #121464",
"T  c #131969",
"R  c #141978",
"E  c #0E2D68",
"W  c #152966",
"Q  c #193169",
"!  c #162A77",
"~  c #163379",
"^  c #2D396B",
"/  c #1C425D",
"(  c #3C4349",
")  c #2A4E5F",
"_  c #3B4455",
"`  c #0F506D",
"'  c #2D4761",
"]  c #395969",
"[  c #42454A",
"{  c #474748",
"}  c #4B4C4E",
"|  c #53504E",
" . c #444A54",
".. c #4B4D52",
"X. c #4D5153",
"o. c #4D545B",
"O. c #535454",
"+. c #51565B",
"@. c #595959",
"#. c #655B45",
"$. c #766B47",
"%. c #7B734C",
"&. c #706D59",
"*. c #4D5266",
"=. c #545D63",
"-. c #5B5E64",
";. c #555F69",
":. c #5B6165",
">. c #5A656B",
",. c #5D646A",
"<. c #5E6870",
"1. c #62666B",
"2. c #62696E",
"3. c #686969",
"4. c #73716D",
"5. c #646A71",
"6. c #646B75",
"7. c #6A6D73",
"8. c #6D7275",
"9. c #6D757B",
"0. c #72757B",
"q. c #767778",
"w. c #75797C",
"e. c #886C31",
"r. c #897A4A",
"t. c #857951",
"y. c #9C813B",
"u. c #AD913C",
"i. c #938651",
"p. c #B19E57",
"a. c #CDB967",
"s. c #0F158C",
"d. c #141988",
"f. c #131B97",
"g. c #142987",
"h. c #153589",
"j. c #132A96",
"k. c #16389A",
"l. c #2C349D",
"z. c #121DAC",
"x. c #1628A7",
"c. c #1736A8",
"v. c #1427B6",
"b. c #1638B8",
"n. c #1B5589",
"m. c #2B5F8A",
"M. c #14789B",
"N. c #1646A8",
"B. c #1756A9",
"V. c #1747B9",
"C. c #1857B9",
"Z. c #254FB5",
"A. c #1773A7",
"S. c #1966BC",
"D. c #1A76BD",
"F. c #236AB2",
"G. c #767C82",
"H. c #797D83",
"J. c #1438C4",
"K. c #154FC2",
"L. c #1A68C5",
"P. c #1A75C4",
"I. c #2976C3",
"U. c #168EB4",
"Y. c #1986BD",
"T. c #2196A8",
"R. c #7B8186",
"E. c #7D838A",
"W. c #798489",
"Q. c #7F8992",
"!. c #1A99C3",
"~. c #1B91CE",
"^. c #2190C4",
"/. c #18A5C2",
"(. c #17B2CB",
"). c #12BCE0",
"_. c #17CBE8",
"`. c #83868C",
"'. c #84898E",
"]. c #88898B",
"[. c #858C92",
"{. c #8A8E94",
"}. c #898F98",
"|. c #8B9195",
" X c #8D9399",
".X c #8F989C",
"XX c #92959B",
"oX c #95989C",
"OX c #959CA2",
"+X c #9B9EA4",
"@X c #97A0A4",
"#X c #9CA1A6",
"$X c #9DA3A9",
"%X c #9CA6B0",
"&X c #A2A5AB",
"*X c #A4A5A8",
"=X c #A3A9AE",
"-X c #A5ABB2",
";X c #A5AAB4",
":X c #A9ADB4",
">X c #AAB2B7",
",X c #ADB3BA",
"<X c #B1B5BB",
"1X c #B2B9BE",
"2X c #BABBBE",
"3X c #B5BCC2",
"4X c #BBBEC4",
"5X c #BFBFC8",
"6X c #BAC1C6",
"7X c #BBC4C8",
"8X c #BDC4CB",
"9X c #BEC8D1",
"0X c #C2C6CB",
"qX c #C4C5C9",
"wX c #C1C9CE",
"eX c #C4CBD1",
"rX c #C7CCD5",
"tX c #CACED4",
"yX c #CAD1D6",
"uX c #C9D3D7",
"iX c #CCD3DA",
"pX c #D1D5DB",
"aX c #D2D9DE",
"sX c #CFD9E1",
"dX c #D4DBE3",
"fX c #DADEE4",
"gX c #D9DFE9",
"hX c #DCE3E8",
"jX c #DDE4EB",
"kX c #DEE7F0",
"lX c #E0E1E7",
"zX c #E2E6EC",
"xX c #E2E9EF",
"cX c #E5EDF4",
"vX c #E9EEF5",
"bX c #E7EFF9",
"nX c #E9EFFA",
"mX c #E7F0F7",
"MX c #EBF0F6",
"NX c #E6F1FA",
"BX c #EAF2FA",
"VX c #F0F3FA",
/* pixels */
"@ @ @ @ : : @ @ @ @ @ @ @ % % % % & & % % % % % % & & < < & & * = & & & 1 1 & & & & & & & & & & & & & & & & & & & & 1 1 1 1 1 1 ",
"O O O # # @ O @ % @ O @ @ @ @ % @ & @ % % % % % % & 1 1 3 s $.r.r.$.s 8 1 1 & & 3 * & & & & & & & 1 & & & & 1 & & & 1 1 1 1 & & ",
"O O # : : @ @ & 7 & @ @ @ % % & % % @ % % % 1 % & y y L #.t.t.%.%.t.t.#.p u u u L u y * & & & 1 & & & & & 1 7 2 & 1 1 7 7 1 & & ",
"O # # # @ @ @ @ & = t = % 1 % % % @ @ % % & * 3 y L { | O.| } } ..} O.@.O.| | ....} { u 3 7 1 & & & & & & & 3 3 2 1 7 7 2 * * * ",
"O # @ O @ @ @ O % t a t & % % % @ @ % % & w y ( @.4.4.7.0.H.`.].{.].].`.].].`.w.0.0.3.O.L K y 3 & & 1 & & & 3 S 3 1 1 1 & * & & ",
"O O O O @ @ @ O @ = t 8 % # % @ @ % < & 3 u [ @.q.].XXoX*X<X6XqXqXqXqX5X5XqX4X=X+XoX{.0.-...L y 2 1 1 1 & & 2 e 2 1 & & * * * 2 ",
"O O O O @ @ @ @ # & 1 < @ @ @ % * % & y L O.@.8.].#X<X4XwXpXfXfXfXfXfXfXfXlXfXtXqX2X=X{.w.-...L y 3 2 & * * & 2 2 2 2 2 3 3 2 2 ",
"O @ @ @ @ @ @ @ @ & < & @ @ @ = i * y | @.1.0.{.&X4XtXfXzXcXvXvXvXvXvXvXVXVXVXvXlXpX4X:XXXG.1.+.[ y 3 2 2 2 2 2 2 1 3 3 3 3 2 2 ",
"O O @ & @ @ @ @ @ @ @ @ % % % % r { &.4.w.].#X1XtXaXhXcXvXvXvXMXMXvXMXMXVXVXVXMXvXlXdXiX4X=X XH.,.( y 3 1 7 3 2 2 2 3 7 3 3 2 2 ",
"O O @ @ @ < % @ @ @ @ @ % % % d i.%.@.w.OX,XwXhXvXMXMXBXBXMXMXMXBXBXBXMXMXMXMXMXnXvXvXvXjXiX3X&XE.+.L y 7 7 7 2 2 2 3 3 1 7 1 2 ",
"@ O O O @ @ @ @ @ @ @ & & & #.a.i.{ :.|.1XtXhXcXBXBXBXBXBXBXBXBXBXBXBXBXMXMXMXBXnXbXbXbXcXjXiX3XoX7. .y 3 7 7 3 3 3 2 2 3 3 3 3 ",
": @ O O @ @ @ @ @ @ < < # d a.g X ( 9.=XtXhXmXNXBXBXBXBXBXBXBXBXBXBXBXBXBXBXMXBXnXbXbXnXnXcXgXeX-XR.-.K 3 1 1 3 7 3 2 3 3 3 3 3 ",
"@ @ = % @ @ O @ @ # < < * p.r.X i 1. X7XhXcXBXNXbXbXNXNXNXBXBXBXBXNXBXBXBXBXBXBXnXbXnXnXBXbXjXuX<XXXq. .y e y 7 1 3 w 3 3 3 3 3 ",
"O % r = O @ @ @ @ # & # s a.t r ..R.-XiXNXBXBXNXcXbXNXNXNXNXNXNXNXNXNXBXBXBXBXBXBXnXnXBXBXbXkXsX7X=X`.@.L J J J 3 w p y 3 3 3 3 ",
"O @ = % O @ O @ @ @ @ # #.p.X i :. X7XhXNXBXBXNXcXbXNXNXNXNXNXNXNXNXBXBXBXBXBXBXBXbXbXBXBXBXcXjXiX4XoX3.[ J J 7 3 3 y 3 3 3 3 3 ",
"O O O O O @ @ @ @ % & # $.p.o [ w.=XuXjXNXBXBXNXcXNXNXNXNXNXNXNXNXNXBXBXBXBXBXBXBXbXBXBXVXBXBXbXhXtX=XH.+.K 7 3 3 3 3 3 3 3 3 3 ",
"& @ @ % @ O @ @ & & < @ #.i.p :.|.3XhXcXNXNXNXNXNXNXNXNXNXNXNXNXNXNXNXBXBXBXNXNXNXBXBXBXBXBXBXBXjXuX,X|.5.[ y w 3 3 3 3 3 3 3 3 ",
"7 & = t = @ @ < < < 1 1 #.%.} w.#XeXkXNXNXNXNXNXNXNXNXNXNXNXNXNXNXNXNXBXBXBXNXBXBXBXBXBXMXBXBXBXjXuX1X+XH.+.L y 3 3 3 7 7 7 3 3 ",
"& % t a t * < 4 < & 7 J #.%.X.w.$XuXcXNXNXNXNXNXNXNXNXNXNXNXNXNXNXNXBXBXBXBXBXBXBXBXBXBXBXBXMXBXjXuX1X#XH.+.L e 3 3 3 7 v 7 3 3 ",
"# @ = t 8 < 4 4 # & 1 7 #.%.X.w.$XuXNXNXNXNXNXNXNXNXNXNXNXNXNXNXNXNXBXBXBXBXBXBXBXBXBXBXMXMXMXBXjXuX3X#XH.+.L e 7 J e 7 V 7 8 7 ",
": # @ * & < < & % & < & f %.X.w.$XuXcXNXNXNXNXNXNXNXNXNXNXNXNXNXNXNXBXBXNXBXBXBXBXBXBXBXBXBXBXBXjXuX3X#XH.+.L e 7 e 7 7 7 y u y ",
": : @ @ & & & & % & , $ f %.X.w.$XuXcXNXNXNXNXNXNXNXNXNXNXNXNXNXNXNXBXBXBXBXBXBXBXBXMXMXMXMXMXMXzXuX3X#XH.+.L e 7 7 7 7 e u d a ",
"< < @ % % $ & 1 & & < < f %.X.w.$XuXcXNXNXNXNXNXNXNXNXNXNXNXNXNXNXBXBXBXBXBXBXBXBXBXMXMXMXMXMXMXzXuX3X#XH.+.L e w e e e e y u y ",
"2 & % % $ $ & < 1 < 2 : f %.X.w.&XuXcXBXBXBXBXbXbXNXNXNXNXNXNXNXNXNXBXBXBXBXBXBXBXBXMXMXMXMXMXBXjXuX3X#XH.o.L J e e e e e e e e ",
"S 2 % & & & < 2 v 4 4 < f %.O.w.=XiXBXBXBXBXBXbXcXcXNXNXNXNXNXNXNXNXBXBXBXBXBXBXBXBXBXMXMXBXMXvXhXtX3X#XH.o.L P V e e e e e e e ",
"2 $ & 1 < < < < 2 7 u 7 f %.X.w.=XpXBXBXBXBXBXcXcXcXBXBXBXBXNXBXNXNXMXMXMXMXBXBXBXBXBXBXBXBXMXvXhXtX3X#XG.X.L J V V V J V e e Z ",
"$ $ & < < < < < 1 u { u f $.} w.&XpXMXBXBXBXBXcXcXcXBXBXBXBXbXbXNXNXBXBXMXBXBXBXBXMXMXBXMXBXMXvXhXiX4X#XH.o.L J V V J P J e e V ",
"$ < < < < < , , 2 7 L J f $.} 0.&XtXcXBXBXBXBXBXcXbXBXBXBXBXBXBXNXNXBXBXMXMXBXBXBXMXMXMXMXMXvXxXgXiX7X#XH.+.L J Z V V J V V V e ",
"$ 2 4 4 4 , , , 2 v Z v f $...w.&X7XdXcXBXBXBXBXBXBXBXBXBXBXBXBXBXMXMXBXBXBXBXBXBXBXBXVXMXBXxXdXuXtX3X$XR.+.L V V V e e e V J V ",
"$ < 4 4 4 , , , 2 v b 4 f $...0.OX<XtXhXcXcXBXBXBXBXBXBXBXBXBXBXBXMXMXBXBXBXBXBXBXMXMXMXvXcXgXtXwXwX1XOXG.o.L V V e e e e e V V ",
"$ < 4 4 4 4 , , 2 6 v 4 d $.} 1.`.:XeXiXdXjXcXbXBXBXbXBXbXbXBXbXBXMXBXBXBXBXBXBXBXMXvXvXzXdXuXtXeXwX>X[.5.X.L V V V V e e V V V ",
"& < 4 4 4 4 2 , 2 6 v 4 s r.{ O.8.+X6XwXtXdXjXjXcXcXcXbXbXbXbXcXMXBXBXBXBXBXMXcXxXzXzXzXgXtXeXeXwX6X#X0.=._ K V V V V V V Z Z V ",
"< 6 2 < < < < 2 2 6 v v y y.g L -.].-X3XeXtXiXiXdXjXcXmXBXBXBXcXMXBXVXBXBXBXcXdXiXiXiXaXiXtXeXeX6X-X}.2. .P J V V V V V Z A Z V ",
"< < < < 2 , < 2 2 6 b v v g u.d ( 5.}.-X3XwXeXwXeXdXjXxXcXcXxXjXxXmXMXcXcXcXjXuX9XwXwXeXeXeXwX7X>X X9.*.I Q A V V V V V Z A A V ",
"$ < 2 6 6 2 , 2 2 v N b v 7 e.u.#.[ ,.[.-X4XeXeXeXuXiXiXiXiXiXiXiXaXaXaXaXdXiXtXwX9X8X8X8XwX6X-X|.8.*.I P Q F V V A V V V A / A ",
"< 2 6 6 6 2 2 6 6 b G b v v y h u.#. .7.}.=X<X3X6X8XwXeXeX8X8XwXeXeXeXeXeXeXeXeXeX9X7X3X1X,X$X{.8.o._ P H W A V V J A V V V A V ",
"< 2 6 6 2 6 6 6 6 b G b v v v v p f [ +.2.0.`.OX:X3X8X8X8X8X8X9XwXwXwXeXeXeXeXeXwXwX6X>X#X[.9.:.X.( ( _ P H A V V A V V V V V V ",
"< 2 2 2 6 2 6 6 6 b G b v v v Z J L o.-.5.0.R.`.|.#X-X>X,X1X3X3X6X6X6X6X3X3X3X1X,X>X$X XE.9.2.=.+.+.+.X._ P A V V V V V V Z V V ",
"< < 2 2 2 2 2 6 6 v W b b b b K _ o.3.[.-X3X>XH.:.5.9.R.[.OX#X=X-X-X-X=X%X-X#X|.R.9.2.=.,.R.|..X@XOX].2.o._ K V A A A V V V V V ",
"$ $ < 2 6 2 2 6 6 v W b b b Z I o.3.`.:XeXdXeXE.+.o.=.7.G.R.E.[.{.}.[.[.Q.'.E.G.9.2.:.o.:.R.OX3XwXqX-XR.:...L J A A F A V V V V ",
"< < < 2 6 6 6 6 6 C W D D W F K +.].:X3XqXtXqXOXG.2.2.G.R.7.:.,.,.:.:.:.=.=.<.W. XOX.XE.w.8.'.1XeXeX1XXX9.X.L A F F F A A A A A ",
"< < 2 v v v 6 6 e Q ! W W W P _ 1.oX3X6XqXwX6X-XXXH.w.[.{.0.5.5.2.<.,.2.,.:.8. X:X6X1X#XE.2.9.=X8XeX4X#XG.o.L A F F F F F F A A ",
"2 6 v b C C C v 6 D g.W W ^ _ 2.`.oX:X4XwX0X6X:X+X X}. XOX+X$X=X=X=X=X-X=X$X%X,X6XwX6X$XR.:.,. X>X8X3X+XG.o.L A F F H H F F A A ",
"6 v v C C C C C C G c.! ! ^ ..7.].+X<X0XuXrX6X:X#X X X#X>X8XtXiXiXaXaXaXaXuXtXtXtXtX6X$XW.:.=.w. X,X,XOXG.o.I P H H H H F F A A ",
"v v b C C C C C C W c.g.! ^ ..O.7.=XpXhXhXpX7X:XXXR.`.,XiXgXjXxXcXcXcXxXkXkXjXjXdXiX6X$XQ.<.=.=.9.oX&XOXH.o._ ^ H H H F F F F F ",
"C C C C D D D D G ! b.j.g.^  ...7.:XhXvXxXuX<X+X`.9.R.7XcXcXvXMXBXBXBXBXNXNXmXcXjXiX3XOXR.<.o.( X.H.|.{.8.[ P Q Q W W H H H H H ",
"C C D D D G G W W ~ b.c.j.^ ..3.].<XpXzXhX6X+X`.9.5.E.wXvXvXcXBXBXcXmXBXBXNXmXcXjXiX,XQ.5.=.( 0 i :.0.0.+.r e Q ~ Q Q Q Q Q Q W ",
"D G G G G W E ~ ~ h.V.b.k.^ ..0.oX:X6XuXtX=X`.7.2.0.OXuXBXvXcXBXBXcXcXBXBXNXcXjXsX9X$X9.=.o.( 0 r ( ....L w b ~ h.h.~ ~ ~ ! W W ",
"G W E ! ! ! g.h.k.N.K.b.k.^ ..0.XXOX&X:X=X[.7.=.,. X4XgXMXbXcXBXBXmXmXBXBXmXjXsX9X>X}.>.o.=.o.L y 0 X = V ~ h.k.k.k.k.k.h.h.g.g.",
"E ! ! g.g.k.k.k.c.N.K.V.N.n.] >.8.H.'.{.].8.-.o.,.OXwXjXBXBXcXcXcXmXBXBXBXmXkXdX8X%XW.;.o.>.;. .K q q q E B.C.N.N.N.N.N.c.c.c.x.",
"! ! g.k.k.k.c.c.N.C.P.P.Y.U.n.P u +.7.0.7.-.o.=.7. X,XdXbXBXcXdXdXcXBXBXBXBXBXcXiX;XQ.6.>.<.;. .' n.M.M.A.^.S.C.C.B.N.N.c.c.c.c.",
"g.g.j.k.c.N.N.C.C.D./.!.S.L.N.E C K [ } } [ ..=.5.H.OX7XdXhXdXwXeXjXBXMXBXMXBXBXdX:X[.9.5.>.*.] n.Z.P.P.!.(.Y.D.L.C.V.c.c.c.c.c.",
"g.j.c.c.N.V.C.S.D.U./.D.S.P.S.B.n.A X X 0 i [ +.:.3.G.OX,X7X8X>X,XdXvXBXBXMXMXMXdX>X}.9.:.o.] m.F.S.P.P.~.(.!.Y.D.C.Z.V.b.c.c.c.",
"g.j.Z.N.V.V.C.S.D.^.(.!.D.~.^.P.A.` q q S K [ ..+.+.3.}.=X-X#X{.XXwXjXcXBXMXvXzXiX:X}.8.o.L ) A.I.^.^.~._._.!.D.D.S.I.Z.b.c.c.x.",
"R g.g.j.c.V.V.C.C.P././././.!.Y.Y.A.M.M.T.] ( [ [ [ 1.+X<X X0.:.7.:XpXzXMXMXzXpX4X=X].:.( 0 S T.^.!./.(.).~.P.S.C.V.V.b.b.x.x.x.",
"T R R g.j.x.b.b.V.C.L.L.P.!./././././././.m.] _ [ } 1. X#XH.:...-.oXqXaXlXlXpX4X=XXX0.[ i q ` T././.!.P.L.L.K.V.b.b.v.v.x.x.f.f.",
"N T T T R d.j.j.x.b.K.J.b.K.C.S.D.Y.!././.T.T.] [ @.1.8.0.3.-.} +.].>XqXtXeX4X:XXXw.+.r q ` A.D.S.C.V.V.b.b.b.v.v.x.x.f.d.d.d.R ",
"x M N N Y Y T T ! l.v.x.x.v.v.b.b.b.K.C.P.L.F.' p } @.O.O.O.} p [ R.=X2XqX<X*XXXH.3. .V G k.V.J.b.b.v.v.v.v.x.f.d.d.R R R R Y Y ",
"l x x M M M z M I *.l.R d.f.s.s.f.x.v.v.J.v.j.b X i p p p p i X i q.*X2X2X*X|.w.3.O._ ! f.z.v.v.f.f.f.d.d.d.R T Y Y Y Y T Y m M ",
"> c l j x x l l B I W M n U Y m Y d.f.s.z.f.R k O = o o r r X   X 1.].oXXX`.3.O. .I ^ R R R d.s.R R T Y Y Y m M M N M M M M z x ",
"; ; ; ; > 5 9 5 > c M M j k k k k M U U f.U n k ; .             X | 3.3.@.O.{ r 1 T T Y M n m Y M M M z z M x l l l l l l c 9 5 ",
"- - - ; : 9 a 9 : - ; j ; j ; j ; j n n U n k j ; + . . . .     X | 3.O.} { p X . n m z j j k k j j j l j ; ; ; ; ; ; ; > 9 a 9 ",
"+ + $ ; : 1 9 1 - - - - - ; - ; ; ; k k U k j ; ; ; - - j - +   o @.q.3.O.O.s X . j k j ; ; j j ; ; ; ; ; ; ; ; - - ; > : 1 9 * ",
"$ $ # : : : # # # # : : : : : : : : l > M l > > : > > > z l - . r O.7.@.| | s X . ; l > : > > > : : : : : : : : : : : : : # # # "
};
