/* XPM */
static char *aiwiy_olk9i[] = {
/* columns rows colors chars-per-pixel */
"64 64 208 2 ",
"   c #0A080D",
".  c #100F0C",
"X  c #15140A",
"o  c #18170B",
"O  c #1D1C0D",
"+  c #0B0715",
"@  c #0D0B13",
"#  c #0E0A1B",
"$  c #110E14",
"%  c #110C1D",
"&  c #161214",
"*  c #191415",
"=  c #15111B",
"-  c #1B141D",
";  c #1D1919",
":  c #21130F",
">  c #211F0E",
",  c #221E13",
"<  c #241C1D",
"1  c #24210E",
"2  c #2A250D",
"3  c #2E280D",
"4  c #332C0D",
"5  c #3B320C",
"6  c #262310",
"7  c #292711",
"8  c #2D2A13",
"9  c #28231B",
"0  c #2E2A1B",
"q  c #312E15",
"w  c #322D1E",
"e  c #343216",
"r  c #373419",
"t  c #393618",
"y  c #3D3A1A",
"u  c #130E24",
"i  c #140D2B",
"p  c #171123",
"a  c #191423",
"s  c #1F1A23",
"d  c #16112B",
"f  c #19132D",
"g  c #160F32",
"h  c #1D1535",
"j  c #1B1833",
"k  c #1E1639",
"l  c #1E1B3C",
"z  c #221C24",
"x  c #261D2A",
"c  c #231A35",
"v  c #271A37",
"b  c #20173D",
"n  c #231A3C",
"m  c #311B37",
"M  c #311D3B",
"N  c #132135",
"B  c #2A2424",
"V  c #2B2628",
"C  c #342826",
"Z  c #342B2B",
"A  c #3B3329",
"S  c #2C2532",
"D  c #2F2A32",
"F  c #352536",
"G  c #312A37",
"H  c #372539",
"J  c #342C3A",
"K  c #382E3D",
"L  c #3B3434",
"P  c #3A3439",
"I  c #41360C",
"U  c #463A0C",
"Y  c #4B3E0B",
"T  c #413E1B",
"R  c #523119",
"E  c #4A312C",
"W  c #492838",
"Q  c #502B37",
"!  c #453431",
"~  c #493633",
"^  c #433A3B",
"/  c #483838",
"(  c #563634",
")  c #543F3B",
"_  c #583F39",
"`  c #4E400B",
"'  c #55450B",
"]  c #58470A",
"[  c #5B490A",
"{  c #45411D",
"}  c #4A461F",
"|  c #614E0A",
" . c #6A5409",
".. c #755C09",
"X. c #795F08",
"o. c #7C6108",
"O. c #4E4A20",
"+. c #504C21",
"@. c #555123",
"#. c #5A5626",
"$. c #5E5927",
"%. c #5F5929",
"&. c #55423C",
"*. c #5A433D",
"=. c #635E29",
"-. c #66612B",
";. c #6B652C",
":. c #6F692E",
">. c #716B2F",
",. c #626132",
"<. c #746E30",
"1. c #767031",
"2. c #7B7533",
"3. c #7E7835",
"4. c #1F1940",
"5. c #211742",
"6. c #231A42",
"7. c #281B47",
"8. c #23194A",
"9. c #261A54",
"0. c #291B57",
"q. c #291B5A",
"w. c #1D2B49",
"e. c #272446",
"r. c #2C214B",
"t. c #30254F",
"y. c #373445",
"u. c #3D3444",
"i. c #3E3649",
"p. c #252955",
"a. c #302552",
"s. c #352B56",
"d. c #35295A",
"f. c #213152",
"g. c #24325C",
"h. c #2C1F67",
"j. c #2D1F69",
"k. c #2B266A",
"l. c #3E3166",
"z. c #2F2271",
"x. c #4E2A47",
"c. c #443947",
"v. c #443A4C",
"b. c #513441",
"n. c #513852",
"m. c #402866",
"M. c #4B404A",
"N. c #554146",
"B. c #5B4443",
"V. c #4B4153",
"C. c #584857",
"Z. c #654948",
"A. c #644D57",
"S. c #76575A",
"D. c #5F5363",
"F. c #625565",
"G. c #6B5966",
"H. c #765D66",
"J. c #76606B",
"K. c #7D626B",
"L. c #866907",
"P. c #896B07",
"I. c #836608",
"U. c #977506",
"Y. c #9A7706",
"T. c #9D7906",
"R. c #A27D06",
"E. c #824A27",
"W. c #874838",
"Q. c #89493A",
"!. c #9D5435",
"~. c #A06832",
"^. c #A97B3B",
"/. c #965F43",
"(. c #815D5E",
"). c #83744B",
"_. c #9A6150",
"`. c #876468",
"'. c #966D6E",
"]. c #946E71",
"[. c #997072",
"{. c #A47573",
"}. c #A78005",
"|. c #AA8305",
" X c #B48A05",
".X c #B58B05",
"XX c #BD9004",
"oX c #C59604",
"OX c #C79803",
"+X c #CB9A03",
"@X c #D5A203",
"#X c #D9A502",
"$X c #E4AC02",
"%X c #E8AF01",
"&X c #EBB201",
"*X c #F2B601",
"=X c #F5B901",
"-X c #FBBD00",
";X c #C48837",
":X c #FFC800",
">X c #CD8C47",
",X c #D9A150",
"<X c #EBBB49",
"1X c #25738F",
"2X c #4F4081",
"3X c #5A4990",
"4X c #614F9C",
"5X c #26899F",
/* pixels */
"k k k 5.8.8.k k k k k k k k k k k b k k k k k k k k 5.8.8.b n k k k k 5.8.8.k k k k k k k k k k k b k k k k k k k k k 5.8.8.k k ",
"k k 5.0.q.8.k n r.n k k k k k n n 8.b k k k 6.b k 8.0.q.8.r.l.r.k k 5.0.q.8.k n r.n k k k k k n n 8.k k k k 6.b k k 6.0.q.8.k k ",
"k b 0.j.0.b k r.2Xr.M n k 6.6.a.6.k k k k 6.d.6.8.j.z.0.6.l.4Xl.n b 0.j.0.b k r.2Xr.M n k 6.6.a.6.k k k k 6.d.n k 5.0.j.0.b k k ",
"k 8.q.0.5.k k n r.b./.Q 6.d.6.n k k k k k b e.f.p.z.j.8.k r.l.r.k 8.q.0.6.k k n r.b./.Q 6.d.6.n b k k k k b e.f.4.8.q.0.6.k k k ",
"k 8.8.b k k k k M /.,X/.H 6.k k k k b k k k w.1Xk.0.8.k k k n k k 8.8.b k k k k M /.,X/.H 6.k k k k 6.k k k f.1Xf.5.8.b k k k k ",
"k k k k k k k k n b._.n.n k k k k k k u u u d w.g i u u u u f k k k k k k k k k n b._.n.n k k k k 5.0.6.k k 6.g.6.k k k k k k k ",
"k k k k k k k k k 0.m.0.k k k j S f = & & $ @ @ @   @ @ $ $ p f h h h h k k k k k 0.l.0.k k k n K n b k k k k k k k k k k k k k ",
"b 8.b n k k k k b 9.0.5.k k f - 0 < / Z.B.c.u.K S x x V P ) C @ @ # @ @ u k k k b 9.0.6.k k k K ).K k k b b k k k 8.n n k k k k ",
"k k 6.a.6.6.k k k b b k d u % = ; L (.{.'.`.J.G.C.V.v.i.C.`.Z.C C C Z Z z f k k k k k k k k k n K n k k 9.0.5.k k k 6.a.6.6.k k ",
"k k k n 6.d.6.k k k k u @   $ < V L &.Z.B.B.B.N.^ P P D L ) ) ~ ! ! ~ ~ B & = a a a a a a a a a p a f k 0.j.0.k k k k n 6.d.6.k ",
"6.k k k k 6.k k k k u & O > > 7 6 > 1 1 6 1 6 6 6 6 1 1 1 1 6 6 6 6 1 6 1 > > > > 1 1 > > > > > > , , z n 0.9.b 6.k k k k 6.k k ",
"q.5.k k k k k k k d - 6 r { y T T e 7 6 6 6 7 e T T y y t 7 6 7 6 7 e y { T T t 8 6 7 7 7 q t y T T t 8 9 c 6.6.0.5.k k k k k k ",
"6.n K n k k k k u $ 6 T -.1.1.<.;.} 8 7 7 7 T -.<.<.<.:.} 7 7 1 1 y =.<.<.>.:.O.8 1 6 7 y =.<.1.<.>.#.q 7 9 s.r.6.n K n k k k k ",
"k K ).K k k k u $ , { :.2.3.2.>.+.8 1 1 1 y =.<.<.<.>.@.8 1 7 7 t %.<.1.<.:.@.8 7 6 6 e #.>.2.3.2.$.r 7 1 6 i.l.n K ).K k k k k ",
"k n K n k h d @ * r ;.2.1.2.<.O.8 1 > > 1 8 e e e e q 6 > 1 1 1 8 q e e e q 7 1 1 1 1 7 q e t O.@.e 1 1 6 8 C n k n K n k k k k ",
"k k k k k u @ - < t :.2.2.<.{ 1 > > > > > > > > > > > > > > > > > > > > > > > > > > > > > > > > 6 1 1 6 r @.y x k k k k k k k k ",
"r.n c F c %   - 9 y >.3.<.{ 1 > > > > > > > > > > > > > > > > > > > > > > > > > > > > > > > > > > > 1 e #.:.{ z k k k k k k k k ",
"3Xr.( !.E % @ z 9 y >.<.O.6 > > > > > > > > > > > > > > > > > > > > > > > > > > > > > > > > > > > > 6 #.2.<.y z k k k 8.9.8.k k ",
"a.H ~.;XR - S K B T ;.O.6 > > 1 2 2 2 2 1 1 > 1 1 > > > 1 1 > > 1 1 1 1 1 1 > 1 2 1 > > 2 2 > O > > 1 #.2.1.T z k 6.6.q.j.q.k k ",
"9.6.( E.: V C.C.Z e } 8 > > O | OXoXoXOX X5 O | R.2 > > o.oX| O Y  XI Y  XU 1 P. X5 3 P.+X+XR.I > > > } 2.1.T z 6.d.6.0.q.0.M c ",
"q.9.n x $ ! `.H.L 1 7 6 1 > O ' R.OX-X XU.4 1  X-X' O O T.:XoX2 ] &XY ] *X' | *XP.> o.*X|.T.+X[ O > > { 2.=.8 s k 6.n 8.8.x.Q.Q ",
"q.0.b f @ ~ `.K.P 1 1 > > > > > O ..%X5 O O U $X=XY.> O T.*X&X| ' &XY ] &X .+X X3 O R.#X5 O 2 1 > > > T =.y 1 ; k k k 4.M Q.>X!.",
"0.9.h u - / S.K./ > > 6 1 > > > O ..&XI O O P.@XY.#X4 O T.+X XXX| &XY ] *X+X-XX.O O ..*X#X X..2 > > > e e 6 O * d k k 8.6.W Q.Q ",
"g.4.% $ S u.C.S.) > 1 y e > > > O ..&XI O 3 +X}.' &X..O T.OX] $XT.%XY ] -X=X$X+X4 O 1 | Y.oX=XI.O > > 1 1 1 1 , = f k k k b m c ",
"5Xw.# @ G i.c.N.! 6 y =.y > > > O ..&XI O [ =X&X#X-X X1 T.+X2 |.&X&XY ] -XT.| *XL.O 5 4 O 4 @X X> > > > > 1 1 Z S = d n k k k 6.",
"f.l # $ D i.y.y.Z e -.1.y > > > O ..&XI > |.$XP.P. X&XY T.+X1 ' *X=XY ] =X] 1 |.$XY |.@X|.XX*Xo.O > > > 1 7 6 ^ u.@ f l.r.k 6.q.",
"k k % @ S c.c.c.V t <.2.y > > > O ' R.4 2 U...O O 5 R.]  .P.1 1 L.|.5 U R.I O U |.| ` Y.XX XX.2 > > > 1 e O.t ) M.- e.3Xl.n k 6.",
"b 8.i @ S C.S.S.A t <.2.y > > > > > 1 > > O O > > > > O O O O O > > O O O O O O O O O O 1 1 O > > > > 8 #.:.T *.S.B.F e.6.n 6.b ",
"b 8.i $ P H.'.'./ t <.<.e > > > > > > > 1  .[ > > > 1  .P.P.P.L.5 ' P.P.P.P.P.P.L.L.P. .1 > > > > > > t 1.1.} &.`.S.C @ f 6.d.6.",
"k k i - Z.'.'.K.^ t :.+.6 > > > > > > > 2 +X|.> > > 2 OX=X#X#X@XY U.-X#X#X#X#X#X=X=X#XR.1 > > > > > > T 2.1.{ ! C.n.z @ f k 6.b ",
"k k i < S.'.K.F.L e } 1 O > > > > > > > 2 +X}.> > > 2 +X|.3 3 3 1 Y.@X5 3 3 4 4 XXoX4 3 > > > > > > > { 2.<.y L v.y.S a u f k k ",
"b 6.i < S.].H.D.L O 6 O O > > > > > > > 2 +X|.> > > 2 OX+XX.o.] O Y.$X.. .] 1 1  XXX1 > > > > > > > > { 2.=.q ^ C.v.c.S @ i 8.b ",
"6.a.u < S.[.`.G.L O > O O > > > > > > > 2 +X}.> > > 2 oX=X$X$XU.O Y.-X$X%X X2 1  XXX1 > > > > > > > > T -.y > ^ F.C.V.G @ g 8.b ",
"b n % & N.`.[.`./ O > O 1 > > > > > > > 2 +XR.O O O 1 +X X4 4 2 O Y.#XY 5 4 1 1  XXX1 > > > > > > > > e r 1 O P F.F.C.G @ d f.l ",
"k k u @ G A.`.'.&.O O e q > > > > > > > 2 +X+X......5 OX+X......4 Y.@X3 O > > 1  XoX1 > > > > > > > > 1 O O O ^ G.F.V.S @ N 1Xf.",
"k 5.i @ S v.A.`.&.O e =.y > > > > > > > 2  X$X$X$X#X] |.$X$X$X#X' P.XX3 > > > 1 R.|.1 > > > > > > > > O O O O &.K.F.J = u j w.l ",
"k k u @ S u.v.A.~ q $.<.y > > > > > > > 1 4 5 5 5 5 2 4 5 5 5 5 2 3 4 1 > > > > 4 4 > > > > > > > > > > O 6 O *.[.H.Z @ f 6.k k ",
"k k # @ G c.i.c.V t >.2.y > > > > > > > > > O O O O > > > > O O > > > > > > > > > > > > > > > > > > > O 7 O.q *.[.S.Z @ k 0.5.k ",
"k k # @ G v.i.y.B t <.2.y > > > > > > > > > > > > > > > > > > > > > > > > > > > > > > > > > > > > > > 6 O.:.y *.S.! x f k b k k ",
"k k u % x K u.u.B t <.<.t > > > > > > > > > > > > > > > > > > > > > > > > > > > > > > > > > > > > > > t >.<.T &.B.& h n k k k k ",
"k k k f % z y.i.B t :.@.7 > > > > > > > > > > > > > > > > > > > > > > > > > > > > > > > > > > > > > > T 2.:.y ^ c.$ u b 8.8.k k ",
"k k 5.5.+ & G u.B 8 } 7 O > > > > > > > > > > > > > > > > > > > > > > > > > > > > > > > > > > > > > > { 2.>.t P c.$ u 0.q.8.k k ",
"k b 0.9.+ $ S K B O 1 O O > > > > > > > > > > > > > > > > > > > > > > > > > > > > > > > > > > > > > > { 2.=.8 Z G = k h.0.b k k ",
"k 8.q.5.+ $ x F 9 O O X O > > > > > > > > > > > > > > > > > > > > > > > > > > > > > > > > > > > > > > T =.e O ; = h 9.0.6.k k k ",
"k 8.8.k u % - x < O O O 1 > > > > > > > > > > > > > > > > > > > > > > > > > > > > > > > > > > > > > > e q o O X + k 8.b k k k k ",
"k k k k k u @ - ; X O q q > > > > > > > > > > > > > > > > > > > > > > > > > > > > > > > > > > > > > > 1 O O O . # h k k k k k k ",
"k k k k k h u @ X O q $.y > > > > > > > > > > > > > > > > > > > > > > > > > > > > > > > > > > > > > > O X O X = h k k k k k k k ",
"b 8.b n k k k u . 6 $.2.y > > > > > > > > > > > > > > > > > > > > > > > > > > > > > > > > > > > > > > O X O O a b 8.n n k k k k ",
"k k 6.a.6.6.k k = e >.1.y O > > > > > > > > > > > > > > > > > > > > > > > > > > > > > > > > > > > > > O O T q a k k n a.6.6.b k ",
"k k k n 6.d.6.k - t <.2.} > > > > > > > > > > > > > > > > > > > > > > > > > > > > > > > > > > > > > > 1 { :.e p k k k n 6.d.6.k ",
"6.k k k b 6.k k a e >.2.{ > > > > > > > > > > > > > > > > > > > > > > > > > > > > > > > > > > > > > 1 } >.<.e a n k k k k 6.b k ",
"q.5.k k k k k k f q :.@.6 O > > > > > > > > > > > > > > > > > > > > > > > > > > > > > > > > > > > > T <.2.<.t j 0.b k k k k k k ",
"6.n K n k k k k h C O.2 O O O > > > > > > > > > > > > > > > > > > > > > > > > > > > > > > > > > > t :.2.2.1.A k 5.n K n k k k k ",
"k K ).K k k k k k n 6 O O O 8 { q 1 1 1 1 > > > > > 1 1 1 1 1 > > > > > > 1 1 1 1 1 1 > > > > 1 { :.2.2.2.,.G k k K ).K k k k k ",
"k n K n k k k k k 9.k o O 7 $.2.<.=.#.T 1 O O O 1 } $.#.$.#.{ 1 O O O 6 { #.=.%.$.} 6 O o o 1 } <.2.3.2.,.J 0.6.k n K n k k k k ",
"k k k k k k k k k 5.9.c 9 O.;.:.>.>.#.8 X X X O { -.:.>.>.$.q X X X O T -.>.>.<.=.e o X X O T -.:.:.:.%.D l b k k k k k k k k k ",
"k k k k k k k k n H 6.8.n V C 0 0 w 9 & & * & * 0 w 0 w 0 6 . . X . X 6 w w 0 0 6 , & & & & 0 w w C V c k k 6.k k k k k k k k k ",
"k k k 8.8.8.k n _ ^._ v k k k h h h h h k 6.t.h h e.h k 5.5.h f f f f f k 6.w.j ~ ~._ c k h h h h k k k k 7.d.6.k k k 8.8.8.k k ",
"b 6.n q.j.q.k F ^.<X^.F k k k k n r.n b 9.0.7.k b 6.n b 9.q.8.k k 6.k k k f.1Xi.^.<X^.F k k k k n r.n b 9.0.7.k k 6.6.q.j.q.k k ",
"6.d.7.0.q.0.M v ) ^._ 6.k k k k r.2Xr.8.q.0.b k k k k k b 8.8.k 6.d.6.k k l w.n _ ^.&.n k k k k r.2Xr.8.q.0.b k 6.d.7.0.q.0.M b ",
"b 6.n 8.7.x.Q.W v F n 0.6.k k k n r.n 8.8.8.k k k k k k k k k k k 6.b k k n k k n F n 0.n k k k n r.n 8.8.8.k k k 6.n 8.7.x.Q.Q ",
"k k k k M Q.>XQ.m k k 6.k k k k k k k k k k k k k k k k k k k k k k k k 6.0.6.k k k k n k k k k k k k k k k k k k k k b M Q.>X!.",
"k k k 8.6.W Q.W b k k k k k k k k k k k k k k k k k k k b b k k k k n k k 6.k k k k k k k k k k k k k k k k k k k k k 8.6.W W.Q ",
"k k k b k b m b k k k k k k k k k k k k k k k k k k k b 9.9.b k k 6.d.6.k k k k k k k k k k k k k k k k k k k k k k k b k b m b "
};
