/* XPM */
static char *arut0_7iz4j[] = {
/* columns rows colors chars-per-pixel */
"64 64 219 2 ",
"   c #160701",
".  c #1B0904",
"X  c #1B0D14",
"o  c #1C0E1B",
"O  c #240A02",
"+  c #2B0B02",
"@  c #230C0B",
"#  c #290C08",
"$  c #330E01",
"%  c #3B0F01",
"&  c #2D110D",
"*  c #3D1102",
"=  c #371308",
"-  c #230E14",
";  c #24111C",
":  c #2C141A",
">  c #341413",
",  c #1D1023",
"<  c #1E122B",
"1  c #1E1536",
"2  c #1D1837",
"3  c #1E1639",
"4  c #1E1A3D",
"5  c #231224",
"6  c #281624",
"7  c #21132B",
"8  c #211635",
"9  c #291936",
"0  c #20173D",
"q  c #221A3C",
"w  c #311C35",
"e  c #311D3A",
"r  c #23213B",
"t  c #352339",
"y  c #382E3D",
"u  c #431201",
"i  c #4B1501",
"p  c #4D1A0A",
"a  c #521601",
"s  c #5B1700",
"d  c #561B06",
"f  c #5C1901",
"g  c #431F17",
"h  c #631903",
"j  c #641B01",
"k  c #6C1C01",
"l  c #731E01",
"z  c #7C1E00",
"x  c #4F220E",
"c  c #45231E",
"v  c #582617",
"b  c #682102",
"n  c #742202",
"m  c #7C2201",
"M  c #74290A",
"N  c #672B1A",
"B  c #782D15",
"V  c #6D301D",
"C  c #77351A",
"Z  c #4A2724",
"A  c #4C2A25",
"S  c #482928",
"D  c #532B26",
"F  c #582B23",
"G  c #532D29",
"H  c #4A302C",
"J  c #5A3224",
"K  c #55312A",
"L  c #59322D",
"P  c #482837",
"I  c #502B37",
"U  c #4E3238",
"Y  c #573635",
"T  c #593E39",
"R  c #663524",
"E  c #663328",
"W  c #734526",
"Q  c #69443C",
"!  c #1F1840",
"~  c #211741",
"^  c #231A42",
"/  c #291A47",
"(  c #23194A",
")  c #271A54",
"_  c #281B56",
"`  c #271D59",
"'  c #291B5A",
"]  c #1B244A",
"[  c #1F2D4C",
"{  c #1D2551",
"}  c #232245",
"|  c #2B214B",
" . c #202E4E",
".. c #352A48",
"X. c #252659",
"o. c #302552",
"O. c #352956",
"+. c #35295A",
"@. c #223155",
"#. c #2B1D63",
"$. c #2D1F69",
"%. c #183A63",
"&. c #193B68",
"*. c #2D206A",
"=. c #302F66",
"-. c #3E3167",
";. c #2F2271",
":. c #513441",
">. c #52304D",
",. c #603E43",
"<. c #402866",
"1. c #235A6A",
"2. c #674948",
"3. c #6E524D",
"4. c #775959",
"5. c #7C6060",
"6. c #861F00",
"7. c #832401",
"8. c #8C2501",
"9. c #8D2900",
"0. c #842B0B",
"q. c #942601",
"w. c #962903",
"e. c #9A2B01",
"r. c #893400",
"t. c #9A3406",
"y. c #873816",
"u. c #963712",
"i. c #A42C01",
"p. c #AA2A01",
"a. c #B52D01",
"s. c #A53606",
"d. c #AC3300",
"f. c #B93401",
"g. c #B33803",
"h. c #BC3B02",
"j. c #CF2E01",
"k. c #C73701",
"l. c #C43C02",
"z. c #D53901",
"x. c #E63A01",
"c. c #924607",
"v. c #A74605",
"b. c #B94405",
"n. c #B55501",
"m. c #874838",
"M. c #89493A",
"N. c #925136",
"B. c #A65F32",
"V. c #A97B3B",
"C. c #C44704",
"Z. c #CD4401",
"A. c #D44501",
"S. c #D84701",
"D. c #DD4C01",
"F. c #C65603",
"G. c #D95602",
"H. c #E74901",
"J. c #F44B01",
"K. c #E85801",
"L. c #F45601",
"P. c #D26A01",
"I. c #E66701",
"U. c #F76701",
"Y. c #EA7B01",
"T. c #F77900",
"R. c #965F43",
"E. c #83744B",
"W. c #9A6150",
"Q. c #856764",
"!. c #897272",
"~. c #927A79",
"^. c #DA8901",
"/. c #E78E01",
"(. c #FB8901",
"). c #FA9601",
"_. c #FD9B01",
"`. c #D2A201",
"'. c #FEA301",
"]. c #FAAA01",
"[. c #F6B901",
"{. c #FFA639",
"}. c #F8C701",
"|. c #FFD701",
" X c #FEE801",
".X c #CD8C47",
"XX c #D9A150",
"oX c #F4B149",
"OX c #FEBB65",
"+X c #FFC276",
"@X c #257590",
"#X c #1171A1",
"$X c #4F4081",
"%X c #594990",
"&X c #614F9C",
"*X c #957A86",
"=X c #26899F",
"-X c #16B1D9",
";X c #9B8587",
":X c #A99492",
">X c #AB9797",
",X c #B7A4A5",
"<X c #BDADB2",
"1X c #C8B5AE",
"2X c #C7B8B9",
"3X c #F8CA8F",
"4X c #CFC0BE",
"5X c #CDBDC0",
"6X c #D5C9C9",
"7X c #D6C9C8",
"8X c #ECDBCB",
"9X c #E4DAD9",
"0X c #FBE6CD",
"qX c #E7DFE0",
"wX c #EEE8E9",
"eX c #F2ECEC",
"rX c #FAF3EC",
"tX c #F8F4F4",
"yX c #FEFDFD",
/* pixels */
"3 3 3 ~ ( ( 3 3 1 3 3 3 3 3 3 1 3 0 3 3 3 3 3 3 3 3 ~ ( ( 0 q 3 3 3 3 ~ ( ( 3 3 1 3 3 3 3 3 3 3 3 0 3 3 3 3 1 3 3 3 3 ~ ( ( 3 3 ",
"3 3 ~ _ ' ( 3 q | q 3 3 3 1 3 q q ( 0 3 3 3 ^ 0 3 ( _ ' ( | -.| 3 3 ~ _ ' ( 3 q | q 3 3 3 1 3 q q ( 3 3 3 3 ^ 0 3 3 ^ _ ' ( 3 3 ",
"3 0 _ $._ 0 1 | $X| e q 3 ^ ^ o.^ 3 3 3 3 ^ +.^ ( *.;._ ^ -.&X-.q 0 _ $._ 0 1 | $X| e q 3 ^ ^ o.^ 3 3 3 1 ^ +.^ 3 0 _ $._ 0 3 3 ",
"3 ( ' _ ~ 3 3 q | :.R.U ^ +.^ q 3 3 3 3 3 3 } @.X.;.*.( 3 | -.| 0 ( ' _ ^ 3 3 q | :.R.U ^ +.^ q 0 3 1 3 3 0 }  .! ( ' _ ^ 3 3 3 ",
"3 ( ( 0 3 3 3 3 e R.XXR.t ^ 3 1 3 3 ^ 3 3 1 [ @X=._ ( 3 3 3 q 3 3 ( ( 0 3 3 3 1 e R.XXR.t ^ 3 3 3 3 ^ 3 3 1  .@X@.( ( 0 3 3 3 3 ",
"3 3 3 3 3 3 3 3 q :.W.>.q 1 3 3 1 ~ _ ^ 3 1 ! =.) ^ ^ 3 3 3 3 3 3 3 3 3 3 3 3 1 q :.W.>.q 1 3 3 1 ~ _ ^ 1 1 ^ @.^ 3 3 3 3 3 3 3 ",
"3 3 3 1 3 3 3 3 3 _ <._ 3 3 3 q y q ~ 3 3 3 3 3 3 ^ +.^ 1 3 3 3 3 3 3 3 3 3 3 1 3 _ <._ 3 3 3 q y q ^ 3 3 3 3 3 3 3 3 1 3 3 3 3 ",
"0 ( 0 q 3 3 3 3 0 ) _ ~ 3 3 3 y E.y 1 3 0 0 3 3 3 3 ^ q ^ 3 3 3 3 ( q q 3 3 3 1 0 ) _ ~ 3 3 3 y E.y 3 3 0 0 3 3 3 ( q q 3 1 3 3 ",
"3 3 ^ o.^ ^ 3 3 3 0 0 3 1 3 3 q y q 3 3 _ _ ^ 3 3 3 1 q +.^ 3 3 3 3 ^ o.^ ^ 3 3 3 0 0 3 1 3 3 q y q 3 3 ) _ ^ 3 3 3 ^ o.^ ^ 3 3 ",
"3 3 3 q ^ +.^ 1 3 3 3 3 3 3 1 1 3 3 1 3 _ $._ 0 3 3 4  .} 3 1 1 1 1 1 q ^ +.^ 1 3 3 3 3 3 3 1 3 3 3 1 3 _ $._ 3 1 3 3 q ^ +.^ 1 ",
"^ 3 3 3 3 ^ 3 3 3 3 0 ( ( q ^ 3 3 4 ] 4 ~ _ ) 0 3 1 [ 1.r ; : > > > : ; 7 9 8 1 3 3 0 ( ( q ^ 0 1 4 ] 4 ~ _ ) 0 ^ 3 3 3 3 ^ 3 3 ",
"' ~ 3 3 3 1 3 3 3 0 ) _ ( ^ +.^ 4 %.#X%.4 0 ^ 3 < , ; : = * * u u i i i u & - 5 < 0 ) _ ( ^ +.^ 4 %.#X%.4 0 ^ ^ _ ~ 3 3 3 1 3 3 ",
"^ q y q 3 3 3 1 3 ( ' ) 0 0 ^ 0 ] #X-X#X] / O.6 & u i i i i i i i i i i i a i $ @ 7 / ) 0 0 ^ 0 ] #X-X#X] / -.| ^ q y q 3 3 3 3 ",
"1 y E.y 3 3 3 3 3 ( ( 0 3 3 1 3 4 %.#X%.q ..S u i i i a a f j k k k k k j f j j u + - 7 1 3 1 1 4 %.#X%.^ -.&X-.q y E.y 3 3 3 3 ",
"3 q y q 3 3 3 3 3 3 3 3 3 3 3 3 1 4 ] 2 ; = u u i s j j k l m m m n l n 7.9.7.n m j $ . o 1 3 3 3 4 ] 4 3 | -.| 3 q y q 3 3 3 3 ",
"1 3 3 3 3 3 3 3 3 3 3 3 3 3 3 3 3 3 1 : * * i f k l 8.d.l.l.h.d.i.q.7.l k k 7.9.7.7.m i O o 1 3 3 3 3 3 3 3 q 3 3 3 3 3 1 1 3 3 ",
"| q 8 w 8 3 3 0 ( ( 0 q 3 3 3 3 0 ~ : % * f l z e.Z.K.K.A.h.i.q.8.7.7.7.m z k k 7.8.7.7.a O o 1 0 ( ( 3 3 3 3 3 3 3 3 3 3 3 3 3 ",
"%X| Y B.Y q ( ' ' ( | -.| 3 3 ^ ) 6 $ u k z 8.Z.U.T.G.g.8.7.7.8.q.q.7.m n m 7.7.z 7.w.7.n i O o ) ' ( 3 3 3 3 3 3 3 3 ( ( ( 3 3 ",
"o.t B.XXB...*.;._ ^ -.&X-.q 0 _ / & u l 6.i.I.(.I.g.m l m q.d.k.S.H.H.S.g.9.n m 8.w.e.a.7.j * O q _ 0 3 3 3 3 3 0 ^ ^ ' $.' 3 3 ",
") ^ Y B.Y _ ;.*.( 3 | -.| 0 ( / - * l 8.g.T.).G.9.f s j k l n n m 7.e.h.S.S.d.n j 7.p.k.k.m i $ @ 8 3 3 3 3 3 3 ^ +.^ _ ' _ e 0 ",
"' ) q t / _ ' ( 3 3 3 q 3 3 ^ ; $ j q.f.(._.F.k u i j m 7.7.n h d i u i j e.l.d.n i k f.H.Z.k * + - 1 3 3 3 3 3 0 ^ q ( ( >.M.I ",
"' _ 0 3 ( ( ^ ^ 3 3 3 3 3 3 7 @ a 8.f.Y._.F.s % j t.l.b.s.u.y.y.C C N v p d m h.g.b % f k.T.n.i + O 7 1 3 3 3 3 3 1 3 ~ e M..XN.",
"_ ) 0 3 3 3 ^ +.^ 1 3 3 3 1 X * m a.I.'.F.f u m g.b.u.C V R R J J J R R C N d M h.l.j + s F.].r.$ O - 1 3 3 3 1 3 3 3 ( ^ P M.I ",
"@.^ 3 3 3 3 3 / | q 3 3 3 < @ f p.D._.Y.m i j w.u.B N F D A Z S U Y G c F R V N 0.l.h.a + j /.^.a O O 7 3 3 q | q 1 3 3 3 0 w 8 ",
"=X .3 ^ 0 3 1 | $X| e q 3 , $ m z.T.).d.h a M u.C Q Q Z A 4.:X,X2X1X!.4.4.K F V B s.S.t.* + c.}.c.O . ; 8 t | $X| 3 3 q 3 3 3 ^ ",
" .4 ^ +.^ 3 3 q | :.R.U q ; u p.L.).I.6.a d u.V Q 7X4X5.Z ~.rX0X+XOX3X8X9X;XY D J B C.A.b O u `.^.u   @ U R.:.| ( ( | -.| 3 ^ ' ",
"3 0 q ^ 3 3 3 3 e R.XXR.w @ f z.T.(.k.h i 0.C F T ,XeX7XU !.0XOX{.{.oXoX3X8X4.Z G E y.G.s.* O c.}.M   # N.XXR.t ) ) -.&X-.q 3 ^ ",
"0 ) ) ~ 3 3 3 3 q :.W.>.7 + m L.(.U.w.i b y.R D A Q.7X;X2.1X0XoX{.{.{.{.3X,X,.K 4.,XE v.C.f O b [.n.O . I W.:.q ) ( | -.| q ^ 3 ",
"0 ) ' ' ) 3 3 3 3 _ <._ , $ e.U.(.D.k d B C D G G 2XeX:X2.;X8X+XOX+XOXOX0X~.S >X9X9X2.B F.m + i ^.P.$   9 -._ ~ ( 3 3 q 3 ^ +.^ ",
"3 ~ ' *.' ~ 3 3 3 ) _ ~ o % d.T.T.f.k h C R D K A ~.9XtX7X7XtXrXrXtX0X0X2X3.T 1XyX7X2.N n.t.$ * P.I.u   5 _ ) 0 3 3 3 3 3 0 ^ 0 ",
"1 0 ' #.' ) 0 3 3 3 0 1 o % h.(.T.i.l M C F D K K Z ,XtXeXqXtXyXyXyXyXyX9X2X7XeXtX~.Z N u.v.% * F.K.i   - 0 3 3 3 3 3 3 3 0 3 3 ",
"0 ^ _ _ ' ) 0 3 3 3 3 3 o u C._.Y.e.m 0.C D G K L G 4.!.4.4.7XyXyXyXyXyXeXeXyXwX2XQ.D N u.s.* u C.G.i   X 1 3 3 3 3 3 3 ^ _ ) 0 ",
"^ +./ 0 0 0 3 3 3 3 0 ( , % b._.Y.w.8.u.C D G K K L G D Z ;XeXyXyXyXyXqX!.!.2X;XY K K N u.s.u a Z.Z.u   ; 0 3 3 3 3 3 3 _ $._ 0 ",
"0 ^ 0 3 q 3 3 3 3 0 ) _ < $ b.'.(.e.q.s.C D G K K K L L G >XyXyXyXyXyX9X3.G Q Y K K K V s.s.* k A.h.%   7 ) 0 3 3 1 3 3 ) X.@.4 ",
"3 0 ( ^ o.q 3 3 3 ( ' ) , + t.'.(.p.w.g.y.D G K K K L L Z *XtXyXyXyXyXeXQ.G L L K K J B g.e.u 8.S.e.+   7 _ ( 3 3 ^ 3 3 3 @.@X .",
"3 ( #.( ^ 3 3 ^ 0 ( ( ~ , @ 7.).].k.w.l.u.F A K K L G Y 5.,XtXtXeXtXyX7X4.G L K K K R u.f.8.i d.A.n O . 7 ( ( 3 ^ +.^ 3 3 4 [ 4 ",
"3 0 ( 0 3 3 3 ^ 3 3 3 3 < @ j Y.}.S.i.l.b.V A G K G G ~.qXtX9X~.5.>XtX<X3.K L K K F B g.f.l k Z.b.a   . < 3 3 3 3 ^ 0 3 3 q 3 3 ",
"3 3 3 3 3 3 3 3 3 0 ^ 3 1 - u n.|.U.a.f.G.c.D D Z 2.2.2XyXtX5XT c !.tXeX;XZ K K D V s.l.i.h e.D.e.$   X 1 3 3 3 3 3 3 3 ^ _ ^ 1 ",
"3 3 3 3 3 3 3 3 3 ^ +.^ 1 ; + 9.[.'.x.a.A.F.N c 2.2X,X7XeX:X4.Y G 3.2XtX7XQ.A D v u.l.l.7.m Z.S.j O   o 0 0 3 3 3 3 q 3 3 ^ 3 3 ",
"3 3 3 3 3 3 3 3 3 0 ^ 3 3 8 # a P.|.L.z.f.H.v.v Q.,X7XeX>XK Z K G Y >XeXyX,XS v y.C.A.a.z g.K.s.*   . < ) ) 0 3 3 q o.q 3 3 3 3 ",
"3 3 3 0 ( ( 3 1 4  .4 1 q | ; $ r.}.].J.k.k.S.s.N c 3.!.T A G G A T >XqX9X:XA B C.S.k.q.p.D.A.k O   X 3 ) ) 0 3 3 3 q ^ ( ( 3 3 ",
"3 3 ~ _ ' ( 3 1  .@X .3 q ^ 7 & a F.|.).H.a.a.z.h.0.x g c Z Z Z A Z H 4.3.Q m.h.D.A.a.a.D.K.9.* . . , 3 0 3 3 3 3 3 ~ _ ' ( 3 3 ",
"3 0 _ $._ 0 3 3 4  .4 0 ) _ 0 ; % k ^.|._.H.p.e.Z.D.g.B v g g g c > > = u n C.K.D.z.j.D.K.d.f O . X w 0 3 3 q 3 3 0 _ $._ 0 3 3 ",
"3 ( ' _ ~ 3 3 3 3 1 1 0 _ $._ 1 & i 7./.|.[.G.e.6.h.K.H.h.w.M d d p a k s.I.T.K.x.x.H.K.g.k $ O @ S M.P q | -.| 3 ( ' _ ^ 3 3 3 ",
"3 ( ( 0 3 3 3 3 3 ^ 3 3 ^ _ ) 3 5 * s q.^. X|.^.d.l 9.Z.K.K.G.C.b.n.P./.]._.U.H.x.L.K.g.n * + O 6 m..XM.e -.&X-.^ ( ( 0 3 3 3 3 ",
"3 3 3 3 3 3 3 1 ^ +.^ 3 3 0 0 3 8 ; * h q.P.}. X[.P.e.z w.l.K.T.).'.]._.T.H.H.J.L.D.d.n u $ + o 8 P M.P 0 | -.| 3 3 3 3 3 3 3 3 ",
"3 3 3 3 3 3 3 3 3 ^ 3 3 3 3 1 1 3 8 ; * h 6.b./. X X].I.l.k.z.x.J.J.J.H.H.J.J.H.h.q.l a * + o 1 3 0 w 0 3 ^ ( ( 3 3 3 3 3 3 3 3 ",
"0 ( q q 3 1 3 3 3 3 ^ 3 3 3 q | q 3 0 5 = f z i.G.].|.|.].T.L.L.L.L.L.H.H.z.f.i.q.7.j u O o 8 | q 3 3 ( ( _ _ ( 0 ( q q 3 1 3 3 ",
"3 3 ^ o.^ ^ 3 3 3 ^ _ ^ 1 1 | $X| 3 ( ) 9 > a k 6.a.G.(.].'.(.U.J.z.k.f.g.C.Z.Z.i.j $ . o 1 | $X| 3 ( ' ' ' _ ~ 3 3 ^ o.^ ^ 0 3 ",
"3 3 3 q ^ +.^ 3 3 3 ^ 3 3 3 q | q 3 ( ' $./ : u s k 6.p.A.I.(._.'.]._.).Y.I.b.n % . X < 1 1 q | q 3 ( ' *.' ( 3 1 3 3 q ^ +.^ 1 ",
"^ 3 3 3 0 ^ 3 3 3 3 3 3 3 3 3 1 3 ~ _ ' ' ' ^ 5 > i a f k z 9.t.v.v.c.r.b u + . X , 1 3 3 3 3 1 3 ~ _ ' ' ' ( 3 q 3 3 1 3 ^ 0 3 ",
"' ~ 3 3 3 3 3 3 3 3 3 3 3 1 3 3 3 ( _ ` X.( 0 3 w W W x * u u * % $ + O O . , 1.} 1 3 3 3 1 3 3 3 ( _ ` X.( 0 ^ _ ^ 1 3 3 3 3 3 ",
"^ q y q 3 3 3 3 3 0 0 3 3 ^ 3 3 3 ( ( &.#X%.4 q | :.N.P 7 w 6 : ; ; ; 5 7 8 }  .4 0 0 3 3 ^ 3 3 3 ( ( &.#X%.4 3 0 q y q 3 3 3 3 ",
"1 y E.y 3 3 3 1 0 ) _ ~ ^ +.^ 1 3 3 ] #X-X#X{ | $X| t q 3 ^ ^ | q 3 3 3 1 ^ +.q 3 ) _ ~ ^ +.^ 1 3 3 ] #X-X#X{ 3 1 y E.y 3 3 3 3 ",
"3 q y q 3 3 3 1 0 _ *._ ^ ^ 3 3 3 3 4 %.#X&.` ^ | q 3 3 3 3 3 q q ( 0 1 1 3 ^ 4 0 _ *._ ^ ^ 3 3 3 3 4 %.#X&.X.^ 1 q y q 3 3 3 3 ",
"3 3 3 3 3 1 3 3 3 ~ _ ' ( 3 3 3 3 3 3 4 ] 4 ~ 3 1 3 3 3 3 3 3 3 3 3 3 3 0 ^ q 3 3 ~ _ ' ( 3 3 3 3 3 3 4 ] 4 ~ 3 3 3 3 3 3 3 3 3 ",
"3 3 3 3 3 3 3 3 q t q ( ( 3 3 3 3 3 3 3 1 3 ^ 3 3 ^ q ( ( 0 3 3 3 3 1 3 _ #.) 3 q t q ( ( 3 3 3 3 3 3 3 1 3 ^ 3 3 3 3 3 0 3 3 3 ",
"1 1 3 ( ( ( 3 q T V.T q 3 3 3 3 3 1 3 3 3 / +.^ ^ +.^ ( _ ) 0 3 3 1 3 0 ) X.@.r T V.T q 3 3 3 3 3 1 3 3 3 / +.^ 1 1 3 ( ( ( 3 3 ",
"0 ^ q ' $.' 3 t V.oXV.t 3 3 3 3 q | q 0 ) _ / 3 3 ^ 0 0 ) _ ( 3 3 ^ 0 3 3 @.@X..V.oXV.t 3 3 3 3 q | q 0 ) _ / 3 3 ^ ^ ' $.' 3 3 ",
"^ +./ _ ' _ e 9 T V.T ^ 3 3 3 1 | $X| ( ' _ 0 3 3 1 3 3 0 ( ( 3 ^ +.^ 3 1 4 [ r T V.T ^ 3 3 3 1 | $X| ( ' _ 0 1 ^ +./ _ ' _ e 0 ",
"q ^ q ( ( >.M.P 9 t q _ ^ 1 3 3 q | ^ ( ( ( 3 3 3 3 3 3 3 3 3 3 3 ^ 0 3 3 q 3 3 q t q _ q 1 3 3 q | ^ ( ( ( 3 3 3 ^ q ( / >.M.I ",
"3 3 3 3 e M..XM.w 3 3 ^ 3 3 3 3 3 1 3 3 3 3 3 3 3 3 3 3 1 1 3 3 3 3 1 1 ^ _ ^ 3 3 3 3 q 3 3 3 3 3 1 3 3 3 3 3 3 3 1 3 0 e M..XN.",
"3 3 3 ( ^ P M.P 0 3 3 3 1 3 3 3 3 3 3 3 3 3 3 3 3 3 3 3 0 0 3 3 3 3 q 3 3 ^ 3 3 3 3 3 1 3 3 3 3 3 3 3 3 3 3 3 3 3 3 3 ( ^ P m.I ",
"3 3 3 0 3 0 w 0 3 3 3 3 3 3 3 3 3 3 3 3 3 3 3 3 3 3 3 0 ) ) 0 3 3 ^ O.^ 1 3 3 3 3 3 3 3 3 3 3 3 3 3 3 3 3 3 3 3 3 3 3 0 3 0 w 0 "
};
