/* XPM */
static char *adr1y_gp36z[] = {
/* columns rows colors chars-per-pixel */
"64 64 218 2 ",
"   c #160701",
".  c #1A0804",
"X  c #1C0904",
"o  c #1B0D14",
"O  c #1C0E1B",
"+  c #240A02",
"@  c #2A0B02",
"#  c #230C0B",
"$  c #290C08",
"%  c #330E01",
"&  c #3B0F01",
"*  c #2D110D",
"=  c #371207",
"-  c #3D1102",
";  c #220E13",
":  c #260F17",
">  c #24111C",
",  c #2C141A",
"<  c #341414",
"1  c #3F241D",
"2  c #1D1023",
"3  c #1E122B",
"4  c #1E1536",
"5  c #1D1837",
"6  c #1E1639",
"7  c #1E1A3D",
"8  c #231224",
"9  c #281624",
"0  c #21132B",
"q  c #211635",
"w  c #291936",
"e  c #20173D",
"r  c #221A3C",
"t  c #311C35",
"y  c #311D3A",
"u  c #3D2620",
"i  c #3F2921",
"p  c #23213B",
"a  c #362437",
"s  c #34223A",
"d  c #382E3D",
"f  c #420F00",
"g  c #431201",
"h  c #4B1501",
"j  c #521500",
"k  c #5A1600",
"l  c #571A03",
"z  c #5C1900",
"x  c #451F16",
"c  c #641B00",
"v  c #641802",
"b  c #6C1C00",
"n  c #731E01",
"m  c #7C1E00",
"M  c #4F220E",
"N  c #44231D",
"B  c #49251A",
"V  c #562616",
"C  c #692305",
"Z  c #742101",
"A  c #7C2201",
"S  c #762807",
"D  c #672B15",
"F  c #63341B",
"G  c #7C3512",
"H  c #452624",
"J  c #492723",
"K  c #422822",
"L  c #4D2924",
"P  c #4A2829",
"I  c #502A26",
"U  c #522C29",
"Y  c #4D302D",
"T  c #55312B",
"R  c #59322D",
"E  c #482837",
"W  c #502B37",
"Q  c #4E313A",
"!  c #573635",
"~  c #593F39",
"^  c #74431A",
"/  c #734526",
"(  c #64423E",
")  c #1F1840",
"_  c #211741",
"`  c #231A42",
"'  c #291A47",
"]  c #23194A",
"[  c #271A54",
"{  c #281B56",
"}  c #271D59",
"|  c #291B5A",
" . c #1B244A",
".. c #1F2D4C",
"X. c #1D2551",
"o. c #232245",
"O. c #2B214B",
"+. c #202E4E",
"@. c #352A48",
"#. c #252659",
"$. c #302552",
"%. c #352956",
"&. c #35295A",
"*. c #223155",
"=. c #2B1D63",
"-. c #2D1F69",
";. c #183A63",
":. c #193B68",
">. c #2D206A",
",. c #302F66",
"<. c #3E3167",
"1. c #2F2271",
"2. c #513441",
"3. c #52304D",
"4. c #402866",
"5. c #235A6A",
"6. c #664847",
"7. c #735858",
"8. c #7B6464",
"9. c #871F00",
"0. c #832400",
"q. c #8C2501",
"w. c #8D2900",
"e. c #8C2C09",
"r. c #942600",
"t. c #9B2600",
"y. c #932901",
"u. c #9A2B00",
"i. c #893305",
"p. c #9A3505",
"a. c #813212",
"s. c #A42C01",
"d. c #AA2A00",
"f. c #B52D01",
"g. c #B92D01",
"h. c #A43401",
"j. c #AC3301",
"k. c #A83A08",
"l. c #BB3401",
"z. c #B43B01",
"x. c #B43803",
"c. c #BB3B01",
"v. c #CF2E01",
"b. c #C43301",
"n. c #C43B01",
"m. c #CC3C01",
"M. c #D53901",
"N. c #E63A01",
"B. c #8C4A0A",
"V. c #974505",
"C. c #A84807",
"Z. c #B84503",
"A. c #B25402",
"S. c #BF6602",
"D. c #874838",
"F. c #89493A",
"G. c #935339",
"H. c #A65F32",
"J. c #A97B3B",
"K. c #C44303",
"L. c #CD4402",
"P. c #C74D03",
"I. c #D54401",
"U. c #DB4401",
"Y. c #D34A01",
"T. c #DC4C01",
"R. c #C65501",
"E. c #D95701",
"W. c #E84701",
"Q. c #E44B01",
"!. c #F44B01",
"~. c #E75701",
"^. c #F45701",
"/. c #D26901",
"(. c #E66601",
"). c #F76701",
"_. c #EA7B01",
"`. c #F77901",
"'. c #965F43",
"]. c #83744B",
"[. c #9A6150",
"{. c #8F7776",
"}. c #DA8A01",
"|. c #E78D01",
" X c #FA8901",
".X c #FA9601",
"XX c #FD9B01",
"oX c #FEA301",
"OX c #FAAA01",
"+X c #F6B901",
"@X c #F8C701",
"#X c #FFD701",
"$X c #FEE801",
"%X c #CD8C47",
"&X c #D9A150",
"*X c #F4B34C",
"=X c #FFBA63",
"-X c #257590",
";X c #1171A1",
":X c #4F4081",
">X c #594990",
",X c #614F9C",
"<X c #26899F",
"1X c #16B1D9",
"2X c #9A8585",
"3X c #AB948E",
"4X c #A89595",
"5X c #B29FA0",
"6X c #B9A8A8",
"7X c #E5C099",
"8X c #F1D2B1",
"9X c #D4C8C8",
"0X c #DBD1D2",
"qX c #E3D9DA",
"wX c #FEE9CF",
"eX c #F3ECEA",
"rX c #F6F2F3",
"tX c #FEFEFE",
/* pixels */
"6 6 6 _ ] ] 6 6 4 6 6 6 6 6 6 4 6 e 6 6 6 6 6 6 6 6 _ ] ] e r 6 6 6 6 _ ] ] 6 6 4 6 6 6 6 6 6 6 6 e 6 6 6 6 4 6 6 6 6 _ ] ] 6 6 ",
"6 6 _ { | ] 6 r O.r 6 6 6 4 6 r r ] e 6 6 6 ` e 6 ] { | ] O.<.O.6 6 _ { | ] 6 r O.r 6 6 6 4 6 r r ] 6 6 6 6 ` e 6 6 ` { | ] 6 6 ",
"6 e { -.{ e 4 O.:XO.y r 6 ` ` $.` 6 6 6 6 ` &.` ] >.1.{ ` <.,X<.r e { -.{ e 4 O.:XO.y r 6 ` ` $.` 6 6 6 4 ` &.` 6 e { -.{ e 6 6 ",
"6 ] | { _ 6 6 r O.2.'.Q ` &.` r 6 6 6 6 6 6 o.*.#.1.>.] 6 O.<.O.e ] | | ` 6 6 r O.2.'.Q ` &.` r e 6 4 6 6 e o.+.) ] | { ` 6 6 6 ",
"6 ] ] e 6 6 6 6 y '.&X'.s ` 6 4 6 6 ` 6 6 4 ..-X,.{ ] 6 6 6 r 6 6 ] ] e 6 6 6 6 y '.&X'.s ` e 6 6 6 ` 6 6 4 +.-X*.] ] e 6 6 6 6 ",
"6 6 6 6 6 6 6 6 r 2.[.3.r 4 6 6 4 _ { ` 6 4 ) ,.[ ` ` 6 6 6 6 6 6 6 6 6 6 6 6 4 r 2.[.3.r 4 6 6 4 _ { ` 4 4 ` *.` 6 6 6 6 6 6 6 ",
"6 6 6 4 6 6 6 6 6 { 4.{ 6 6 6 r d r _ 6 6 6 6 6 6 ` &.` 4 6 6 6 6 6 6 4 6 6 6 4 6 { 4.{ 6 6 6 r d r ` 6 6 6 6 6 6 6 6 4 6 6 6 6 ",
"e ] e r 6 6 6 6 e [ { _ 6 6 6 d ].d 4 6 e e 6 6 6 6 ` r ` 6 6 6 6 ] r r 6 4 6 4 e [ { ` 6 6 6 d ].d 6 6 e e 6 6 6 ] r r 6 4 6 6 ",
"6 6 ` $.` ` 6 6 6 e e 6 4 6 6 r d r 6 6 { { ` 6 6 6 4 r &.` 6 6 6 6 ` $.` ` 6 6 6 e e 6 4 6 6 r d r 6 6 [ { ` 6 6 6 ` $.` ` 6 6 ",
"6 6 6 r ` &.` 4 6 6 6 6 6 6 4 4 6 6 4 6 { -.{ e 6 6 7 +.o.6 4 4 4 4 4 r ` &.` 4 6 6 6 6 6 6 4 6 6 6 4 6 { -.{ 6 4 6 6 r ` &.` 4 ",
"` 6 6 6 6 ` 6 6 6 6 e ] ] r ` 6 6 7  .7 _ { [ e 6 4 ..5.p > , < < < , > 0 w q 4 6 6 e ] ] r ` e 4 7  .7 _ { [ e ` 6 6 6 6 ` 6 6 ",
"| _ 6 6 6 4 6 6 6 e [ { ] ` &.` 7 ;.;X;.7 e ` 6 3 2 > < = - - g g h h h g * ; 8 3 e [ { ] ` &.` 7 ;.;X;.7 e ` ` { _ 6 6 6 4 6 6 ",
"` r d r 6 6 6 4 6 ] | [ e e ` e  .;X1X;X .' %.9 * g h h h h h h h h h h h j h % # 0 ' [ e e ` e  .;X1X;X .' <.O.` r d r 6 6 6 6 ",
"4 d ].d 6 6 6 6 6 ] ] e 6 6 4 6 7 ;.;X;.r @.H g h h h j k z c b b b b b c z c c g @ ; 0 4 6 4 4 7 ;.;X;.` <.,X<.r d ].d 6 6 6 6 ",
"6 r d r 6 6 6 6 6 6 6 6 6 6 6 6 4 7  .5 > = g g h k c c b n A A A Z n Z 0.w.0.Z A c % X O 4 6 6 6 7  .7 6 O.<.O.6 r d r 6 6 6 6 ",
"4 6 6 6 6 6 6 6 6 6 6 6 6 6 6 6 6 6 4 , - - h z b n q.j.n.n.c.j.s.y.0.n b b 0.w.0.0.A h + O 4 6 6 6 6 6 6 6 r 6 6 6 6 6 4 4 6 6 ",
"O.r q t q 6 6 e ] ] e r 6 6 6 6 e _ , = - z n m u.L.~.~.I.c.s.r.0.0.A 0.A m b b 0.w.0.0.j + O 4 e ] ] 6 6 6 6 6 6 6 6 6 6 6 6 6 ",
">XO.! H.! r ] | | ] O.<.O.6 6 ` [ 9 % g b m q.L.).`.E.x.w.0.0.q.r.w.0.A n A 0.0.A 0.u.0.Z h + O [ | ] 6 6 6 6 6 6 6 6 ] ] ] 6 6 ",
"$.s H.&XH.@.>.1.{ ` <.,X<.r e { ' * g n 9.s.(. X(.x.A n A y.j.n.U.W.Q.I.x.w.n A w.r.u.f.0.c - + r { e 6 6 6 6 6 e ` ` | -.| 6 6 ",
"[ ` ! H.! { 1.>.] 6 O.<.O.e ] ' : - n q.x.`..XE.w.z k c b n n Z A 0.p.c.U.U.j.Z c 0.d.b.n.A h % # q 6 6 6 6 6 6 ` &.` { | { y e ",
"| [ r s ' { | ] 6 6 6 r 6 6 ` > % c r.l. XXXR.b g h c 0.y.w.A b z h g h c u.n.j.b h b l.W.Y.b - @ ; 4 6 6 6 6 6 e ` r ] ] 3.F.W ",
"| { e 6 ] ] ` ` 6 6 6 6 6 6 0 # j q.l._.XXR.k & c j.I.Q.I.K.x.k.C.p.i.S k j A c.x.b & z b.`.A.h @ + 0 4 6 6 6 6 6 4 6 _ y F.%XG.",
"{ [ e 6 6 6 ` &.` 4 6 6 6 4 o - A f.(.oXE.z g A n.U.L.k.a.D F F F F ^ B.V.i.b A n.n.C @ k R.OXi.% + ; 4 6 6 6 4 6 6 6 ] ` E F.W ",
"*.` 6 6 6 6 6 ' O.r 6 6 6 3 # z d.T.XX_.A h b s.n.x.G V L L L L L P P L F B.k.w.y.I.c.j + c |.}.j + + 0 6 6 r O.r 4 6 6 6 e t q ",
"<X+.6 ` e 6 4 O.:XO.y r 6 2 % A M.`..Xj.c h 0.K.k.D B J L L I I I L L P J J F e.s.n.W.h.- + B.@XV.+ X > q s O.:XO.6 6 r 6 6 6 ` ",
"+.7 ` &.` 6 6 r O.2.'.Q r > g d.^..X(.9.j c K.C.V B J L I ! ! U U U U L P J J B S s.Q.T.C + g }.}.g   # Q '.2.O.] ] O.<.O.6 ` | ",
"6 e r ` 6 6 6 6 y '.&X'.t # z M.`. Xn.c h j.Z.D N J L I U {.9X{.( T T U P J J K B b x.^.h.- + B.@XS   $ G.&X'.s [ [ <.,X<.r 6 ` ",
"e [ [ _ 6 6 6 6 r 2.[.3.0 @ A ^. X).t.h Z P.G N J L I U I 6.9XeX2XT T T U P J H N x Z E.E.z + C +XA.+ . W [.2.r [ ] O.<.O.r ` 6 ",
"e [ | | [ 6 6 6 6 { 4.{ 2 % u.). XT.b k h.C.V N J L I ! {.7.6.0X9X( R T U P Y P K 1 l p.(.A @ g }./.%   w <.{ _ ] 6 6 r 6 ` &.` ",
"6 _ | >.| _ 6 6 6 [ { _ O & j.`.`.l.b b Z.a.N N L I L {.8X7X5X0X4XR R U 6.8.{.~ H 1 x A E.p.% - /.(.g   8 { [ e 6 6 6 6 6 e ` e ",
"4 e | =.| [ e 6 6 6 e 4 O - c. X`.s.n q.A.D N J L I T 3X=X*XwXtX9X6X4X2X9XrX2XJ K u x C c.Z.& - R.~.h   ; e 6 6 6 6 6 6 6 e 6 6 ",
"e ` { { | [ e 6 6 6 6 6 O g K.XX_.u.0.s.C.V N N L L 6.7X*X=XwXtXtXtXrXeX0X9X8.J H i N C x.x.- g P.E.h   o 4 4 6 6 6 6 6 ` { [ e ",
"` &.' e e e 6 6 6 6 e ] 2 & Z.XX_.t.w.l.C.B N N L L 7.8X*X=XrXtXtXtX0X8.6.6.Y J K u 1 S x.j.- k P.L.g   > e 6 6 6 6 6 6 { -.{ e ",
"e ` e 6 r 6 6 6 6 e [ { 3 % Z.oX Xt.t.m.C.B N N L L 6.9X8X8XrXeXtXtX0X6.T U P J H u N S l.h.- b Y.c.&   0 [ e 6 6 4 6 e [ #.*.7 ",
"6 e ] ` $.r 6 6 6 ] | [ 2 @ p.oX Xd.t.U.Z.M N N J L T 6.8.2X0X2X4X6XqX0X6.P P J H u B e.n.u.g q.Y.u.@   0 { ] 6 6 ` 6 6 6 *.-X+.",
"6 ] =.] ` 6 6 ` e ] ] _ 3 # 0..XOXb.t.W.P.V < N J L T 2X5X6XeX7.U ! 6XrX6X! P J K u V h.n.q.h j.Y.Z + . 0 ] ] 6 ` &.` 6 6 7 ..7 ",
"6 e ] e 6 6 6 ` 6 6 6 6 3 # c _.@XU.s.M.~.D < N J J 6.9X6X9X2X( R R 6.4X0X7.J J K 1 D c.l.n b L.Z.j   . 3 6 6 6 6 ` e 6 6 r 6 6 ",
"6 6 6 6 6 6 6 6 6 6 ` 6 4 ; f A.#X).g.l.^.V.x N N J U ~ ! ( U T T T U {.5XY J H u B p.m.s.c u.T.p.%   o 4 6 6 6 6 6 6 6 ` { ` 4 ",
"6 6 6 6 6 6 6 6 6 ` &.` 4 > @ w.+XoXN.f.Q.E.D N N J L L I I T T T T U ! 6.J J i N G n.m.0.A L.Y.c +   O 6 e 6 6 6 6 r 6 6 ` 6 6 ",
"6 6 6 6 6 6 6 6 6 e ` 6 6 q $ k /.#X).v.l.~.Z.V N N J L L I I U U U I L J J H 1 D c.I.f.m x.~.h.-   . 3 [ [ e 6 6 r $.r 6 6 6 6 ",
"6 6 6 e ] ] 6 4 7 +.7 4 r O.> % i.@XOX!.b.b.Q.h.V N N J J L L L L P P J J K 1 V k.U.m.r.d.T.Y.C +   o 6 [ [ e 6 6 6 r ` ] ] 6 6 ",
"6 6 _ { | ] 6 4 +.-X+.6 r ` 0 * j S.#X.XW.g.g.M.k.D N N J J J J J J J H K N V k.T.I.g.g.T.~.y.g X . 2 6 e 6 6 6 6 6 _ { | ] 6 6 ",
"6 e { -.{ e 6 6 7 +.7 e [ { e > & b }.#XXXQ.d.t.L.L.e.V N N H H H H u 1 N D k.~.T.v.v.T.~.h.z + X o t e 6 6 r 6 6 e { -.{ e 6 6 ",
"6 ] | { _ 6 6 6 6 4 4 e { -.{ 4 * h 0.|.#X+XE.t.9.c.Q.K.p.D V B N x x D p./.`.~.N.N.Q.~.x.b % + # P F.E r O.<.O.6 ] | { ` 6 6 6 ",
"6 ] ] e 6 6 6 6 6 ` 6 6 ` { [ 6 8 - k r.}.$X#X|.h.n w.K.~.E.P.C.C.A.S.}.OXXX).W.N.^.~.j.Z - @ + 9 D.%XF.y <.,X<.` ] ] e 6 6 6 6 ",
"6 6 6 6 6 6 6 4 ` &.` 6 6 e e 6 q > - c r./.@X$X+X/.u.m t.n.E.`. XoXOXXX`.Q.W.!.^.T.h.Z g % @ O q E F.E e O.<.O.6 6 6 6 6 6 6 6 ",
"6 6 6 6 6 6 6 6 6 ` 6 6 6 6 4 4 6 q > - c 9.Z.|.$X$XOX(.m.b.M.N.!.!.!.W.W.!.!.Q.c.y.n j - @ O 4 6 e t e 6 ` ] ] 6 6 6 6 6 6 6 6 ",
"e ] r r 6 4 6 6 6 6 ` 6 6 6 r O.r 6 e 8 = z m s.E.OX#X#XOX`.^.^.^.^.^.Q.W.M.l.s.y.0.c g + O q O.r 6 6 ] ] { { ] e ] r r 6 4 6 6 ",
"6 6 ` $.` ` 6 6 6 ` { ` 4 4 O.:XO.6 ] [ w < j b 9.f.E. XOXoX X).!.M.b.l.x.K.L.L.s.c % X O 4 O.:XO.6 ] | | | { _ 6 6 r $.` ` e 6 ",
"6 6 6 r ` &.` 6 6 6 ` 6 6 6 r O.r 6 ] | -.' , g k b 9.d.Y.(. XXXoXOXXX.X_.(.Z.Z & X o 3 4 4 r O.r 6 ] | >.| ] 6 4 6 6 r ` &.` 6 ",
"` 6 6 6 e ` 6 6 6 6 6 6 6 6 6 4 6 _ { | | | ` 8 < h j z b m w.p.C.C.V.i.C g @ X o 2 4 6 6 6 6 4 6 _ { | | | ] 6 ` 6 6 4 6 ` e 6 ",
"| _ 6 6 6 6 6 6 6 6 6 6 6 4 6 6 6 ] { } #.] e 6 t / / M - g g & & % @ + + X 2 5.o.4 6 6 6 4 6 6 6 ] { } #.] e ` { ` 4 6 6 6 6 6 ",
"` r d r 6 6 6 6 6 e e 6 6 ` 6 6 6 ] ] :.;X;.7 r O.2.G.E 0 t 9 , > > > 8 0 q o.+.7 e e 6 6 ` 6 6 6 ] ] :.;X;.7 6 e r d r 6 6 6 6 ",
"4 d ].d 6 6 6 4 e [ { _ ` &.` 4 6 6  .;X1X;XX.O.:XO.s r 6 ` ` O.r 6 6 4 4 ` &.r 6 [ { _ ` &.` 4 6 6  .;X1X;XX.6 4 d ].d 6 6 6 6 ",
"6 r d r 6 6 6 4 e { >.{ ` ` 6 6 6 6 7 ;.;X:.} ` O.r 6 6 6 6 6 r r ] e 4 4 6 ` 7 e { >.{ ` ` 6 6 6 6 7 ;.;X:.#.` 4 r d r 6 6 6 6 ",
"6 6 6 6 6 4 6 6 6 _ { | ] 6 6 6 6 6 6 7  .7 _ 6 4 6 6 6 6 6 6 6 6 6 6 6 e ` e 6 6 _ { | ] 6 6 6 6 6 6 7  .7 _ 6 6 6 6 6 6 6 6 6 ",
"6 6 6 6 6 6 6 6 r a r ] ] 6 6 6 6 6 6 6 4 6 ` 6 6 ` r ] ] e 6 6 6 6 4 6 { =.[ 6 r a r ] ] 6 6 6 6 6 6 6 4 6 ` 6 6 6 6 6 6 6 6 6 ",
"4 4 6 ] ] ] 6 r ~ J.~ r 6 6 6 6 6 4 6 6 6 ' &.` ` &.` ] { [ e 6 6 4 6 e [ #.*.p ~ J.~ r 6 6 6 6 6 4 6 6 6 ' &.` 4 4 6 ] ] ] 6 6 ",
"e ` r | -.| 6 a J.*XJ.a 6 6 6 6 r O.r e [ { ' 6 6 ` e e [ { ] 6 6 ` e 6 6 *.-X@.J.*XJ.a 6 6 6 6 r O.r e [ { ' 6 6 ` ` | -.| 6 6 ",
"` &.' { | { y w ~ J.~ ` 6 6 6 4 O.:XO.] | { e 6 6 4 6 6 e ] ] 6 ` &.` 6 4 7 ..p ~ J.~ ` 6 6 6 4 O.:XO.] | { e 4 ` &.' { | { y e ",
"r ` r ] ] 3.F.E w a ` { ` 4 6 6 r O.` ] ] ] 6 6 6 6 6 6 6 6 6 6 6 ` e 6 6 r 6 6 r a r { r 4 6 6 r O.` ] ] ] 6 6 6 ` r ] ' 3.F.W ",
"6 6 6 6 y F.%XF.t 6 6 r 6 6 6 6 6 4 6 6 6 6 6 6 6 6 6 6 4 4 6 6 6 6 4 6 ` { ` 6 6 6 6 r 6 6 6 6 6 4 6 6 6 6 6 6 6 4 6 e y F.%XG.",
"6 6 6 ] ` E F.E e 6 6 4 4 6 6 6 6 6 6 6 6 6 6 6 6 6 6 6 e e 6 6 6 6 r 6 6 ` 6 6 6 6 6 4 6 6 6 6 6 6 6 6 6 6 6 6 6 6 6 ] ` E D.W ",
"6 6 6 e 6 e t e 6 6 6 6 6 6 6 6 6 6 6 6 6 6 6 6 6 6 6 e [ [ e 6 6 ` %.` 4 6 6 6 6 6 6 6 6 6 6 6 6 6 6 6 6 6 6 6 6 6 6 e 6 e t e "
};
