/* XPM */
static char *ayvte_2kgbu[] = {
/* columns rows colors chars-per-pixel */
"64 64 224 2 ",
"   c #160701",
".  c #1B0904",
"X  c #1B0D14",
"o  c #1C0E1B",
"O  c #240A02",
"+  c #2A0B02",
"@  c #230C0B",
"#  c #290C08",
"$  c #330E01",
"%  c #3B0F01",
"&  c #2D110D",
"*  c #3D1202",
"=  c #371409",
"-  c #230E14",
";  c #24111C",
":  c #2C141A",
">  c #361613",
",  c #1D1023",
"<  c #1E122B",
"1  c #1E1536",
"2  c #1D1837",
"3  c #1E1639",
"4  c #1E1A3D",
"5  c #231224",
"6  c #281624",
"7  c #21132B",
"8  c #211635",
"9  c #291936",
"0  c #20173D",
"q  c #221A3C",
"w  c #311C35",
"e  c #311D3A",
"r  c #23213B",
"t  c #352339",
"y  c #382E3D",
"u  c #431301",
"i  c #4B1501",
"p  c #44190E",
"a  c #481A0A",
"s  c #531501",
"d  c #5B1700",
"f  c #541902",
"g  c #5C1A01",
"h  c #631700",
"j  c #641B01",
"k  c #6C1C00",
"l  c #731E01",
"z  c #7B1E00",
"x  c #56220E",
"c  c #46221A",
"v  c #4B251C",
"b  c #672404",
"n  c #6C2102",
"m  c #742201",
"M  c #7C2201",
"N  c #772905",
"B  c #652815",
"V  c #783D1D",
"C  c #4A2825",
"Z  c #4E2A25",
"A  c #522B26",
"S  c #592D26",
"D  c #532E29",
"F  c #54312B",
"G  c #59322D",
"H  c #482837",
"J  c #502B37",
"K  c #4E313A",
"L  c #573635",
"P  c #593F3A",
"I  c #663321",
"U  c #7D451D",
"Y  c #6C4332",
"T  c #1F1840",
"R  c #211741",
"E  c #231A42",
"W  c #291A47",
"Q  c #23194A",
"!  c #271A54",
"~  c #281B56",
"^  c #271D59",
"/  c #291B5A",
"(  c #1B244A",
")  c #1F2D4C",
"_  c #1D2551",
"`  c #232245",
"'  c #2B214B",
"]  c #202E4E",
"[  c #352A48",
"{  c #252659",
"}  c #302552",
"|  c #352956",
" . c #35295A",
".. c #223155",
"X. c #2B1D63",
"o. c #2D1F69",
"O. c #183A63",
"+. c #193B68",
"@. c #2D206A",
"#. c #302F66",
"$. c #3E3167",
"%. c #2F2271",
"&. c #513441",
"*. c #52304D",
"=. c #402866",
"-. c #235A6A",
";. c #664746",
":. c #6F5354",
">. c #70575A",
",. c #861F00",
"<. c #832400",
"1. c #8C2500",
"2. c #852801",
"3. c #8C2A01",
"4. c #942601",
"5. c #9B2600",
"6. c #942A01",
"7. c #9A2B01",
"8. c #8A3502",
"9. c #9C3200",
"0. c #993904",
"q. c #873414",
"w. c #A62600",
"e. c #A42C00",
"r. c #AC2C01",
"t. c #B52D01",
"y. c #BA2D01",
"u. c #A53400",
"i. c #AB3401",
"p. c #A93A04",
"a. c #B33602",
"s. c #BB3401",
"d. c #B33B01",
"f. c #BB3B01",
"g. c #CF2E01",
"h. c #C33401",
"j. c #C43B01",
"k. c #CC3B00",
"l. c #D63B01",
"z. c #E63A01",
"x. c #914809",
"c. c #A64F07",
"v. c #B94402",
"b. c #B95304",
"n. c #874838",
"m. c #89493A",
"M. c #935339",
"N. c #A65F32",
"B. c #A97B3B",
"V. c #CD4401",
"C. c #C64801",
"Z. c #D44301",
"A. c #DB4401",
"S. c #D34A01",
"D. c #DD4C01",
"F. c #C75401",
"G. c #D95601",
"H. c #E64401",
"J. c #E44B01",
"K. c #EB4C01",
"L. c #F44B01",
"P. c #E55701",
"I. c #EB5B01",
"U. c #F25401",
"Y. c #F35C01",
"T. c #FA5D01",
"R. c #D26A01",
"E. c #E86601",
"W. c #F76701",
"Q. c #EA7B01",
"!. c #F77801",
"~. c #965F43",
"^. c #83744B",
"/. c #82655B",
"(. c #9A6150",
"). c #856967",
"_. c #8D7473",
"`. c #947A77",
"'. c #DA8901",
"]. c #E78E01",
"[. c #FB8901",
"{. c #FA9601",
"}. c #FD9B01",
"|. c #D2A201",
" X c #FEA301",
".X c #FAAA01",
"XX c #F6B901",
"oX c #FFA73A",
"OX c #F8C701",
"+X c #FFD701",
"@X c #FEE801",
"#X c #9F857C",
"$X c #CD8C47",
"%X c #D9A150",
"&X c #F6B049",
"*X c #FFBB62",
"=X c #FEC57B",
"-X c #257590",
";X c #1171A1",
":X c #4F4081",
">X c #594990",
",X c #614F9C",
"<X c #927D82",
"1X c #26899F",
"2X c #16B1D9",
"3X c #9B8382",
"4X c #A69092",
"5X c #A99596",
"6X c #B8A8A6",
"7X c #C6B4B4",
"8X c #F8CB93",
"9X c #D7C6BC",
"0X c #F3D3AE",
"qX c #D5C8C7",
"wX c #DACECE",
"eX c #E8D7C7",
"rX c #E4DBDC",
"tX c #FFE9CE",
"yX c #E5DDE0",
"uX c #ECE6E6",
"iX c #F3EBE7",
"pX c #F5F0EF",
"aX c #F7F3F3",
"sX c #FEFDFD",
/* pixels */
"3 3 3 R Q Q 3 3 1 3 3 3 3 3 3 1 3 0 3 3 3 3 3 3 3 3 R Q Q 0 q 3 3 3 3 R Q Q 3 3 1 3 3 3 3 3 3 3 3 0 3 3 3 3 1 3 3 3 3 R Q Q 3 3 ",
"3 3 R ~ / Q 3 q ' q 3 3 3 1 3 q q Q 0 3 3 3 E 0 3 Q ~ / Q ' $.' 3 3 R ~ / Q 3 q ' q 3 3 3 1 3 q q Q 3 3 3 3 E 0 3 3 E ~ / Q 3 3 ",
"3 0 ~ o.~ 0 1 ' :X' e q 3 E E } E 3 3 3 3 E  .E Q @.%.~ E $.,X$.q 0 ~ o.~ 0 1 ' :X' e q 3 E E } E 3 3 3 1 E  .E 3 0 ~ o.~ 0 3 3 ",
"3 Q / ~ R 3 3 q ' &.~.K E  .E q 3 3 3 3 3 3 ` ..{ %.@.Q 3 ' $.' 0 Q / / E 3 3 q ' &.~.K E  .E q 0 3 1 3 3 0 ` ] T Q / ~ E 3 3 3 ",
"3 Q Q 0 3 3 3 3 e ~.%X~.t E 3 1 3 3 E 3 3 1 ) -X#.~ Q 3 3 3 q 3 3 Q Q 0 3 3 3 1 e ~.%X~.t E 3 3 3 3 E 3 3 1 ] -X..Q Q 0 3 3 3 3 ",
"3 3 3 3 3 3 3 3 q &.(.*.q 1 3 3 1 R ~ E 3 1 T #.! E E 3 3 3 3 3 3 3 3 3 3 3 3 3 q &.(.*.q 1 3 3 1 R ~ E 1 1 E ..E 3 3 3 3 3 3 3 ",
"3 3 3 1 3 3 3 3 3 ~ =.~ 3 3 3 q y q R 3 3 3 3 3 3 E  .E 1 3 3 3 3 3 3 1 3 3 3 3 3 ~ =.~ 3 3 3 q y q E 3 3 3 3 3 3 3 3 1 3 3 3 3 ",
"0 Q 0 q 3 3 3 3 0 ! ~ R 3 3 3 y ^.y 1 3 0 0 3 3 3 3 E q E 3 3 3 3 Q q q 3 1 3 3 0 ! ~ E 3 3 3 y ^.y 3 3 0 0 3 3 3 Q q q 3 1 3 3 ",
"3 3 E } E E 3 3 3 0 0 3 1 3 3 q y q 3 3 ~ ~ E 3 3 3 1 q  .E 3 3 3 3 E } E E 3 3 3 0 0 3 1 3 3 q y q 3 3 ! ~ E 3 3 3 E } E E 3 3 ",
"3 3 3 q E  .E 1 3 3 3 3 3 3 1 1 3 3 1 3 ~ o.~ 0 3 3 4 ] ` 3 1 1 1 1 1 q E  .E 3 3 3 3 3 3 3 1 3 3 3 1 3 ~ o.~ 3 1 3 3 q E  .E 1 ",
"E 3 3 3 3 E 3 3 3 3 0 Q Q q E 3 3 4 ( 4 R ~ ! 0 3 1 ) -.r ; : : > > : ; 5 9 8 1 3 3 0 Q Q q E 0 1 4 ( 4 R ~ ! 0 E 3 3 3 3 E 3 3 ",
"/ R 3 3 3 1 3 3 3 0 ! ~ Q E  .E 4 O.;XO.4 0 E 3 < , ; > = * * u u i i i u & - 5 < 0 ! ~ Q E  .E 4 O.;XO.4 0 E E ~ R 3 3 3 1 3 3 ",
"E q y q 3 3 3 1 3 Q / ! 0 0 E 0 ( ;X2X;X( W | 6 & u i i i i i i i i i i i s i $ @ 5 W ! 0 0 E 0 ( ;X2X;X( W $.' E q y q 3 3 3 3 ",
"1 y ^.y 3 3 3 3 3 Q Q 0 3 3 1 3 4 O.;XO.q [ C u i i i s s g j k k k k k j g j j u + - 7 1 3 1 1 4 O.;XO.E $.,X$.q y ^.y 3 3 3 3 ",
"3 q y q 3 3 3 3 3 3 3 3 3 3 3 3 1 4 ( 2 ; = u u i d j j k l M M M m l m 2.3.<.m M j $ . o 1 3 3 3 4 ( 4 3 ' $.' 3 q y q 3 3 3 3 ",
"1 3 3 3 3 3 3 3 3 3 3 3 3 3 3 3 3 3 1 : * * i g k l 1.i.j.j.f.i.e.4.<.l k k <.3.2.2.M i O o 1 3 3 3 3 3 3 3 q 3 3 3 3 3 1 1 3 3 ",
"' q 8 w 8 3 3 0 Q Q 0 q 3 3 3 3 0 R : % * g l z 7.V.I.P.S.f.e.4.<.<.M <.<.z k k 2.1.2.<.f O o 1 0 Q Q 3 3 3 3 3 3 3 3 3 3 3 3 3 ",
">X' L N.L q Q / / Q ' $.' 3 3 E ! 6 $ u k z 1.V.W.!.G.a.1.<.<.1.4.4.2.M l M <.<.z <.5.<.m i O o ! / Q 3 3 3 3 3 3 3 3 Q Q Q 3 3 ",
"} t N.%XN.[ @.%.~ E $.,X$.q 0 ~ W & u l ,.e.E.[.E.d.M l M 4.i.j.A.H.J.S.d.3.l M 1.4.7.t.<.j * O q ~ 0 3 3 3 3 3 0 E E / o./ 3 3 ",
"! E L N.L ~ %.@.Q 3 ' $.' 0 Q W - * l 1.a.!.{.G.2.d d j k l l l M 2.7.f.A.A.i.m j <.e.h.j.M i $ @ 8 3 3 3 3 3 3 E  .E ~ / ~ e 0 ",
"/ ! q t W ~ / Q 3 3 3 q 3 3 R ; $ j 4.s.[.}.F.k u i j <.6.3.<.k g i u i j 7.j.i.k i k s.K.V.k * + - 1 3 3 3 3 3 0 E q Q Q *.m.J ",
"/ ~ 0 3 Q Q E E 3 3 3 3 3 3 7 @ s 1.s.Q.}.F.d % j i.A.J.J.Z.C.v.c.x.8.N s s M f.d.n % g h.!.b.i + O 5 1 3 3 3 3 3 1 3 R e m.$XM.",
"~ ! 0 3 3 3 E  .E 1 3 3 3 1 X * M t.E. XF.g u M j.D.A.j.p.q.q.V V U x.c.c.0.k M j.j.k + d F..X8.$ O - 1 3 3 3 1 3 3 3 Q E H m.J ",
"..E 3 3 3 3 3 W ' q 3 3 3 < @ g r.D.}.Q.M i k e.Z.A.a.q.B S A A A A S I x.b.C.7.4.Z.f.f O j ].'.s O O 7 3 3 q ' q 1 3 3 3 0 w 8 ",
"1X] 3 E 0 3 1 ' :X' e q 3 , $ M l.!.{.p.h i 2.A.J.p.B ).:.Z D F F F D A A B 0.f.r.j.H.u.* O x.OXx.O . ; 8 t ' :X' 3 3 q 3 3 3 E ",
"] 4 E  .E 3 3 q ' &.~.K q ; u r.T.{.E.,.s j S.Y.p.B ;.7X5XF F F F F F F D A B N 4.r.K.A.n O u |.'.u   @ K ~.&.} Q Q ' $.' 3 E / ",
"3 0 q E 3 3 3 3 e ~.%X~.w @ g l.!.[.j.h i d.W.v.B v 5XrX_.L F G F F A D Z Z v B n z f.Y.u.* O x.OXN   # M.%X~.t ! ! $.,X$.q 3 E ",
"0 ! ! R 3 3 3 3 q &.(.*.7 + M U.[.W.5.i m I.P.N c Z ).uXuX`.G G G P :.3X3X;.:.S b j <.G.S.g O b XXc.O . J (.&.q ! Q ' $.' q E 3 ",
"0 ! / / ! 3 3 3 3 ~ =.~ , $ 7.W.[.D.k d i.!.p.a C D D 6XsX7XL D A `.uXiXwXqXwXY x n k u.E.M + i '.R.$   9 $.~ R Q 3 3 q 3 E  .E ",
"3 R / @./ R 3 3 3 ! ~ R o % i.!.!.s.k k G.E.n c Z D D 3XyXrX4X_.P 5XpX4X`.wX3XF v b n 2.G.0.$ * R.E.u   5 ~ ! 0 3 3 3 3 3 0 E 0 ",
"1 0 / X./ ! 0 3 3 3 0 1 o % f.[.!.e.l 1.E.F.a c Z D F F 3XaXsXaX6XqXqX>.:.P Z Z v b m M f.v.% * F.P.i   - 0 3 3 3 3 3 3 3 0 3 3 ",
"0 E ~ ~ / ! 0 3 3 3 3 3 o u C.}.Q.7.<.e.W.p.p c ;.;.;.L 4XsXsXsXsXsXiXeX7X<X;.Z v x m 2.a.d.* u C.G.i   X 1 1 3 3 3 3 3 E ~ ! 0 ",
"E  .W 0 0 0 3 3 3 3 0 Q , % v.}.Q.5.1.s.W.3.* ;.qX7XqXwXyXsXsXsXsXsX0X*X8XiX_.C c f M 7.s.i.* f C.V.u   ; 0 3 3 3 3 3 3 ~ o.~ 0 ",
"0 E 0 3 q 3 3 3 3 0 ! ~ < $ v. X[.5.5.l.Y.M = _.aXaXpXwXpXsXsXsXsXsX=XoX&X0X>.C c i 2.u.h.u.* k S.f.%   7 ! 0 3 3 1 3 0 ! { ..4 ",
"3 0 Q E } q 3 3 3 Q / ! < + 9. X[.r.5.H.Y.M c /.6X6X).>.5XqXuXsXsXtX*XoX&X9X;.v c f 6.a.j.9.u 1.S.7.+   7 ~ Q 3 3 E 3 3 3 ..-X] ",
"3 Q X.Q E 3 3 E 0 Q Q R < @ <.{..Xh.5.H.Y.2.p c Z L Z F L L _.pXpX0X&XoX8X#XF v p g u.j.j.1.i i.S.m O . 7 Q Q 3 E  .E 3 3 4 ) 4 ",
"3 0 Q 0 3 3 3 E 3 3 3 3 < @ j Q.OXA.w.l.W.9.u p v D G G G ;.6XuX4XqX=X=X9XL Z c = m j.k.s.l k V.v.s   . < 3 3 3 3 E 0 3 3 q 3 3 ",
"3 3 3 3 3 3 3 3 3 0 E 3 1 - u b.+XW.y.s.T.F.s u c A F G F ).iXyX;.:.7XeX3XZ v > i 9.Z.l.e.j 9.D.9.$   X 1 3 3 3 3 3 3 3 E ~ E 1 ",
"3 3 3 3 3 3 3 3 1 E  .E 1 ; + 3.XX Xz.t.H.E.2.i p v A F F P qXiX5X;.;.>.D C > = n V.A.k.<.M V.S.j O   o 0 0 3 3 3 3 q 3 3 E 3 3 ",
"3 3 3 3 3 3 3 3 3 0 E 3 3 8 # s R.+XW.l.s.U.V.l i p v A F L 5XrXaX).C A C > = f u.H.A.t.z a.P.u.*   . < ! ! 0 3 3 q } q 3 3 3 3 ",
"3 3 3 0 Q Q 3 1 4 ] 4 1 q ' ; $ 8.OX.XL.h.h.K.j.M i p c Z A Z _.qX4XZ c > = u 3.A.H.k.4.e.G.S.k O   X 3 ! ! 0 3 3 3 q E Q Q 3 3 ",
"3 3 R ~ / Q 3 1 ] -X] 3 q E 7 & s F.+X{.K.t.y.l.l.7.g a p c c C Z F > = = u M V.J.Z.t.t.D.P.6.* . . , 3 0 3 3 3 3 3 R ~ / Q 3 3 ",
"3 0 ~ o.~ 0 3 3 4 ] 4 0 ! ~ 0 ; % l '.+X}.J.w.5.Z.K.j.2.g a p = = = = % u M C.P.D.l.g.D.I.u.g O . X w 0 3 3 q 3 3 0 ~ o.~ 0 3 3 ",
"3 Q / ~ R 3 3 3 3 1 1 0 ~ o.~ 1 & i 2.].+XXXG.5.,.f.U.K.j.7.m j f i s k u.E.!.I.z.z.K.I.d.k $ O @ C m.H q ' $.' 3 Q / ~ E 3 3 3 ",
"3 Q Q 0 3 3 3 3 3 E 3 3 E ~ ! 3 5 * s 4.'.@X+X].u.l 3.C.I.Y.G.C.v.b.R.]..X}.W.H.z.U.P.p.m * + O 6 n.$Xm.e $.,X$.E Q Q 0 3 3 3 3 ",
"3 3 3 3 3 3 3 1 E  .E 3 3 0 0 3 8 ; * h 4.R.OX@XXXR.7.z 4.j.P.!.[. X.X}.!.J.H.L.U.D.u.m u $ + o 8 H m.H 0 ' $.' 3 3 3 3 3 3 3 3 ",
"3 3 3 3 3 3 3 3 3 E 3 3 3 3 1 1 3 8 ; * j ,.v.].@X@X.XE.k.h.l.z.L.L.L.H.H.L.L.J.f.4.l s * + o 1 3 0 w 0 3 E Q Q 3 3 3 3 3 3 3 3 ",
"0 Q q q 3 1 3 3 3 3 E 3 3 3 q ' q 3 0 5 = d z w.G..X+X+X.X!.Y.U.U.U.U.K.H.l.s.e.4.<.j u O o 8 ' q 3 3 Q Q ~ ~ Q 0 Q q q 3 1 3 3 ",
"3 3 E } E E 3 3 3 E ~ E 1 1 ' :X' 3 Q ! 9 > s k ,.t.G.[..X X[.W.K.l.h.s.d.C.V.V.e.j $ . o 1 ' :X' 3 Q / / / ~ R 3 3 q } E E 0 3 ",
"3 3 3 q E  .E 3 3 3 E 3 3 3 q ' q 3 Q / o.W : u d k ,.r.S.E.[.}. X.X}.{.Q.E.v.m % . X < 1 1 q ' q 3 Q / @./ Q 3 1 3 3 q E  .E 3 ",
"E 3 3 3 0 E 3 3 3 3 3 3 3 3 3 1 3 R ~ / / / R 5 & a f d k z 3.0.c.c.x.8.b u + . X , 1 3 3 3 3 1 3 R ~ / / / Q 3 E 3 3 1 3 E 0 3 ",
"/ R 3 3 3 3 3 3 3 3 3 3 3 1 3 3 3 Q ~ ^ { Q 0 3 w Y U x * u u % % $ + O O . , -.` 1 3 3 3 1 3 3 3 Q ~ ^ { Q 0 E ~ E 1 3 3 3 3 3 ",
"E q y q 3 3 3 3 3 0 0 3 3 E 3 3 3 Q Q +.;XO.4 q ' &.M.H 7 w 6 : ; ; ; 5 7 8 ` ] 4 0 0 3 3 E 3 3 3 Q Q +.;XO.4 3 0 q y q 3 3 3 3 ",
"1 y ^.y 3 3 3 1 0 ! ~ R E  .E 1 3 3 ( ;X2X;X_ ' :X' t q 3 E E ' q 3 3 3 3 E  .q 3 ! ~ R E  .E 1 3 3 ( ;X2X;X_ 3 1 y ^.y 3 3 3 3 ",
"3 q y q 3 3 3 1 0 ~ @.~ E E 3 3 3 3 4 O.;X+.^ E ' q 3 3 3 3 3 q 0 Q 0 3 1 3 E 3 0 ~ @.~ E E 3 3 3 3 4 O.;X+.{ E 1 q y q 3 3 3 3 ",
"3 3 3 3 3 1 3 3 3 R ~ / Q 3 3 3 3 3 3 4 ( 4 R 3 1 3 3 3 3 3 3 3 3 3 3 3 0 E 0 3 3 R ~ / Q 3 3 3 3 3 3 4 ( 4 R 3 3 3 3 3 3 3 3 3 ",
"3 3 3 3 3 3 3 3 q t q Q Q 3 3 3 3 3 3 3 1 3 E 3 3 E q Q Q 0 3 3 3 1 1 0 ~ X.! 3 q t q Q Q 3 3 3 3 3 3 3 1 3 E 3 3 3 3 3 3 3 3 3 ",
"1 1 3 Q Q Q 3 q P B.P q 3 3 3 3 3 1 3 3 3 W  .E E  .E Q ~ ! 0 3 3 1 3 0 ! { ..r P B.P q 3 3 3 3 3 1 3 3 3 W  .E 1 1 3 Q Q Q 3 3 ",
"0 E q / o./ 3 t B.&XB.t 3 3 3 3 q ' q 0 ! ~ W 3 3 E 0 0 ! ~ Q 3 3 E 0 3 3 ..-X[ B.&XB.t 3 3 3 3 q ' q 0 ! ~ W 3 3 E E / o./ 3 3 ",
"E  .W ~ / ~ e 9 P B.P E 3 3 3 1 ' :X' Q / ~ 0 3 3 1 3 3 0 Q Q 3 E  .E 3 1 4 ) r P B.P E 3 3 3 1 ' :X' Q / ~ 0 1 E  .W ~ / ~ e 0 ",
"q E q Q Q *.m.H 9 t q ~ E 1 3 3 q ' E Q Q Q 3 3 3 3 3 3 3 3 3 3 3 E q 3 3 q 3 3 8 t q ~ E 1 3 3 q ' E Q Q Q 3 3 3 E q Q W *.m.J ",
"3 3 3 3 e m.$Xm.w 3 3 E 3 3 3 3 3 1 3 3 3 3 3 3 3 3 3 3 1 1 3 3 3 3 3 1 E ~ E 3 3 3 3 E 3 3 3 3 3 1 3 3 3 3 3 3 3 1 3 0 e m.$XM.",
"3 3 3 Q E H m.H 0 3 3 1 1 3 3 3 3 3 3 3 3 3 3 3 3 3 3 3 0 0 3 3 3 3 q 3 3 E 3 3 3 3 3 3 3 3 3 3 3 3 3 3 3 3 3 3 3 3 3 Q E H n.J ",
"3 3 3 0 3 0 w 0 3 3 3 3 3 3 3 3 3 3 3 3 3 3 3 3 3 3 3 0 ! ! 0 3 1 E | E 3 3 3 3 3 3 3 3 3 3 3 3 3 3 3 3 3 3 3 3 3 3 3 0 3 0 w 0 "
};
