/* XPM */
static char *ax2gv_rqjqi[] = {
/* columns rows colors chars-per-pixel */
"64 64 237 2 ",
"   c #0A080D",
".  c #1A0707",
"X  c #0B0717",
"o  c #0D0A13",
"O  c #0E0A1A",
"+  c #1B0611",
"@  c #120D13",
"#  c #120C1C",
"$  c #1C0C18",
"%  c #161115",
"&  c #181115",
"*  c #15111D",
"=  c #1A141C",
"-  c #240304",
";  c #2C0304",
":  c #270A07",
">  c #260408",
",  c #2B050A",
"<  c #350203",
"1  c #390102",
"2  c #3B0A07",
"3  c #34040A",
"4  c #3A0409",
"5  c #24120E",
"6  c #220613",
"7  c #280A16",
"8  c #220D1D",
"9  c #350B17",
"0  c #25181B",
"q  c #361719",
"w  c #2F2A1B",
"e  c #140E23",
"r  c #140E2B",
"t  c #1E0F2A",
"y  c #1A1423",
"u  c #16112B",
"i  c #19122D",
"p  c #160F32",
"a  c #1D1536",
"s  c #1A1834",
"d  c #1E1639",
"f  c #1E1A3D",
"g  c #240D24",
"h  c #231124",
"j  c #241D27",
"k  c #2D1A25",
"l  c #23132C",
"z  c #2B1D2A",
"x  c #361727",
"c  c #231836",
"v  c #271837",
"b  c #20173D",
"n  c #231A3C",
"m  c #311B37",
"M  c #311D3B",
"N  c #132135",
"B  c #25202B",
"V  c #2C222C",
"C  c #33252B",
"Z  c #37292A",
"A  c #2C2533",
"S  c #342535",
"D  c #322A36",
"F  c #3C2A32",
"G  c #362439",
"H  c #342C39",
"J  c #382E3D",
"K  c #3C3139",
"L  c #440204",
"P  c #4C0204",
"I  c #490A07",
"U  c #44050A",
"Y  c #4B0309",
"T  c #540204",
"R  c #5C0304",
"E  c #520409",
"W  c #5C040A",
"Q  c #59090C",
"!  c #640304",
"~  c #6C0305",
"^  c #650509",
"/  c #64080A",
"(  c #6C090B",
")  c #740304",
"_  c #7C0205",
"`  c #7C0906",
"'  c #730509",
"]  c #7E0509",
"[  c #720B0B",
"{  c #7C0A0B",
"}  c #523119",
"|  c #431223",
" . c #462D2E",
".. c #47302F",
"X. c #482938",
"o. c #502B37",
"O. c #463235",
"+. c #4D333B",
"@. c #543433",
"#. c #543C3C",
"$. c #583F39",
"%. c #1F1640",
"&. c #1E1E40",
"*. c #211741",
"=. c #231A42",
"-. c #271B47",
";. c #23194A",
":. c #271A54",
">. c #291B56",
",. c #291B5A",
"<. c #1B2347",
"1. c #1E2D4C",
"2. c #1C2B54",
"3. c #262446",
"4. c #2C214B",
"5. c #3A2F40",
"6. c #3A3647",
"7. c #3C3444",
"8. c #3E3648",
"9. c #252856",
"0. c #302553",
"q. c #332857",
"w. c #35295A",
"e. c #213152",
"r. c #24325C",
"t. c #2C1E64",
"y. c #2D1F69",
"u. c #2D216A",
"i. c #29326A",
"p. c #3E3166",
"a. c #3E3268",
"s. c #2F2271",
"d. c #4E2A47",
"f. c #453846",
"g. c #4D3A46",
"h. c #433A4B",
"j. c #533642",
"k. c #533C44",
"l. c #5A3E43",
"z. c #463E50",
"x. c #563553",
"c. c #402866",
"v. c #57376B",
"b. c #4D424D",
"n. c #5B4246",
"m. c #4C4253",
"M. c #584958",
"N. c #664749",
"B. c #724A4A",
"V. c #654E58",
"C. c #755659",
"Z. c #625565",
"A. c #695A69",
"S. c #795C63",
"D. c #715D69",
"F. c #7B626D",
"G. c #810305",
"H. c #8D0205",
"J. c #82060B",
"K. c #880809",
"L. c #8C080A",
"P. c #950306",
"I. c #9D0206",
"U. c #95060B",
"Y. c #9E060D",
"T. c #950A0B",
"R. c #9C0A0B",
"E. c #860912",
"W. c #960C15",
"Q. c #871011",
"!. c #A40206",
"~. c #AC0305",
"^. c #A4050B",
"/. c #AC060B",
"(. c #A6090D",
"). c #AB090C",
"_. c #B40207",
"`. c #BB0207",
"'. c #B70A0C",
"]. c #A30A15",
"[. c #AB0B13",
"{. c #B80D14",
"}. c #A71319",
"|. c #C20207",
" X c #CA0307",
".X c #CD0308",
"XX c #C70A0B",
"oX c #D40506",
"OX c #D40308",
"+X c #DB0308",
"@X c #DC0B0E",
"#X c #C8120E",
"$X c #C80B15",
"%X c #D20C13",
"&X c #DB0B13",
"*X c #CD1115",
"=X c #D51016",
"-X c #E90705",
";X c #E20309",
":X c #EC050A",
">X c #E40B0C",
",X c #EB090D",
"<X c #F3060B",
"1X c #F40608",
"2X c #E40B12",
"3X c #E70917",
"4X c #EB0914",
"5X c #F50511",
"6X c #824A27",
"7X c #874838",
"8X c #89493A",
"9X c #9D5435",
"0X c #A65F31",
"qX c #A37738",
"wX c #A97B3B",
"eX c #965F43",
"rX c #805C5B",
"tX c #83744B",
"yX c #9A6150",
"uX c #845F60",
"iX c #84656B",
"pX c #8B6669",
"aX c #966D6E",
"sX c #9A6F6F",
"dX c #936E72",
"fX c #9A7172",
"gX c #A87776",
"hX c #C48837",
"jX c #CD8C47",
"kX c #D9A150",
"lX c #EBBB49",
"zX c #23728B",
"xX c #267593",
"cX c #4F4081",
"vX c #5A4990",
"bX c #614F9C",
"nX c #26899F",
/* pixels */
"d d d *.;.;.d d d d d d d d d d d b d d d d d d d d *.;.;.b n d d d d *.;.;.d d d d d d d d d d d b d d d d d d d d d *.;.;.d d ",
"d d *.>.,.;.d n 4.n d d d d d n n ;.d d d d =.b d ;.>.>.;.4.a.4.d d *.>.,.;.d n 4.n d d d d d n n ;.d d d d =.b d d *.>.,.;.d d ",
"d b >.y.>.b d 4.cX4.M n d =.=.0.=.d d d d =.w.=.;.u.s.>.=.a.bXa.n b >.y.>.b d 4.cX4.M n d =.=.0.=.d d d d =.w.n d *.>.y.>.b d d ",
"d ;.,.>.*.d d n 4.j.eX+.=.w.=.n d d d d d b 3.e.9.s.u.;.d 4.a.4.d ;.,.>.=.d d n 4.j.eX+.=.w.=.n b d d d d b 3.e.&.;.,.>.*.d d d ",
"d ;.;.b d d d d M eXkXeXG =.d d d d b d d d 1.xXi.>.;.d d d n d d ;.;.b d d d d M eXkXeXG =.d d d d =.d d d e.xXe.*.;.b d d d d ",
"d d d d d d d d n j.yXx.n d d d d d d e e e u <.s r e e e e i d d d d d d d d d n j.yXx.n d d d d *.>.=.d d =.r.=.d d d d d d d ",
"d d d d d d d d d >.c.>.d d d a A i * & % @ o o o   o   @ @ e i a a a a d d d d d >.c.>.d d d n J n b d d d d d d d d d d d d d ",
"b ;.b n d d d d b :.>.=.d d i = w 0 +.N.n.f.7.J A B j B K #.C o o O o o e d d d b :.>.*.d d d J tXJ d d b b d d d ;.n n d d d d ",
"d d =.0.=.=.d d d b b d u e # * y K uXgXfXiXF.D.M.m.z.8.M.iXN.Z C Z Z Z j u d d d b b d d d d n J n d d :.>.*.d d d =.0.=.=.d d ",
"d d d n =.w.=.d d d d e o   o = V F #.N.n.l.l.#.O.J D V F #.#.......O...0 @ # # e # # # e e # e e u d d >.y.>.d d d d n =.w.=.d ",
"=.d d d d =.d d d d e # + > - - : - - - - - - - - - - - - - - - - - - - - - - - - - - - - - - - - - , h *.>.:.b =.d d d d =.d d ",
",.*.d d d d d d d u # 3 Y Y T Y Q Y U U U U U Y E E P Y Y U U Y Y U U E T Y E Y P P Y U U U Y E E Y P U 9 n =.=.>.*.d d d d d d ",
"=.n J n d d d d e o 7 Y ~ R._./.).W.^ E E P T ] ]././.(.E.E Y Y P R L.)././.].{ P P E T ~ T.(./.).W.( T Y x p.4.=.n J n d d d d ",
"d J tXJ d d d e O 6 U ~ {.4X5X<X=XR.^ Y P T K.%X,X<X<X%X` T E P R (.2X1X-X>X[.~ E U T ) '.,X1X<X=X[.^ Y U U v.a.n J tXJ d d d d ",
"d n J n d a e o = 9 ! $X:X1X1X@XR.R L 4 L R U./.~.~.R.) L L L P ' R.^.~.~.P.! L P L T ` R.~. X@X).R Y L P L | -.d n J n d d d d ",
"d d d d d e o = k U ` &X:X-X>XT.P 1 1 1 1 1 1 1 1 1 1 1 1 1 1 1 1 1 1 1 1 1 1 1 1 1 1 1 1 1 L R T U U T ' ' U l d d d d d d d d ",
"4.n c S c #   y k U ` @X1X@XT.L 1 1 1 1 1 1 1 1 1 1 1 1 1 1 1 1 1 1 1 1 1 1 1 1 1 1 1 1 1 1 1 1 1 4 Y ] {.Y.Y l d d d d d d d d ",
"vX4.@.9X .# O j k 4 G.2X>XR.L 1 1 1 1 1 1 1 1 1 1 1 1 1 1 1 1 1 1 1 1 1 1 1 1 1 1 1 1 1 1 1 1 1 1 1 ' $X3XT.U l d d d ;.:.;.d d ",
"0.G 0XhX} = A 5.z 4 K.*XR.P 1 1 1 1 1 1 1 1 1 1 1 1 1 1 1 1 1 1 1 1 1 1 1 1 1 1 1 1 1 1 1 1 1 1 1 1 ' ,X<XT.U h d =.=.,.y.,.d d ",
":.=.@.6X5 V M.M.F 4 { W.T 1 1 1 T H.! 1 L _ G.L 1 R H.H.R 1 ~ ) 1 1 R G.T G.H.H.H.) 1 L G.P._ P 1 1 R ;X<XY.L h =.w.=.>.,.>.M c ",
",.:.n z @ ..iXF.f.4 P W Y 1 1 1 _ <X_.1 R ;XOXL ! OXOX+XOXR H.OXP 1 !.|.R ;X+X X.XI.L _.+X|.+XI.1 1 P OX@X] 4 g d =.n ;.;.d.8Xo.",
",.>.b i o O.pXiXg.4 L L 4 1 1 1 _ :XOXP _ :XOXL I.OXT R +XP.T +X) L OXH.T +X_ 1 L 1 R ;X_ 1 T P 1 1 L '.U.Y 3 g d d d %.M 8XjX9X",
">.:.a e = O.C.iXn.4 U L P L 1 1 _ +XOX) ~..X.XL ~.`.1 1 |.!.1 `.!.~ +XR T +X_.P.H.P P OX.XI.~ L 1 1 L ) T 4 3 8 u d d ;.=.X.8Xo.",
"r.&.# @ A 7.b.S.N.3 4 P G.T 1 1 _ .X~._.|.I..XL ~.`.1 1 |.!.1 H..X_.|.1 T +XOX|.|.R 1 ! ~. X;XI.1 1 1 L L L 4 0 * i d d d b m c ",
"nX1.O o D 8.8.M.l.3 Y G.'.! 1 1 _  X_ ;X|._ OXL !. XL L OXI.1 R +X:XH.1 T +X) 1 1 1 1 L 1 1 I.OXL 1 1 4 L L 4 F A * u n d d d =.",
"e.d O @ D 8.7.7.X.3 ~ #X>X! 1 1 _ .XT `.H.) OXL ) ;X_.`.;X) 1 1 `.;XR 1 R ;X`.!.!._ ~  X!.I.OX_.1 1 1 1 P Y 4 k.8.o i a.4.d n ,.",
"d d O o A h.h.h.F < ] >X:X! 1 1 ~ I.L L 1 ! !.L 1 G.`.`._ 1 1 1 _ I.L 1 P ~.`.`.`.P.P H.`.|.!.T 1 1 1 R Q.[ 4 l.b.= 3.vXa.n d =.",
"b ;.r o A M.C.C.+.< G.4X;XR 1 1 1 1 1 1 1 1 1 1 1 1 1 1 1 1 1 1 1 1 1 1 1 1 1 1 1 1 1 1 1 1 1 1 1 1 1 U.=XT.U N.S.n.S 3.=.n =.b ",
"b ;.r @ K S.aXaXl.3 ] 3XXXT 1 1 1 1 1 1 1 1 1 1 1 1 1 1 1 1 1 1 1 1 1 1 1 1 1 1 1 1 1 1 1 1 1 1 1 1 L XX4X^.U N.pXC.Z o i =.w.=.",
"d d r = N.aXaXF.k.3 ` $X` 1 1 1 1 1 1 1 1 1 1 1 1 1 1 1 1 1 1 1 1 1 1 1 1 1 1 1 1 1 1 1 1 1 1 1 1 1 L oX,XY.U +.M.g.j o i d =.b ",
"d d r 0 C.dXF.Z.g.3 / [ 2 1 1 1 1 1 1 1 1 1 1 1 1 1 1 1 1 1 1 1 1 1 1 1 1 1 1 1 1 1 1 1 1 1 1 1 1 1 L +X4XE.4 +.z.5.A y e i d d ",
"n =.r 0 C.dXD.Z.g.3 4 L < 1 1 1 1 1 1 1 1 1 1 1 1 1 1 1 1 1 1 1 1 1 1 1 1 1 1 1 1 1 1 1 1 1 1 1 1 1 L %X$X! 3 k.M.h.h.A O r ;.b ",
"=.q.e 0 C.fXiXA.g.3 1 L < 1 1 1 1 1 1 1 1 1 1 1 1 1 1 1 1 1 1 1 1 1 1 1 1 1 1 1 1 1 1 1 1 1 1 1 1 1 P ].] L ; g.Z.M.m.D o p ;.b ",
"b n # % n.pXsXpXl.3 1 4 L L 1 1 1 1 1 1 1 1 1 1 1 1 1 1 1 1 1 1 1 1 1 1 1 1 1 1 1 1 1 1 1 1 1 1 1 1 L W L 1 3 f.Z.Z.M.D o u e.f ",
"d d e o D V.pXsXN.3 3 P L.R 1 1 1 1 1 1 1 1 1 1 1 1 1 1 1 1 1 1 1 1 1 1 1 1 1 1 1 1 1 1 1 1 1 1 1 1 1 4 3 1 < g.A.Z.m.V o N zXe.",
"d *.r o A h.V.pXB.3 Y L.#X! 1 1 1 1 1 1 1 1 1 1 1 1 1 1 1 1 1 1 1 1 1 1 1 1 1 1 1 1 1 1 1 1 1 1 1 1 1 3 4 < ; N.iXZ.H * e s 1.f ",
"d d e o A 6.h.V.l.3 ' *X-X! 1 1 1 1 1 1 1 1 1 1 1 1 1 1 1 1 1 1 1 1 1 1 1 1 1 1 1 1 1 1 1 1 1 1 1 1 1 4 W I : B.fXS.C o a =.d d ",
"d d O o D h.8.h.F < ] >X-X! 1 1 1 1 1 1 1 1 1 1 1 1 1 1 1 1 1 1 1 1 1 1 1 1 1 1 1 1 1 1 1 1 1 1 1 1 1 T ].E.; B.fXC.Z o a >.=.d ",
"d d O o D h.8.7.V ; ] 2X@XR 1 1 1 1 1 1 1 1 1 1 1 1 1 1 1 1 1 1 1 1 1 1 1 1 1 1 1 1 1 1 1 1 1 1 1 1 1 T.&XU.4 B.rX..j u d =.d d ",
"d d e # j J 7.8.C ; G.3X{.P 1 1 1 1 1 1 1 1 1 1 1 1 1 1 1 1 1 1 1 1 1 1 1 1 1 1 1 1 1 1 1 1 1 1 1 1 L XX>XL.4 N.n.% a n d d d d ",
"d d d i # j 7.h.S ; ( }.! 1 1 1 1 1 1 1 1 1 1 1 1 1 1 1 1 1 1 1 1 1 1 1 1 1 1 1 1 1 1 1 1 1 1 1 1 1 L oX-XK.< k.g.@ e b ;.;.d d ",
"d d =.*.X % D f.S ; Y W < 1 1 1 1 1 1 1 1 1 1 1 1 1 1 1 1 1 1 1 1 1 1 1 1 1 1 1 1 1 1 1 1 1 1 1 1 1 L +X2X[ ; g.h.@ e >.,.;.d d ",
"d b >.:.X @ A J C - < < : < 1 1 1 1 1 1 1 1 1 1 1 1 1 1 1 1 1 1 1 1 1 1 1 1 1 1 1 1 1 1 1 1 1 1 1 1 L $X].Y ; F H * d y.>.b d d ",
"d ;.,.*.X @ z S z > 3 3 < 1 1 1 1 1 1 1 1 1 1 1 1 1 1 1 1 1 1 1 1 1 1 1 1 1 1 1 1 1 1 1 1 1 1 1 1 1 L J.L 1 < 8 * a :.>.=.d d d ",
"d ;.;.d e # = z k > ; < R Y 1 1 1 1 1 1 1 1 1 1 1 1 1 1 1 1 1 1 1 1 1 1 1 1 1 1 1 1 1 1 1 1 1 1 1 1 1 L ; < ;   X d ;.b d d d d ",
"d d d d d e o = 0 - ; T ].W 1 1 1 1 1 1 1 1 1 1 1 1 1 1 1 1 1 1 1 1 1 1 1 1 1 1 1 1 1 1 1 1 1 1 1 1 1 , 3 ; : @ O a d d d d d d ",
"d d d d d a e o @ > Y [.>X! 1 1 1 1 1 1 1 1 1 1 1 1 1 1 1 1 1 1 1 1 1 1 1 1 1 1 1 1 1 1 1 1 1 1 1 1 1 ; ; ; ; $ a d d d d d d d ",
"b ;.b n d d d e o - ( =X-X! 1 1 1 1 1 1 1 1 1 1 1 1 1 1 1 1 1 1 1 1 1 1 1 1 1 1 1 1 1 1 1 1 1 1 1 1 1 < E W ; t *.;.n n d d d d ",
"d d =.0.=.=.d d # - ] 2X-X) 1 1 1 1 1 1 1 1 1 1 1 1 1 1 1 1 1 1 1 1 1 1 1 1 1 1 1 1 1 1 1 1 1 1 1 1 1 T {.E.- l d d n 0.=.=.b d ",
"d d d n =.w.=.d i > ' 3X&X( 1 1 1 1 1 1 1 1 1 1 1 1 1 1 1 1 1 1 1 1 1 1 1 1 1 1 1 1 1 1 1 1 1 1 1 1 R '.2XJ.> l d d d n =.w.=.d ",
"=.d d d d =.d d a , ( =XW.L 1 1 1 1 1 1 1 1 1 1 1 1 1 1 1 1 1 1 1 1 1 1 1 1 1 1 1 1 1 1 1 1 1 1 1 L ).1X,XE.3 i =.d d d d =.b d ",
",.*.d d d d d d d 7 ( W.L < < 1 1 1 1 1 1 1 1 1 1 1 1 1 1 1 1 1 1 1 1 1 1 1 1 1 1 1 1 1 1 1 1 1 L T.>X1X<XL., d >.b d d d d d d ",
"=.n J n d d d d d l U 2 : 5 2 ^ ~ L 1 1 1 1 1 1 1 1 1 1 1 1 1 1 1 1 1 1 1 1 1 1 1 1 1 1 1 1 1 E R.,X<X<X=X[ h d b n J n d d d d ",
"d J tXJ d d d d b :.h . ; < / $X,X.X/.L.T < < < 1 ( ^.!.~.^.{ L ; < < Y J.^.~.~.R.^ 1 ; ; 1 ! {.5X5X5X=X[ z <.d d J tXJ d d d d ",
"d n J n d d d d d >.t.g ; E }.*X&X&X$XG.1 - - ; Q }.%X@X&X{.! ; ; ; 4 Q.$X&X@X&X].Y - ; - Y }.%X&X&X%X{ k 2.9.=.d n J n d d d d ",
"d d d d d d d d d *.>.>.l 9 W R Q R R < - ; - - Y ~ ! ! / U - - > . ; E ~ ! R W U - . . . 4 R R R R W 9 <.&.*.d d d d d d d d d ",
"d d d d d d d d n G n ;.;.d h 8 h 8 7 8 8 g h @ + 6 + 6 6 + + + 6 + + 6 6 7 6 + + q 8 g y = 8 $ = h l d d d =.d d d d d d d d d ",
"d d d ;.;.;.d n $.wX$.v d d d d d d d d d -.q.d d 4.d d ;.*.a i i i i a %.;.1.s @.qX$.n d d d d d d d d d -.w.=.d d d ;.;.;.d d ",
"b =.n ,.y.,.d G wXlXwXG d d d d n 4.n b :.>.-.d b =.b b :.,.;.d b =.d d d e.zX6.wXlXwXG d d d d n 4.n b :.>.-.d d =.=.,.y.,.d d ",
"=.w.-.>.,.>.M v $.wX$.=.d d d d 4.cX4.;.,.>.b d d d d d b ;.;.d =.w.=.d d f 1.n $.wX$.=.d d d d 4.cX4.;.,.>.b d =.w.-.>.,.>.M b ",
"b =.n ;.-.d.8XX.v G n >.n d d d n 4.=.;.;.;.d d d d d d d d d d d =.d d d n d d n G n >.n d d d n 4.=.;.;.;.d d d =.n ;.-.d.8Xo.",
"d d d d M 8XjX8Xm d d =.d d d d d d d d d d d d d d d d d d d d d d d d =.>.=.d d d d n d d d d d d d d d d d d d d d b M 8XjX9X",
"d d d ;.=.X.8XX.b d d d d d d d d d d d d d d d d d d d b b d d d d n d d =.d d d d d d d d d d d d d d d d d d d d d ;.=.X.7Xo.",
"d d d b d b m b d d d d d d d d d d d d d d d d d d d b :.:.b d d =.q.=.d d d d d d d d d d d d d d d d d d d d d d d b d b m b "
};
