/* XPM */
static char *ax3pd_t28sw[] = {
/* columns rows colors chars-per-pixel */
"64 64 212 2 ",
"   c #020202",
".  c #0C0902",
"X  c #02020B",
"o  c #0B0B0C",
"O  c #080709",
"+  c #110D02",
"@  c #181407",
"#  c #050312",
"$  c #0C0C12",
"%  c #0C0A1A",
"&  c #070617",
"*  c #100D19",
"=  c #0E1418",
"-  c #171618",
";  c #0F100F",
":  c #251D08",
">  c #301B13",
",  c #342B0C",
"<  c #22211D",
"1  c #2A2413",
"2  c #312A10",
"3  c #0E0C20",
"4  c #110E23",
"5  c #191623",
"6  c #1B1923",
"7  c #191629",
"8  c #171135",
"9  c #1C1537",
"0  c #1D1639",
"q  c #1E193C",
"w  c #1D1835",
"e  c #150F34",
"r  c #2A1736",
"t  c #211C35",
"y  c #2A1A35",
"u  c #20173D",
"i  c #221A3D",
"p  c #2C1A3B",
"a  c #2B173A",
"s  c #311C38",
"d  c #242525",
"f  c #2B2D2E",
"g  c #292827",
"h  c #35352E",
"j  c #27213B",
"k  c #2A243D",
"l  c #2F2136",
"z  c #362C3C",
"x  c #342337",
"c  c #2F3032",
"v  c #3B3A35",
"b  c #363531",
"n  c #302F2A",
"m  c #44340D",
"M  c #4C3C0E",
"N  c #513F12",
"B  c #453912",
"V  c #442537",
"C  c #492E3C",
"Z  c #472937",
"A  c #512E35",
"S  c #413F39",
"D  c #4B303E",
"F  c #513A38",
"G  c #513635",
"H  c #663A25",
"J  c #534212",
"K  c #5B4915",
"L  c #594615",
"P  c #755C1C",
"I  c #705719",
"U  c #665115",
"Y  c #7A611E",
"T  c #75601E",
"R  c #43413B",
"E  c #1F1640",
"W  c #1C1D43",
"Q  c #211743",
"!  c #231A41",
"~  c #281F46",
"^  c #24194A",
"/  c #291E4A",
"(  c #24174A",
")  c #261953",
"_  c #281A56",
"`  c #291B5A",
"'  c #271957",
"]  c #1F2C4C",
"[  c #1C214C",
"{  c #18365E",
"}  c #19345B",
"|  c #2A2242",
" . c #2A204B",
".. c #222A4C",
"X. c #242954",
"o. c #352958",
"O. c #35295B",
"+. c #2F304C",
"@. c #2C1D62",
"#. c #193763",
"$. c #2D2064",
"%. c #2F226F",
"&. c #3B2E63",
"*. c #37246D",
"=. c #283067",
"-. c #2F2170",
";. c #312272",
":. c #322478",
">. c #3F3468",
",. c #523255",
"<. c #462E46",
"1. c #41346B",
"2. c #403366",
"3. c #4C4B46",
"4. c #535249",
"5. c #53524A",
"6. c #5E5C53",
"7. c #615F56",
"8. c #656459",
"9. c #6E6C62",
"0. c #78766A",
"q. c #78766A",
"w. c #4B4070",
"e. c #964C39",
"r. c #944B37",
"t. c #A65237",
"y. c #826B20",
"u. c #8B7222",
"i. c #977727",
"p. c #B36B2E",
"a. c #80691F",
"s. c #A46644",
"d. c #A8684F",
"f. c #A5832B",
"g. c #B7912E",
"h. c #B9932E",
"j. c #BC873A",
"k. c #BC9530",
"l. c #B89531",
"z. c #B3902D",
"x. c #C49C32",
"c. c #C89E33",
"v. c #C6A234",
"b. c #CAA335",
"n. c #CFA836",
"m. c #D3AC39",
"M. c #D0A636",
"N. c #D6B239",
"B. c #D9B53A",
"V. c #DEB93C",
"C. c #D8B336",
"Z. c #E3BD3E",
"A. c #E6C03F",
"S. c #E8C23F",
"D. c #AD9244",
"F. c #A08F51",
"G. c #A19154",
"H. c #888578",
"J. c #9E9671",
"K. c #A09365",
"L. c #D8B543",
"P. c #E4A44D",
"I. c #F0B855",
"U. c #F1BC44",
"Y. c #D6BB6A",
"T. c #E6C040",
"R. c #F4CB43",
"E. c #FFD14E",
"W. c #DBC272",
"Q. c #0E7BAE",
"!. c #0E7BB0",
"~. c #5D4C95",
"^. c #6D59AD",
"/. c #6F5AB2",
"(. c #604E98",
"). c #2890A9",
"_. c #258DA4",
"`. c #28A1B5",
"'. c #19C8EC",
"]. c #999687",
"[. c #A29D8E",
"{. c #A6A393",
"}. c #A9A695",
"|. c #ACA897",
" X c #AEAA99",
".X c #ABA798",
"XX c #B2AE9D",
"oX c #B4B09D",
"OX c #B5B2A1",
"+X c #B9B5A3",
"@X c #BEB9A6",
"#X c #C2BDA9",
"$X c #DDCF9A",
"%X c #C7C1AF",
"&X c #C9C6B2",
"*X c #D2CEB9",
"=X c #D5D2BE",
"-X c #D8D3BF",
";X c #E5DEBE",
":X c #DAD6C1",
">X c #DDDAC5",
",X c #D7D5C0",
"<X c #E1DCC7",
"1X c #E1DEC8",
"2X c #E5E3CC",
"3X c #E9E6CF",
"4X c #E6E6D2",
"5X c #EAE9D2",
"6X c #EAE7D0",
"7X c #F1EFD7",
"8X c #F5F3DA",
"9X c #FFFFEE",
/* pixels */
"0 0 9 u ^ ^ 0 9 9 9 0 0 0 0 0 9 0 q 0 0 0 9 9 0 0 9 q ^ ^ 0 0 0 9 0 9 q ^ ^ 0 9 9 9 0 0 0 0 0 9 0 q 0 0 0 0 9 0 0 0 9 q ^ ^ 0 0 ",
"0 9 u ` ` ^ 0 0  .u 9 0 0 9 0 u u ^ q 9 0 0 Q q 0 Q ` ` ^ / 1.~ 9 0 u ` ` ^ 0 q  .i 9 0 9 9 0 u u ^ q 0 0 0 Q q 0 0 u _ ` ^ 0 0 ",
"0 q ` ;.` u 9  .~./ y 0 0 u u o.u 0 0 0 9 Q &.u Q %.:.` u 1.^.1.0 u ` ;.` q 9  .~./ y 0 0 u Q o.u 0 0 0 9 Q &.u 9 u ` ;.` u 0 0 ",
"0 ^ ` ` Q 9 9 u / D s.C u &.Q u 0 9 9 0 0 0 ! ..X.:.%.Q 9 ~ 1.~ 0 ^ ` ` Q 0 0 u / D s.C Q &.! u 0 9 9 0 0 0 ! ..q ^ ` ` u 9 0 0 ",
"0 ^ ^ u 9 0 0 9 y s.I.s.p Q 0 9 0 0 E 0 0 9 ] ).=.) E 0 0 9 q 9 0 ^ ^ u 0 0 0 9 y s.I.s.p u u 9 0 0 u 0 0 8 ] )...Q ^ u 9 0 0 0 ",
"0 0 0 0 0 0 0 0 0 C d.,.q 9 0 0 9 q ` E 9 9 Q =.^ u u 0 0 0 0 0 0 0 0 0 9 0 0 0 0 C d.,.q 9 0 0 9 q ` q 9 9 E =.q 9 0 0 0 0 0 0 ",
"0 q 0 9 0 0 0 9 0 ` *._ 0 0 0 i z i q 0 9 9 9 0 0 Q &.u 9 0 0 0 0 0 0 9 9 9 0 0 q _ *.` q 0 0 i z i q 0 9 9 0 0 0 0 9 9 0 0 0 0 ",
"q ^ q u 0 9 0 9 u _ ' u 9 0 9 z F.z 8 0 q q u i 9 i ~ 0 u 0 0 9 0 ^ u u 0 u i 9 u ` ' Q 0 0 9 z F.z 9 0 q 0 0 9 q ^ q u 0 9 0 0 ",
"0 0 u o.Q u 0 9 0 u u 9 9 0 0 i z i 0 0 ` _ * X   O 5 ! &.Q 9 0 0 u i o.i 5 X   O 5 i 9 9 0 0 i z i 0 q _ ` Q 0 0 0 u o.i u 0 0 ",
"9 9 0 u ! &.! 9 0 9 9 0 0 0 9 9 8 0 9 0 O.w o v b g . 6  .0 0 0 9 9 0 ! * o v b g . 5 u 0 0 9 9 8 0 9 q ` -.` 0 9 9 0 u ! &.! 9 ",
"Q 0 0 9 0 u 0 0 0 0 u ^ ^ q u 0 9 9 [ 9 ~ o g 5.R S - = +.8 q 0 u 0 9 j   g 5.3.S - $  .Q 0 i 0 9 9 W 9 u ` _ u u 0 0 9 0 Q 0 9 ",
"$.q 9 0 9 9 0 0 0 u _ ` ^ ! &.Q 9 { Q.{ i 6 .         t ! 9 9 q ` q e q 6   .     O i @.Q ! &.Q 9 { Q.{ 9 0 u q ` q 9 0 0 9 9 0 ",
"E i z i 0 0 0 9 0 ^ ` _ q 0 Q 9 W Q.'.Q.W  .>.j o w i k i 0 0 u Q i +.k k i 7 o t  .+.^ u 0 Q 9 W Q.'.Q.W ~ 1./ E i z i 0 0 0 9 ",
"8 z F.z 9 0 0 9 0 ^ ^ q 0 0 9 0 9 { Q.{ 0 1./.w.o $ # . j i $ X X ; 2 ;   # $   * %   4 u 9 9 0 0 { Q.{ 0 1.^.1.8 z F.z 9 0 0 0 ",
"0 i z i 9 0 0 0 0 0 0 9 0 0 0 0 9 0 W 0 9 / 2.k     6 o k O.t 5 5 5 5 * o 6       6   4 u 9 0 0 9 9 W 0 9 ~ 1.~ 9 i z i 0 0 0 0 ",
"9 9 9 9 0 0 0 9 0 0 0 0 0 0 0 0 0 0 0 0 9 0 O @ 1 @ 6 j  .@.` Q q u ! q k 6 @ 1 @ 5 j w 0 0 0 0 0 0 9 0 0 9 0 9 0 0 9 0 9 9 0 0 ",
" .0 9 s 0 9 9 q ^ ^ 0 0 9 0 0 0 u ^ ^ 0 0 j   G.Y.M O ~ Q Q 0 0 / 0 9 x j   G.W.m X | ! 9 9 0 0 u ^ ^ 0 0 0 9 0 0 0 0 0 0 0 0 0 ",
"^./ A p.A 9 Q ` ` ^ / 1.~ 9 0 Q ` ` ( u 7 X . D.D.. . X w / 9  .~./ A H X   D.D..   X |  .0 9 Q ` ` ^ 0 0 0 0 0 0 9 0 ^ ) ^ 0 0 ",
" .s p.U.p.s %.:.` Q 1.^.1.0 u ` %.` ! % . L i.g.z.f.i.N . 4 ! 0 / z >   J i.z.z.f.i.J . 7 i q ` %.` q 9 0 0 0 0 0 u u ` %.` q 0 ",
") u A p.A ` :.%.Q 9 ~ 1.~ 0 ^ ` ` ~ % @ f.m.n.c.k.h.x.c.i.+ % u / $ @ f.m.n.v.k.h.x.c.i.. *  .` ` u 9 0 0 0 0 9 Q &.! _ @._ a 9 ",
"` _ 0 s ^ ` ` E 0 0 9 0 9 0 ^ ^ Q 5 . z.Z.N.B.B.N.c.g.g.c.i.. y i . z.Z.N.B.B.N.c.g.g.c.i.. w ^ q 9 0 0 0 0 0 9 0 u 0 ^ ^ <.e.V ",
"` ` q 9 ^ ^ u u 0 0 0 9 0 0 0 0 t X T S.N.N.B.B.B.B.c.g.g.c.K O X T S.N.B.B.B.B.B.c.g.g.c.L X i 0 0 0 0 0 0 0 0 0 9 0 q a e.P.t.",
") _ q 0 0 9 Q &.u 9 0 0 0 0 9 q w @ v.V.N.B.B.B.N.B.m.k.g.x.f.  + v.V.N.B.B.B.N.B.N.k.g.x.i.. w 0 9 0 0 0 0 0 9 9 0 q ^ Q V r.Z ",
"X.E 9 9 9 0 0 !  .q 9 0 0 9 0 ! 3 m V.N.B.B.B.B.B.B.N.x.g.h.k.@ , Z.N.B.B.B.B.B.B.B.x.g.h.k.2 4 ! 0 9 0 0 9 i  .i 9 0 q 0 0 r 9 ",
"`.] 9 ! 0 0 9 / ~./ y 0 0 u u O.# L Z.N.N.B.N.N.N.N.N.x.g.g.x.: , Z.N.N.B.N.N.N.N.N.x.g.g.x., & O.u u 0 0 y / ~. .9 9 0 9 0 0 Q ",
"] q u &.Q 9 0 u / D s.C Q &.Q i # K R.Z.V.B.Z.A.A.A.A.n.c.c.M.: B R.Z.V.B.Z.A.A.A.T.n.x.c.M.m & ! ! &.Q C s.D  .^ ^ / 1.~ 9 u $.",
"9 0 u Q 0 0 0 9 y s.I.s.p Q 0 q # , u.y.x.C.u.Y y.y.y.P I I P @ : u.a.v.C.u.y.y.y.y.P I I P : & i 0 Q p s.I.s.p _ / 1.^.1.0 9 Q ",
"q _ _ q 0 0 0 0 0 C d.,.0 9 9 0 #   = O J.$Xg $ $ $ $ $ o o $     = O J.$Xg $ $ $ $ $ o o $   % q 9 9 q ,.d.C q _ ^ / 1.~ 0 ! 0 ",
"q _ ` ` _ 0 9 9 q ` *.` 0 0 9 i X 3.*X&X4X4X>X*X%X&X&XXX[.[.}.- v *X&X4X4X>X*X%X&X&X X[.[.}.n $ j 9 0 q ` *._ q ^ q 9 u 9 Q &.! ",
"0 u ` ;.` u 0 9 q _ ' Q 0 0 8 <.1 3.2X:X2X2X6X2X,X:X:X@X X X+X< R 2X:X2X2X6X<X:X:X:X@X X X+Xf 2 <.8 0 0 Q ' _ q 0 0 0 0 0 0 Q 0 ",
"9 0 ` @.` _ q 9 0 0 0 9 9 0 9 | O 4.>X=X2X2X2X>X=X=X=X+X}.|.OX< S <X=X2X2X2X>X=X=X=X+X}.|.XXh $ j 9 0 0 9 u 0 0 9 0 0 0 0 0 0 0 ",
"0 ! _ _ ` _ u 9 0 9 9 0 0 0 9 u X 4.<X-X2X2X2X>X=X=X=X+X}.|.OX< R 2X=X2X2X2X:X=X=X=X+X}.|.XXh # u 9 0 0 0 9 9 0 0 0 0 9 u ` _ q ",
"Q &.! q q q 0 0 0 0 u ^ ^ 0 u ! X 4.<X=X3X8X8X6X=X-X<X%X X}.OX< S 2X=X3X8X8X6X=X=X<X%XXX|.XXh # i u 0 ^ ^ u 0 0 0 0 0 0 ` ;.) 0 ",
"0 Q 0 0 u 0 9 0 0 u _ ` ^ ! &.~ X 4.>X:X:X0.3.].:X=X0.S H.XXOX< S <X:X>X0.3.].:X,X0.S H.XXXXh # ~ &.Q ^ ` _ q 9 0 9 9 q _ X.X.q ",
"9 q ^ ! o.u 9 0 0 ^ ` _ q 0 Q u X 4.<X:XR   b   H.H.  - - [.+X< S 2X:XR   h   H.H.  - - {.OXh # ! Q 0 u _ ` ^ 0 0 ! 0 0 0 .._.] ",
"0 ^ $.^ u 0 0 ^ q ^ ^ u 0 0 9 u X 4.3X X  {.9X7.g 0.9.9.  ].+X< v 6XXX  }.9X6.< q.9.9.  ].+Xh # u 9 0 0 q ^ ^ 0 u &.! 9 9 q ] q ",
"0 q ^ q 9 9 0 ^ 0 0 0 0 0 0 0 u X 4.2X+X  H.7XR d <Xq.  4.XXOX< v 6X+X  H.7XR < 2X0.  5.XXXXh # u 9 0 0 0 0 0 0 0 Q 0 0 0 u 9 9 ",
"0 0 0 0 0 0 0 0 0 0 Q 0 0 0 9 u X 4.>X<X8.  ;   [.H.    d [.+X< S <X>X8.  ;   ].H.    d ].OXh # u 9 0 0 0 9 9 0 0 9 9 9 Q ` E 9 ",
"0 0 0 0 0 0 0 0 9 ! >.Q 9 0 9 i X 4.<X:X6X[.0.+X<X X9.7.7.{.OX< R 2X:X3X{.0.OX<X.X9.7.7.{.OXh # u 9 0 0 0 0 0 0 0 0 u 0 0 u 0 0 ",
"0 0 0 0 0 0 0 0 9 9 Q 0 0 u 0 u X 4.<X-X2X7X8X2X=X>X2X%XoX XOX< R 2X=X2X7X8X2X=X>X2X%XOX XXXh # u 9 9 u _ _ 0 0 9 u o.u 0 0 0 0 ",
"0 9 9 q ^ ^ 0 9 q ] q 9 u o.u u X 4.<X-X2X2X2X>X=X=X=XOX{.|.OX< R 2X-X2X2X2X:X=X=X=XOX{.|.XXh # u 9 9 u _ _ q 9 0 0 u u ^ ^ 0 9 ",
"0 9 u ` ` ^ 0 8 ] _...9 u ! 0 u X 4.<X-X2X2X2X>X=X=X-X+X}.|.OX< R 2X=X2X2X2X>X=X=X-X+X}.|.XXh # u 9 9 0 u u 0 0 0 9 q ` ` ^ 0 9 ",
"9 q ` %.` u 0 9 q ] q u _ _ q u X 4.<X-X2X2X2X>X=X=X=X+X}.|.OX< R 2X=X2X2X2X>X=X=X-X+X}.|.XXh # u 9 r 0 9 9 i 9 9 u ` ;.` q 9 0 ",
"0 ^ ` ` Q 0 0 0 9 8 9 u ` ;.` Q X 4.<X-X2X2X2X>X=X=X=X+X}.|.OX< R 2X=X2X2X2X>X=X=X-X+X}.|.XXh # u V r.V 9 ~ 1.~ 0 ^ ` ` Q 9 0 0 ",
"0 ^ ^ q 9 0 0 9 0 Q 0 9 u ` _ ! X 4.<X-X2X2X2X>X=X=X=X+X}.|.OX< S 2X=X2X2X2X>X=X=X-X+X}.|.XXh # p r.P.r.p 1.^.1.u ^ ^ u 9 0 0 0 ",
"0 0 0 0 0 0 0 9 Q &.! 9 0 0 0 Q X 4.>X=X2X2X2X>X=X=X=X+X}.}.OX< S <X=X2X2X2X>X=X=X=X+X}.}.XXh # u V e.V 9 ~ 1./ 9 0 0 0 0 0 0 0 ",
"0 0 0 9 0 0 0 0 0 u 0 9 0 0 9 q X 4.3X<X6X4X7X3X>X>X<X#XXXoX@X< R 6X<X4X4X7X2X>X>X<X#XXXoX+Xb X u 9 r 0 0 u ^ Q 0 0 0 9 0 0 0 0 ",
"q ^ u u 0 9 0 0 9 0 q 0 0 9 u  .& ; c g |.;X3.f f f f g d d g O o c g |.;X3.g f f f g d d g o * Q 9 q ^ ^ ` ` ^ q ^ q u 0 9 0 0 ",
"0 0 u o.! u 0 0 9 u ` u 9 9  .(.4 @ J M z.L.K M M M M m m m m . @ J M z.L.U M M M M m m m m + i o.9 ^ ` ` ` _ u 0 0 u o.! u 0 0 ",
"9 9 0 u ! &.Q 9 0 0 Q 0 0 9 q  .# K R.Z.V.B.T.T.T.T.T.M.c.c.M.: B R.U.V.B.A.T.T.T.T.n.c.c.n., & ! 0 ^ ` -.` ^ 0 9 9 0 u ! &.Q 9 ",
"Q 0 0 9 0 Q 0 0 0 0 9 0 0 0 9 q & B V.N.N.B.N.N.N.N.N.k.g.g.k.@ , V.N.N.B.N.N.N.N.N.k.g.g.k.2 % i u _ ` ` ` ^ 0 q 0 0 9 0 Q 0 0 ",
"$.q 9 0 0 9 0 0 0 9 0 0 0 9 9 u w + g.N.N.B.B.B.B.B.n.h.g.x.f.. + g.N.B.B.B.B.B.B.m.k.g.x.f.. w q ^ ` _ X.^ 0 u ` q 8 0 0 9 0 0 ",
"E i z i 0 0 0 0 0 q 0 9 0 ! 0 9 i X J v.x.v.v.v.v.c.h.g.k.c.m X X J v.c.v.v.v.v.v.h.g.h.c.m X i 0 ^ ^ { !.{ 9 0 q i z i 0 0 0 0 ",
"8 z F.z 9 0 0 9 q _ ` q u &.Q 9 0 t   K g.c.x.x.x.x.c.c.l.J   +.t   K g.c.x.x.x.x.c.c.g.N X t 0 0 0 W Q.'.!.[ 0 8 z F.z 9 0 0 0 ",
"0 i z i 0 0 0 9 0 ` ;.` u u 0 0 9 i w X : K P Y Y Y P L @ X t ! Q q X : K P Y Y Y P L @ X t u 9 0 0 0 { Q.#.` Q 9 i z i 0 0 0 0 ",
"0 0 9 0 9 9 0 0 9 E ` ` ^ 0 9 0 0 9 0 i 3 & X       X & 4 i 0 9 0 u i % & X X     X & 8  .q 9 0 0 0 9 0 W 0 q 0 0 0 9 0 9 9 0 0 ",
"0 0 0 0 0 0 0 9 0 l q ( ^ 0 9 0 0 0 9 0 i i i 9 9 u i  ./ q 0 0 0 9 0 u O.$.( 9 9 l ~ ) ^ 0 0 0 0 0 0 0 9 0 u 0 0 0 0 0 0 0 0 0 ",
"9 9 0 ^ ^ ^ 0 0 F j.F 0 0 0 0 0 9 9 9 0 0 ^ &.Q Q &.! Q ` _ q 0 9 9 9 0 _ X.X.q F j.G 0 0 0 0 0 9 9 9 0 0 ! &.Q 9 9 0 ^ ) ^ 0 0 ",
"0 u u ` %.` 0 l j.E.j.l 9 0 0 9 i  .q q _ _ ! 0 0 ! 0 u _ ` ^ 0 0 Q 0 0 9 .._.+.j.E.j.l 9 0 0 9 q  .q u _ _ ! 0 0 Q u ` %.` q 9 ",
"Q &.! _ @.` a 9 F j.F q 0 0 0 9  .~. .Q ` _ 0 9 0 9 0 0 q ^ ^ 0 u &.Q 9 9 q ] q G j.F q 0 9 0 9  .~. .Q ` ` 0 9 Q &.! _ @._ a 9 ",
"0 u q ^ ^ <.e.V 0 l E ` Q 9 0 9 q  .u ^ ^ ^ 0 9 0 0 0 0 9 0 0 0 0 ! 0 0 0 E 9 9 0 l q ` u 9 0 0 u  .u ^ ^ ^ 0 9 0 Q q ^ ^ <.e.Z ",
"0 9 0 q a e.P.e.r 8 0 u 0 0 0 0 9 9 9 0 0 0 0 0 0 0 0 0 9 9 9 0 0 9 9 9 u ` Q 9 0 9 0 u 0 0 0 0 9 9 9 0 0 0 0 0 0 9 0 q a e.P.t.",
"0 0 q ^ Q V r.V 0 0 0 9 0 0 0 0 0 0 0 9 9 0 0 0 0 0 0 0 q u 0 0 0 0 u 0 0 Q 0 0 0 0 0 9 0 0 0 0 0 0 0 9 9 0 0 0 0 0 q ^ Q V r.Z ",
"0 0 0 u q 0 r 0 0 0 0 0 0 0 0 0 0 0 0 0 0 0 0 0 0 0 9 0 _ _ q 9 9 u O.u 9 9 0 0 0 0 0 0 0 0 0 0 0 0 0 0 0 0 0 0 0 0 0 u 0 0 r 0 "
};
