/* XPM */
static char *afadx_7k0eh[] = {
/* columns rows colors chars-per-pixel */
"64 64 254 2 ",
"   c #060609",
".  c #0A0916",
"X  c #131211",
"o  c #131313",
"O  c #181716",
"+  c #1B1D1B",
"@  c #1E211F",
"#  c #26251C",
"$  c #302C1A",
"%  c #090825",
"&  c #0F0E2D",
"*  c #141725",
"=  c #1D1537",
"-  c #1C1A36",
";  c #1E1639",
":  c #1F1A3C",
">  c #20173C",
",  c #261938",
"<  c #221A3C",
"1  c #311C3A",
"2  c #282923",
"3  c #36362D",
"4  c #29263A",
"5  c #35253A",
"6  c #382E3D",
"7  c #4F3338",
"8  c #3E4334",
"9  c #4C4530",
"0  c #565237",
"q  c #665E38",
"w  c #68633F",
"e  c #0B1846",
"r  c #1C1B42",
"t  c #231843",
"y  c #221B42",
"u  c #23194A",
"i  c #261B54",
"p  c #291B57",
"a  c #291C5A",
"s  c #222245",
"d  c #23254A",
"f  c #2D244A",
"g  c #232A4D",
"h  c #37344D",
"j  c #242D53",
"k  c #292658",
"l  c #322757",
"z  c #243355",
"x  c #25355B",
"c  c #28385C",
"v  c #2D1F69",
"b  c #182F73",
"n  c #2A2A65",
"m  c #293965",
"M  c #323A71",
"N  c #4B364E",
"B  c #443764",
"V  c #284768",
"C  c #29446A",
"Z  c #324C69",
"A  c #2B4A75",
"S  c #354774",
"D  c #2D5579",
"F  c #335378",
"G  c #4C4B4A",
"H  c #514C51",
"J  c #5B5858",
"K  c #645B4B",
"L  c #706A4C",
"P  c #5D566C",
"I  c #4E4D70",
"U  c #63596C",
"Y  c #5A7A79",
"T  c #686466",
"R  c #776E6B",
"E  c #686878",
"W  c #7B797B",
"Q  c #89493B",
"!  c #9D5138",
"~  c #A77239",
"^  c #925C45",
"/  c #89734D",
"(  c #867B55",
")  c #867D73",
"_  c #718A77",
"`  c #EEC738",
"'  c #958853",
"]  c #A7954E",
"[  c #A99956",
"{  c #B5A45B",
"}  c #948C6D",
"|  c #A69A70",
" . c #B7AB6E",
".. c #B6AB78",
"X. c #D49848",
"o. c #D0AE56",
"O. c #CCB968",
"+. c #C9BB77",
"@. c #E8CA53",
"#. c #DBC465",
"$. c #CCC177",
"%. c #DBC973",
"&. c #E6CC6E",
"*. c #E5CB73",
"=. c #1C3983",
"-. c #203EA0",
";. c #315489",
":. c #335A88",
">. c #2E6989",
",. c #31638C",
"<. c #33698A",
"1. c #336796",
"2. c #367699",
"3. c #2D52AE",
"4. c #3679A7",
"5. c #3A7CB4",
"6. c #535185",
"7. c #497092",
"8. c #677595",
"9. c #4B77A5",
"0. c #2B58CE",
"q. c #3263DA",
"w. c #3369E6",
"e. c #4575E1",
"r. c #37819B",
"t. c #2987AC",
"y. c #3A85A8",
"u. c #3A88B5",
"i. c #3D96B8",
"p. c #12AFB1",
"a. c #3DA2BD",
"s. c #66939C",
"d. c #4A87A4",
"f. c #4498BA",
"g. c #6D95B5",
"h. c #50A4BF",
"j. c #3C8FC1",
"k. c #3E97C6",
"l. c #3DA8CC",
"z. c #2FB3E4",
"x. c #449AC3",
"c. c #7198D2",
"v. c #44A8C8",
"b. c #4FB3CE",
"n. c #43A9D7",
"m. c #48B7D7",
"M. c #73ABCD",
"N. c #6698EF",
"B. c #43AEE0",
"V. c #45B3E3",
"C. c #48BBE8",
"Z. c #31C2C4",
"A. c #4FC7D3",
"S. c #48C5DD",
"D. c #70CFD9",
"F. c #4BC7E6",
"G. c #4CCBE4",
"H. c #4AC3ED",
"J. c #55C7E4",
"K. c #53CDED",
"L. c #4CD2E7",
"P. c #4CD3E9",
"I. c #53D4EC",
"U. c #52DAED",
"Y. c #59DAEE",
"T. c #4DC9F1",
"R. c #54CDF2",
"E. c #55D3F3",
"W. c #5AD5F4",
"Q. c #55DDF0",
"!. c #5CDBF4",
"~. c #6ED6ED",
"^. c #62DDF5",
"/. c #66DDF6",
"(. c #5DE2F3",
"). c #63E4F6",
"_. c #69E6F6",
"`. c #66E3F8",
"'. c #6AE5F9",
"]. c #6CEAF9",
"[. c #76E6F7",
"{. c #73EDFB",
"}. c #7BEDFB",
"|. c #75F1FD",
" X c #7BF3FE",
".X c #7EF8FF",
"XX c #848484",
"oX c #949589",
"OX c #B7AF8D",
"+X c #A2A7A8",
"@X c #C7BC86",
"#X c #C0BEBA",
"$X c #BDD4BA",
"%X c #D4CA89",
"&X c #D3CA8E",
"*X c #D9D398",
"=X c #E6D98D",
"-X c #ECE299",
";X c #DBDAA6",
":X c #CECEB0",
">X c #E3DCB3",
",X c #DCE6B7",
"<X c #E9E8B1",
"1X c #8EB0C6",
"2X c #B8B8C1",
"3X c #90BFE8",
"4X c #8FDEDE",
"5X c #AFD2CF",
"6X c #99C7E9",
"7X c #A4D6FB",
"8X c #97E2E4",
"9X c #86E7F7",
"0X c #83ECFB",
"qX c #8BEDFB",
"wX c #96ECFB",
"eX c #84F4FD",
"rX c #8BF4FD",
"tX c #8CF8FE",
"yX c #94F4FE",
"uX c #9BF5FE",
"iX c #94F8FF",
"pX c #9EF8FF",
"aX c #B2E8E8",
"sX c #A4EFFC",
"dX c #A4F5FD",
"fX c #ACF6FD",
"gX c #A4F8FF",
"hX c #ACF9FF",
"jX c #BAF7F2",
"kX c #B3F6FD",
"lX c #BBF6FE",
"zX c #B4F9FE",
"xX c #BCFAFE",
"cX c #CBD3D0",
"vX c #DDDCD4",
"bX c #D9EAC9",
"nX c #D4ECD3",
"mX c #E9EBCF",
"MX c #E6F3D5",
"NX c #C7F5EC",
"BX c #D9F5EA",
"VX c #D3ECF1",
"CX c #C5F6F9",
"ZX c #C4FBFF",
"AX c #CCFBFE",
"SX c #D8F5F7",
"DX c #D4FCFF",
"FX c #DBFDFF",
"GX c #E9EBEB",
"HX c #E6F7ED",
"JX c #E4F7F5",
"KX c #E4FDFF",
"LX c #EBFDFE",
"PX c #F7FBFB",
/* pixels */
"; ; ; t u u ; ; = ; , ; ; = ; = ; > ; ; ; : : : : s g x x z c z z z z j k k s : : : ; ; = = = = ; > ; ; ; ; ; ; ; ; ; t u u ; ; ",
"; ; t p p u ; > f > ; ; = = ; > > u > : : t g g z V D ;.:.<.2.<.>.>.,.:.;.A c z x s : : ; = ; > > u > ; ; , t ; ; ; t p p u ; ; ",
"; > p v p > ; f 6.f 1 , , t t l t > : s g c F D >.4.u.i.i.v.b.v.a.a.l.k.i.y.2.<.9.S h g t t t l > ; ; ; ; t l < ; > p v p > ; ; ",
"; u p p t ; ; > f N ^ 7 t l t > > s g c D >.y.i.l.n.m.m.S.F.G.G.G.G.G.F.S.m.v.a.i.d.s.I m M s t < ; ; ; ; ; s z r u p p t ; ; ; ",
"; t u > ; ; ; ; 1 ^ X.^ 5 t > : g c D 2.y.a.l.S.S.G.G.L.L.P.U.U.U.U.U.I.I.I.G.S.m.b.M.s.<.A c d : : t ; ; = g >.j t u > ; ; ; ; ",
"; ; ; ; ; ; ; ; < N ^ N < : s z A 2.i.l.m.S.G.G.L.P.P.U.U.U.Q.(.(.(.(.(.(.!.Q.I.L.G.J.m.a.y.>.V z d k t ; ; y x t ; ; ; ; ; ; ; ",
"; ; ; = ; ; ; ; ; p B k t g V D y.l.m.S.G.L.Y._.).(.U.U.Q.(.(.).).(.(.(._.)._.(.!.I.P.G.S.m.i.2.F m g < ; ; ; ; ; ; ; = ; ; ; ; ",
"> u > > ; ; ; ; ; i a d j V <.f.A.S.L.U._.dXxXyX].)._.[.qXuXdXfXgXrX]._._.)._.).).).!.U.P.G.S.b.M.7.Z g t > ; = ; u > > ; = ; ; ",
"; ; t l t t : ; ; > s z D 2.a.S.G.P.[.fXAXkX0X}.yXkXZXxXzXfXfXhXdXtX|.].].).).(.(.(._._.).!.Y.Y.J.h.7.F n k t ; ; > t l t t ; ; ",
"; ; ; > t l t ; : s z D y.v.S.L.Y.uXDXzXeXrXkXZXhXyXrXrXyXdXfXzXzXfXdXuXeX{._.).(.(.)._.|. X{.]._.~.b.d.:.M k : ; = , > t l t = ",
"t ; ; ; : t : : s z D y.v.S.P.[.xXZXrXrXxXZXuXeXyXhXZXZXxXzXzXzXzXzXxXAXAXAXkXrX]._._.].{.}.eXrX X{.~.b.d.;.n t t ; ; ; , t , ; ",
"a t ; ; = = : < z D y.m.G.U.9XDXfX}.fXAXgXrXuXzXzXuXtXeXrXuXhXxXzXhXgXhXuXuXhXZXZXuX{.|.|.{. XpXgXrX{.~.b.2.A j k t ; ; ; = ; ; ",
"t < 6 < ; ; : g D y.b.G.U.yXDXuX0XxXzXeXuXzXgXeX.XtXgXhXhXzXZXAXAXZXAXDXDXAXzXyXpXhXpXeX.XeXeXeXuXhX0X).J.v.9.S g < 6 < ; ; ; ; ",
"= 6 / 6 ; : d V 2.v.G.Y.yXDXyXrXxXyX XpXgXiXtXtXiXpXhXxXZXAXDXFXFXDXFXFXDXAXAXDXZXgXtXrXyXyXyXeX.XyXuX_.I.F.b.9.c h ( 6 ; ; = = ",
"; < 6 < : s c <.a.S.U.qXFXyXrXzXrX XiXrX.XiXhXgXhXzXxXxXzXzXZXDXAXZXAXAXDXDXDXDXDXKXAXgXhXhXuXrXeX{.eXuX`.K.m.u.D z h < ; = = = ",
"= ; ; ; : j D i.m.P.[.DXuXrXhXeXeXtX X XtXpXxXZXhXhXhXzXxXNX,X<X<XbXBXDXFXDXAXFXKXFXKXKXAXhXyXeX|.{.].yXuX!.G.v.2.V d : ; = = = ",
"f > , 5 s V 2.v.L.).ZXfX}.gXeXeXrX.X X.XiXhXxXZXzXzXzXNX,X%X| L L  .=XbXSXDXFXKXFXKXKXKXLXAXiX X].{.{.{.gXwXW.F.f.<.c t ; ; ; ; ",
"6.f 7 ~ H <.i.S.Y.dXAX}.uXeX|.tX.X.XtXiXgXgXzXAXAXjXbX=X .8 O 2 # + K O.=XMXFXFXLXKXKXFXDXKXZXeX].].{.{.}.xX0XI.m.y.A k i u ; ; ",
"l 5 ! o.} d.m.I.[.DXrXrXtX|. X|. XrXpXgXpXgXZXFXMX-X+.K O 7 } :XOXL # 2 ' %.-XMXLXLXLXDXxXxXDXgX|.{.].eX}.dXlX/.F.v.1.M v p ; ; ",
"i t 7 / 7.v.G.Y.fXfX XpX X X X|. XiXhXzXzXAXHX<X%X( # $ ( +.&XbXbX&X..K + 3 [ *.<XHXKXKXAXgXgXhXeX X|. XyX}.ZXwXI.m.u.;.n a 1 , ",
"a i d Z y.m.L.[.xX}.rXeX.XeX X.XeXiXgXxXBX<X=X| 3 O w ..%X*X*X:X:X*X*X%X| 9 O 0 { *.<XJXKXxXpXpXyXeXeX XtXeXuXAX/.F.x.1.m N Q 7 ",
"a a j D i.S.U.uXuX{.eX|. XeXtXiXpXhXkXbX-X .9 o 9 } +.%X*X:XR f f T :X*X%X+.' $ + L O.=XbXKXxXhXgXpXrX X}.yX}.AXwXK.m.y.S ^ X.! ",
"p k m 2.v.G.).hX}. X{.{.|..XtXgXxXSX<X$.K O # K | ..@X&X:XE - % % % P ;X&X&X+.{ q O 2 ' #.>XFXZXzXpXeX.X{.rX0XdXZX^.F.x.:.N Q 7 ",
"x g V y.m.P.}.uX].|.].{. XiXiXgXDXmX+.3 o 9 L } | ..@X>X+X- % % % % - #X;X%X+. .{ ' 9 o q O.mXAXzXuXrX.X XeXdXeXDX[.F.v.1.c 5 < ",
"t.V D i.S.U.yXeX].|.].{.yXzXtXhXHX-X0 o H T R ) | ..@XmX+X% % % % % & 2XmX%X+. .[ ] ] q o ' *XZXzXgXyXtXyXeXgX0XZXwXK.m.4.V s t ",
"x c <.v.G.!.yX{.{.{.].|.ZXzXtXZXMX%X# 4 P U T R } ..@XmXcXf % % % % h GX>X@X+. .[ } 1XoX# 0 %.CXZXxXgXtXtX XuXyXdXlXW.C.i.A j k ",
"t c 2.m.G._.tX].].].].eXFXhXgXFXnX$.+ 5 I U U T } | OX:XmX2XE B H E cXmX;X+. .{ ] } 6X1X$ 0 &.BXZXxXgXrXrXeXrXgXwXDX/.K.v.:.j t ",
"d A y.m.I.[.eX_.].].].uXDXhXxXFXMX$.+ 4 I P P U W } OXOX&XcXVXGXGXVXbX&X@X....| ' } 6X1X2 0 &.BXZXxXgXtXeXyXeXzXqXDX[.K.v.<.c t ",
"d A u.m.I.}.}._.].].].hXDXZXAXDXMX$.+ 4 B P P P E ) oXOXOX5XVXVXSXNX$X@XOX..| ' ' } 6X1X2 0 &.HXZXxXzXdXyXgXtXZXrXDXqXK.b.2.S s ",
"d A f.F.Y.}.{.].].].].xXDXDXDXDXMX+.+ 4 B I P P U ) oXoXOXvXSX7X7XSXvXOX..| } ' ' } 6X1X2 0 *.HXDXAXZXhXuXhXyXZXyXZXwXK.b.2.m s ",
"d D f.J.!. X{.].].|. XZXDXFXDXDXmX+.+ s 8.g.P U U W ) } OXPXSX7X7XJXPXOX| } ' ( ( W 1Xg.2 0 *.HXFXAXAXzXuXhXuXZXuXxXsXK.m.2.m s ",
"g F f.J.!. X{.].{.yXtXAXFXFXKXKXmX+.+ t c.3XI P U E E s.cXSX8X8X8X8XJXcX_ _ ( } ( L T J O 0 *.HXFXDXAXxXgXzXuXxXdXlXsXK.m.4.M s ",
"j :.f.J.!.{.{.].{.zXpXAXDXFXFXFXmX+.+ r c.6XI I U 7.p.p.D.aXaXPXLX8XaXD.p.p._ ) L K K 9 o 0 *.BXDXAXAXzXuXhXyXxXuXkXsXK.n.5.M s ",
"g F i.S.!.].]._.].xXdXZXAXDXDXAXbX+.+ r c.6XI B I 7.p.A.aXLX4X8XaXNXPXaXA.p.Y J J J N 7 o 0 %.NXZXxXZXhXyXgXrXxXwXlXwXT.n.4.A d ",
"d A u.S.I._.].)._.fXhXzXAXDXAXAXbXO.+ r c.3X6.I I I 8.GXPXPX8XZ.A.VXPXPXGXs.P J H N 6 5 o 0 %.NXZXxXZXgXrXhXeXxXqXlXqXF.n.y.t.x ",
"d A u.m.I.)._.).).dXzXgXAXDXAXFXbXO.+ r g.M.M m I I 6.+XcXvXGXD.p.Z.5XcX2XE P I N h f , . 0 %.NXZXZXxXgXrXzX0XZX0XZX9XH.v.1.V s ",
"s V y.m.P.(._.).).rXZXgXFXFXDXFXbXO.+ & n M n n M I I 6.6.8.8.M.h.r.7.6.P I I c l f t & . 0 %.NXZXAXxXhXyXzX0XZX}.AX~.C.k.,.z : ",
"t c 2.v.G.!._._.].eXDXgXDXDXDXAXbXO.+   . . . . . * * * * * * 4 4 * * * * o . . . . .     0 %.NXZXAXxXgXdXkXyXkX9XlXR.V.j.1.j : ",
"< z <.v.G.!._.].].{.ZXgXxXZXDXxXnX$.2   o J J o 6 T H G G H H H G J J G J H J J G H J 2   w %.CXZXAXzXyXxXdXfXwX}.qXH.m.u.D d : ",
"> g D i.J.!._._._.].dXxXuXAXDXAXBX*.L   + T J O G W XXXXW XXW W T XXXXXXW W XXXXXXT W 2 o [ *XAXAXZXzXyXAXqXlX[.`.^.C.n.4.V s : ",
": s V y.m.I.!.)._.eXeXAXyXZXDXKXFX,XO.G o   o 3 O o O o o o O o O O o o O o O o o O O @ ' #.BXDXFXZXgXgXlXqXlX!.W.T.C.k.1.m t ; ",
"; t m 4.n.F.E.!.).uXyXkXxXzXFXKXFXAX;X#.' 3     e b b b b b =.7.1.=.=.b b b b e     0 { %.nXAXFXDXAXuXAXyXkXwXT.T.C.V.j.:.n r ; ",
"; t m 1.k.m.I.!.).qXZXuXFXhXAXAXFXZXZXbX*.O.( 2 % b 3.q.q.w.e.N.N.w.q.0.0.-.e . 3 ] #.*XBXDXAXFXAXzXzXAXrXZX/.T.H.C.n.5.;.d : ; ",
"; u n ;.y.m.F.W.).].ZXfXxXAXgXZXZXAXAXKXJX>X&.o.K O e 3.q.w.N.1X1Xw.q.0.b & 2 ( O.%XnXDXDXDXKXAXZXyXDXyXlXsXE.T.H.V.k.1.m t ; ; ",
"; u d c <.i.F.I.^.`.qXAXyXDXhXuXxXAXKXLXKXAXNX*X#.[ 9 * 3.N.c.$.O.c.e.;.* K o.*.,XAXAXFXDXFXDXDXuXxXkXwXZX/.E.T.C.n.5.A g : ; ; ",
"; ; > d V y.m.K.W.!.).kXxXuXDXuXzXFXLXKXAXxXxXDXMX=XO.} g.#X@.` ` o.OX1X{ #.;XHXFXDXDXZXFXDXDXhXzXZX}.kX9XE.T.H.V.k.1.c t ; ; ; ",
"; ; ; t c <.i.C.K.E.!.[.AXfXhXFXZXFXFXAXZXzXZXDXFXKXmX*.*.:X&.` ` #.*X&.=XBXDXFXKXDXAXFXAXFXfXdXDXqX0XqXE.T.H.C.n.4.A d : ; ; ; ",
"> u > t d V 2.v.F.K.E.!.qXDXzXDXLXDXZXzXgXxXAXAXZXZXFXJX;X;X=X@.` *.;XbXDXDXDXFXDXFXFXAXDXgXuXDXqX].{.!.T.H.C.B.j.1.m s : ; ; ; ",
"; ; t l s x :.u.m.F.E.!.].fXLXDXFXFXhXtXyXhXZXxXxXxXAXAXzXjX,XMXbX;XSXFXFXAXZXAXFXFXDXDXuXdXAXqX^.!.!.!.R.C.V.k.4.V j l t t , ; ",
"; ; ; > y m V <.i.m.T.!.eXhXDXLXAXzXxXyXeXuXgXdXhXzXZXzXgXgXxXDXAXxXzXhXhXhXZXAXDXFXZXyXkXZX9X!.W.W.E.W.R.C.n.u.D j t > t l y = ",
"t ; ; ; , t g V 2.v.F./.yXDXDXDXKXkXeXfXhXuXrXrXyXuXhXuXtXtXuXhXyXeX XeXdXzXAXDXxXyXyXxXkX[.!.E.E.W.E.T.C.V.j.:.m s : = ; t ; ; ",
"a t ; ; ; ; < j A y.b.~.eXZXLXDXxXDXxXyXgXzXdXrX XeXyX|.|.|..XtXeXeXdXZXDXZXgX0X].{.rXqX'.!.E.E.W.E.T.C.V.k.1.V n t ; ; ; ; ; ; ",
"t < 6 < ; ; : t x :.f.D.9XyXkXKXDXuXxXFXxXyXyXyXeXrXeX].].].{. X{.}.0X0X}.{.`.).^.`.`.'.^.!.W.!.E.H.C.V.B.5.A j t < 6 < ; ; ; ; ",
"= 6 / 6 ; ; ; : d M 7.g.D.9X9XwXZXDXgXdXZXAXgXeX{.eXeX{.{.].{. X{._.`.).).`.^.!.!.^.^.^.^.^.^.E.H.C.B.z.z.t.m r ; 6 / 6 ; ; ; ; ",
"; < 6 < ; ; ; ; t n ;.7.g.D.~.~./.sXFXAXuXyXfXxXgXuX}.]._._.].{.].`.^.^.^.`.`.^.^.!.!.^.].'.R.H.C.n.j.4.t.A n t ; < 6 < ; ; ; ; ",
"; ; = = = ; ; ; ; t n S 7.d.M.J.K.^.0XlXFXZXuX0XyXgXuXyXeX0X}.0X}.{.].].'.`.^.!.!.`.'.].!.T.H.V.n.u.1.A x r t ; ; ; ; ; ; ; ; ; ",
"; = ; ; ; ; ; ; < 5 t d m F 7.f.m.K.^.].qXkXDXDXlXuX}.[.[.{.{.}.{.].`.^.^./.[.}.}.'.!.T.H.C.V.k.u.,.m g : > t , ; ; ; ; ; ; ; ; ",
"= = ; u u u ; < 7 ~ 7 < t g V <.u.b.J.^.`.'.[.wXlXAXAXAXlXfXdXdXwXwXwXyXyXrX0X'.W.T.C.C.V.n.j.4.D c d : > t l t ; ; ; u u u ; ; ",
", t > p v p ; 5 ~ @.~ 5 ; : d c F 9.f.b.J.W.W.W./.^./.[.qXwXsXsXwXqX9X[.^.R.T.H.C.C.V.n.k.4.,.V x l t t i p t ; ; t y p v p ; ; ",
"t l t i a p 1 , 9 ~ 9 t ; ; : t c 7.1.4.x.b.m.J.K.H.H.H.H.H.T.R.T.T.H.H.C.C.C.V.n.b.x.5.,.A c d k 6.f u p i > = t l y i a p 1 , ",
"< t > u u N Q 7 , 5 t p > = ; ; t l x A :.2.y.f.v.n.n.V.V.V.C.C.C.C.V.V.B.n.l.k.u.4.,.;.m d t : > f > t u u ; ; , t > u u N Q 7 ",
"; ; ; r 1 Q X.Q 1 ; ; > ; ; ; ; ; ; : d j m A :.1.4.u.u.j.k.k.k.k.k.k.j.u.5.4.,.D V x j t : ; ; ; = ; ; ; ; ; ; ; ; ; t 1 Q X.! ",
"; ; ; u t 7 Q 7 < ; ; , ; ; ; ; ; ; ; ; : t d j c m A D :.,.,.,.,.,.,.:.D A m x g s t : ; ; ; ; ; ; ; ; ; ; ; ; ; ; ; u t 7 Q 7 ",
"; ; ; > ; , 1 , ; , ; , ; ; ; ; ; ; ; ; ; ; : : t s d j m M m c x m S x g d s r : ; ; ; ; ; ; ; ; ; ; ; ; ; ; ; ; ; ; > ; , 1 , "
};
