/* XPM */
static char *amscj_wkyr4[] = {
/* columns rows colors chars-per-pixel */
"64 64 227 2 ",
"   c #1D1537",
".  c #1E1639",
"X  c #1F1A3C",
"o  c #251937",
"O  c #20173C",
"+  c #221A3C",
"@  c #311B37",
"#  c #311D3B",
"$  c #26203F",
"%  c #352439",
"&  c #382E3D",
"*  c #492838",
"=  c #502B37",
"-  c #4F323B",
";  c #573C39",
":  c #1F1A40",
">  c #211741",
",  c #221B42",
"<  c #23194A",
"1  c #281B48",
"2  c #261B54",
"3  c #291B57",
"4  c #271D59",
"5  c #291C5A",
"6  c #212245",
"7  c #23254A",
"8  c #2D224C",
"9  c #232A4D",
"0  c #37374A",
"q  c #242D53",
"w  c #292957",
"e  c #29215B",
"r  c #302552",
"t  c #302855",
"y  c #35295A",
"u  c #243355",
"i  c #25355B",
"p  c #2A335B",
"a  c #263B5C",
"s  c #29385A",
"d  c #2D1F69",
"f  c #2B2A63",
"g  c #2A2A67",
"h  c #2A3567",
"j  c #273B63",
"k  c #293D63",
"l  c #34386E",
"z  c #2E3E76",
"x  c #50324A",
"c  c #402967",
"v  c #2F415F",
"b  c #274366",
"n  c #29446A",
"m  c #2A4A6B",
"M  c #324C69",
"N  c #2B4B74",
"B  c #2A4977",
"V  c #354774",
"C  c #2C5274",
"Z  c #2C537D",
"A  c #2E5A7B",
"S  c #335378",
"D  c #3E687D",
"F  c #4D5460",
"G  c #87493A",
"H  c #89493B",
"J  c #9D5138",
"K  c #A26136",
"L  c #A97B3B",
"P  c #86544A",
"I  c #965F43",
"U  c #83754B",
"Y  c #996950",
"T  c #8F8266",
"R  c #CC8C48",
"E  c #D9A350",
"W  c #EBBB49",
"Q  c #354B85",
"!  c #2F5C87",
"~  c #355986",
"^  c #32558E",
"/  c #315D8C",
"(  c #2F6487",
")  c #336785",
"_  c #31638C",
"`  c #336A8D",
"'  c #326493",
"]  c #346997",
"[  c #2C7390",
"{  c #337493",
"}  c #39769C",
"|  c #367B9B",
" . c #3877A5",
".. c #347DAD",
"X. c #3A7CB4",
"o. c #4F4182",
"O. c #594990",
"+. c #4A6D90",
"@. c #45769A",
"#. c #4477A5",
"$. c #2987AC",
"%. c #3A83A6",
"&. c #3A84AB",
"*. c #3988A8",
"=. c #3A88B5",
"-. c #3D93B5",
";. c #3D96BA",
":. c #3E9BBB",
">. c #3DA2BD",
",. c #5A8692",
"<. c #4786A2",
"1. c #558CAA",
"2. c #4498BA",
"3. c #629EAF",
"4. c #4AA4BE",
"5. c #65ADB8",
"6. c #3C8FC1",
"7. c #3D94C4",
"8. c #3F99C7",
"9. c #3E9ACA",
"0. c #3EA4C2",
"q. c #3BAED9",
"w. c #2FB3E4",
"e. c #449AC3",
"r. c #44A7C6",
"t. c #44A5CB",
"y. c #43ABCB",
"u. c #46B2CC",
"i. c #5AB8CB",
"p. c #41A5D4",
"a. c #43ABD4",
"s. c #45AADA",
"d. c #46B3D3",
"f. c #4AB2D5",
"g. c #45BAD5",
"h. c #47B7D9",
"j. c #4BBCDD",
"k. c #51B0D2",
"l. c #69B8C6",
"z. c #43AEE0",
"x. c #45B3E3",
"c. c #46B9E5",
"v. c #49BAE3",
"b. c #47BAE9",
"n. c #49BEEB",
"m. c #45C4DD",
"M. c #49C4DD",
"N. c #49C7DD",
"B. c #54C7DA",
"V. c #74CADC",
"C. c #4CC4E3",
"Z. c #46CCE3",
"A. c #4CCBE4",
"S. c #47C1ED",
"D. c #4AC3ED",
"F. c #4EC9EB",
"G. c #51C5E3",
"H. c #59CAE6",
"J. c #53CDED",
"K. c #4BD1E6",
"L. c #4CD3E9",
"P. c #4FD8EC",
"I. c #53D4EC",
"U. c #5BD4E9",
"Y. c #52DAED",
"T. c #59DBEE",
"R. c #4DC6F0",
"E. c #4DCAF1",
"W. c #53CDF2",
"Q. c #5ACFF1",
"!. c #55D3F3",
"~. c #5AD5F4",
"^. c #55DDF0",
"/. c #5CDBF4",
"(. c #6FCCE6",
"). c #66D6EA",
"_. c #64D7F6",
"`. c #62DDF5",
"'. c #6BDBF5",
"]. c #64DFF8",
"[. c #76DDF5",
"{. c #5DE2F3",
"}. c #63E4F6",
"|. c #6BE3F4",
" X c #68E8F7",
".X c #66E3F8",
"XX c #6AE5F9",
"oX c #6CEAF9",
"OX c #78E6F6",
"+X c #73E5F9",
"@X c #73EDFB",
"#X c #7BEDFB",
"$X c #75F1FD",
"%X c #7BF3FE",
"&X c #7EF8FF",
"*X c #86E7F7",
"=X c #83ECFB",
"-X c #8BEDFB",
";X c #90E6F9",
":X c #94EDFB",
">X c #9CEDFB",
",X c #84F4FD",
"<X c #8BF4FD",
"1X c #87F8FF",
"2X c #8CF8FE",
"3X c #94F4FE",
"4X c #9BF5FE",
"5X c #94F8FF",
"6X c #9EF8FF",
"7X c #A4EFFC",
"8X c #A4F5FD",
"9X c #ACF6FD",
"0X c #A4F8FF",
"qX c #ACF9FF",
"wX c #B3F6FD",
"eX c #BBF6FE",
"rX c #B4F9FE",
"tX c #BCFAFE",
"yX c #C4F7FE",
"uX c #C4FBFE",
"iX c #CCFBFF",
"pX c #D4FCFF",
"aX c #DBFDFF",
"sX c #E4FEFF",
"dX c #EBFEFF",
"fX c #F4FFFF",
"gX c #FEFFFF",
/* pixels */
". . . > < < . .   . . .     . . . O . . . X X X X 6 9 p i u i u u u u q w w 6 X X . . . . .     . O . . . . . . . . . > < < . . ",
". . > 3 3 < . O 8 O . .     . O O < O X X , 9 9 u n Z ~ ! ` } ` ( ( ( / ~ B j u p 6 X X .   . O O < O . . O , O . . , 3 3 < . . ",
". O 3 d 3 O . 8 o.8 @ + . , , r , O O 6 9 a S A ` ..=.;.:.r.f.y.>.>.0.8.;.*.{ ` #.V s 9 , , , r O . . .   , y + . O 3 d 3 O . . ",
". < 3 3 > . . O 8 x I - , y , O O 6 9 a C ` %.-.0.a.g.g.m.Z.A.A.A.A.A.Z.N.g.y.:.-.<.,.F k l 7 , + . . . . . 6 u : < 3 3 , . . . ",
". < < O . . . . @ I E I % , O X 9 a A { *.>.q.m.m.Z.Z.K.K.L.Y.Y.Y.Y.Y.Y.Y.Y.A.N.g.i.l.3.` C i 6 + X , . .   9 [ q < < O . . . . ",
". . . . . . . . + x Y x + X 6 u C { -.0.g.N.Z.Z.K.L.L.P.Y.Y.^.{.{.{./.{.{./.^.Y.L.A.B.f.2.%.( m u 7 e ,     , i , . . .   . . . ",
". . .   . . . . . 3 c 3 , 9 b A *.0.g.N.Z.K.T.|.}.{.Y.Y.^.{.{.}.}.{.{.}. X}.}.{./.Y.L.A.N.d.:.| D v 9 + . . . . . . .   . . . . ",
"O < O O . . . . O 2 4 7 9 m { 2.B.N.K.Y.|.8XtX3X X}.}.OX-X4X8X9X0X<XoX X X}.}.}.}.}./.Y.L.A.N.u.5.+.M 9 , O .   . < O O .   . . ",
". . , r , , X . . O 6 u C | >.m.K.L.|.9XiXwX=X#X3XwXuXtXrX9X9XqX8X2X$XoX X}.}.{.{.{.}..X}./.T.U.B.4.@.S h e < . . O O r , , O . ",
". . . O , y , . X 6 u A %.r.N.K.T.4XpXrX,X<XwXuXwX3X<X<X3X8X9XrXwX9X8X4X,X@X X}.{.{.}.}.$X%X@XoX|.).i.<.~ z e O     O O , y ,   ",
", . . . X , X X 6 u A *.u.N.L.|.tXuX<X<XtXuX4X,X3XqXuXuXtXrXwXrXwXwXtXiXiXiXwX<XoX X|.oX@X#X1X1X%X@X).i.<.Q f , , . . . O , . . ",
"5 > . .     X + u A *.u.A.Y.*XpX9X#X9XiX0X1X4XwXwX6X2X1X1X4XqXtXrXqX0XqX4X6XqXuXuX4X@X$X$X@X%X4X0X1X@X).k.} B q e ,   . .   . . ",
", + & + . . X 9 C *.u.A.Y.:XpX4X=XuXwX,X4XrX0X1X&X2X0XqXqXrXuXiXiXuXiXpXpXiXwX4X6XqX6X1X&X,X,X,X6XqX=X`.G.r.#.V 9 $ & + . . . . ",
"  & U & . X 7 m | r.A.T.:XpX3X<XtX4X%X0X0X5X2X2X5X6XqXtXuXiXpXaXaXpXaXaXpXiXiXpXiX0X2X1X3X3X3X1X%X3X4X|.I.C.k.@.s 0 U & . . . . ",
". + & + X 6 a ` >.N.Y.-XaX3X<XrX<X%X5X1X&X5XqX0XqXrXtXtXwXrXuXpXiXuXiXiXpXpXpXpXpXsXiX0XqXqX4X1X1X@X,X4X|.J.j.-.A u 0 + .     . ",
"  . . . X q A -.g.L.OXpX4X<XqX,X1X2X%X%X1X6XtXuXqXqXqXrXtXtXuXpXiXuXpXpXaXpXiXaXsXaXaXsXiXqX3X,X@X@X X3X4X/.A.y.| n 7 X .   . . ",
"8 + o % 7 b | u.K.}.uX9X#X0X1X,X1X%X%X&X5XqXtXuXrXwXwXtXtXtXiXaXpXiXpXpXpXpXaXsXaXsXsXsXdXiX5X%X X@X@X@X0X:X~.C.2.` i , X . . . ",
"O.8 = K F ) :.N.T.8XiX#X4X,X$X1X%X&X1X5X6X0XwXiXiXtXtXiXaXpXaXsXaXpXpXpXpXpXaXaXdXsXsXaXpXsXuX,XoXoX@X@X#XtX=XI.h.&.B w 2 < X . ",
"r % K E T <.g.Y.OXpX<X1X2X$X%X$X%X1X6X0X6X0XuXaXaXaXdXfXfXdXfXfXdXsXaXaXpXaXaXdXdXdXdXpXtXtXpX0X$X@XoX,X#X8XeX`.C.r.] z g 5 . . ",
"2 , ; Y +.r.A.T.9X9X%X6X%X%X%X$X%X5XqXwXrXiXsXsXfXgXfXfXfXfXfXgXgXfXdXsXsXsXdXdXdXfXsXsXiX0X0XqX1X%X$X%X3X#XuX:XI.j.&.Q g 5 # O ",
"5 2 7 M %.d.K.OXtX#X1X1X&X1X%X&X1X5X0XtXaXdXsXfXgXgXfXfXgXgXgXgXgXgXgXgXfXdXfXfXfXdXdXsXsXtX6X6X3X1X1X%X2X,X4XiX`.C.e.] h x H = ",
"5 5 q A :.N.Y.4X6X@X1X$X%X,X2X5X6XqXqXpXdXdXfXfXfXgXgXgXgXgXgXgXgXgXgXgXgXgXgXgXfXfXdXdXaXaXtXqX0X6X1X%X%X3X#XiX:XJ.h.&.V P R J ",
"3 e j { y.A.}.qX#X%X@X@X$X&X2X0XtXpXiXsXsXfXgXfXfXgXgXgXgXgXgXgXgXgXgXgXgXgXgXgXfXfXdXaXsXaXaXuXwX6X1X&X@X<X=X8XyX_.G.e.~ x G = ",
"i q m *.g.L.#X6XoX$XoX@X%X5X5X0XpXsXdXsXdXfXfXgXgXgXgXgXgXgXgXgXgXgXgXgXgXgXgXgXgXfXdXdXdXdXsXiXwX4X1X&X%X,X8X<XpXOXF.t.] s % + ",
"$.b A -.N.Y.3X,XoX$XoX@X3XrX2XqXaXsXdXfXfXfXfXgXgXgXgXgXgXgXgXgXgXgXgXgXgXgXgXgXgXfXfXfXdXfXaXuXwX8X3X2X3X,X0X=XyX>XJ.f. .n 6 , ",
"a a ` y.A./.3X@X@X@XoX$XuXrX2XuXpXsXsXfXgXgXgXgXgXgXgXgXgXgXgXgXgXgXgXgXgXgXgXgXgXfXgXgXfXsXsXuXuXtX0X2X2X%X4X3X8XeX~.v.-.C q e ",
", a { u.A.|.2X XoX XoX1XaXqX0XaXpXsXsXdXfXgXgXgXgXgXgXgXgXgXgXgXgXgXgXgXgXgXgXgXgXgXgXfXfXdXdXpXuXtX0X2X1X<X<X0X:XpX'.J.t.! q , ",
"7 B &.g.I.OX,X XoX XoX4XpXqXtXaXsXsXdXdXfXgXgXgXgXgXgXgXgXgXgXgXgXgXgXgXgXgXgXgXgXgXgXfXfXfXdXaXuXtX0X2X1X3X<XrX-XpXOXJ.t.` p , ",
"7 B =.j.I.#X#X}. X XoXqXpXuXuXpXaXaXdXfXgXgXgXgXgXgXgXgXgXgXgXgXgXgXgXgXgXgXgXgXgXgXgXfXfXfXdXsXuXtXrX8X3X0X2XuX<XpX-XJ.u.} V 6 ",
"7 B 2.C.T.#X@XoX X XoXtXpXpXpXpXaXaXsXdXgXgXgXgXgXgXgXgXgXgXgXgXgXgXgXgXgXgXgXgXgXgXgXgXfXfXdXdXpXiXuXqX6XqX3XuX3XuX>XI.f.} k 6 ",
"7 C 2.G./.%X@X XoX$X%XuXpXaXpXpXaXaXsXfXgXgXgXgXgXgXgXgXgXgXgXgXgXgXgXgXgXgXgXgXgXgXgXgXgXgXfXdXaXiXiXrX6XqX4XtX4XtX7XJ.f.} j , ",
"9 S 2.G./.%X@XoX@X3X2XiXaXaXaXsXsXsXfXgXgXgXgXgXgXgXgXgXgXgXgXgXgXgXgXgXgXgXgXgXgXgXgXgXgXgXfXsXaXpXiXtX8XqX4XtX8XeX7XJ.f. .z 6 ",
"q ~ 2.B./.@X@XoX@XwX0XiXpXaXaXaXsXsXdXfXgXgXgXgXgXgXgXgXgXgXgXgXgXgXgXgXgXgXgXgXgXgXgXgXgXgXfXaXpXiXiXrX4XqX3XtX4XwX7XJ.f.X.z 6 ",
"9 S -.N.T.oXoX}. XtX8XuXiXpXpXiXpXpXaXfXgXgXgXgXgXgXgXgXgXgXgXgXgXgXgXgXgXgXgXgXgXgXgXgXfXfXsXiXuXtXuXqX3X0X<XtX:XeX>XF.s...B 7 ",
"7 B -.N.I. X X}.}.9XqXrXiXpXiXiXpXpXsXfXgXgXgXgXgXgXgXgXgXgXgXgXgXgXgXgXgXgXgXgXgXgXgXgXfXfXaXuXuXtXuX0X1XqX<XtX-XeX;XF.p.%.$.i ",
"7 B =.j.I.}. X}.}.8XrX0XiXpXiXaXaXaXsXfXgXgXgXgXgXgXgXgXgXgXgXgXgXgXgXgXgXgXgXgXgXgXgXgXfXfXaXuXuXuXtX0X1XwX=XuX=XyX*XS.t.] m 6 ",
"6 n %.d.I./. X}.}.<XuX0XaXaXpXaXiXiXpXsXfXgXgXgXgXgXgXgXgXgXgXgXgXgXgXgXgXgXgXgXgXgXgXgXfXsXpXiXuXiXtXqX3XrX=XyX#XiX'.c.8.' u X ",
", a { y.F./. X}. X,XpX0XpXpXpXiXuXuXiXsXfXgXgXgXgXgXgXgXgXgXgXgXgXgXgXgXgXgXgXgXgXgXgXgXsXpXiXuXuXiXtX0X8XwX3XwX*XeXQ.c.7.' q X ",
"+ u ` r.A./. X XoX@XuX0XtXuXpXtXiXiXaXdXgXgXgXgXgXgXgXgXgXgXgXgXgXgXgXgXgXgXgXgXgXgXgXfXsXpXuXuXuXiXrX3XtX8X9X>X#X-XD.h.=.Z 7 X ",
"X 9 A ;.G./. X X XoX8XtX4XiXpXiXpXaXsXsXfXgXgXgXgXgXgXgXgXgXgXgXgXgXgXgXgXgXgXgXgXgXdXsXaXaXpXiXiXuXwX2XiX-XeXOX.X/.b.p. .n 6 . ",
"X 6 m *.j.I./.}..X,X,XiX3XuXpXsXaXaXpXaXsXgXgXgXgXgXgXgXgXgXgXgXgXgXgXgXgXgXgXgXgXdXsXaXpXpXaXpXaXuX0X0XeX-XeX/.!.E.c.9.] h , . ",
". , k  .a.F.!./.}.4X3XwXtXrXaXsXaXiXuXiXdXgXgXgXgXgXgXgXgXgXgXgXgXgXgXgXgXgXfXfXfXdXaXpXpXiXiXaXpXiX6XiX3XwX:XE.E.S.x.6.^ f : . ",
". < h ] 7.j.I./.}.-XuX4XaXqXiXiXaXuXuXpXdXgXgXfXgXgXgXgXgXgXgXgXgXgXgXgXfXfXfXsXaXaXaXpXpXpXiXaXiXrXrXiX<XyX'.E.S.b.p.X.Q 7 X . ",
". < f Q %.d.F.~.}.+XuX9XtXiX0XuXuXiXiXsXdXsXsXfXgXgXfXfXgXfXdXgXfXdXdXdXsXdXfXsXpXiXaXpXpXpXsXiXuX3XpX3XeX7X!.E.S.x.8.] h , . . ",
". < 7 i ` :.C.I.`..X-XiX3XpXqX6XtXiXsXdXsXiXuXaXfXfXfXfXfXdXdXfXdXsXsXsXaXaXsXsXpXiXiXaXpXaXpXpX4XtXwX3XyX'.!.E.b.p.X.B 9 X . . ",
". . X 7 m %.d.J.~./.}.wXtX6XpX6XrXaXdXsXiXtXtXpXsXsXdXfXfXdXdXfXdXsXsXsXaXpXaXsXaXpXpXuXaXpXpXqXwXuX#XwX*X!.E.D.x.7.' i , . . . ",
". . . : i ` :.v.J.!./.+XiX9XqXaXuXaXaXiXuXrXuXpXaXsXdXdXsXsXsXfXdXaXaXaXaXaXpXaXsXpXiXaXiXaXqX8XpX-X=X-X!.E.D.b.p...B 9 X . . . ",
"O < O , 7 n | y.C.J.!./.-XpXrXpXdXpXuXwX0XtXiXiXuXuXaXsXsXsXsXdXdXsXsXsXpXpXpXaXpXaXaXiXpX0X6XpX-XXX@X/.E.D.b.z.7.' h 6 X . . . ",
". . , r 6 p ! =.d.F.W./.oXqXdXpXaXaXqX2X3XqXuXtXtXtXiXiXwXtXpXsXaXpXpXaXaXiXuXiXaXaXpXpX4X8XiX-X`./././.W.n.x.9. .n q t , , O . ",
". . . O 1 l n ` ;.h.F./.,XqXpXfXiXwXtX3X1X6X0X8XqXrXuXrX0X0XtXpXiXuXwXqXqXqXuXiXpXaXuX3XwXuX*X/.~.~.!.~.W.b.p.&.Z q , O , y ,   ",
", . . . + 1 9 n } t.C.`.3XpXpXpXsXwX<X0XqX6X1X1X3X4XqX4X2X2X4XqX4X,X%X,X8XrXiXpXtX3X3XtXwX+X/.!.!.~.!.R.n.v.6./ j 6 X   . , . . ",
"5 , . .   . + q C %.k.'.<XuXdXpXtXpXtX3X0XwX8X1X%X,X3X$X$X$X&X2X,X,X8XuXpXuX0X=XoX@X<X-X.X/.!.!.~.!.R.n.x.8.] n f , . . . . . . ",
", + & +   . X , u ~ 2.V.*X3XwXsXpX4XtXaXtX3X3X3X<X1X,XoXoXoX@X%X$X#X=X=X#X@X.X}.`..X.XXX]./.~./.!.R.b.x.q...B q , + & + . . . . ",
"  & U &     . X 7 z @.5.V.*X*X:XyXpX0X8XuXiX9X,X@X<X,X@X@X@X@X%X@X X.X}.}..X`././.`.`.`.].].].!.S.b.z.q.w.$.j , . & U & . . . . ",
". + & + . . . . , f Q @.3.V.(.[.'.7XaXiX6X3XwXtX0X4X#XXX X XoX@XoX.X`.`.`..X.X`.`././.].XXXXW.S.b.s.7...$.B f , . + & + . . . . ",
". .     .   . . . < f z +.1.l.H.J.`.=XeXaXuX4X=X3X0X4X3X<X=X#X,X#X@XXXXXXX.X]././..XXXXX/.W.S.x.p.=.] B i : , . . . . . . . . . ",
".   . . . . . . + % , 7 h S @.2.h.H.`.XX-XwXpXpXeX4X#X+X+X+X@X#X@XXX.X].].].+X#X#XXX/.W.S.b.x.9.&./ k 9 X + , . . . . . . . . . ",
".   . < < < . + ; L ; + , 9 n ` =.u.H._.|.XX+X:XeXiXiXyXeX9X8X8X4X:X:X3X3X<X=XXX~.R.n.b.x.p.7. .Z i 7 X X 1 y , .   . < < < . . ",
"O , O 3 d 3 . % L W L % . X 7 a S #.2.k.H._.~.~.`.`.'.[.;X>X7X7X>X-X*X[._.Q.E.S.n.n.v.p.7..._ n u w , > 2 3 1 . O , , 3 d 3 . . ",
", y 1 2 5 3 # o ; L ; , . . X , p +.`  .e.f.j.G.J.D.S.S.S.R.E.W.E.R.S.S.n.b.b.x.s.k.e.X.' B i 7 r o.8 < 3 2 O   , y 1 2 5 3 # o ",
"O , O < 1 x H * o % + 2 ,   . . , t p B / } &.2.t.a.s.x.x.x.c.b.b.c.x.x.z.s.9.7.=. .' Q j 9 , X O 8 , < < < . . . , O < 1 x H = ",
". . . O # H R H @ . . , . . . . . . X 7 q j B ! ]  .&.=.7.7.9.9.9.9.7.6.=.X. ._ Z n u q , X . . . . . . . . . . . . . O # H R J ",
". . . < 1 * H * O . . . . . . . . . . . X , 7 q i k B ! / / _ _ _ _ ' ! Z B k u 9 6 : X . . . . . . . . . . . . . . . < 1 * G = ",
". . . O . O @ O . . . . . . . . . . . . . . X X , 6 7 q h h i u u h V p q 7 6 : X . . . . . . . . . . . . . . . . . . O . O @ O "
};
