/* XPM */
static char *ayqlc_32bvu[] = {
/* columns rows colors chars-per-pixel */
"64 64 247 2 ",
"   c #020203",
".  c #070608",
"X  c #0C0C0B",
"o  c #17140D",
"O  c #070816",
"+  c #110E12",
"@  c #171716",
"#  c #211E17",
"$  c #282417",
"%  c #38321B",
"&  c #0A0B27",
"*  c #0E0C26",
"=  c #100E26",
"-  c #110F2A",
";  c #0E132A",
":  c #121027",
">  c #13132D",
",  c #1A162A",
"<  c #0E0C33",
"1  c #0E0C3C",
"2  c #110D33",
"3  c #110E3B",
"4  c #0F1637",
"5  c #131532",
"6  c #1A1537",
"7  c #141934",
"8  c #191B34",
"9  c #13153A",
"0  c #141B3A",
"q  c #1A1C3B",
"w  c #251A2C",
"e  c #291B36",
"r  c #18213A",
"t  c #1A213D",
"y  c #282728",
"u  c #342728",
"i  c #38342E",
"p  c #262537",
"a  c #372B38",
"s  c #45362D",
"d  c #443937",
"f  c #524932",
"g  c #6A562C",
"h  c #6A5635",
"j  c #6A5935",
"k  c #726532",
"l  c #78663A",
"z  c #0E0D43",
"x  c #0E0E4B",
"c  c #110F44",
"v  c #110F4D",
"b  c #0F1248",
"n  c #151445",
"m  c #131B44",
"M  c #131C4B",
"N  c #0E0F59",
"B  c #0E1258",
"V  c #121254",
"C  c #121D53",
"Z  c #131A5A",
"A  c #241E42",
"S  c #152347",
"D  c #1A2443",
"F  c #13234B",
"G  c #1B254A",
"H  c #1A294C",
"J  c #132453",
"K  c #192A53",
"L  c #13245C",
"P  c #182859",
"I  c #192A5B",
"U  c #173552",
"Y  c #252746",
"T  c #2D354C",
"R  c #373449",
"E  c #272B55",
"W  c #333152",
"Q  c #0E106A",
"!  c #121767",
"~  c #131878",
"^  c #211F67",
"/  c #142363",
"(  c #192B63",
")  c #152869",
"_  c #183069",
"`  c #152976",
"'  c #173379",
"]  c #2D336D",
"[  c #463B40",
"{  c #433959",
"}  c #453D61",
"|  c #484748",
" . c #544C50",
".. c #595657",
"X. c #685A49",
"o. c #675A52",
"O. c #5F604B",
"+. c #766645",
"@. c #776D51",
"#. c #494368",
"$. c #524B66",
"%. c #5C546B",
"&. c #4F5276",
"*. c #645A6B",
"=. c #645A71",
"-. c #586B7A",
";. c #696769",
":. c #756E6C",
">. c #797878",
",. c #8E7837",
"<. c #A17F34",
"1. c #877646",
"2. c #887A57",
"3. c #857C70",
"4. c #748874",
"5. c #9B893D",
"6. c #AC8C37",
"7. c #AD9239",
"8. c #BA993B",
"9. c #C39F39",
"0. c #C3A23C",
"q. c #E3BA34",
"w. c #F0C836",
"e. c #9B8948",
"r. c #968757",
"t. c #9D925D",
"y. c #AA9447",
"u. c #B29A48",
"i. c #A99652",
"p. c #A89656",
"a. c #B9A354",
"s. c #938A71",
"d. c #A79B71",
"f. c #B6A96C",
"g. c #B5A976",
"h. c #C9AF53",
"j. c #C8B566",
"k. c #D0BB67",
"l. c #C3B779",
"z. c #E0C65B",
"x. c #0F1485",
"c. c #131888",
"v. c #0F1595",
"b. c #131A96",
"n. c #142986",
"m. c #163388",
"M. c #142B98",
"N. c #183699",
"B. c #2A3690",
"V. c #111CAE",
"C. c #1429A7",
"Z. c #1638A7",
"A. c #1333AB",
"S. c #1429B5",
"D. c #1537B7",
"F. c #2634AC",
"G. c #18459A",
"H. c #304996",
"J. c #1745A9",
"K. c #1747B9",
"L. c #1856BB",
"P. c #2C4AAC",
"I. c #244AB8",
"U. c #2554BC",
"Y. c #1867BC",
"T. c #1A76BD",
"R. c #226EBE",
"E. c #4E5789",
"W. c #57698F",
"Q. c #546EA3",
"!. c #5C69A4",
"~. c #153AC3",
"^. c #1849C3",
"/. c #1959C4",
"(. c #164AD0",
"). c #2557C2",
"_. c #2A57CD",
"`. c #1A68C4",
"'. c #1978C5",
"]. c #2468C4",
"[. c #2577C4",
"{. c #2F6BD1",
"}. c #346BE8",
"|. c #4B6FC4",
" X c #4678EA",
".X c #1886BF",
"XX c #1690BE",
"oX c #2E91A7",
"OX c #2489BF",
"+X c #14ACAE",
"@X c #05B8BB",
"#X c #5A919A",
"$X c #748B92",
"%X c #1885C3",
"&X c #1B98C4",
"*X c #1A9BDB",
"=X c #2486C4",
"-X c #238CC2",
";X c #2293C1",
":X c #2398C6",
">X c #229AD0",
",X c #19A5C3",
"<X c #19B4C7",
"1X c #1CA0D1",
"2X c #26A5C3",
"3X c #29B3C5",
"4X c #16A9E0",
"5X c #6C90D1",
"6X c #7BABD9",
"7X c #5591E7",
"8X c #3BC7C9",
"9X c #18C9E9",
"0X c #4ECBCC",
"qX c #79D5DA",
"wX c #868686",
"eX c #928E96",
"rX c #989899",
"tX c #A29982",
"yX c #B6AE89",
"uX c #8C93AA",
"iX c #8CAAAE",
"pX c #ABAEAB",
"aX c #C6BB86",
"sX c #C4BB91",
"dX c #CDC286",
"fX c #D3C98A",
"gX c #D5CD97",
"hX c #D4CB98",
"jX c #CFCFAD",
"kX c #E3DCB0",
"lX c #8CB5D5",
"zX c #B6B9C5",
"xX c #83B4E4",
"cX c #9DDCDA",
"vX c #95D0F5",
"bX c #BFDFE2",
"nX c #A6D7F9",
"mX c #ADE7E8",
"MX c #D2D5D1",
"NX c #D9E5D4",
"BX c #EAE7D6",
"VX c #DDDDE3",
"CX c #D0EDF5",
"ZX c #EFF0EB",
"AX c #E6F5F8",
"SX c #F5F6F5",
"DX c #FDFDFD",
/* pixels */
"= = = = 2 5 = = = = = = = = : : : > > : : : : : : > > 5 5 - > > , : > > 5 5 > > > > > > > > > > > 5 > > > > > > 5 5 5 5 6 6 5 5 ",
"* * * - - = * = : = * = = = = : = > = : : : : : : > 5 5 8 f 2.r.e.1.f 8 5 5 > > 5 > > > > > > > > 5 > > > > 5 > > > 5 6 8 5 > > ",
"* * - 5 2 = = > q > : = = : : > : : = : : : 5 > > 5 6 [ p.k.i.1.,.y.h.i.d > > 5 A 5 , > > > > 8 > > > > > 5 q 7 > 5 6 q q 5 > > ",
"* - - - = = = = > , u , : 5 : : : : = : : : > 5 5 R r.k.e.% .     . % e.h.1.u > 5 w u w , 8 > > > > > > > > 8 8 7 5 6 q 7 7 > > ",
"* - = = = = = * : u s u > : : : = = : : : : ; T @.j.a.f .   $ O.O.u   . f u.h.j y u d a , > > > > > 5 > > > 8 U 8 5 5 5 > > > > ",
"* * * * = = = = = , u w : - : : = : 5 > - ,  .f.j.k o   @ +.g.jXMXyX@.$   o k h.u.h s e > > > 5 > > 8 5 > > 7 r 7 > > > > 7 7 7 ",
"* * * * = = = = - > 6 5 = - : : , : - : d p.k.,.$   X f f.fXfXMXNXhXfXf.j X   $ ,.h.e.d > > > 7 8 , 7 > 7 7 > 7 7 7 8 , 8 8 7 7 ",
"* = = = = = = = = - 5 - - - : , y , p 2.k.y.%   . s t.dXfXfXgXNXNXjXfXfXdXt.f . . s 6.h.l y > 8 i 8 7 7 7 7 7 7 8 8 8 8 8 8 7 7 ",
"* * = > = = = = = = = = = : = : y +.j.a.f X   $ @.g.dXfXgXgXyXrXrXpXhXgXfXfXl.2.$   X f 8.8.g y 8 8 7 7 8 q 8 7 7 7 8 q 8 8 7 7 ",
"* * = = = 5 : = = = = = = = : f a.j.k o   o f t.l.dXfXgXjXrX#.> * q *.jXgXfXfXfXf.j o   o k 0.6.s 7 7 7 q q q 7 7 7 8 8 8 q 8 7 ",
"= = = = = = = = = = = > - : X.k.e.$   . i @.d.g.l.dXfXkXpX$.> & & & & %.kXgXfXfXdXj.e.f X   $ ,.9.g q 7 8 q q 7 8 8 7 7 8 8 8 8 ",
"5 = * = * = = = = = 5 5 - f k.j .   #  .@.s.d.g.l.dXgXMX$.5 & & & & & 5 pXkXfXdXl.j.a.y.l % . . g 9.| r 7 7 8 8 q 8 7 8 8 8 8 8 ",
"= = , = = = * = = - 5 5 , p.1.. . a *.:.:.s.d.g.yXdXBXMX8 & & & & & & & eXZXhXdXl.l.f.i.y.e.g o . ,.5.U q q p 8 8 8 r 8 8 8 8 8 ",
"* : y , * = = = = - > - d j.%   a *.;.;.:.3.s.d.yXsXBXMXp & & & & & & & rXSXhXdXl.f.f.i.y.t.t.j . % 8.i 7 Y E Y 8 r i p 8 8 8 8 ",
"* = , : = = = = = = = - X.a.X X { %.*.*.;.:.s.d.yXsXBXSX=.& & & & & & R MXSXhXl.l.f.a.i.t.iXlX4.o + 7.g 7 q Y 8 8 8 p 8 8 8 8 8 ",
"* * * * = = = = = : > - +.a.X + { $.*.*.*.:.s.d.yXyXMXZXVX>.Y 5 5 e $.zXSXBXhXl.g.f.p.i.s.lXnX$X$ X 7.g 7 8 8 8 8 8 8 8 8 8 8 8 ",
"> = = : = * * = > > 5 - +.a.X + { #.%.*.*.=.3.s.tXyXsXhXBXZXMXzXzXMXZXBXjXhXaXl.g.g.p.e.s.lXnX$X$ X 7.g 7 q 8 8 8 8 8 8 8 8 8 8 ",
"A > , u , = = 5 5 5 7 5 +.u.X + { { %.%.%.*.>.s.d.tXyXsXhXcXAXSXSXSXmXjXfXaXaXg.g.d.r.e.s.lXnX$X$ X 7.g 7 q 8 8 8 8 8 q q q 8 8 ",
"> : u s u , 5 9 5 5 q A @.u.X + { { $.%.%.%.;.3.s.tXyXyXjXcXAXCXCXAXmXjXsXyXg.g.d.t.r.r.s.lXnX$X$ X 7.g 0 q 8 8 8 8 8 q m q 8 8 ",
"- = , u w 5 9 9 > > 7 6 +.u.X + { { #.%.%.%.*.:.wXtXtXtXjXCXCXvXvXCXCXNXsXg.g.d.t.r.r.2.s.lXnX$X# X 7.g 0 0 q 8 q Y r q D q e 8 ",
"2 - = , > 5 5 > : > 5 - +.u.X X W E.!.&.%.%.=.>.eXs.s.tXMXDXAXnXnXCXDXZXyXd.d.t.r.2.2.2.3.lXnX$X# X 7.g 0 0 q q q r q q q p a p ",
"2 2 = = > > > > : > 5 < l u.X O ] 6XvXQ.%.=.*.=.;.:.s.pXSXCXmXvXvXmXmXDXMXd.s.r.2.2.2.2.@.$X$X;.o X 7.g 0 D 0 q q q q q t a f d ",
"5 5 = : : > > 7 > > 5 < l u.X O ] xXnXQ.#.%.*.=.-.-.#XcXDXmXmXmXmXmXcXAXAX#X4.4.:.s.s.@.X.X.X.f o X 7.g 0 D r r r r r t t p a p ",
"5 > : : > > > 5 5 5 7 2 l u.X O ] 6XnXQ.{ $.*.-.+X+X@X8XMXqXmXDXDXAXqXbXcX@X+X+X#X3.3.o.X.o.X.s o X 7.g m S D D t t t t t r t r ",
"U 5 - > > > 2 7 D 0 0 4 +.u.X O ] 6XnXQ.} } $.-.+X@X<XqXAXAXcXCXSXcXCXDXmX8X@X@X#X;.o.o.o. .d i + X 7.h m D D E D t t t t t t t ",
"5 > > 7 5 5 5 5 7 8 a q l u.X O ] 6XnXQ.#.#.#.$.W.#XbXDXDXCX0X8X0XbXDXDXDXAXlX#X;....... .[ a a + X 7.h Y R Y D D D D Y D t t D ",
"- > > 5 5 5 5 5 7 a | a l u.X O ] xXnXQ.} } #.&.&.!.SXDXDXSXCX0X@XqXmXDXDXDXVX:.%.%.$.| R R a a X X 7.j R  .R D D D Y E Y t t D ",
"> 5 7 5 5 5 4 4 7 t R m +.y.X O ] 5XxXE.E ] #.&.&.E.uXzXMXVXZXqX@X@X3XzXzXzXuX%.%.%.{ W W Y Y e . X 7.j E W T D G D D Y D D D t ",
"> 7 9 9 9 4 4 4 7 m C n l y.X O V ] H.] ] ] ] &.E.E.E.W.W.!.$X6XqXoXoXW.W.W.&.&.&.} W W E Y 6 2 . X 7.j I E G D D D t t t D Y D ",
"> 5 9 9 9 4 4 4 7 m M 9 j y.X . & < < 5 q q q Y D T T T T T W &.-.W T T T T T Y q 8 5 > > & & O . X 7.j F I H D D t t t t t D D ",
"> 5 9 9 9 9 4 4 7 0 m 4 j u.X       X + X   . + X . . . . . . X X + X X . . + . X X . . + X X     + 7.h F K G D D D D D t D D D ",
"> 5 9 9 9 9 7 4 5 9 m 4 f u.#     + >.>.;.   .>.eX .>. .>.;.:.;.;...wXwX;.;.>.;.wXwX;.;.;.;.:..   $ 8.f J K G D D D D D D G G D ",
"5 0 7 5 5 5 5 7 4 4 m m p 8.g     @ >...|   | ;.pX>.rXwXwXrX>.wX>...rXwXrXwXwXwXrXwXrXwX;.:.>..   j 7.T I I G D D D D D G G G D ",
"> 5 5 5 7 5 5 7 7 0 C m m h 8.%   . @ + y | y @ y y @ y @ y y @ y y y @ @ y y @ y @ @ @ y y y   i 8.X.I ( ( H D D D D D G H H D ",
"2 5 7 0 0 7 4 7 7 m C M m q ,.8.f X       + O O O O O O O & & ; , ; & & & & & & O O O       X f 8.,.E I ( ( H D D H D D D H U H ",
"5 7 0 0 0 7 0 0 0 M L M m m p k 9.5.i .   O ) B.G.P.P.I.U.U.).7X6X{.U.U.I.J.Z.N.m./ &   . i e.9.l E ( I I ( H D G E H D D D H D ",
"5 7 0 0 7 7 0 0 0 M L M m m m m d <.0.l $   O J P._._.{.{.}. X6XvX}.}._._._.).N.C O   $ ,.0.<.| ( ( ( I I I H D D H G D D D D D ",
"5 4 4 4 7 7 0 0 0 M L M m m m m M D f 6.8.j +   & ' _.}.}. X7XxXzX7X}.}._.).' &   @ j 8.6.f K / ) ) _ I I I G D D G G D D G D D ",
"5 5 5 7 7 7 7 0 0 m ) C m m m M M M C Y j 8.7.f .   0 P.}.}.7XpXh.5X}.}.P.m   . f y.u.+.Y L L ) ` _ ' ( ( ( G D H H H D D D D D ",
"> > 5 7 0 7 7 0 0 m / C M C M C C M C C ! W ,.9.,.u & H.5XlXpXz.w.g.uX5XQ.S u ,.9.1.] ) L / / ) ' ' ' _ ) ) H H H H K H D D D D ",
"5 5 5 7 0 0 0 0 0 F ) J J / C C C C Z C / ! C [ <.9.l &.uXz.w.w.w.w.q.s.!.2.9.<.| ' C.` L ) ) ` ' ' ' ) ) _ K H K K K H H H G G ",
"7 5 7 m m m 0 0 r _ ` / / ) L L Z Z ! Z / / Z Z Y X.7.8.:.wXz.w.w.w.p.s.u.7.o.( ` G.D.n.) ` ` ` n.' m.) ) ` I H K K K K K K H H ",
"7 0 m M S S S m 0 J n.) ` n.) / / ! / / ` ` / / Z ! E +.8.:.h.w.w.q.>.e.+.] B.m.m.N.D.m.` m.m.n.m.m.m.' ` m.I K K K I I K H H H ",
"0 m m S F F F S S L C.` ` C.n.` ` ) ] ` n.n.n.` ) ` ` ` ] &.h.p.2.9.>.H.m.M.N.N.N.Z.K.N.M.N.N.N.N.B.H.B.m.N.' I I I I I K K K H ",
"m m M F F F F F F / A.n.n.C.M.n.n.] E.B.M.Z.F.M.n.n.n.n.n.B.E.N.M.P.H.Z.M.C.Z.Z.Z.J.L.Z.Z.Z.D.D.Z.H.Q.H.N.I.H.] I I I K K K K K ",
"F F F F J J J J J ` D.M.n.S.M.M.M.M.B.N.A.A.D.C.M.C.M.C.A.A.A.A.A.~.D.A.A.D.A.Z.J.K./.J.Z.Z.K.K.J.J.P.F.Z.K.G.' _ ( ( I I I I I ",
"F F J J J L L ) ) ' D.A.M.S.C.C.A.C.A.A.D.A.D.A.A.A.A.A.D.D.A.A.D.K.K.Z.K.^.K.K.J.L.`.L.J.J.K.K.J.Z.J.Z.Z.K.G.m.' _ _ _ _ _ ( ( ",
"J L L L L / ) ' ' m.K.A.A.D.A.A.A.A.D.D.^.^.^.K.K.K.K.K.L./.L.L.Y.'.Y.L.`.`./.L.L.Y.%XY.L.K.K./.K.J.J.K.K.^.J.N.m.m.' ' ' ` _ ) ",
"L / ) ` ` ` n.m.N.J./.D.A.D.D.^.K.K./.`.'.'.'.%X'.%X'.'.%X.X.X%X3X:X;X-X;X:X;X;X;X&X,X&X'.`.`.{./.L.L.L.^./.J.J.N.N.N.N.m.m.n.n.",
") ` ' m.m.N.N.N.Z.J./.K.K.L.`.'.%X%X%X'.'.`./.L.K.^.^.K.^.K.K.K.U.L.L.K.L.L.L.U.Y.'.%X=XOXOX&X2X&X%X%X'.`.`.L.J.J.J.J.J.Z.F.Z.M.",
"` ` m.M.M.N.Z.Z.J.L.'.'..XXXT.L.L.^.(.^./.(.^.K.K.I.|.U.).U.I.K.K.).).I.I.L.K.).L./.`.L.K.L.Y.`.`.%X&X&X%X&XY.L.L.J.J.J.Z.Z.Z.Z.",
"n.n.M.N.Z.Z.J.L.L.T.,XXXY.`.K.K.^.^././.'./././.U.|.|.|.).).).U.U.).).).).].).{.].`.'.].).).].].L./.`.'.&X<X%XT.`.L.K.Z.Z.Z.Z.A.",
"n.M.Z.Z.J.K.L.Y.T.XX,XT.Y.'.`.Y.`.`.'.'.*X'.`.].].].|.{.].{.).].].].].).].[.].].[.=X%X[.].].[.=X].].[.'.*X<X&X.XT.L.U.K.D.A.A.A.",
"n.M.P.J.J.K.L.Y.T.%X<X&XT.:X%X'.'.'.&X*X9X4X'.[.{.[.[.[.=X[.].[.[.[.[.].[.=X[.[.=X:X-X=X[.=X-X;X[.-X-X*X9X9X&XT.T.R.{.I.D.A.A.C.",
"~ n.n.M.A.K.K.L.Y.'.1X,X,X,X&X.X%X;X&X&X9X1X-X-X-X-X=X;X:X=X[.=X=X=X=X=X;X:X=X=X:X2X>X:X=X-X;X2X;X&X,X<X9X1X'.`.L.K.I.D.D.C.C.C.",
"! ~ ~ n.M.A.D.D.K.L.`.`.'.&X,X,X,X,X<X,X<X&X;X;XOX;X-X;X2X;X-X-X-X;X;X-X2X2X-X-X2X<X&X:X:X&X,X<X,X&XXXT.`./.^.K.D.D.S.S.C.C.b.b.",
"Z ! ! ! ~ c.M.M.C.D.^.~.D.^.L.Y.T..X&X,X<X2X2X2X2X2X2X2X3X2X2X2X2X2X2X2X3X3X2X2X3X3X,X,X&X&X%X%XY.L.K.K.D.D.D.S.S.C.C.b.c.c.c.~ ",
"b V B Z ! ! ! ~ ` B.F.C.C.S.S.D.D.D.^.L.'.`.].[.R.=X=X=X:X-X-XOXOXOXOXOX-X-X%X'.=X2X[.L.K.K.K.~.D.D.S.S.S.S.C.b.c.c.~ ~ ~ ~ ! ! ",
"c b b V V V v V W #.B.~ x.v.c.c.b.C.S.S.~.S.S.S.S.D.S.D.~.~.D.D.D.D.D.D.~.^.(.D.U.|.P.S.C.C.S.S.b.b.b.c.c.c.~ ! ! ! ! ! ! ! V V ",
"3 n c b v v c c A W ^ V B Q N N ! c.v.v.V.v.x.x.x.x.x.v.V.v.v.v.b.b.b.v.V.V.b.c.C.F.M.c.~ ~ x.v.~ ~ ! ! ! ! B V V Z V V V V v v ",
"< 1 1 1 3 6 e 6 3 c V V z x x x x V Q Q v.Q N N N N N Q x.Q N N N N N N ~ x.N N x.b.~ ! N N N Q V V V v v V v c c c c c c n A e ",
"< < < < 2 e d e 2 < 1 z 1 z 1 z 1 z N N Q N x z z N z x N x z z z z z z N ! x z N Q N v z z x x z z z c z 1 1 1 1 1 1 1 3 e d e ",
"< - - < < 6 e 6 < < < < < 1 < 1 1 1 x x Q x z 1 1 z 1 z v z 1 1 1 1 1 1 x v 1 1 v N v c 1 1 z z 1 1 1 1 1 < < < < < < 2 2 6 e 6 ",
"- - - 2 2 2 2 2 2 2 2 2 2 2 2 2 2 2 c 3 v c 3 3 2 3 3 3 v c 3 2 2 3 n 9 c c 3 3 c v c 3 2 3 3 3 2 2 2 2 2 2 2 2 2 2 2 2 2 - - - "
};
