/* XPM */
static char *awid6_xody4[] = {
/* columns rows colors chars-per-pixel */
"64 64 250 2 ",
"   c #1D1537",
".  c #1E1639",
"X  c #1F193C",
"o  c #261937",
"O  c #20173D",
"+  c #221A3D",
"@  c #311C3A",
"#  c #25213E",
"$  c #352439",
"%  c #382E3D",
"&  c #4D2B39",
"*  c #573A37",
"=  c #1F1740",
"-  c #1F1D40",
";  c #211741",
":  c #221B42",
">  c #231A4A",
",  c #281C48",
"<  c #311E40",
"1  c #271B54",
"2  c #291B57",
"3  c #271E58",
"4  c #281C5A",
"5  c #1D274F",
"6  c #212245",
"7  c #23244B",
"8  c #2C224C",
"9  c #232A4D",
"0  c #282949",
"q  c #362B45",
"w  c #393645",
"e  c #282755",
"r  c #242C52",
"t  c #29235D",
"y  c #302552",
"u  c #342A5A",
"i  c #243254",
"p  c #25345A",
"a  c #2A365A",
"s  c #263B5D",
"d  c #2C1F67",
"f  c #193D69",
"g  c #2B2667",
"h  c #2B2A64",
"j  c #293766",
"k  c #293D63",
"l  c #3A386A",
"z  c #2D3774",
"x  c #343275",
"c  c #523246",
"v  c #402866",
"b  c #354357",
"n  c #1F4975",
"m  c #274162",
"M  c #294365",
"N  c #2B446A",
"B  c #2B4A6C",
"V  c #334C6A",
"C  c #2D4677",
"Z  c #2C4C72",
"A  c #374777",
"S  c #2D5273",
"D  c #2E547B",
"F  c #2E5A7B",
"G  c #375677",
"H  c #325C7E",
"J  c #2F617F",
"K  c #544852",
"L  c #696F61",
"P  c #874838",
"I  c #89493A",
"U  c #9D5138",
"Y  c #A55F32",
"T  c #A87239",
"R  c #965F43",
"E  c #8C6F4C",
"W  c #997553",
"Q  c #96865D",
"!  c #CC8C47",
"~  c #D5A957",
"^  c #E9AE45",
"/  c #323881",
"(  c #324985",
")  c #345687",
"_  c #315D82",
"`  c #32598A",
"'  c #326384",
"]  c #35668A",
"[  c #346C8C",
"{  c #2B708E",
"}  c #356996",
"|  c #377698",
" . c #3A7C9B",
".. c #1273A4",
"X. c #396CA2",
"o. c #3A7AA3",
"O. c #4A4481",
"+. c #4E5391",
"@. c #456F90",
"#. c #5F56A0",
"$. c #5170AC",
"%. c #26899F",
"&. c #39829C",
"*. c #1D82AE",
"=. c #3B84A2",
"-. c #3C87A8",
";. c #388DB0",
":. c #4E859D",
">. c #448BA9",
",. c #4794AE",
"<. c #428AB6",
"1. c #4799B8",
"2. c #549DB8",
"3. c #6399B0",
"4. c #48A4BC",
"5. c #59A1B9",
"6. c #6BA7BB",
"7. c #30A9D3",
"8. c #5681C0",
"9. c #469BC1",
"0. c #4AAAC7",
"q. c #56A9C4",
"w. c #4CB1CC",
"e. c #55B4CA",
"r. c #4DB8D6",
"t. c #56BBD5",
"y. c #68AAC4",
"u. c #6ABACF",
"i. c #77B6C8",
"p. c #45B2EA",
"a. c #57B7EB",
"s. c #68BBEC",
"d. c #73BEEC",
"f. c #2DC0E2",
"g. c #4EC0D4",
"h. c #58C5DA",
"j. c #67C9DD",
"k. c #76C9D9",
"l. c #73D0DE",
"z. c #59C9E4",
"x. c #5DD5E7",
"c. c #5CD3EB",
"v. c #5CD9F1",
"b. c #67C9E5",
"n. c #7CC3ED",
"m. c #69D6E8",
"M. c #64DCEC",
"N. c #77D8E6",
"B. c #67DAF1",
"V. c #62DDF3",
"C. c #7CD4F1",
"Z. c #65E0EF",
"A. c #79E1ED",
"S. c #6BE7F7",
"D. c #6CE4F4",
"F. c #73E6F3",
"G. c #77EAF7",
"H. c #7DEAF5",
"J. c #73ECFA",
"K. c #76F2FC",
"L. c #7BF3FC",
"P. c #F7CABC",
"I. c #86B9CB",
"U. c #8EBFD2",
"Y. c #A1BEC9",
"T. c #9BC2CE",
"R. c #85CCD9",
"E. c #96C8D4",
"W. c #8AD2DE",
"Q. c #98D2DD",
"!. c #ABC8D2",
"~. c #A7CDD9",
"^. c #A9D4DD",
"/. c #86C6ED",
"(. c #93CBEE",
"). c #9BCEEF",
"_. c #88DAE7",
"`. c #99D7E6",
"'. c #8BD2F2",
"]. c #9AD8F4",
"[. c #A7D3ED",
"{. c #B6D9EE",
"}. c #A0CFF0",
"|. c #A7D7F2",
" X c #ACD5F0",
".X c #B4D8F1",
"XX c #BCDAF1",
"oX c #89E3ED",
"OX c #98E2ED",
"+X c #86EAF6",
"@X c #83ECF6",
"#X c #8CEBF5",
"$X c #9BECF4",
"%X c #95EEF8",
"&X c #84F4FD",
"*X c #8CF4FC",
"=X c #89F8FE",
"-X c #93F5FD",
";X c #9BF6FC",
":X c #9CF5FC",
">X c #ACE3EC",
",X c #A3EDF4",
"<X c #ACEDF3",
"1X c #B3ECF4",
"2X c #BDECF6",
"3X c #A6F0F6",
"4X c #A4F6FC",
"5X c #ABF5FB",
"6X c #A3F8FE",
"7X c #ACF9FD",
"8X c #B4F1F7",
"9X c #B3F6FB",
"0X c #BAF5FA",
"qX c #B4F9FD",
"wX c #BCFAFD",
"eX c #D0D6DD",
"rX c #EFD4CE",
"tX c #F4D6CB",
"yX c #E9DAD9",
"uX c #EEE0DA",
"iX c #F2E2DB",
"pX c #C4DDF1",
"aX c #C9DFF2",
"sX c #C5E5EB",
"dX c #CDE1F2",
"fX c #C8EAF5",
"gX c #D3E4F2",
"hX c #DBE7F3",
"jX c #DDE9F3",
"kX c #C2F6FA",
"lX c #C4FAFD",
"zX c #CCFBFD",
"xX c #DAF3FA",
"cX c #D3FCFD",
"vX c #DBFCFD",
"bX c #EBE7E6",
"nX c #F4EAE6",
"mX c #F3EDEA",
"MX c #F5F1EE",
"NX c #E4EBF4",
"BX c #EBEEF4",
"VX c #F2EFF0",
"CX c #EEF1F5",
"ZX c #E5F4F8",
"AX c #E3FDFD",
"SX c #EBFDFD",
"DX c #F4F3F5",
"FX c #FAF6F3",
"GX c #F2FDFD",
"HX c #FBFAF8",
/* pixels */
". . . ; > > . .   . . . .   .   . O . . . . . . . . : > > + : . . . . : > > . .   . . . . . . . . O . . . .   . . . . ; > > . . ",
". . ; 2 2 > . + 8 + . .     . + + > O . . . : . . > 4 4 > 8 l 8 X X : 4 4 > X + 8 + . . . . . + + > . . . O : O . . ; 2 2 > . . ",
". O 2 d 2 O . 8 O.8 @ + O : : y : . . . . : u : > g x t 7 l #.l 7 7 t g t : X 8 O.8 $ + . : : y : . . .   : u + . ; 2 d 2 O . . ",
". > 2 2 ; . . + 8 c R & : u : + . . . . . + 7 p h x x r 9 a A k i p h h r 6 6 6 y c R & : u : + O . . . . O 6 r - > 2 2 ; . . . ",
". > > O . . . . @ R ~ R $ : . . . X : + + : s  .C j j s s m N M M N N k s i i 9 q E ~ R < : + . . . : . .   9 { r ; > O . . . . ",
". . . . . . . . + c R c +   . . . : t 7 6 9 s D Z B S S F F ' ' ' ' F F S B M s a K W K 6 X X . . : 1 :     : p : . . . . . . . ",
". . .   . . . . . 2 v 2 . . . # w 0 9 9 i s B S F ]  .| | &.=.-.=.=.&.| | [ ' F S A O.z r 6 - 6 w + : . . . . . . . .   . . . . ",
"O > O + . . . . O 1 2 : . . X w L b i m B F ' [ | =.;.;.1.4.0.0.0.0.4.4.1.,.=.| [ } ` Z s i 9 w E w . . O O .   . > O + .   . . ",
". . : y : : . . . O O . . + 6 0 b m B F } o.=.,.4.0.w.w.r.g.g.h.h.h.g.h.t.e.0.1.;.=.| ' S M s a w 0 X : 2 2 ; . . . : y : : . . ",
". . . + : u :   . . . + : 6 9 i m S ' | ;.q.I.E.k.h.h.m.N._.OXOXOXA.M.x.x.z.h.t.w.4.,.&.| J S M a 9 6 : 4 g 2 O     . + : u :   ",
": . . . . : . . . . : 7 e r s B F [ =.2.I.~.`.N.N.OX<X8X<X,X,X3X$X@XD.Z.M.x.x.z.h.h.e.q.,.:.[ H V s s 7 , 4 2 : : . . . . : . . ",
"4 ; . . . . . . . : t h p M ) ' | ;.j.~.Q.N.oX<X<X$X#X%X$X3X9X0X0X9X5X3X#XF.Z.x.x.x.b.j.u.5.2.:.] [ *.n 7 : , : 1 ; . . .   . . ",
": + % + . . . . X > h j k S ]  .1._.,XA.oX1X<X#X#X4X0XwX7X4X6X7X4X4X5XwXlXkX9X#XD.M.B.m.j.k.i.2.>.7.f.*.p y l 8 : + % + . . . . ",
"  % E %   . . . : e p k S ' &.5.T.`.A.<X8X%X-X4X4X-X*X-X-X6XqXlXlXwXwXwX7X:X4XwX9X@XG.F.B.N.R.i.5.,.7.' a A #.l + % E % . . . . ",
". + % + . . . X 6 9 s B ' &.5.T.W.N.1X$X@X4X7X*X&X*X;X7X7XwXlXcXcXzXzXcXcXzXwX7X;X-X&X&X@X@XN.R.i.2.=.J M k l e X + % + . . . . ",
"  . . . . . . - 7 p B J  .5.T.W._.<X+X@X;X*X*X;X;X6X7XwXwXwXlXcXcXzXcXcXcXcXcXcXzX7X-X:X:X#XH.N.k.i.,.| F M i 6 X . . . . . . . ",
"8 + + $ + . X 7 p N F | ,.T.Q._.,X@X&X*XL.&X;XqXqXqX7X7XqXqXlXcXzXzXcXcXcXzXcXvXvXvXzXqX7X-XH.F.m.k.i.>.[ S s 9 6 X . . . . . . ",
"+.8 * Y * + 7 h C H | 2.U.Q.N.$X@X&X=XK.L.=X7XwXwX7X7XqXwXwXlXcXcXzXcXcXcXvXvXvXAXAXAXAXqX*XF.D.D.m.R.y.>.' B p 7 - + > 1 > . . ",
"y $ Y ^ Y q x ( ( [ ,.R.[.N.#XH.L.&XL.&X=X;X6XqXzXlXqXlXcXcXcXAXvXcXcXcXcXcXvXAXAXAXvXvXvX7XJ.D.D.D.m.E.5. .H M r 7 : 4 g 2 . . ",
"1 : * Y c h / ( _  .5.~._.oX@XJ.K.K.&X-X6X;X6XlXvXvXvXSXGXSXAXAXvXcXvXvXcXvXAXSXSXSXcXwXlXzX=XJ.D.F.N.W.U.,.[ S k l 7 3 d 2 @ o ",
"4 1 + $ 8 h z S [ -.i.Q.N.%XJ.L.K.K.&X6X7XqXzXvXAXGXGXxX2X].'.C.C.'.].2XcXAXSXSXSXSXAXzX6X7X;XL.J.G.+XN.Q.6.=._ N p 7 > > c I & ",
"4 2 O X 7 p M H  .5.E.N.@XH.&X&XL.&X-X6XqXvXSXAXGXSX2X'.a.p.p.p.p.p.a.b.'.fXSXGXSXSXAXvXwX6X;X*X=XL.H.oX_.T.,.[ S p 7 > < I ! U ",
"2 1 + + 7 i B | -.i.W.m.H.J.L.&X-X6X7XqXzXAXSXGXxX].n.a.a.a.a.a.a.a.s.s.s.n..XxXGXSXAXvXvXwX7X6X-X&XJ.#XN.~.6. ._ M r e , & I & ",
"p : + : 9 s S  .1.R.N.F.S.J.L.&X-XqXcXcXAXAXGXxX].s.s.s.s.s.s.s.d.d.n.n.d.s.n.|.xXSXAXAXAXvXwX7X-XL.J.H.oX_.T.,.[ B p 7 - + @ o ",
"%.9 + 7 i m J =.u.W.m.F.D.J.*X;X-XwXAXSXSXSXxX|.n.n.n.n.n.n././././.(./././././..XxXSXSXSXvXlX7X*X&X&X@X$X_.~.y.o.D s r 6 X . : ",
"i X 6 l a B ] -.u._.F.F.S.J.qX6X-XcXvXAXSXSX.X/././.(.(.(.(.).).).).).).).(.(.(.).fXSXGXSXcXwXqX4X-X-X@X$XoX^.i.-.' A A e X : 4 ",
". : : r s S | ,.k.N.F.S.S.*XcX;X7XvXvXvXSXfX(././.(.).}.[. X X X.X X|.|.[.}.}.}.}. XxXSXSXAXzXlX7X-X=X&X#X$X`.U.<.} +.#.l : . : ",
"O 1 t r k F  .4.k.m.D.D.S.:XzX6XzXvXAXAXAX.X(.(.).).}. X.XXXXXpXaXaXpXXX.X.X X X X XfXSXSXSXzXwXqX-X&X*X+X<X_.~.1.| ) O.u : : + ",
"+ 3 h z C ' &.4.l.M.D.S.J.qXzXwXcXvXvXAXxX|.).).[. X X.XXXpXpXpXdXdXdXaXpXXXXXXXXX{.pXZXGXSXcXwXqX4X-X:X-X8X_.~.5. .D k 9 7 u : ",
". : h z ( ] -.e.m.M.D.D.J.wXcXzXcXvXvXAXfX X[. X.X{.XXXXpXpXaXdXdXgXgXdXdXdXdXpXpXpXpXxXGXSXAXzXlXqX:X4X-X8X_.^.6. .H k 9 : , X ",
". : h z ( } >.e.m.M.D.J.L.lXcXcXvXvXvXAXfX X X{.XXpXpXdXdXgXgXgXgXhXhXhXgXgXgXgXgXdXdXNXGXSXAXcXzXwX4X7X:X8XOX^.y.o.H k 9 : - . ",
"+ 7 t z ( } >.e.m.M.S.*X-XzXvXvXAXAXAXSXfXXXXXpXpXdXdXgXgXhXhXjXNXNXNXNXjXhXhXhXhXgXgXNXGXGXAXcXcXlX7X7X:X8XOX^.y.o._ k e t 1 X ",
": u e i B ] >.e.m.M.D.5X4XzXcXcXvXvXvXAXjXdXdXdXgXgXgXhXjXNXNXNXNXBXBXBXNXNXNXNXNXjXhXNXGXSXcXzXzXwX4X4X-X8X_.^.y.o._ k h g 3 X ",
"+ , 7 i B ] -.e.m.M.Z.5X4XwXzXzXcXzXcXvXNXjXNXNXNXNXjXNXNXNXBXBXCXCXCXCXBXBXNXNXNXNXjXZXGXvXlXlXlXqX-X:X%X1X_.^.q. .F k h h p - ",
". : e p G ' =.0.j.x.M.:X7XqXzXzXcXcXvXAXZXNXNXBXBXBXBXBXCXCXCXDXDXDXDXDXCXBXNXNXNXNXNXCXGXcXlXwXlX7X-X4X#X1X_.~.2. .D k 9 p { i ",
". > h p N H  .0.h.x.v.%XqX7XcXcXcXvXvXvXZXBXBXDXDXFXFXDXDXDXDXDXDXDXDXDXCXBXBXBXNXNXBXGXSXcXzXlXlX7X-X7X#X1XN.~.1.o.D p 7 6 i - ",
". : 7 r s D  .1.t.x.M.@XlX7XcXvXzXzXlXzXvXCXBXDXFXFXHXHXHXHXDXDXDXDXDXDXDXFXFXDXDXVXDXSXcXzXlXlXlXqX-XqX#X<XN.E.>.} Z p 7 : . . ",
". . : 7 p Z | ,.e.b.M.G.lX4XlXzXlXlXlXcXAXDXFXFXFXFXFXFXHXHXFXDXDXDXDXHXHXFXDXFXFXDXGXAXzXlXlXlXwX4X4X5X$XOXl.i.=.' N r 7 t : . ",
". . X 6 i B ] >.q.j.M.D.5X5X7XzXcXzXcXvXAXGXFXmXnXnXmXmXMXMXmXMXMXMXMXMXMXmXmXmXmXCXAXAXvXzXlXzXwX;XqX$X<XN.h.1.| _ k r : : . . ",
". . X 6 r M H  .1.t.x.F.#XkX:XzXvXvXvXcXvXAXDXbXyXyXbXbXbXbXnXnXnXnXmXnXnXnXnXnXMXZXvXcXcXvXcXzXwX-XkX#X1Xz.w.;.[ D A r : X . . ",
". . X : e j S [ ,.r.h.oX#X0X9XlXvXAXzXzXzXAXGXFXbXyXyXyXyXuXiXiXiXuXuXuXuXuXuXbXSXvXcXcXzXcXvXcXqX9X5X$X`.r.9.o._ N p 7 > > . . ",
". . > t h j N ' -.r.h.N.8X3XzXqXzXcXzXlXzXSXGXGXDXbXyXrXrXrXtXtXtXtXtXtXtXuXbXZXvXvXcXcXcXcXcXzX7XzX%X1Xb.0.;.} D k e h 4 > . . ",
". O 4 g h r s S | 1.e.b.1X3X0XwX7XwXzXzXAXSXAXvXGXHXmXyXrXrXtXP.P.P.tXtXuXVXSXvXzXcXcXcXcXvXzX4XwX5X,XOXr.9.-.] Z p h g 4 : . . ",
". > 4 4 > 7 i B ] =.4.t.N.2X:XzX4X7XlXAXSXvXzXlXvXGXGXDXVXbXyXyXyXyXbXNXxXvXAXvXzXzXcXcXvXcXwX3X0X#X2Xb.0.1.$.` k h h 4 > . . . ",
". > > : X 6 9 s D | ,.0.h.OX1X3XzX7XcXAXAXzXwXlXvXAXAXSXGXSXSXSXSXAXAXvXcXcXvXvXvXcXzXcXcXlX4XzX+X$X_.t.9.<.8.) j e 1 : . . . . ",
". . . . . + 6 i B } o.1.w.b.1X<X0XvXcXcXlXwXwXlXzXzXvXSXSXvXAXSXAXvXvXAXvXcXcXAXcXcXcXzXlX:XkX$XF.N.t.0.-.| @.N r 6 - . . . . . ",
". . . . . + : 9 s Z ] =.1.r.N.fXkXxXAXwX4X;XqXzXlXwXlXcXzXzXvXAXAXvXvXvXcXcXzXcXvXcXcXqX-XkX$XM.m.z.0.;.| ) C j 7 : X . . . . . ",
"O > O + . . X 6 9 k D [ -.0.k.>XjXxXkXlX-X&X4X7X7XqXwXlX7X7XlXvXvXzXzXlXwXwXzXcXvXcX7X:XkX#Xc.z.a.w.1.o.} ( z e > > : + .   . . ",
". . : y : : + X 6 p C _ | ,.I.{.sXjX0X%X4X:X;X-X*X;X7XqX-X-X:XqX4X*X&X=X4XwXzXzXwX:X7X0XA.c.z.z.r.1.-.X.` z h 7 X X : y : : O . ",
"  . . + : u : X : 7 p N ' :.6.!.eX>XfX1X%X4X7X-X&XL.-X=XK.L.L.-X&X&X:XwXzXlX4X@XJ.*X%XB.c.z.r.r.1.o.} ` ( x t : . . . + : u :   ",
": . . . O : + . X : 9 a V @.:.6.Y.^.`.>XfX8X:X-X-X&X=XJ.S.S.J.L.K.L.*X#X@XS.Z.V.V.V.V.c.z.t.w.1.o.} ` ( x h 1 : : . .   . : + . ",
"4 ; . . . . . . . X 6 9 s G @.:.3.I.!.`.OX1X2X,X@XH.*XJ.S.S.J.J.J.S.Z.V.V.V.v.v.v.c.z.z.t.w.<.o.} ) C z j e : : 1 +     . . . . ",
": + % + . . . . . : : 0 r V G @.@.>.y.E.>X`._.OX<X,X%XF.D.D.D.S.D.V.V.V.V.V.V.c.z.z.h.t.q.<.| ' Z z j n ..f X . ; + % + . . . . ",
"  % E % . . . . O 2 4 , 0 l k V G ] =.r.A.[.^.`._._.OXoX+X@XH.@XG.D.D.B.M.c.z.z.h.t.e.1.-.o._ Z k r p ..7...5 .   % E % . . . . ",
". + % + . . . . O 2 g 4 , 7 9 i k Z ' -.w.q.i.T.~.^.`._.N.N.m.N.m.m.b.b.b.j.j.u.q.9.<.X.] D N p r 6 6 f ..f t =   + % + . . . . ",
". .   . .   . .   ; 2 4 > + : 6 r p M G [ @.>.,.2.i.I.E.~.~.^.Q.Q.W.R.k.u.e.9.<.o.} } ` C k i 9 6 X X X 5 X = . . . . . . . . . ",
".   . . . . . . + $ + > > + X X 6 7 i a N G ] [  .>.-.<.1.2.5.q.5.2.1.<.<.;.o.} ' G C z j r 7 : X X . .   . : . . . . . . . . . ",
"    . > > > . + * T * + . . . . X : 6 9 p k ) S H @.] } X.X.o.| | | } } } } } G L Q K r 7 6 X X . . . . . , u :     . > > > . . ",
"O : + 2 d 2 . $ T ^ T $ . . . . + 8 : 7 t h p p k N N C ( ` ) D D ) D C Z D %.V Q ~ W q - X . . + 8 + O 1 2 , . O : : 2 d 2 . . ",
": u , 2 4 2 @ o * T * : . . .   8 O.8 > 4 t 7 7 7 r r p j j j k k A j p i i k 9 K W K , X . . . 8 O.8 > 2 2 O   : u , 2 4 2 @ O ",
"O : + > , c I & + $ + 1 +   . . + 8 : > > > : X : : 6 7 7 7 9 9 r r 7 7 7 7 : - + % : 1 : . . . + 8 + > > > .   . : + > , c I & ",
".   . O @ I ! I @ . . : .   . . .   . . . . . . . X X X X - - - - - - X : t > . . . . + . . . . .   . . . . . . .   . O @ I ! U ",
". . . > , & I & + . . . . . . . . . . . . . . . . . . . : : X . . + : + X : . . . .     . . . . . . . . . . . . . . . > , & P & ",
". . . O . O @ O . . . . . . . . . . . . . . . . . . . O 1 1 + . . : u : . . . . .       . . . . . . . . . . . . . . . O . O @ O "
};
