/* XPM */
static char *aoi7k_6s00m[] = {
/* columns rows colors chars-per-pixel */
"64 64 124 2 ",
"   c #1E1537",
".  c #1E1639",
"X  c #1F193C",
"o  c #211737",
"O  c #2C1A37",
"+  c #20173D",
"@  c #221A3E",
"#  c #2E1D3A",
"$  c #311E37",
"%  c #331F39",
"&  c #322337",
"*  c #3F2136",
"=  c #32213B",
"-  c #342A3C",
";  c #412437",
":  c #4B2B34",
">  c #412339",
",  c #452C3C",
"<  c #4D2C3A",
"1  c #4F3838",
"2  c #503839",
"3  c #1F1640",
"4  c #1D1E44",
"5  c #1F1E48",
"6  c #201740",
"7  c #241B43",
"8  c #291E47",
"9  c #24194A",
"0  c #291F48",
"q  c #271A55",
"w  c #281A56",
"e  c #271A59",
"r  c #291B5A",
"t  c #371E58",
"y  c #1C2146",
"u  c #1C224A",
"i  c #1F2A4A",
"p  c #1C2853",
"a  c #1E2959",
"s  c #18335B",
"d  c #2A2047",
"f  c #20224A",
"g  c #2A204A",
"h  c #202B4C",
"j  c #342040",
"k  c #262551",
"l  c #212C51",
"z  c #23225A",
"x  c #352959",
"c  c #382C5E",
"v  c #2A1D60",
"b  c #1A3460",
"n  c #2B2064",
"m  c #262D60",
"M  c #282E64",
"N  c #2E216E",
"B  c #292E69",
"V  c #3B2E64",
"C  c #3B246A",
"Z  c #3E286C",
"A  c #3F336A",
"S  c #302375",
"D  c #452648",
"F  c #492650",
"G  c #4D2F55",
"H  c #40336A",
"J  c #913F34",
"K  c #954432",
"L  c #964535",
"P  c #944936",
"I  c #954A36",
"U  c #954A36",
"Y  c #98463D",
"T  c #954A39",
"R  c #964A3B",
"E  c #954A39",
"W  c #9D5B3D",
"Q  c #A55136",
"!  c #A55136",
"~  c #B7642F",
"^  c #B7642E",
"/  c #C7623B",
"(  c #A46443",
")  c #A46442",
"_  c #A56546",
"`  c #A46543",
"'  c #A7674E",
"]  c #A7674E",
"[  c #BB8639",
"{  c #DE8232",
"}  c #CE903B",
"|  c #A09050",
" . c #A09050",
".. c #DDA34C",
"X. c #DEA44C",
"o. c #DEA34C",
"O. c #F4B547",
"+. c #E8B554",
"@. c #E8B554",
"#. c #F4C94E",
"$. c #155491",
"%. c #155693",
"&. c #0D7AAD",
"*. c #0D7AAD",
"=. c #0E7AB0",
"-. c #5D4C96",
";. c #5D4C96",
":. c #6653A3",
">. c #6C59AC",
",. c #6C59AC",
"<. c #0C82BA",
"1. c #0C82BA",
"2. c #268FA5",
"3. c #2690A7",
"4. c #2690A6",
"5. c #2791A9",
"6. c #2791A9",
"7. c #2991AE",
"8. c #2991AE",
"9. c #27A1B4",
"0. c #0983C7",
"q. c #1BC2E3",
"w. c #1BC3E5",
"e. c #1BC2E4",
/* pixels */
". . . + 9 9 . .   . . . . . .   . X . . . . . . . . + 9 9 . @ . . . . + 9 9 . .   . . . . . .   . X . . . . . . . . . + 9 9 . . ",
". . 6 e e 9 . . @ . . . . . . @ + 9 X . . . @ . . 7 e e 9 8 H 8 . . 6 e e 9 . o 0 o . . .   . @ + 9 X . . . @ . . . 6 e e 9 . . ",
". + e N e + . @ V @ # o . @ @ x @ . . . . @ V @ 7 N S e 7 H >.H @ + e N e +   0 -.0 O . . @ @ x @ . . .   @ V @ . + e N e + . . ",
". 9 e e 6 . . . @ , ) , @ V 7 @ . . . . . . 7 h r S N 7 . 8 H 8 . 9 e e 6 . . o 0 > K ; @ V 7 @ . .   . . . 7 h X 9 e e 6 . . . ",
". 9 9 + . . . . # ) +._ # @ .   . . + . .   i 7.B e 7 . . . @ . . 9 9 + . . . . O K { L # @ .   . . + . .   i 6.h 9 9 + . . . . ",
". . . . . . . . o , ' G +   . .   + r + . . X M 9 + @ . . .   . . . . . . . . . . > Y F +   . .   + r + . . X M X . . . . . . . ",
". . .   . . . . X r Z r .   . @ - @ + . . . . . . @ V @   . . . . . .   . . . . X e C e X . . @ - @ + .   . . . . . .   . . . . ",
"X 9 + @ .   . . X w e + .   . -  .-   . X X . . . . @ . @ . . . . 9 + @ .   . . X w e 6 . . . -  .-   . X X .   . 9 + @ .   . . ",
". . @ x @ @ . . . X X . . . . @ - @ . X w e + . . .   @ V @   . . . @ x @ @ . . . X X . . . . @ - @   X w e 6 . . . @ x @ @ . . ",
"  . . @ 7 V @   . . . . . . . . . .   X e N e . . . X h 7 . . .     . @ 7 V @ . . . . . . .   . . . 4 X e N e X     . @ 7 V @   ",
"6 . . . . @ . . . . + 9 9 . @ . . . y . + e w . .   h 6.i   . . + . .   . @ . . . . + 9 9 . @ .   y $.y + e w X + . .   . @ . . ",
"n + . . . . . . . + w e 9 7 V @ . s &.s . X 7 . . . @ M X     + r +     . . . . . + w e 9 7 V @ . s 1.s . X 7 @ r +   . .   . . ",
"+ @ - @ . . .   . 9 e w + . @ . y &.w.&.y 8 H 8 . . . . . . . . X @ - @ . . . . . 9 e w + . @ . y &.q.&.y 8 H 8 + @ - @ .   . . ",
"  -  .-   . . . . 9 9 + . . . . . s &.s @ H >.H 7 . . . . X X .   -  .- . . . . . 9 9 + . .   . . s 1.s @ H >.H + - | -   . . . ",
". @ - @     .   . . . . . . . . . . y . . 8 H 0 q X   . 6 e w X   @ - @ . . . . . . . . . . . .   y $.y   8 H 8 . @ - @ .   . . ",
"  . . .       . . . . . . . . . . . . . . . @ + q X   . w N e X   . . . . . . . . . . . . . . . . X 4 . . . @ . . . . .     . . ",
"g o . O o . . + 9 9 . @ . . . . + 9 9 . . .   . . . . . + 7 X @ 0 . o $ o . . + 9 9 . @ . . . . + 9 7 . . .   . . . . . . . . . ",
":.0 * J * o 7 e e 9 0 H 8 . . + e e 9 . . . . .     . 9 9 9 . 0 -.d : ~ : o 7 e e 9 0 H 8 . . 6 e e 9 . . . . . . . . 9 9 9 . . ",
"g # J / J 8 N S e 7 H >.H @ + e N e + . . . . . . @ + e N e X o 0 % ~ O.~ j N S e 7 H >.H @ + e N e + . . . . . . @ + e N e X . ",
"w + ; J > e S N 7 . 8 H 8 . 9 e e 6 . . . . .   @ V 7 w r e # + q @ : ~ < r S N 7 . 8 H 8 . 9 e e 6 . . . . .   7 V 7 w r w # o ",
"r w + # 9 e e 7 . . . @ . . 9 9 + . . . . . . . . @ + 9 9 D T > e w o $ 9 e e 7 . . . @ . . 9 9 + . . . . . . . . @ + 9 9 D T ; ",
"r e X . 9 9 + @ . . . . . . . . . . . . . . . . . . . X # T o.T t e X . 9 9 + @ . . . . . . . . . . . . . . . . . . . X # T o.Q ",
"e w X . . . @ V @   . . . . . . . X . . . . . . . . X 9 9 > I > w w X . . . @ V @   . . . . . . . . . . . . . . . . . 9 9 > I ; ",
"l @ . .   . . 7 7 . . . . . . X X 9 . . . . @ . . . . X . o O @ h X . . . . . @ . @ . . . X 9 + @ .   . . . . X . . . X . . O   ",
"9.i . @ . . . @ V @ # o . @ + 9 X . . .   @ V @ . . . @ . . . l 3.i . @ . . .   @ V @ . . . . @ x @ @ . o # + 9 + . . @ . . . + ",
"i X @ V @ . . . @ , ) , @ V 7 . . . . . . . 7 h 9 9 0 H 8 . + n l X @ V @   . X h 7 . . .   . . @ 7 V @ , ) , @ 9 9 0 H 8 . + n ",
"  X + @ . . . . # ) +._ # @ . . . . + . .   i 7.B 9 H >.H @ . + . X + 7 . .   h 6.i   . . + . .   . @ # _ +.) % w q H >.H @ . + ",
"X w w + X . . . o , ' G +   . . . + r + . . X M r 9 0 H 8 . @ . X w w + . . . @ M X . . + r +   . .   + G ' , @ w 9 0 H 8 . @ . ",
"+ w r r w X . . X r Z r .   . @ - @ + .   . . + 9 X . @ . @ V @ X w r r w X . . . . . . . + @ - @ . . X r Z r + 7 X . @ . @ V 7 ",
". + r N r + . . X w e 6 . .   - | -   . X . . . . . . . . . @ . . 6 r N r 6 . . . . X X .   -  .- . . . 6 e w X . . . . . . @ . ",
". + e v r w X . . X . .     . @ - @ . X w e 6 . . . . . . . . . . X e v r w X . . 6 e w .   @ - @ . . . . X X . . . . . . X . . ",
". 6 w e e w X . .     . . .   . . .   X e N e X . . . . 6 e w X . 7 w e e w X   . e N e .     . .   . . . . . . . . . . 6 e w X ",
"+ 9 6 X X X . . . . + 9 9 . @ .   . y . + e w X . . . X e N w . @ V 7 X X X . . X w e + . 4 . . . @ . 9 9 + . . . . . X e N w X ",
". X . . @ . . . . + w e 9 7 V 7 4 s &.s y X 7 . . .   X w r l X . @ . . @ . . . . . . . p %.p . @ V 7 9 e w + . . . . X w r l X ",
". X 9 7 x @ . . . 9 e w + . @ 4 $.1.q.1.$.k H 8 . @ . . . h 3.i   X 9 7 x @   . . @ . 4 %.0.%.4 . @ . + w e 9 . . @ . . . h 2.h ",
". 9 n 9 @ . . 7 X 9 9 + . .   . y s &.s f H >.H 7 V @     X i X . 9 n 9 @ . .   @ V @ . p %.p . .   . . + 9 9 . @ V @ . . X i X ",
". + 9 X . . . 7 . . . . . . . .   . y .   8 H 8 . @ . . . + . . . + 9 X . . . . . @ .   . 4 . . . . . . . . . . . @ . . . + . . ",
". . . . . . . . . . @ . . . . . . .   .   . @ . .   . . + r @ . . . . . . . . . . . @ . .   . . . . . .     . . .   . . + r @ . ",
". . . . . . . . . @ V @   . . . . . . . X X . . . . @ . . @ . . . . . . . . . . . @ V @   . . . . . . . X X . . . . @ . . + . . ",
". . . . . . . . . . @ . . @ . . . .   X w w X   . @ x @ . . . . . . . . . . . . . . @ . . @ . . . . . X w w X . . @ x @ . . . . ",
". . . + 9 9 . . X i X   @ x @   . . . X w w X   . . @ . . . . . . .   . . . @ . X i X   @ x @   . . . X w w X . . . @ + 9 9 . . ",
". . 6 e e 9 .   i 3.i   + 7 . . . . . . X X . . . . . . . . . .   . y . . 8 H 8 h 3.i   + 7 . . . . . . X X . . . . + e e 9 . . ",
". + e N e + . . X i X X w e + . . . # o   . @ . . 9 9 + . .   . . s &.s @ H >.H 7 i X X w e + . . . O .   . @ . . + e N e + . . ",
". 9 e e + . . . .   . X e N e . . , ) , o 8 H 8 . 9 e w + . @ . y &.w.&.y 8 H 8 .     X e N e . . ; I ; o 8 H 8 . 9 e e + . . . ",
". 9 9 + . . . . . @ . . 6 e w X # ) +.) = A >.H @ + w e 9 7 V @ . s &.s . + 7 . . @ . . 6 e w X O I X.I # A >.H @ 9 9 + . . . . ",
". . . . . . .   @ V @   . X X . o , ) , o 8 H 0 . . + 9 9 . @ .   . y . 6 e w . @ V @   . X X . . ; I ; o 8 H 0 . . . . . . . . ",
". X . . . . . . . @ . . . . .   . o # o . + 9 9 .   . . . .   . . .   . e N e X . @ . . . . .   . . O o . + 9 9 . . . . . . . . ",
"X 9 + @ . . . . . . + . . . o 0 o . X 9 9 e e 9 . X X . . . . @ - @ . X w e 6 . . . + . . . o 0 o . X 9 9 e e 9 + 9 + @ . . . . ",
". . @ x @ @ . .   + r +     0 -.0 . 9 e r r e + X w e 6 . . . - | -   . X X . .   + r +     0 -.0 . 9 e r r e + . . @ x @ @ . . ",
"  . . @ 7 V @ . . . + . . . @ 0 o . 9 r N r 9 . . r Z r X . . @ - @ + . . . . . . . + . . . @ 0 o . 9 r N r 9 .     . @ 7 V @ . ",
"@ . . . . @ . . . . . . . . .   . + w r r e 9 . o , ' G +   . .   + r +   . X M @   . . . . .   . + w r r e 9 X + . .   . @ . . ",
"n +   . . . . . . . . . . . . . . 9 e e z 9 + . # ) +._ # @ .   . . + . .   i 6.h   . . . . . . . 9 e e z 9 X @ r +     . . . . ",
"+ @ - @ . . . . . X X . . . . . . 9 9 a %.p . o g , ) , @ V 7 @ . . . . . . 7 h X X X . . @ .   . 9 9 b =.s . . + @ - @ . . . . ",
"  -  .- . . . . X w e 6 X 9 . . . . 4 %.0.%.5 0 -.g # o . @ @ x @ . . .   @ V @ X w e + @ V @   . . u &.w.&.u .   -  .- . . . . ",
". @ - @ . . . . X e N e + . . . . . . p %.a v 7 0 o . . .   . @ + 9 X . . . @ . X e N e + @ .   . . . s &.b n +   @ - @ . . . . ",
". .   . . . . . . 6 e e 9 . . . . . . . 4 . + .     . . . . . . . . . . X + X . . 3 e e 9 .   . . . . . y . + . . . . . . . . . ",
".   . . . . . . . # + 9 9 . . . . . . .   . @ . . @ o 9 9 + . . . . . X e N w . o & @ 9 9 . . . . . . .   . @ . . . . . . . . . ",
"    . 9 9 9 . . ; I ; o . . . . .   . . . 7 V @ @ V 7 9 e w + . .   . X w e 7 = 1 [ 1 = @ . . . .   . . . 7 V @ .   . 9 9 9 . . ",
". @ + e N e X O I o.I O . . . . o 0 o + w w 7 . . @ . + w e 9 . . @ . . X X # W } #.} W # . . . o 0 o + w w 7 . . @ + e N e X . ",
"7 V 7 w r w # o ; I > @ . . .   0 -.0 9 e w X . . . . . + 9 9 . @ V @ . .   o = 1 [ 1 = @ . .   0 -.0 9 e w X   @ V 9 w r w # o ",
". @ o 9 9 D T ; o O @ r + . . . o 0 @ 9 9 9 . . . . . . . . . . . @ . . . + . . o & @ r +   . . o 0 @ 9 9 9 . . . @ + 9 9 D T ; ",
".   . X # T X.I O . . + . . . . .   . . . . . . . . . . .   . . .   . . + r @ . . . . + . . . . .   . . . . . . . . . X # T o.Q ",
". . . 9 9 > I ; . . . . . . . . . . . . . . . . . . . . X X . . . . @ . . @ . . . . . . . . . . . . . . . . . . . . . 9 9 > P ; ",
". . . X . o O o . . . . . . . . . . . . . . . . . . . X w w X . . @ c @ . . . . . . . . . . . . . . . . . . . . . . . + . o O o "
};
