/* XPM */
static char *asfov_pzxky[] = {
/* columns rows colors chars-per-pixel */
"64 64 122 2 ",
"   c #1E1537",
".  c #1E1639",
"X  c #1E193C",
"o  c #2C1A37",
"O  c #20173D",
"+  c #22193E",
"@  c #2E1C3A",
"#  c #321E37",
"$  c #301C3B",
"%  c #322337",
"&  c #3F2136",
"*  c #322338",
"=  c #342A3C",
"-  c #412437",
";  c #4B2C34",
":  c #41233A",
">  c #462C3D",
",  c #4A2D3B",
"<  c #4C3638",
"1  c #1F1640",
"2  c #1D1E44",
"3  c #211740",
"4  c #241B43",
"5  c #291E47",
"6  c #24194A",
"7  c #281F48",
"8  c #271A55",
"9  c #281A56",
"0  c #271A59",
"q  c #291B5A",
"w  c #361F51",
"e  c #371E58",
"r  c #1B2146",
"t  c #1B2248",
"y  c #1F2A4A",
"u  c #1C2A53",
"i  c #19335B",
"p  c #2A2049",
"a  c #202B4C",
"s  c #342040",
"d  c #222257",
"f  c #212C51",
"g  c #22255C",
"h  c #352959",
"j  c #382C5E",
"k  c #2B1C61",
"l  c #1A3461",
"z  c #2B2064",
"x  c #272D60",
"c  c #282E64",
"v  c #2E216E",
"b  c #292C6A",
"n  c #3B2E64",
"m  c #3E286C",
"M  c #323467",
"N  c #323568",
"B  c #3F336A",
"V  c #302375",
"C  c #452648",
"Z  c #4D2F55",
"A  c #503054",
"S  c #40336A",
"D  c #8F3E3F",
"F  c #8B3C33",
"G  c #913F33",
"H  c #913F34",
"J  c #944936",
"K  c #954A36",
"L  c #954A36",
"P  c #954A39",
"I  c #964A3B",
"U  c #954A39",
"Y  c #A55136",
"T  c #A55136",
"R  c #B7642F",
"E  c #B7642E",
"W  c #C7623B",
"Q  c #A36442",
"!  c #A46442",
"~  c #A56546",
"^  c #A46543",
"/  c #A7674E",
"(  c #A7674E",
")  c #B36942",
"_  c #B56A46",
"`  c #BC8639",
"'  c #A09050",
"]  c #A09050",
"[  c #DDA34C",
"{  c #DEA44C",
"}  c #DEA34C",
"|  c #F4B547",
" . c #E6B455",
".. c #E8B554",
"X. c #E8B554",
"o. c #F7CA4E",
"O. c #15538F",
"+. c #175393",
"@. c #195E96",
"#. c #0D6297",
"$. c #0E639A",
"%. c #0D7AAD",
"&. c #0D7AAD",
"*. c #0E7AB0",
"=. c #117DB3",
"-. c #5D4C96",
";. c #5D4C96",
":. c #6653A3",
">. c #6C59AC",
",. c #6C59AC",
"<. c #0C82B9",
"1. c #0C82BA",
"2. c #268FA5",
"3. c #2690A7",
"4. c #2690A6",
"5. c #2791A9",
"6. c #2991AE",
"7. c #27A1B4",
"8. c #22B1D6",
"9. c #1BC2E3",
"0. c #1BC3E5",
"q. c #1AC2E4",
/* pixels */
". . . O 6 6 . .   . .       . . . X . . . . . . . . O 6 6 . + . . . . O 6 6 . .   . . . . . . . . O . . . . . . . . . O 6 6 . . ",
". . 3 0 0 6 . O 5 O   . .   . + O 6 X . . . + . . 3 0 0 6 7 S 5 . . 3 0 0 6 . O 5 O . . .   . + O 6 X . . . + . . . 3 0 0 6 . . ",
". O 0 v 0 O   7 -.p @ O . + + h + . . . . + n + 3 v V 0 3 S >.S + O 0 v 0 O   7 -.p @ O . + + h + . . .   + n + . O 0 v 0 O . . ",
". 6 0 0 3 . . O 5 > ! > + n 3 + . . . . . . 4 a q V v 3 . 5 S 5 . 6 0 0 3 . . O p > ! > + n 3 + . .   . . . 4 a X 6 0 0 3 . . . ",
". 6 6 O . . . . @ ! ..~ @ + .   . . O . .   y 6.b 0 3 . . . + . . 6 6 O . . . . @ ! ..~ @ + . . . . O . .   y 5.a 6 6 O . . . . ",
". . . . . . . . O > ( Z O   . .   O q O . . X c 6 O + . . . . . . . . . . . . . O > ( Z O   . .   O q O . . X c X . . . . . . . ",
". . .   . . . . X q m q .   . + = + O . . . . . . + n +   . . . . . .   . . . . . 9 m q X . . + = + O .   . . . . . .   . . . . ",
"X 6 O + .   .   X 9 0 O . . . = ] =   . X X . . . . + . O . . . . 6 X O .   . . . 9 0 O . . . = ] =   . X X .   . 6 O + .   . . ",
". . + h + + . . . X X . . . . + = +   X 9 0 O . . .   O q O   . . . + q 3 + . . . X X . . . . + = + . X 9 0 3 . . . + h + + . . ",
"  . . + 3 n +   . . . . . . . . . . 2 X 0 v 0 . . . X a 3 . . .     . O 3 n 3 . . . . . . . . . . .   X 0 v 0 X   . . + 3 n +   ",
"3 . . . . + . . . . O 6 6 . + .   2 O.2 O 0 9 X .   a 5.y   . . O . .   . + . . . . O 6 6 . O .   . r . O 0 9 X O . . . . + . . ",
"z O . . .   . . . O 9 0 6 3 n + . i <.i . O 3 . . . + c X . . + q O     . . . . . O 9 0 6 3 q O . i %.i . X 3 + q O   . .   . . ",
"O + = + . . .   . 6 0 9 O . + . r %.9.%.r 5 S 5 . . . . . . . . X + = + . . . . . 6 0 9 O . O . r %.0.%.r 5 S 5 O + = + .   . . ",
"  = ] =   . . . . 6 6 O . . . . . i <.i + S >.S 3 . . . . X X .   = ] = . . . . . 6 6 O . .   . . i %.i + S >.S O = ' =   . . . ",
". + = +     .   . . . . . . . .   r O.2   5 S 7 8 X   . 3 0 9 X   + = + . . . . . . . . . . . . . . r . . 5 S 5 . + = + .   . . ",
"  . . . .     . . . . . . . . . . X 2 . . . + O 8 X   . 9 v 0 X   . . . . . . . . . . . . . . . . . . . . . + . . . . .     . . ",
"p O   o O . . O 6 6 . + . . . . O 6 6 . . .   . . . . . O 3 O . + . O # O .   O 6 6 . + . . . . O 6 6 . . .     . . . . . . . . ",
":.5 & H - O 3 0 0 6 5 S 5 . . 3 0 0 6 . . . . .     . 6 6 6 . + n + ; R ; O 3 0 0 6 5 S 5 . . 3 0 0 6 . . . . . . . . 6 6 6 . . ",
"p @ H W H 5 v V 0 3 S >.S + O 0 v 0 O . . . . . . + O 0 v 0 X . 3 # R | R s v V 0 3 S >.S + O 0 v 0 O . . .     . + O 0 v 0 X . ",
"9 O - H : q V v 3 . 5 S 5 . 6 0 0 3 . . . . .   + n 4 9 q 0 @ O 8 + ; R , q V v 3 . 5 S 5 . 6 0 0 O . . . . .   3 n 4 9 q 9 @ O ",
"q 9 O @ 6 0 0 3 . . . + . . 6 6 O . . . . . . . . + O 6 6 C U : 0 9 O # 6 0 0 3 . . . + . . 6 6 O . . . . . . . . + O 6 6 C U - ",
"q 0 X . 6 6 O + . . . . . . . . . . . . . . . . .   . X @ U { U e 0 X . 6 6 O + . . . . . . . . . . . . . . . . . . . X @ U { T ",
"0 9 X . . . + n +   . . . . . . . X . . . . . . . . X 6 6 : K : 9 9 X . . . + n +   . . . . . . . . . . . . . . . . . 6 6 : K - ",
"f + . . . . . 4 p + . . .   . + O 6 . . . . O . . . . X . O o + a + . . . . . + O + . . . X 6 O + . . . O o O X . . . X . . o   ",
"7.y . + . .   5 -.p @ O . + + h + . . . . O q O . . . + . . . f 3.y . + . . .   + n + . . . . + h + + . @ F $ 6 O . . + . . . O ",
"y X + n + . . O 5 > ! > + n 3 + . . . . . . 3 a 6 6 7 S 5 . O z f X + n +   . X a 4 . . .   . . + 3 n + , ) , + 6 6 5 S 5 . O z ",
"  X O + . . . . @ ! ..~ @ + .   . . + . .   y 6.b 6 S >.S + . O . X O + . .   a 5.y   . . O . .   . + @ ~  .! $ 9 8 S >.S + . + ",
"X 9 9 O X . . . O > ( Z O   . . . O q + . . X c q 6 5 S 5 . + . X 9 9 O . . . + c X . . O q O   . .   O A _ , + 9 6 5 S 5 . + . ",
"O 9 q q 9 . . . X q m q .   . + = + O .   . . O 6 X . + . + n + X 9 q q 9 X . . . . . . . O + = + . . X w D w X 6 X . + . + n 4 ",
". O q v q O .   X 9 0 3 . .   = ' =   . X . . . . . . . . . + . . 3 q v q 3 . . . . X X .   = ] = . . . + w 9 X . . . . . . + . ",
". X 0 k q 9 X . . X . .     . + = + . X 9 0 3 . . . . . . . . . . X 0 k q 9 X . . 3 0 9 .   + = + . . . . X X . . . . . . X . . ",
". 4 9 0 0 9 X . .     . . .   . . .   X 0 v 0 X . . . . 3 0 9 X . 4 9 0 0 9 X   . 0 v 0 .     . .   . . . . . . . . . . 3 0 9 X ",
"4 n 4 X X X .   . . O 6 6 . + . . . r . O 0 9 X . . . X 0 v 9 . + n 4 X X X . . X 9 0 O . 2 . . . + . 6 6 O . . . . . X 0 v 9 X ",
". 3 . . + . . . . O 9 0 6 3 n + . i %.i . X 3 . .     X 9 q f X . + . . + . . . . 3 X . u @.u . + n 3 6 0 9 O . . . . X 9 q f X ",
". X 6 3 h + . . . 6 0 9 O . + . r %.0.%.r 5 S 5 . + . . . a 3.y   X 6 3 h +   . 5 S 5 2 @.8.@.2 . + . O 9 0 6 . . + . . . a 2.a ",
". 6 z 6 + . . 6 X 6 6 O . . . . . i %.i + S >.S 5 n +     X y X . 6 z 6 + .   + S >.S + u @.u . .   . . O 6 6 . + n + . . X y X ",
". O 6 X . . . 6 . . . . . . . .   . r . . 5 S 5 . + . . . O . . . O 6 X . . . . 5 S 5 . . 2 . . . . . . . . . . . + . . . O . . ",
". . . . . . . . . . + . . . . . . .   .   . + . .   . . O q + . . . . . . . . . . + X . .   . . . . . . .   . . .   . . O q + . ",
". . . . . . . . . + n +   . . . . . . . X X .   . . + . . O . . . . . . . . . . . . 6 . . . . . . . . . X X . . . . + . . O . . ",
". . . . . . . . . . + . . + . . . .   X 9 9 X   . + h + . . . . . . . . . . . . . . . . . + . . . . . X 9 9 X   . + h + . . . . ",
". . . O 6 6 . . X t X   + h +   . . . X 9 9 X   . . + . . . . . . .   . . . + . X y X   + h +   . . . X 9 9 X   . . + O 6 6 . . ",
". . 3 0 0 6 .   t #.t   O 3 . . . . . . X X . . . . . . . . . .   . r . . 5 S 5 a 3.y   O 3 . . . . . . X X . . . . O 0 0 6 . . ",
". O 0 v 0 O . . X t X X 9 0 O . . . o .   . + . . 6 6 O . .   . + i %.i 4 S >.S + y X X 9 0 O . . . o     . + . . O 0 v 0 O . . ",
". 6 0 0 O . . . .   . X 0 v 0 X   - K - O 5 S 5 . 6 0 9 O . + + M =.0.=.N p S 5 .     X 0 v 0 X   - K - O 5 S 5 . 6 0 0 O . . . ",
". 6 6 O . . . . . + . . 3 0 9 X o K { K @ B >.S + O 9 0 6 3 n 3 + i %.i + O 3 . . O . . 3 0 9 X o K { K @ B >.S + 6 6 O . . . . ",
". . . . . . .   + n +   . X X . O - K - O 5 S 7 . . O 6 6 . + .   . r . O 0 9 . O q O   . X X . O - K - O 5 S 7 . . . . . . . . ",
". X . . . . . . . + . . . . .   . . o O . O 6 6 .   . . . .   . . .   X 0 v 0 X . O . . . . .   . . o O . O 6 6 . . . . . . . . ",
"X 6 O + . . . . . . O . . . . + . . X 6 6 0 0 6 . X X . . . . + = + . X 9 0 3 . . . O . . . O 7 O . X 6 6 0 0 6 O 6 O + . . . . ",
". . + h + + . . . O q O     + n + . 6 0 q q 0 O X 9 0 O . . . = ' =   . X X . .   O q O .   7 -.5 . 6 0 q q 0 O . . + h + + . . ",
"  . . + 3 n + . . . O . . . . 3 . . 6 q v q 6 . . q m 9 . . . + = + O . . . . . . . O . . . + 7 O . 6 q v q 6 .     . + 3 n + . ",
"+ . . . . + . . . . . . . . . . . O 9 q q 0 6 . O > ( Z O   . .   O q O . . X g X . . . . . .   . O 9 q q 0 6 X O . .   . + . . ",
"z O   . . . . . . . . . . . . . . 6 0 q g 6 O . @ ! ..~ @ + . . . . O . .   t $.t   . . . . . . . 6 0 0 g 6 O O q O     . . . . ",
"O + = + . . . . . X X . . + . . . 6 6 l *.i . O p > ! > + n 4 + . . . . . . 4 t X X X . . O . . . 6 d l *.i 2 . O + = + . . . . ",
"  = ] = . . . . X 9 0 O + n +   . . t %.0.%.t 7 -.p @ O . + + h + . . .   + n + X 9 0 O O q O   . 2 +.<.0.<.+.2   = ] = . . . . ",
". + = + . . . . X 0 v 0 O + . . . . . i %.l z 3 5 O . . .   . + O 6 X . . . + . X 0 v 0 O O . . . . 2 i %.l b 3   + = + . . . . ",
". .   . . . . . . 1 0 0 6 . . . . . . . r . O .     . . . . . . . . . . X O X . . 1 0 0 6 . . . . .   . r . O . . . . . . . . . ",
".   . . . . . . O * + 6 6 . . . . . . .   . + . . + O 6 6 O . . . . . X 0 v 9 . O % + 6 6 . . . . . . .   . . . . . . . . . . . ",
"    . 6 6 6 . O < ` < + . . . . . . . . . 4 n + + n 4 6 0 9 O . .   . X 9 0 3 O < ` < O . . . . . . . . X O 6 X . . . 6 6 6 . . ",
". + O 0 v 0 X % ` o.` % . . . . . + . O 9 9 4 . . + . O 9 0 6 . . + . . X X . * ` o.` % . . . . . + . O 9 9 O . . + O 0 v 0 X . ",
"3 n 4 9 q 9 @ O < ` < + . . .   + n 3 6 0 9 X . . . . . O 6 6 . + n + . .   . O < ` < + . . .   + n 3 6 0 9 X   + n 6 9 q 9 @ O ",
". + O 6 6 C U - O % + q O   . . . + O 6 6 6 . . . . . . . . . . . + . . . O . . O % + q O   . . . + O 6 6 6 . . . + O 6 6 C U - ",
". . . X @ U { K o . . O . . . . .   . . . . . . . . . .     . . .   . . O q + . . . . O . . . . .   . . . . . . .   . X @ U { T ",
". . . 6 6 : K - . . .   . . . . . . . . . . . . . . . . X X . . . . + . . + . . . . .   . . . . . . . . . . . . . . . 6 6 : J - ",
". . . O . O o O . . . . . . . . . . . . . . . . . . . X 9 9 X . . + j + . . . . . . . . . . . . . . . . . . . . . . . O . O o O "
};
