/* XPM */
static char *a5ogx_o2cjf[] = {
/* columns rows colors chars-per-pixel */
"64 64 121 2 ",
"   c #1E1537",
".  c #1E1639",
"X  c #1E193C",
"o  c #2C1A37",
"O  c #20173D",
"+  c #221A3E",
"@  c #2E1C3A",
"#  c #321E37",
"$  c #331F39",
"%  c #322337",
"&  c #33223B",
"*  c #342A3C",
"=  c #412437",
"-  c #4B2C34",
";  c #412339",
":  c #462C3D",
">  c #4D2C3A",
",  c #4C3638",
"<  c #4F3838",
"1  c #503839",
"2  c #1F1640",
"3  c #1D1F45",
"4  c #201740",
"5  c #241B43",
"6  c #281E47",
"7  c #24194A",
"8  c #281F48",
"9  c #311F41",
"0  c #271A55",
"q  c #281A56",
"w  c #271A59",
"e  c #291B5A",
"r  c #371E58",
"t  c #1B2146",
"y  c #1C234A",
"u  c #1F2A4A",
"i  c #18335B",
"p  c #2A2047",
"a  c #20224A",
"s  c #2A2049",
"d  c #202B4C",
"f  c #342040",
"g  c #262551",
"h  c #212C51",
"j  c #22255C",
"k  c #352959",
"l  c #382C5E",
"z  c #2B1C61",
"x  c #1A3460",
"c  c #2B2064",
"v  c #272D60",
"b  c #282E64",
"n  c #2E216E",
"m  c #292E69",
"M  c #3B2E64",
"N  c #3B246A",
"B  c #3E286C",
"V  c #3F336A",
"C  c #302375",
"Z  c #302374",
"A  c #452648",
"S  c #452648",
"D  c #492650",
"F  c #4D2F55",
"G  c #403269",
"H  c #40336A",
"J  c #40336B",
"K  c #41336D",
"L  c #40346C",
"P  c #40336A",
"I  c #954433",
"U  c #944936",
"Y  c #954A36",
"T  c #954A36",
"R  c #98463D",
"E  c #954A39",
"W  c #964A3B",
"Q  c #954A39",
"!  c #9D5B3E",
"~  c #A55136",
"^  c #A55136",
"/  c #B7642E",
"(  c #B7642F",
")  c #A46442",
"_  c #A56546",
"`  c #A7674E",
"'  c #BC8639",
"]  c #DE8232",
"[  c #CE903B",
"{  c #A09050",
"}  c #A09050",
"|  c #DDA34C",
" . c #DEA44C",
".. c #DEA34C",
"X. c #F4B547",
"o. c #E8B554",
"O. c #F6CA4E",
"+. c #155491",
"@. c #0D6297",
"#. c #0E639A",
"$. c #0A6CA3",
"%. c #0A6DA5",
"&. c #0D7AAD",
"*. c #0D7AAD",
"=. c #0E7AB0",
"-. c #5D4C96",
";. c #5D4C96",
":. c #6653A3",
">. c #6C59AC",
",. c #6C59AC",
"<. c #0C82BA",
"1. c #0A86BD",
"2. c #268FA5",
"3. c #2690A7",
"4. c #2690A6",
"5. c #2791A9",
"6. c #2791A9",
"7. c #2991AE",
"8. c #1BC2E3",
"9. c #1BC3E5",
"0. c #1BC2E4",
/* pixels */
". . . O 7 7 . .   . .       . . . X . . . . . . . . O 7 7 . + . . . . O 7 7 . .   . . . . . . . . O . . . . . . . . . O 7 7 . . ",
". . 4 w w 7 . O 8 O   . .   . + O 7 X . . . + . . 4 w w 7 8 H 6 . . 4 w w 7 . O 8 O . . .   . + O 7 X . . . + . . . 4 w w 7 . . ",
". O w n w O   8 -.p @ O . + + k + . . . . + M + 4 n Z w 4 H >.H + O w n w O   8 -.s @ O . + + k + . . .   + M + . O w n w O . . ",
". 7 w w 4 . . O 8 : ) : + M 4 + . . . . . . 5 d e Z n 4 . 6 H 6 . 7 w w 4 . . O p : ) : + M 4 + . .   . . . 5 t X 7 w w 4 . . . ",
". 7 7 O . . . . @ ) o._ @ + .   . . O . .   u 7.m w 4 . . . + . . 7 7 O . . . . @ ) o._ @ + . . . . O . .   y #.t 5 7 O . . . . ",
". . . . . . . . O : ` F O   . .   O e O . . X b 7 O + . . . . . . . . . . . . . O : ` F O   . .   O e O . . X j X . . . . . . . ",
". . .   . . . . X e B e .   . + * + O . . . . . . + M +   . . . . . .   . . . . . e B e X . . + * + O . . . . . . . .   . . . . ",
"X 7 O + .   . . X q w O . . . * } *   . X X . . . . + O + . . . . 7 O + .   . . . q w O . . . * } *   . X X . . . 7 O + .   . . ",
". . + k + + . . . X X . . . . + * + . X q w O . . .   + M +   . . . + k + + . . . X . . . . . + * + . X q w 4 . . . + k + + . . ",
"  . . + 4 M +   . . . . . . . . . .   X w n w . . . X d 5 . . .     . + 4 M + . . . . . . .   . . .   X w n w X   . . + 4 M +   ",
"4 . . . . + . . . . O 7 7 . + . . . t . O w q . .   d 6.u   . . O . .   . + . . . . O 7 7 O + .   . t . O w q O O . . . . + . . ",
"c O . . .   . . . O q w 7 4 M + . i &.i . O 4 . . . + b X     O e O     . . . . . O q w 7 5 M 4 3 i &.i t X 4 + e O   . .   . . ",
"O + * + . . .   . 7 w q O . + . t &.0.&.t 6 H 6 . . . . . . . . X + * + . . . . . 7 w q O . + 3 +.<.8.<.+.g H 6 O + * + .   . . ",
"  * } *   . . . . 7 7 O . . . . . i &.i + H >.H 4 . . . . X X .   * } * . . . . . 7 7 O . .   . 3 i &.i a L >.H O * { *   . . . ",
". + * +     .   . . . . . . . . . . t . . 6 H 8 0 X . . 4 w q X   + * + . . . . . . . . . . . .   . t .   6 H 6 . + * + .   . . ",
"  . . . .     . . . . . . . . . . . . . . . + O 0 X   . q n w X   . . . . . . . . . . . . . . . . . . . . . + . . . . .     . . ",
"s . O # O . . O 7 7 . + . . . . O 7 7 . . .   . . . . . O 4 O . + . O # O . . O 7 7 . + . . . . O 7 7 . . .   . . . . . . . . . ",
":.p - ( - O 4 w w 7 8 H 6 . . 4 w w 7 . . . . .     . 7 7 7 . + M + - ( - O 4 w w 7 8 H 6 . . 4 w w 7 . . . . . . . . 7 7 7 . . ",
"s $ ( X.( f n Z w 4 H >.H + O w n w O . . . . . . + O w n w X . 4 # ( X.( f n Z w 4 H >.H + O w n w O . . . . . . + O w n w X . ",
"q + - ( > e Z n 4 . 6 H 6 . 7 w w 4 . . . . .   + M 5 q e w @ O 0 + - ( > e Z n 4 . 6 H 6 . 7 w w O . . . . .   4 M 5 q e q @ O ",
"e q O # 7 w w 4 . . . + . . 7 7 O . . . . . . . . + O 7 7 S Q ; w q O # 7 w w 4 . . . + . . 7 7 O . . . . . . . . + O 7 7 S Q = ",
"e w X . 7 7 O + . . . . . . . . . . . . . . . . .   . X @ Q  .Q r w X . 7 7 O + . . . . . . . . . . . . . . . . . . . X @ Q  .^ ",
"w q X . . . + M +   . . . . . . . X . . . . . . . . X 7 7 ; Y ; q q X . . . + M +   . . . . . . . . . . . . .   . . . 7 7 ; Y = ",
"y X . .   . . 5 s + . . .   . + O 7 . . . . + . . . . X . O o + d + . . . . . + O + . . . X 7 O + . . . . . O 8 + . . X . . o   ",
"$.t . + . .   8 -.p @ O . + + k + . . .   + M + . . . + . . . h 4.u . + . . .   + M + . . . . + k + + . O @ s -.8 . . + . . . O ",
"y X + M +   . O 8 : ) : + M 5 + . . . . . . 5 d 7 7 8 H 6 . O c h X + M +   . X d 5 . . .   . . + 4 M + : ) : s 7 7 8 H 6 . O c ",
". X O 4 . . . . @ ) o._ @ + .   . . O . .   u 7.m 7 K >.H + . O . X O 4 . .   d 6.u   . . O . .   . + @ _ o.) @ q 0 K >.H + . O ",
"X q q O X . . . O : ` F O   . . . O e O . . X b e 7 8 H 6 . + . X q q O X . . + b X . . O e O   . .   O F ` : + q 7 8 H 6 . + . ",
"O q e e q . . . X e B e .   . + * + O .   . . O 7 X . + . + M + X q e e q X . . . . . . . O + * + . . X e B e O 5 X . + . + M 5 ",
". O e n e O .   X q w 4 . . . * { *   . X X . . . . . . . . + . . 4 e n e 4 . . . . X X .   * } * . . . O w q O . . . . . . + . ",
". X w z e q X . . X . .     . + * +   X q w 4 . . . . . . . . . . X w z e q X . . 4 w q .   + * + . . . . X X . . . . . . X . . ",
". 5 q w w q X . .     . . .   . . X t X w n w X . . . . 4 w q X . 5 q w w q X   . w n w .     . .   . . . . . . . . . . 4 w q X ",
"5 M 5 X X X . . . . O 7 7 . + .   y $.y O w q X . . . X w n q . + M 5 X X X . . X q w O . t .   . + . 7 7 O . . . . . X w n q X ",
". 4 . . + . . . . O q w 7 4 M + . i 1.i . X 4 . . .   X q e y X . + . . + . . . . 4 O . i &.i . + M 4 7 w q O . . . . X q e h X ",
". X 7 4 k + . . . 7 w q O . + . t &.8.&.t 6 H 6 . + . . . t @.y   X 7 4 k +   . 6 H 6 t &.0.&.t . + . O q w 7 . . + . . . d 2.d ",
". 7 c 7 + . . 5 X 7 7 O . . . . . i 1.i + H >.H 5 M +     X y X . 7 c 7 + .   + H >.H + i &.i . .   . . O 7 7 . + M + . . X u X ",
". O 7 X . . . 5 . . . . . . . .   y $.y   6 H 6 . + . . . O . . . O 7 X . . . . 6 H 6 . . t . . . . . . . . . . . + . . . O . . ",
". . . . . . . . . . + . . . . . . X t X   . + . .   . . O e + . . . . . . . . . . + 4 . .   . . . . . . .   .   .   . . O e + . ",
". . . . . . . . . + M +   . . . . .   . X X .   . . + . . + . . . . . . . . . .   + M +   . . . . . . . X X . . . . + . . O . . ",
". . . . . . . . . . + . . + . . . .   X q q X   . + k + . . . . . . . . . . . . . . + . . + . . . . . X q q X   . + k + . . . . ",
". . . O 7 7 . . X u X   + k +   . . . X q q X   . . + . . . . . . .   . . . + . X u X   + k +   . . . X q q X   . . + O 7 7 . . ",
". . 4 w w 7 .   u 4.u   O 4 . . . . . . X X . . . . . . . . . . . . t . . 6 H 6 d 4.u   O 4 . . . . . . X X . . . . O w w 7 . . ",
". O w n w O . . X u X X q w O . . . o     . + . . 7 7 O . .   . . i &.i + H >.H + u X X q w O . . . o .   . + . . O w n w O . . ",
". 7 w w O . . . .   . X w n w X   = Y = O 6 H 6 . 7 w q O . + . t &.0.&.t 6 H 6 .     X w n w X   = Y = O 6 H 6 . 7 w w O . . . ",
". 7 7 O . . . . . + . . 4 w q X o Y  .Y @ V >.H + O q w 7 4 M + . i &.i . O 4 . . + . . 4 w q X o Y  .Y @ V >.H + 7 7 O . . . . ",
". . . . . . .   + M +   . X X . O = Y = O 6 K 8 . . O 7 7 . + . . . t . 4 w q . + M +   . X X . O = Y = O 6 K 8 . . . . . . . . ",
". X . . . . . . . + . . . . .   . . o O . O 7 7 .   . . . .   . . .   . w n w X . + . . . . .   . . o O . O 7 7 . . . . . . . . ",
"X 7 O + . . . . . . O . . . O 8 O . X 7 7 w w 7 . X X . . . . + * + . X q w 4 . . . O . . . . + . . X 7 7 w w 7 O 7 O + . . . . ",
". . + k + + . . . O e O     8 -.8 . 7 w e e w O X q w 4 . . . * { *   . X X . . . O e O . . + M + . 7 w e e w O . . + k + + . . ",
"  . . + 4 M + . . . O . . . + 8 O . 7 e n e 7 . X w N w X . . + * + O . . . . . . . O . . . . 4 . . 7 e n e 7 .     . + 4 M + . ",
"+ . . . . + . . . . . . . . .   . O q e e w 7 . O ; R D O   . .   O e O . . X b +     . . . . . . O q e e w 7 X O . .   . + . . ",
"c O   . . . . . . . . . . . . . . 7 w w j 7 O . o I ] I @ + .   . . O . .   u 6.d     . . . . . . 7 w e j 7 O + e O     . . . . ",
"O + * + . . . . . X X . . + . . . 7 7 x =.i . . + = I = + M 5 + . . . . . . 5 d X X X . . + . . . 7 7 x =.i . . O + * + . . . . ",
"  * } * . . . . X q w O + M +   . . t &.0.&.y 4 M + o . . + + k + . . .   + M + X q w O + M +   . . t &.0.&.y .   * } * . . . . ",
". + * + . . . . X w n w O + . . . . . i &.x c 4 + . . . .   . + O 7 X . . . + . X w n w O + . . . . . i &.x c O   + * + . . . . ",
". .   . . . . . . 2 w w 7 . . . . . . . t . O .     . . . . . . . . . . X O X . + f e w 7 . . . . . . . t . O . . . . . . . . . ",
".   . . . . . . O % + 7 7 . . . . . . .   . + . . + O 7 7 O . . . . . X w n q . % ! & 7 7 . . . . . . .   . + . . . . . . . . . ",
"    . 7 7 7 . O , ' , + . . . . .   . . . 5 M + + M 5 7 w q O . .   . X q w 4 O < [ < O . . . . .   . . . 5 M + .   . 7 7 7 . . ",
". + O w n w X % ' O.' % . . . . O 8 O O q q 5 . . + . O q w 7 . . + . . X X . % ' O.' % . . . . O 8 O O q q 5 . . + O w n w X . ",
"4 M 5 q e q @ O , ' , + . . .   8 -.8 7 w q X . . . . . O 7 7 . + M + . .   . O < [ < + . . .   8 -.8 7 w q X   + M 7 q e q @ O ",
". + O 7 7 S Q = O % + e O   . . O 8 + 5 7 7 . . . . . . . . . . . + . . . O . . % ! & e O   . . O 8 + 5 7 7 . . . + O 7 7 S Q = ",
". . . X @ Q  .Y o . . O . . . . .   . . . . . . . . . .     . . .   . . O e + . O @ O O . . . . .   . . . . . . . . . X @ Q  .^ ",
". . . 7 7 ; Y = . . .   . . . . . . . . . . . . . . . . X X . . . . + . . + . . . . . . . . . . . . . . . . . . . . . 7 7 ; U = ",
". . . O . O o O . . . . . . . . . . . . . . . . . . . X q q X . . + l + . . . . . . . . . . . . . . . . . . . . . . . O . O o O "
};
