/* XPM */
static char *a19q3_mum6q[] = {
/* columns rows colors chars-per-pixel */
"64 64 129 2 ",
"   c #1E1537",
".  c #1E1639",
"X  c #1F193C",
"o  c #201737",
"O  c #2C1A37",
"+  c #20173D",
"@  c #22193E",
"#  c #2E1C3A",
"$  c #311E37",
"%  c #321E3B",
"&  c #322337",
"*  c #3F2136",
"=  c #33213B",
"-  c #342A3C",
";  c #412337",
":  c #4B2B34",
">  c #412339",
",  c #462C3D",
"<  c #4B2D3C",
"1  c #4C3638",
"2  c #1F1640",
"3  c #1D1E44",
"4  c #1E1E48",
"5  c #201740",
"6  c #241B43",
"7  c #281F47",
"8  c #24194A",
"9  c #281F48",
"0  c #271A55",
"q  c #281A56",
"w  c #271A59",
"e  c #291B5A",
"r  c #351E54",
"t  c #371E58",
"y  c #1B2146",
"u  c #1C234A",
"i  c #1F2A4A",
"p  c #1D2A54",
"a  c #1E2B59",
"s  c #19335B",
"d  c #2A2047",
"f  c #20224A",
"g  c #2A2048",
"h  c #202B4C",
"j  c #342040",
"k  c #3A2549",
"l  c #262551",
"z  c #212C51",
"x  c #222358",
"c  c #352959",
"v  c #382C5E",
"b  c #2A1D60",
"n  c #1A3663",
"m  c #2B2064",
"M  c #262C61",
"N  c #282E64",
"B  c #27276B",
"V  c #2E216E",
"C  c #292E69",
"Z  c #3B2E64",
"A  c #3E286C",
"S  c #323467",
"D  c #3F336A",
"F  c #302375",
"G  c #452648",
"H  c #4D2F55",
"J  c #503055",
"K  c #40336A",
"L  c #8C3C37",
"P  c #8C3D35",
"I  c #913F34",
"U  c #944936",
"Y  c #954A36",
"T  c #954A36",
"R  c #954A39",
"E  c #964A3B",
"W  c #954A39",
"Q  c #A55136",
"!  c #A55136",
"~  c #B7642E",
"^  c #B7642F",
"/  c #C7623B",
"(  c #A46442",
")  c #A56546",
"_  c #A46543",
"`  c #A7674E",
"'  c #A7664E",
"]  c #A7674E",
"[  c #B36941",
"{  c #B46A45",
"}  c #BC8639",
"|  c #A09050",
" . c #A09050",
".. c #DDA34C",
"X. c #DEA44C",
"o. c #DEA34C",
"O. c #F4B547",
"+. c #E6B454",
"@. c #E8B554",
"#. c #E8B554",
"$. c #F7CA4E",
"%. c #155491",
"&. c #155591",
"*. c #195E96",
"=. c #1A5E99",
"-. c #0A6DA5",
";. c #0D6FAF",
":. c #0D7AAD",
">. c #0D7AAD",
",. c #117DB3",
"<. c #5D4C96",
"1. c #5C4C96",
"2. c #5D4C96",
"3. c #6653A3",
"4. c #6C59AC",
"5. c #6C59AC",
"6. c #0C82BA",
"7. c #0A86BD",
"8. c #268FA5",
"9. c #2690A7",
"0. c #2690A6",
"q. c #2791A9",
"w. c #2791A9",
"e. c #2991AE",
"r. c #27A1B4",
"t. c #22B1D6",
"y. c #1BC2E3",
"u. c #1BC3E5",
"i. c #1BC2E4",
/* pixels */
". . . + 8 8 . .   . .       . . . X . . . . . . . . + 8 8 . @ . . . . + 8 8 . .   . . . . . .   . X . . . . . . . . . + 8 8 . . ",
". . 5 w w 8 . + 9 +   . .   . @ + 8 . . . . @ . . 6 w w 8 7 K 7 . . 5 w w 8 . + 9 + . . .   . @ + 8 X . . . @ . . . 5 w w 8 . . ",
". + w V w +   9 <.d # + . @ @ c @ . . . . @ Z @ 6 V F w 6 K 4.K @ + w V w +   9 <.g # + . @ @ c @ . . .   @ Z @ . + w V w + . . ",
". 8 w w 5 . . + 9 , ( , @ Z 6 @ . . . . . . 6 h e F V 6 . 7 K 7 . 8 w w 5 . . + d , ( , @ Z 6 @ . .   . . . 6 h X 8 w w 5 . . . ",
". 8 8 + . . . . # ( @.) # @ .   . . + . .   i e.C w 6 . . . @ . . 8 8 + . . . . # ( @.) # @ . . . . + . .   i w.h 8 8 + . . . . ",
". . . . . . . . + , ` H +   . .   + e + . . X N 8 + @ . . .   . . . . . . . . . + , ` H +   . .   + e + . . X N X . . . . . . . ",
". . .   . . . . X e A e .   . @ - @ + . . . . . . @ Z @   . . . . . .   . . . . . q A e X . . @ - @ + . . . . . . . .   . . . . ",
"X 8 + @ .   . . X q w + .   . - | -   . X X . . . . @ . @ . .   . 8 + @ . . . . . q w 5 . . . -  .-   . X X .   . 8 + @ .   . . ",
". . @ c @ @ . . . X X . . . . @ - @ . X q w 5 . . .   @ Z @   . . . @ c @ . . . . X X . . . . @ - @ . X q w 5 . . . @ c @ @ . . ",
"  . . @ 6 Z @   . . . . . . . . . .   X w V w . . . X h 6 . . .     . @ + 8 X . . . . . . . . . . .   X w V w X     . @ 6 Z @   ",
"5 . . . . @ . . . . + 8 8 . @ .   . y . + w q X .   h w.i   . . + . .   . X . . . . + 8 8 . + .   . y . + w q X + . .   . @ . . ",
"m + . . .   . . . + q w 8 6 Z 6 3 s :.s 3 X 6 . . . @ N X     + e +     . . . . . + q w 8 6 e + . s :.s . X 6 @ e +   . .   . . ",
"+ @ - @ . . .   . 8 w q + . @ 3 &.6.y.6.&.l K 7 . . . . . . . . X @ - @ . . . . . 8 w q + . + . y :.u.:.y 7 K 7 + @ - @ .   . . ",
"  -  .-   . . . . 8 8 + . .   . 3 s :.s f K 4.K @ . . . . X X .   -  .- . . . . . 8 8 + . .   . . s :.s @ K 4.K + - | -   . . . ",
". @ - @     .   . . . . . . . .   . y .   7 K 9 0 X . . 5 w q X   @ - @ . . . . . . . . . . . . . . y . . 7 K 7 . @ - @ .   . . ",
"  . . . .     . . . . . . . . . . . . . . . @ + 0 X   . q V w X   . . . . . . . . . . . . . . . . . . . . . @ . . . . .     . . ",
"g . o $ + . . + 8 8 . @ . . . . + 8 8 . . .   . . . . . + 6 X @ 9 . + $ + .   + 8 8 . @ . . . . + 8 8 . . .   . . . . . . . . . ",
"3.d : ^ : + 6 w w 8 9 K 7 . . 5 w w 8 . . . . .     . 8 8 8 . 9 <.d : ^ : + 6 w w 8 9 K 7 . . 5 w w 8 . . . . . . . . 8 8 8 . . ",
"g $ ^ O.^ j V F w 6 K 4.K @ + w V w + . . . . . . @ + w V w X + 9 $ ^ O.^ j V F w 6 K 4.K @ + w V w + . . . . . . @ + w V w X . ",
"q @ : ^ < e F V 6 . 7 K 7 . 8 w w 5 . . . . .   @ Z 6 q e w # + 0 @ : ^ < e F V 6 . 7 K 7 . 8 w w + . . . . .   6 Z 6 q e q # + ",
"e q + $ 8 w w 6 . . . @ . . 8 8 + . . . . . . . . @ + 8 8 G R > w q + $ 8 w w 6 . . . @ . . 8 8 + . . . . . . . . @ + 8 8 G R ; ",
"e w X . 8 8 + @ . . . . . . . . . . . . . . . . .   . X # R X.R t w X . 8 8 + @ . . . . . . . . . . . . . . . . . . . X # R X.! ",
"w q X . . . @ Z @   . . . . . . . X . . . .   . . . . 8 8 > Y > q q X . . . @ Z @   . . . . . . . . . . . . .   . . . 8 8 > Y ; ",
"z @ . . . . . 6 9 . . . .   . @ + 8 X . . . @ . . . . X . + O @ h X . . . . . @ . @ . . . . 8 + @ . . . . . + 9 + . . X . . O   ",
"r.i . @ . .   9 <.d # + . @ @ c @ . . .   @ Z @ . . . @ . . . z 0.i . @ . . .   @ Z @ . . . . @ c @ @ . . # g <.9 . . @ . . . + ",
"h X @ Z @   . + 9 , ( , @ Z 6 @ . . . . . . 6 h 8 8 9 K 7 . + m z X @ Z @   . X h 6 . . .   . . @ 6 Z = , ( < k 8 8 9 K 7 . + m ",
"  X + @ . . . . # ( @.) # @ .   . . + . .   i e.C 8 K 4.K @ . + . X + 6 . .   h w.i   . . + . .   . % P { +.[ P r 0 K 4.K @ . + ",
"X q q + X . . . + , ` H +   . . . + e + . . X N e 8 9 K 7 . @ . X q q + . . . @ N X . . + e +   . . o $ J ` < % q 8 9 K 7 . @ . ",
"+ q e e q . . . X e A e .   . @ - @ + .   . . + 8 X . @ . @ Z @ X q e e q X . . . . . . . + @ - @ . . X e A e X 6 X . @ . @ Z 6 ",
". + e V e + .   X q w 5 . .   - | -   . X . . . . . . . . . @ . . 5 e V e 5 . . . . X X .   -  .- . . . 5 w q X . . . . . . @ . ",
". X w b e q X . . X . .     . @ - @ . X q w 5 . . . . . . . . . . X w b e q X . . 5 w q .   @ - @ . . . . X X . . . . . . X . . ",
". 6 q w w q X . .     . . .   . . .   X w V w X . . . . 5 w q X . 6 q w w q X   . w V w .     . .   . . . . . . . . . . 5 w q X ",
"6 Z 6 X X X . . . . + 8 8 . @ . . . y . + w q X . . . . w V q . @ Z 6 X X X . . X q w + . y .   . @ . 8 8 + . . . . . X w V q X ",
". 6 . . @ . . . . + q w 8 6 Z @ . s :.s . X 6 . .     X q e z X . @ . . @ . . . . . . . s :.s . @ Z 6 8 w q + . . . . X q e z X ",
". X 8 6 c @ . . . 8 w q + . @ . y :.u.:.y 7 K 7 . @ . . . h 0.i   X 8 6 c @   . + 9 + y :.u.:.y . @ . + q w 8 . . @ . . . h 8.h ",
". 8 m 8 @ . . 6 X 8 8 + . . . . . s :.s @ K 4.K 7 Z @     X i X . 8 m 8 @ . .   9 <.9 . s :.s .     . . + 8 8 . @ Z @ . . X i X ",
". + 8 X . . . 6 . . . . . . . .   . y . . 7 K 7 . @ . . . + . . . + 8 X . . . . @ 9 .   . y . . . . . . . . . . . @ . . . + . . ",
". . . . . . . . . . @ . . . . . . .   .   . @ . . . .   + e @ . . . . . . . . . . . @ . .   . . . . . . .   .   .   . . + e @ . ",
". . . . . . . . . @ Z @   . . . . . . . X X .   . . @ . . @ . . . . . . . . . . . @ Z @   . . . . . . . X X . . . . @ . . + . . ",
". . . . . . . . . . @ . . + . . . .   X q q X   . @ c @ . . . . . . . . . . . . . . @ . . @ . . . . . X q q X   . @ c @ . . . . ",
". . . + 8 8 . . X i X   + e +   . . . X q q X   . . @ . . . . . . . @ . . . @ . X i X   @ c @ . . . . X q q X   . . @ + 8 8 . . ",
". . 5 w w 8 .   i 0.i   + 6 . . . . . . X X . . . . . . . . . .   @ S @ . 7 K 7 h 0.i   + 6 . . . . . . X X . . . . + w w 8 . . ",
". + w V w + . . X i X X q w + . . . O     . @ . . 8 8 + . . . . . s ,.s @ K 4.K @ i X X q w 5 . . . O     . @ . . + w V w + . . ",
". 8 w w + . . . .   . X w V w X   ; Y ; + 7 K 7 . 8 w q + . .   y :.u.:.y 7 K 7 .     . w V w X   ; Y ; + 7 K 7 . 8 w w + . . . ",
". 8 8 + . . . . . @ . . 5 w q X O Y X.Y # D 4.K @ + q w 8 + 8 . . s ,.s . + 6 . . @ . . 5 w q X O Y X.Y # D 4.K @ 8 8 + . . . . ",
". . . . . . .   @ Z @   . X X . + ; Y ; + 7 K 9 . . + 8 8 . . .   @ S @ + w q . @ Z @   . . X . + ; Y ; + 7 K 9 . . . . . . . . ",
". X .   . . . . . @ . . . . .   . . O + . + 8 8 .   . . . . . . . . @ + w V w X . @ . . . .     . . O + . + 8 8 . . . . . . . . ",
"X 8 + + . . . . . . + . . . + 9 + . X 8 8 w w 8 . X X . . . . @ - @   X q w 5 . . . + . . . + 9 + . X 8 8 w w 8 + 8 + @ . . . . ",
". . + e 6 @ . . . + e +     9 <.9 . 8 w e e w + X q w + . . . - | -   . X X . . . + e +     9 <.9 . 8 w e e w + . . @ c @ @ . . ",
"  . . + 6 Z @ . . . + . . . @ 9 + . 8 e V e 8 . . e A q . . . @ - @ + . . . . . . . + . . . @ 9 + . 8 e V e 8 .     . @ 6 Z @ . ",
"@ . . . . @ . . . . . . . . .   . + q e e w 8 . + , ` H +   . .   + e + . . X N @   . . . . .   . + q e B e 8 . + . .   . @ . . ",
"m + . . . . . . . . . . . . . . . 8 w w x 8 + . # ( @.) # @ . . . . + . .   i w.h   . . . . . . . 8 w B ;.x + @ e +     . . . . ",
"+ @ - @ . . . . . X X . . @ . . . 8 8 a =.p . + g , ( , @ Z 6 @ . . . . . . 6 h X X X . . @ . . . 8 8 n 7.s . . + @ - @ . . . . ",
"  -  .- . . . . X q w + @ Z @   . . 3 *.t.=.4 9 <.g # + . @ @ c @ . . .   @ Z @ X q w + @ Z @   . . u :.y.:.u .   -  .- . . . . ",
". @ - @ . . . . X w V w + @ . . . . . p *.a b 6 9 + . . .   . @ + 8 X . . . @ . X w V w + @ . . . . . s 7.n m +   @ - @ . . . . ",
". .   . . . . . . 5 w w 8 . . . . . . . 3 . + .     . . . . . . . . . . X + X . . 2 w w 8 . . . . .   u -.u + . . . . . . . . . ",
".   . . . . . . . # + 8 8 . . . . . . .   . @ . . @ + 8 8 + . . . . . X w V q . o & @ 8 8 . . . . . . X y X @ . . . . . . . . . ",
"    . 8 8 8 . . ; I ; + . . . . .   . . . 6 Z @ @ Z 6 8 w q + . .   . X q w 5 + 1 } 1 + . . . . .   . . . 6 Z @ .   . 8 8 8 . . ",
". @ + w V w X O I / I O . . . . + 9 + + q q 6 . . @ . + q w 8 . . @ . . X X . & } $.} & . . . . + 9 + + q q 6 . . @ + w V w X . ",
"6 Z 6 q e q # o * I > @ . . .   9 <.9 8 w q X . . . . . + 8 8 . @ Z @ . .   . + 1 } 1 @ . . .   9 <.9 8 w q X   @ Z 6 q e q # + ",
". @ + 8 8 G R ; + O @ e +   . . + 9 @ 6 8 8 . . . . . . . . . . . @ . . . + . . + & @ e +   . . + 9 @ 6 8 8 . . . @ + 8 8 G R ; ",
". . . X # R X.Y O . . + . . . . .   . . . . . . . . . .     . . .   . . + e @ . . . . + . . . . .   . . . . . . . . . X # R X.! ",
". . . 8 8 > Y ; . . .   . . . . . . . . . . . . . . . . X X . . . . @ . . @ . . . . .   . . . . . . . . . . . . . . X 8 8 > U ; ",
". . . X . + O + . . . . . . . . . . . . . . . . . . . X q q X . . @ v @ . . . . . . . . . . . . . . . . . . . . . . . + . + O + "
};
