/* XPM */
static char *ahtf2_amiam[] = {
/* columns rows colors chars-per-pixel */
"64 64 202 2 ",
"   c #1D1537",
".  c #1E1639",
"X  c #1E1A3C",
"o  c #221737",
"O  c #241B37",
"+  c #2F1B37",
"@  c #20173D",
"#  c #231A3C",
"$  c #281E3C",
"%  c #311B37",
"&  c #311D3A",
"*  c #2B2335",
"=  c #24203D",
"-  c #2A213A",
";  c #352436",
":  c #342B33",
">  c #34223B",
",  c #362939",
"<  c #382E3D",
"1  c #3C3332",
"2  c #3B313A",
"3  c #443A2E",
"4  c #483C2D",
"5  c #492837",
"6  c #482937",
"7  c #502B37",
"8  c #443A31",
"9  c #4F323B",
"0  c #453A3A",
"q  c #573637",
"w  c #583F39",
"e  c #4C422D",
"r  c #53492B",
"t  c #55492B",
"y  c #5C5329",
"u  c #4B4332",
"i  c #584335",
"p  c #534932",
"a  c #5B523D",
"s  c #624E2C",
"d  c #695D26",
"f  c #635728",
"g  c #6C6226",
"h  c #736A22",
"j  c #736728",
"k  c #7C7226",
"l  c #736735",
"z  c #1F1740",
"x  c #1F1D40",
"c  c #211741",
"v  c #231A42",
"b  c #281D41",
"n  c #23194A",
"m  c #281A4A",
"M  c #271A54",
"N  c #281B57",
"B  c #271D59",
"V  c #291B5A",
"C  c #1B244A",
"Z  c #1F2E4E",
"A  c #1D2551",
"S  c #272346",
"D  c #2B214B",
"F  c #202E4E",
"G  c #362948",
"H  c #39394A",
"J  c #272757",
"K  c #302552",
"L  c #362A55",
"P  c #35295A",
"I  c #213152",
"U  c #24315B",
"Y  c #3C3057",
"T  c #2B1C61",
"R  c #2D1F69",
"E  c #183A63",
"W  c #183B66",
"Q  c #2D206A",
"!  c #283267",
"~  c #3E3167",
"^  c #2F2271",
"/  c #4E2A47",
"(  c #413748",
")  c #513441",
"_  c #563553",
"`  c #402866",
"'  c #564C49",
"]  c #484D53",
"[  c #5D7148",
"{  c #6D6449",
"}  c #595365",
"|  c #6E696D",
" . c #8A7C1D",
".. c #957D1B",
"X. c #874838",
"o. c #89493A",
"O. c #975336",
"+. c #A65F32",
"@. c #877B27",
"#. c #806B31",
"$. c #867938",
"%. c #A97B3A",
"&. c #965F43",
"*. c #83744B",
"=. c #9A6150",
"-. c #8E851C",
";. c #94871B",
":. c #9B9218",
">. c #A78C18",
",. c #A89919",
"<. c #B29813",
"1. c #BFAB0E",
"2. c #ADA215",
"3. c #B6AA14",
"4. c #BDB113",
"5. c #8C812F",
"6. c #978828",
"7. c #A69920",
"8. c #B8AC21",
"9. c #C2B60F",
"0. c #C6BB0E",
"q. c #D8B90A",
"w. c #CCA814",
"e. c #C6B813",
"r. c #D7BE15",
"t. c #E3BE08",
"y. c #C9BD31",
"u. c #B5CE35",
"i. c #CEC10E",
"p. c #D3C30C",
"a. c #D5CA0C",
"s. c #D9CE0C",
"d. c #DDD20A",
"f. c #DDD111",
"g. c #EBC706",
"h. c #F4CB03",
"j. c #ECDD06",
"k. c #E4D70A",
"l. c #F5D202",
"z. c #F8DA02",
"x. c #F9DC02",
"c. c #E2D613",
"v. c #EDE205",
"b. c #EDE50C",
"n. c #F3E504",
"m. c #FAE302",
"M. c #FFEE00",
"N. c #F8EC06",
"B. c #F1E213",
"V. c #FDEE13",
"C. c #FCED1B",
"Z. c #E4D72A",
"A. c #FDF02C",
"S. c #F7EA37",
"D. c #9A914B",
"F. c #A69D43",
"G. c #A9A048",
"H. c #898364",
"J. c #A69F63",
"K. c #CD8C47",
"L. c #D19541",
"P. c #D9A150",
"I. c #EAB246",
"U. c #C2BB70",
"Y. c #A4C241",
"T. c #D1C75F",
"R. c #F5EB42",
"E. c #FDF246",
"W. c #FBF259",
"Q. c #E2DC77",
"!. c #FEF468",
"~. c #FEF572",
"^. c #FDF57C",
"/. c #197399",
"(. c #24748E",
"). c #267693",
"_. c #1171A1",
"`. c #4F4081",
"'. c #544589",
"]. c #614F9C",
"[. c #736C82",
"{. c #26899F",
"}. c #59C199",
"|. c #16B1D9",
" X c #8D8998",
".X c #BBB7B0",
"XX c #D6D186",
"oX c #E9E38D",
"OX c #FCF588",
"+X c #FDF89B",
"@X c #D3D0B5",
"#X c #FEF9AB",
"$X c #F4F1BD",
"%X c #D6D6DA",
"&X c #FDFAC5",
"*X c #FCFBD8",
"=X c #E8E8E4",
"-X c #FDFDE5",
";X c #FDFDEC",
":X c #F4F5F6",
">X c #FDFDF2",
",X c #FEFEFC",
/* pixels */
". . . c n n . .   . . . .   .   . @ . . . .   . . . c n n @ # . . . . c n n . .   . . . . . . . . @ . . . .   . . . . c n n . . ",
". . c N V n . # D # . . .   . # # n @ . . . v @ . n N V n D ~ D . . c N V n . # D # . . .   . # # n X . . . v @ . . c N V n . . ",
". @ N R N @   D `.D & @ . v v K v X . .   v P v n Q ^ N v ~ ].~ # @ N R N @   D `.D & o . v v K v X . .   v P # . @ N R N @ . . ",
". n V N c . . # D ) &.9 b P v # . . . . . @ S I J ^ Q n . D ~ D @ n V N c . . # D ) &.9 b P v # . .   . . @ S I x n V N c . . . ",
". n n @ . . . . & &.P.&.> v .   . . v . .   Z ).! N n . . . # . . n n @ . . .   & &.P.&.> v @ . . . v . .   F ).I n n @ . . . . ",
". . . . . . . . o ) =._ #   . .   c N v .   v ! M v v . . . . . . . . . . . . . o ) =._ #   . .   c N v     v U v . . . . . . . ",
". X .   . . . . X N ~ N X . . $ < $ c . . . . X . v P v   . . . . X .   . . . . X N ` N X . . $ < $ c . . . . . . X .   . . . . ",
"@ n @ # . . . . @ M N c . . . < *.<   . X X . . . . v # v . . . X n # # .   . . @ M N c . . . < *.<   . @ @ .   X n # # .   . . ",
". X v K v v . . . @ @ .   . . $ < $ . @ M N v . . .   # P v   . . X v K v v @ . . @ @ . . . . $ < $   X M N v . . X v K v v . . ",
". . . # v P v   . . . . . .     . .   @ N Q N @ . . X I S . . $ * * $ # v P v   . . . . . .   . . .   X N R N X   . . # v P v   ",
"v . .   . v . . . . @ n n # v .   X C X c N M @ .   F ).Z   H | 5.@.f * . v @ . . . @ n n # v .   X C X c N M @ c . . . . v . . ",
"B c   . .   . . . @ M N n v P v X E _.E X @ v . .   v U S 0 H.@XoXZ.2.r o . . . . @ M N n v P v X E _.E X @ v v N c   . .   . . ",
"v $ < $ . . .   . n V M @ @ v @ C _.|._.C m ~ D . . . # ' J.@X>X>X+XZ.;.1 . . . . n V M @ . v @ C _.|._.C m ~ D v $ < $ . . . . ",
"  < *.< . . . . . n n @ . .   . X E _.E v ~ ].~ v . . 2 D.oX*X,X,X>X^.f.@.: . . . n n @ . .   . X E _.E v ~ ].~ # < *.< . . . . ",
". $ < $ . . . . . . . . . . . .   X C X . D ~ D n X $ { T.&X,X,X,X,X*XR.0.d O . . . . . . . . .   X C X . D ~ D . $ < $ . . . . ",
"  . . . . . . . . . . . . . . . . . . . . . # @ n @ 0 J.$X>X,X;X,X,X,X+XB.2.e @ . . . . . . . . . . . . . . # . . . . .     . . ",
"D # o % o   . @ n n @ # . . . . @ n n . . .   . X : k XX>X,X;XOX*X,X,X*XE.k. ., n n @ # . . . . @ n n . . .   . . . . . . . . . ",
"'.D q +.q o n V V n D ~ D . . v N V n . . . . . O g y.$X,X,X&XA.^.>X,X>X^.N.4.' N n D ~ D . . v N V n . . . . . . . . n M n X . ",
"K > +.I.+.G Q ^ V v ~ ].~ # @ N R N @ . . . . . 1 ,.S.-X,X;X~.N.C.^.#X#XE.N.c.$.L n ~ ].~ # @ N R N @ . . . . . @ v v V R V X . ",
"M v q +.q N ^ Q n . D ~ D @ n V N c . . . . .   p e.C.OX#X!.V.M.M.N.C.C.N.M.n.8.p o D ~ D o n V N c . . . . .   v P v N B N & o ",
"V M # ; m V V n . . . # . . n n @ . . . . . . * k d.M.V.V.N.M.M.M.M.M.M.M.M.M.k. .: . # . . n n @ . . . . . . . @ v # n n / o.7 ",
"V N @ . n n v v . . . . . . . . . . . . . . . 3 ,.n.M.M.M.M.M.M.M.M.M.M.M.M.M.n.9.f * o   . . . . . . . . . . . .   . X & o.K.O.",
"N M @ . . . v P v   . . . . .   . X . . . . O h p.M.M.M.M.M.M.M.M.M.M.M.M.M.M.M.j.3.@.a G S v . . . . . . . .   . . X n v 5 o.7 ",
"U v . . . . . b D # . . . . . # @ n X o # D ' ,.n.M.M.M.M.M.M.M.M.M.M.M.M.M.M.M.M.n.c.U. X X[.( - . . . . . # D #   . X . @ + o ",
"{.F . v . .   D `.D & o . v v K v - ( } |  X.XQ.C.M.M.M.M.M.M.M.M.M.M.M.M.M.M.M.M.M.V.OX=X=X@XF.l < v . o & D `.D . . # . . . v ",
"I X v P v . . # D ) &.9 b P v # : j G.@X%X=X:X*XS.M.M.M.M.M.M.M.M.M.M.M.M.M.M.M.M.M.M.A.~.OXW.B.e.j Y v 9 &.) K n n D ~ D . v B ",
". @ # v . . . . & &.P.&.> v o 3  .i.R.*X;X;X&X!.V.M.M.M.M.M.M.M.M.M.M.M.M.M.M.M.M.M.M.M.N.N.M.M.j.,.0 > &.P.&.> M M ~ ].~ # . v ",
"@ M M c @ . . . o ) =._ #   : -.d.N.V.E.!.E.A.N.M.M.M.M.M.M.M.M.M.M.M.M.M.M.M.M.M.M.M.M.M.M.M.M.N.p.f $ _ =.) # M n D ~ D o v @ ",
"@ M V V M X . . X N ` N X . 4 1.N.M.M.M.N.M.M.M.M.M.M.M.M.M.M.M.M.M.M.M.M.M.M.M.M.M.M.M.M.M.M.M.M.d.h $ N ` N c n @ . # . v P v ",
". c V Q V c . . @ M N c . . e 4.N.M.M.M.M.M.M.M.M.M.M.M.M.M.M.M.M.M.M.M.M.M.M.M.M.M.M.M.M.M.M.M.M.d.h O c N M @ . . . . . . v @ ",
"  @ V T V M @ . . X X . . . 4 1.m.M.M.M.M.M.M.M.M.M.M.M.M.M.M.M.M.M.M.M.M.M.M.M.M.M.M.M.M.M.M.M.M.0.y o . @ @ . . . . . . @ X . ",
"@ v N N N M @ . . . . . . . 3 <.g.l.x.M.M.M.M.M.M.M.M.M.M.M.M.M.M.M.M.M.M.M.M.M.M.M.M.M.M.M.M.M.v.:.: . . . . . . . . . c N M @ ",
"v P b @ @ @ . . . . @ n n @ < ..t.h.h.l.m.M.M.M.M.M.M.M.M.M.M.M.M.M.M.M.M.M.M.M.M.M.M.M.M.M.M.M.a.j $ n n c .   . . . X N R N @ ",
"@ v @ . # . . . . @ M V n v L i >.g.h.h.l.m.M.M.M.M.M.M.M.M.M.M.M.M.M.M.M.M.M.M.M.M.M.M.M.M.M.j.,.' v n V N @ .       @ M J U X ",
". @ n v K # . . . n V M @ @ v $ f 8.g.h.h.l.M.M.M.M.M.M.M.M.M.M.M.M.M.M.M.M.M.M.M.M.M.M.M.M.n.3.y $ . @ M V n . . v . . X I (.I ",
". n T n v . . v @ n n @ . .   . * k r.h.h.h.x.M.M.M.M.M.M.M.M.M.M.M.M.M.M.M.M.M.M.M.M.M.M.M.d.k * . . . c n n . v P v . . X Z X ",
". @ n @ . . . v X . . . . . . . . 8 >.g.h.h.z.M.M.M.M.M.M.M.M.M.M.M.M.M.M.M.M.M.M.M.M.M.M.v.,.3 . . . . . . . . @ v @ . . # . . ",
". . . . . . . . . . v @ . . . . . O f w.h.h.z.M.M.M.M.M.M.M.M.M.M.M.M.M.M.M.M.M.M.M.M.M.M.a.g O . . . . . . . . .       v N v . ",
". . . . . . . . . v P v     . . . . :  .q.l.m.M.M.M.M.M.M.M.M.M.M.M.M.M.M.M.M.M.M.M.M.M.M.9.r . . . . . @ @ . . . . # . . v . . ",
". . . . . . . . . @ v . . # . . . . o e 2.n.M.M.M.M.M.M.M.M.M.M.M.M.M.M.M.M.M.M.M.M.M.M.N.9.e . . . . @ M M @   . # K # . . . . ",
". . . @ n n .   X F X   # K # . . . . 2 7.n.M.M.M.M.M.M.M.M.M.M.M.M.M.M.M.M.M.M.M.M.M.M.N.e.r . . . . @ M M @   . . # v n n . . ",
". . c N V n .   F (.F . # v . . . . . 8 2.n.M.M.M.M.M.M.M.M.M.M.M.M.M.M.M.M.M.M.M.M.M.M.N.i.y o . . . . @ @ . . . . c N V n . . ",
". @ N R N @ . . X F X @ M N v . . @ ; d i.N.M.M.M.M.M.M.M.M.M.M.M.M.M.M.M.M.M.M.M.M.M.M.M.k.k O . o + o   . # . . @ N R N @ . . ",
". n V N c . . . .     @ N R N X o 5 O.>.j.M.M.M.M.M.M.M.M.M.M.M.M.M.M.M.M.M.M.M.M.M.M.M.M.k.@.- o 5 o.5 @ D ~ D X n V N v . . . ",
". n n @ . . . . . v . . c N M X + o.L.w.j.M.M.M.M.M.M.M.M.M.M.M.M.M.M.M.M.M.M.M.M.M.M.M.M.s.l $ + o.K.o.& ~ ].~ v n n @ . . . . ",
". . . . . . .   v P v   . @ @ . o 5 O.>.j.M.M.M.M.M.M.M.M.M.M.M.M.M.M.M.M.M.M.M.M.M.M.M.N.0.t . @ 5 o.5 @ D ~ D . . . . . . . . ",
". X . . . . . . . v . . . . .   . @ 5 ;.j.M.M.M.M.M.M.M.M.M.M.M.M.M.M.M.M.M.M.M.M.M.M.M.N.9.e   . @ + @ . c m n X X . . . . . . ",
"@ n # # . . . . . . c . . . # D # . , 6.j.M.M.M.M.M.M.M.M.M.M.M.M.M.M.M.M.M.M.M.M.M.M.M.M.9.p D # . X n n N N n @ n @ # .   . . ",
". X v K v v . . . v N v     D `.D . G 6.j.M.M.M.M.M.M.M.M.M.M.M.M.M.M.M.M.M.M.M.M.M.M.M.M.9.a `.D . n V B V N c . X v K v v . . ",
"  . . # v P v . . . v . . . # D # . G 6.j.M.M.M.M.M.M.M.M.M.M.M.M.N.M.m.x.m.M.M.M.M.M.M.N.3.u D # . n B Q B n X   . . # v P v   ",
"v . . . @ v . . . . . . . . .   . z G 6.j.M.M.M.M.M.M.M.M.M.M.n.a.0.g.h.h.h.z.M.M.M.M.M.v.:.:   . c N V V V n @ # . .   . v . . ",
"B c . . . . . . . . . . .   . . . n K #.f.M.M.M.M.M.M.M.M.M.n.9.h d >.g.h.h.h.z.M.M.M.M.j.-.* . . n N B J n @ v N c   . . . . . ",
"v $ < $ . . . . . @ @ . . v . . . n n ] Y.b.M.M.M.M.M.M.n.d.3.g * O e >.q.h.h.h.x.M.M.N.a.j $ . . n n W _.W X . @ $ < $ . . . . ",
"  < *.< . . .   @ M N c v P v   . . C /.}.u.v.M.M.n.v.s.2.k p L v X o 4 ..q.h.h.h.x.N.s.-.] v   . . C _.|._.A .   < *.< . . . . ",
". $ < $ . . .   @ N Q N v v . . . . X E /.[ 2.a.d.4.:.h 4 * o # @ n X o 3 ..q.g.h.h.r.@.2 v . . . . X E _.W J c   $ < $ . . . . ",
". .   . .   . . . c N V n . . . . . . X C = 8 d g t 1 $ . . . . . X . . # 0 j >.1.<.#.( n . . . . . . X C X c . . . . . . . . . ",
". . . . . . . . o ; # n n . . . . . . .   . v $ $ v @ n n @ . . .     @ N T D 1 t s , n n . . . . . . .   . v . . . . . . . . . ",
".   . n n n . o w %.w # . . . . . . . . X b P v v P v n N M @ . .   . @ M J U = i %.w # . . . . .   . . X b P v . . . n n n . . ",
". v # V R V X ; %.I.%.; . . . . # D # @ M N b . . v @ @ M N n . @ v @ . X I (.H %.I.%.; . . . . # D # @ M N b . . v v V R V X . ",
"v P v N B N & O w %.i v . . .   D `.D n V N @ .     . . @ n n . v P v     X Z = w %.w v . . .   D `.D n V N @   v P b N V N & @ ",
"@ v # n m / o.5 # ; # N #   . . # D v n n n . . . . . . . . . . @ v @   . # . . o ; # N v . .   # D v n n n . . . v # n m / o.7 ",
". . . @ & o.K.o.+ . . v . . . . .   . . . . . . . . . .     . . .       v N v . . . . v . . . . .   . . . . . . .   . @ & o.K.O.",
". . X n v 5 o.5 @ . . . . . . . . . . . . . . . . . . . @ @ . . . . # . . v . . . . . . . . . . . . . . . . . . . . X n v 5 X.7 ",
". . . @ X @ % @ . . . . . . . . . . . . . . . . . . . @ M M @ .   v P v     . . . . . . . . . . . . . . . . . . . . . @ X @ % @ "
};
