/* XPM */
static char *aw2ku_ic1rl[] = {
/* columns rows colors chars-per-pixel */
"64 64 214 2 ",
"   c #34180B",
".  c #281218",
"X  c #3E2008",
"o  c #1F132F",
"O  c #1E1537",
"+  c #1E1639",
"@  c #1E1A3C",
"#  c #261527",
"$  c #231636",
"%  c #241B36",
"&  c #2F1B37",
"*  c #20173D",
"=  c #231A3C",
"-  c #281D3F",
";  c #311B37",
":  c #311D3A",
">  c #3A2821",
",  c #2B2235",
"<  c #24203E",
"1  c #2D243C",
"2  c #342536",
"3  c #342A33",
"4  c #3A2D33",
"5  c #33233B",
"6  c #39223B",
"7  c #362C3A",
"8  c #382E3D",
"9  c #3D3333",
"0  c #3B3439",
"q  c #4F330A",
"w  c #463A2D",
"e  c #4A2937",
"r  c #4A2839",
"t  c #502B37",
"y  c #463637",
"u  c #573536",
"i  c #583F39",
"p  c #6C4B03",
"a  c #725F1B",
"s  c #4E432C",
"d  c #574D2D",
"f  c #594B2A",
"g  c #5A4636",
"h  c #695926",
"j  c #795F30",
"k  c #6C6225",
"l  c #7C6621",
"z  c #746B23",
"x  c #766924",
"c  c #7D7520",
"v  c #76653C",
"b  c #7B7131",
"n  c #1F1D40",
"m  c #211741",
"M  c #231A42",
"N  c #281D41",
"B  c #23194A",
"V  c #281A4A",
"C  c #271A54",
"Z  c #281B57",
"A  c #271D59",
"S  c #291B5A",
"D  c #1B244A",
"F  c #1F2E4E",
"G  c #1D2551",
"H  c #262145",
"J  c #2B214B",
"K  c #202E4E",
"L  c #352848",
"P  c #262657",
"I  c #302552",
"U  c #352954",
"Y  c #35295A",
"T  c #213152",
"R  c #23315B",
"E  c #393950",
"W  c #2B1D63",
"Q  c #2D1F69",
"!  c #183A63",
"~  c #193B67",
"^  c #2D206A",
"/  c #3F2866",
"(  c #283267",
")  c #3E3167",
"_  c #2F2271",
"`  c #4E2A47",
"'  c #463D4A",
"]  c #523441",
"[  c #453D56",
"{  c #563553",
"}  c #402866",
"|  c #463C64",
" . c #564C4D",
".. c #6E5A4A",
"X. c #615956",
"o. c #787258",
"O. c #594A7B",
"+. c #605965",
"@. c #7F7A6C",
"#. c #8C731C",
"$. c #857B1E",
"%. c #917813",
"&. c #874838",
"*. c #89493A",
"=. c #9D5138",
"-. c #A65F32",
";. c #857A21",
":. c #8B7A27",
">. c #8F7629",
",. c #A97B3B",
"<. c #965F43",
"1. c #847740",
"2. c #83744B",
"3. c #9A6150",
"4. c #8C811E",
"5. c #95881C",
"6. c #9D9217",
"7. c #B79609",
"8. c #A48916",
"9. c #A79616",
"0. c #B29313",
"q. c #BD9E13",
"w. c #B6A813",
"e. c #BDB112",
"r. c #BFB21E",
"t. c #8C8224",
"y. c #988824",
"u. c #A49D2F",
"i. c #B2A832",
"p. c #C6A609",
"a. c #CCAB0C",
"s. c #C6BA0B",
"d. c #DAB809",
"f. c #C3B814",
"g. c #D1B114",
"h. c #C8B12B",
"j. c #E0B23E",
"k. c #CDC00F",
"l. c #D6C80A",
"z. c #DDD308",
"x. c #DACC12",
"c. c #E4C305",
"v. c #E7C607",
"b. c #ECC504",
"n. c #F1C703",
"m. c #F3CC02",
"M. c #E5DB06",
"N. c #EADD06",
"B. c #E4D709",
"V. c #F5D403",
"C. c #F6DB02",
"Z. c #F4D906",
"A. c #F8DB02",
"S. c #EDE107",
"D. c #F4E404",
"F. c #FAE302",
"G. c #F4E903",
"H. c #FFEE00",
"J. c #F8E708",
"K. c #FDED0C",
"L. c #FEF102",
"P. c #FBEC12",
"I. c #FCED1B",
"U. c #D4CB34",
"Y. c #FBED27",
"T. c #FEF026",
"R. c #FDF02B",
"E. c #FAEE31",
"W. c #8D864E",
"Q. c #B0AB7A",
"!. c #CD8C47",
"~. c #D9A150",
"^. c #EAB246",
"/. c #CFC052",
"(. c #F6EB4B",
"). c #F4EB4D",
"_. c #FCF256",
"`. c #D2CC70",
"'. c #FDF465",
"]. c #E9E579",
"[. c #FCF477",
"{. c #24748E",
"}. c #267693",
"|. c #1171A1",
" X c #4F4081",
".X c #594990",
"XX c #614F9C",
"oX c #26899F",
"OX c #16B1D9",
"+X c #9C9595",
"@X c #A19992",
"#X c #B9B386",
"$X c #B3AE96",
"%X c #A19EAB",
"&X c #AEABB0",
"*X c #B4B2BA",
"=X c #D2CD86",
"-X c #FEF78F",
";X c #FCF694",
":X c #CAC8BE",
">X c #FBF7A8",
",X c #EFECB4",
"<X c #FBF7B5",
"1X c #DFDCC6",
"2X c #E1E0C5",
"3X c #F9F7C8",
"4X c #FEFBCD",
"5X c #EDEBD9",
"6X c #FCFADA",
"7X c #E8E5E2",
"8X c #FCFBE7",
"9X c #F4F5F3",
"0X c #FCFCF4",
"qX c #FDFDFB",
/* pixels */
"+ + + m B B + + O + + + + + + O + * + + + + O + + + m B B * = + + + + m B B + + O + + + + + + + + * + + + + + + + + + m B B + + ",
"+ + m Z S B + = J = + + + O + = = B * + + + M * + B Z S B J ) J + + m Z S B + = J = + + + O + = = B + + + + M * + + m Z S B + + ",
"+ * Z Q Z * O J  XJ : = + M M I M + + + O M Y M B ^ _ Z M ) XX) = * Z Q Z * O J  XJ : = + M M I M + + + O M Y M + m S Q Z * + + ",
"+ B S Z m + + = J ] <.t N Y M = + + + + + + H T P _ ^ B + J ) J * B S Z M + + = J ] <.t N Y M = + + O + + * H T n B S S m + + + ",
"+ B B * + + + + : <.~.<.5 M + O + + M + + O F }.( Z B + + + = + + B B * + + + + : <.~.<.5 M * + + + M + + O K }.T m B * + + + + ",
"+ + + + + + + + = ] 3.{ = O + + O m Z M + O M ( C M M + + + + + + + + + + + + + = ] 3.{ = O + + O m Z M O O M R M + + + + + + + ",
"+ + + O + + + + + Z } Z + + + = 8 = m + + + + + + M Y M O + + + + + + O + + + + + Z } Z + + + = 8 = m + + + + + + + + O + + + + ",
"* B * = + + + + * C Z m + + + 8 2.8 O + * * + + + + M = M + + + + B = = + O + + * C Z M + + + 8 2.8 O + * * + O + B = = + O + + ",
"+ + M I M M + + + * * + O + + = 8 = + + C Z M + + + O = Y M + + + + M I M M + + + * * + + + + = 8 = O + C Z M + + + M I M M + + ",
"+ + + = M Y M O + + + + + + O O + + O + Z Q Z * + + @ T H + + + + O + = M Y M + + + + + + + O + + + O + Z Q Z + O + + = M Y M O ",
"M + + + + M + + + + * B B = M + + @ D @ m Z C * + O K }.K O + - ' ' 1 O + M + + + + * B B = M + O @ D @ m Z C * M + + + + M + + ",
"A m + + + O + + + * C Z B M Y M @ ! |.! @ * M + + O M R M O = X.Q.Q.o.8 + + + + + * C Z B M Y M @ ! |.! @ * M M Z m + + + O + + ",
"M = 8 = + + + O + B S C * * M * D |.OX|.D J ) J + + + + + = X.#X,X,X=X2.7 + + + + B S C * + M * D |.OX|.D V ) J M = 8 = + + + + ",
"O 8 2.8 + + + + + B B * + + O + @ ! |.! M ) XX) M + + + =  .$X5XqXqX6X`.b , + + + B B * + + O + @ ! |.! M ) XX) = 8 2.8 + + + + ",
"+ = 8 = + + + + + + + + + + + + O @ D @ + J ) J B * + + [ @X7XqXqXqXqX>Xh.h , + + + + + + + + + + @ D @ + J ) J + = 8 = + + + + ",
"O + + + + + + + + + + + + + + + + + + + + + = * B * + 9 W.1XqXqXqXqXqX8X).e.h , + + + + + + + + + + + + + + = + + + + + O O + + ",
"J = $ ; $ O + * B B * = + + + + * B B + + + O + + + 9 4.U.3XqXqXqXqXqXqX;XS.9.9 B B * = + + + + * B B + + + + + + + + + + + + + ",
".XJ u -.u = B S S B J ) J + + M Z S B + + + + + + % z l.Y.3XqXqX6X6XqXqX4XE.e. .S B J ) J + + M Z S B + + + + + + + + B C B + + ",
"I 6 -.^.-.L ^ _ S M ) XX) = * Z Q Z * + + + + O + y 9.S.K._.<X<X_.[.0XqX8X_.x.1.U B ) XX) = * Z Q Z * + + + + + * M M S Q S + + ",
"C M u -.u Z _ ^ B + J ) J + B S Z m + + + O O O - v k.G.H.K.I.I.K.T.>X0X6X(.D.r.d = J ) J * B S Z m + + + + + + M Y M Z A Z : $ ",
"S C = 6 V S S B + + + = + + B B * + + + + + + + 9 y.M.H.H.H.H.H.H.H.T.'._.P.G.z.z % + = + + B B * + + + + + + + * M = B B ` *.t ",
"S Z * + B B M M + + + + + + + + + O + + + + + , z k.G.H.H.H.H.H.H.H.H.H.H.H.G.M.5.3 + O + + + + + + + + + + + + + O + + : *.!.=.",
"Z C * + + + M Y M O + + + + , 0 ' [ [ [ ' y w f 9.D.H.H.H.H.H.H.H.H.H.H.H.H.H.D.w.s + + + + + + + + + + + + + O + + + B M r *.t ",
"R M + + + + + N J = + + + 3 k u.Q.*X*X*X$Xi.w.e.B.H.H.H.H.H.H.H.H.H.H.H.H.H.H.H.l.x 3 , 1 H V * = + O + + + = J = O + + + * & $ ",
"oXK + M + + O J  XJ : % w ;.s.(.3X9X0X9X8X(.G.G.H.H.H.H.H.H.H.H.H.H.H.H.H.H.H.H.D.f.5.t.W.@.+.[ | E L = * : J  XJ + + = + + + M ",
"T @ M Y M + + = J ] <.g t.x.J.[.0XqXqX0X<XR.H.H.H.H.H.H.H.H.H.H.H.H.H.H.H.H.H.H.H.D.N.B.].2X:X&X%X%X+X..g <.] J B B J ) J + M A ",
"+ + = M + + + + : <.~.,.w.D.H.R.-X>X;X'.R.K.H.H.H.H.H.H.H.H.H.H.H.H.H.H.H.H.H.H.H.H.H.I.3XqXqX9X9X9X5X/.h.j.=.5 C C ) XX) = + M ",
"* C C m * + + + = ] 3...w.G.H.H.P.P.K.K.H.H.H.H.H.H.H.H.H.H.H.H.H.H.H.H.H.H.H.H.H.H.H.K.;X0XqXqXqXqX0X_.Z.x.j - C B J ) J = M * ",
"* C S S C + + + + Z / ' w.G.H.H.H.H.H.H.H.H.H.H.H.H.H.H.H.H.H.H.H.H.H.H.H.H.H.H.H.H.H.K.R.[.<X4X4X4X>XE.H.B.t.5 m + + = + M Y M ",
"+ m S ^ A m + + + C Z 7 9.G.H.H.H.H.H.H.H.H.H.H.H.H.H.H.H.H.H.H.H.H.H.H.H.H.H.H.H.H.H.H.H.K.P.I.T.T.P.K.H.B.:.1 + + + + + + M * ",
"O * S W S C * + + + + % a B.L.H.H.H.H.H.H.H.H.H.H.H.H.H.H.H.H.H.H.H.H.H.H.H.H.H.H.H.H.H.H.H.H.G.G.H.H.H.H.l.k % + + + + + * + + ",
"* M Z Z Z C * + + + + = > %.D.H.H.H.H.H.H.H.H.H.H.H.H.H.H.H.H.H.H.H.H.H.H.H.H.H.H.H.H.H.H.H.H.H.G.G.H.H.D.w.s * + + + + M Z C * ",
"M Y N * * * + + + + * M # q p.H.H.H.H.H.H.H.H.H.H.H.H.H.H.H.H.H.H.H.H.H.H.H.H.H.H.H.H.H.H.H.H.H.H.G.F.C.d.;.2 + + + + * Z Q Z * ",
"* M * + = + + + + * C Z $   p c.H.H.H.H.H.H.H.H.H.H.H.H.H.H.H.H.H.H.H.H.H.H.H.H.H.H.H.H.H.H.H.H.H.F.m.b.q.g = + + + + * C P R @ ",
"+ * B M I = + + + B S C $ . X %.V.H.H.H.H.H.H.H.H.H.H.H.H.H.H.H.H.H.H.H.H.H.H.H.H.H.H.H.H.H.H.H.F.m.b.a.>.L B + + M + + + T {.T ",
"+ B W B M + + M * B B * + # . q 7.A.H.H.H.H.H.H.H.H.H.H.H.H.H.H.H.H.H.H.H.H.H.H.H.H.H.H.H.H.H.A.m.n.a.l 9 B B + M Y M + + @ F @ ",
"+ * B * + + + M + + + + + O #   q p.G.H.H.H.H.H.H.H.H.H.H.H.H.H.H.H.H.H.H.H.H.H.H.H.H.H.H.H.A.m.m.d.#.4 + + + + * M * + + = + + ",
"+ + + + + + + + + * M + O O o .   p l.L.H.H.H.H.H.H.H.H.H.H.H.H.H.H.H.H.H.H.H.H.H.H.H.H.H.H.V.b.a.#.w $ + + + + + O O O M Z M + ",
"+ + + + + + + + + M Y M O + O o . q s.L.H.H.H.H.H.H.H.H.H.H.H.H.H.H.H.H.H.H.H.H.H.H.H.H.H.H.A.a.l 4 $ + * * + + + + = + + M + + ",
"+ + + + + + + + + * M + + = * O o q l.H.H.H.H.H.H.H.H.H.H.H.H.H.H.H.H.H.H.H.H.H.H.H.H.H.H.H.N.5.4 + + * C C * O + = I = + + + + ",
"+ + + * B B + O @ K @ O = I = + , $.B.H.H.H.H.H.H.H.H.H.H.H.H.H.H.H.H.H.H.H.H.H.H.H.H.H.H.H.z.z % + O * C C * O + + = M B B + + ",
"+ + m Z S B + O K {.K + = M + $ f f.G.H.H.H.H.H.H.H.H.H.H.H.H.H.H.H.H.H.H.H.H.H.H.H.H.H.H.H.z.z % + + + * * + + + + m Z S B + + ",
"+ * Z Q Z * + + @ K @ * C Z m , c M.L.H.H.H.H.H.H.H.H.H.H.H.H.H.H.H.H.H.H.H.H.H.H.H.H.H.H.H.N.6.9 * & * O + = + + * Z Q Z * + + ",
"+ B S Z m + + + + O O * Z Q Z 1 $.N.H.H.H.H.H.H.H.H.H.H.H.H.H.H.H.H.H.H.H.H.H.H.H.H.H.H.H.H.G.f.f e *.e = J ) J + B S Z M + + + ",
"+ B B * + + + + + M + + M Z Z 1 4.S.H.H.H.H.H.H.H.H.H.H.H.H.H.H.H.H.H.H.H.H.H.H.H.H.H.H.H.H.H.s.h *.!.*.: ) XX) M B B * + + + + ",
"+ + + + + + + O M Y M O + * + , $.S.H.H.H.H.H.H.H.H.H.H.H.H.H.H.H.H.H.H.H.H.H.H.H.H.H.H.H.H.H.k.h e *.e * J ) J + + + + + + + + ",
"+ + + + + + + + + M + + + + + , $.M.H.H.H.H.H.H.H.H.H.H.H.H.F.V.A.H.H.H.H.H.H.H.H.H.H.H.H.H.H.l.k % & * + M V B + + + + + + + + ",
"* B = = + + + + + + M + + + = L ;.M.H.H.H.H.H.H.H.H.H.H.H.A.m.m.m.C.H.H.H.H.H.H.H.H.H.H.H.H.H.M.$., + B B Z Z B * B = = + O + + ",
"+ + M I M M + + + M Z M O O J O.t.M.H.H.H.H.H.H.H.H.H.H.A.m.m.m.m.m.C.H.H.H.H.H.H.H.H.H.H.H.H.S.y., B S A A Z m + + M I M M * + ",
"+ + + = M Y M + + + M + + + = L ;.M.H.H.H.H.H.H.H.H.H.A.m.m.m.a.0.q.d.V.H.H.H.H.H.H.H.H.H.H.H.N.4.2 B A ^ A B + O + + = M Y M O ",
"M + + + * M + + + + + + + + + , $.N.H.H.H.H.H.H.H.H.A.m.m.b.a.#.w d >.g.m.F.H.H.H.H.H.H.H.H.H.N.4.5 Z S S S B * = + + O + M * + ",
"A m + + + + + + + + + + + O + , $.N.H.H.H.H.H.H.F.V.m.m.b.q.h 3 + = 9 l q.b.A.F.H.H.H.H.H.H.H.N.4.L Z A P B * M Z = O + + + + + ",
"M = 8 = + + + + + * + + + M + , c B.L.H.H.H.H.F.V.m.m.b.p.v 5 = + + + , h 9.c.V.V.F.H.H.H.H.H.M.4.L B ~ |.~ @ + * = 8 = + + + + ",
"O 8 2.8 + + + O * C Z m M Y M $ d e.G.H.H.F.V.m.m.b.a.8.h 7 M I M + + + % s y.p.d.m.V.F.H.H.H.z.c , D |.OX|.G + O 8 2.8 + + + + ",
"+ = 8 = + + + O * Z Q Z M M + + , z l.D.V.m.m.m.v.q.h 9 % + + = * B * + + = 9 f a 5.p.v.V.C.z.w.f $ @ ! |.~ P m O = 8 = + + + + ",
"+ + + + + O + + + m Z S B + + + + w 9.c.b.b.c.d.8.f , + + + + + + + + + * M + = , w l 8.q.w.6.k 3 + + @ D @ m + + + + + + + + + ",
"+ + + + + + + + = 2 = B B + + + + $ s %.0.8.%.l w 1 * B B * + + + + + * Z W C + = 4 4 y s s w , + + + + O + M + + + + + + + + + ",
"O O + B B B + = i ,.i % + + + + + O $ 3 w y ' 1 M Y M B Z C * + + + + * C P R < i ,.i % + + + + + O + + + N Y M + + + B B B + + ",
"* M = S Q S + 2 ,.^.,.2 O + + + = J = + C Z M + + M + m C Z B + * M * + + T {.E ,.^.,.2 + + + + = J = * C Z N + + M M S Q S + + ",
"M Y N Z A Z : % i ,.i M + + + O J  XJ B S Z * + + + + + * B B + M Y M + O @ F < i ,.i = + + + O J  XJ B S Z * O M Y N Z A Z : * ",
"* M = B V ` *.e % 2 M Z M O + + = J M B B B + + + + + + + + + + + M * + + = + + = 2 = Z M + + O = J M B B B + + + M = B V ` *.t ",
"+ + + * : *.!.*.& + + M + + + + + O + + + + + + + + + + + O + + + O O O M Z M + + + + M + + + + + O + + + + + + + + + * : *.!.=.",
"+ + + B M r *.e * + + + O + + + + + + + + + + + + + + + * * + + + + = + + M + + + + + + + + + + + + + + + + + + + + + B M r &.t ",
"+ + + * + * ; * + + + + + + + + + + + + + + + + + + + * C C * + O M Y M O O + + + + + + + + + + + + + + + + + + + + + * + * ; * "
};
