/* XPM */
static char *a81rn_55mvu[] = {
/* columns rows colors chars-per-pixel */
"64 64 182 2 ",
"   c #1D1537",
".  c #1E1639",
"X  c #1E1A3C",
"o  c #211737",
"O  c #241B37",
"+  c #2E1B37",
"@  c #20173D",
"#  c #231A3C",
"$  c #311B37",
"%  c #311E3B",
"&  c #2C2435",
"*  c #24203E",
"=  c #2D243B",
"-  c #352537",
";  c #342B33",
":  c #34223B",
">  c #39223B",
",  c #332B3C",
"<  c #382E3D",
"1  c #3B3232",
"2  c #3B3139",
"3  c #43392F",
"4  c #492837",
"5  c #4A2839",
"6  c #502B37",
"7  c #413732",
"8  c #443B34",
"9  c #4F323B",
"0  c #4A3F3C",
"q  c #573536",
"w  c #583F39",
"e  c #4C432D",
"r  c #5A5129",
"t  c #474638",
"y  c #544A35",
"u  c #665C29",
"i  c #7A6E23",
"p  c #72692A",
"a  c #7B7122",
"s  c #6D6A32",
"d  c #72673C",
"f  c #1F1D40",
"g  c #211741",
"h  c #231A42",
"j  c #281D42",
"k  c #23194A",
"l  c #281A4A",
"z  c #271A54",
"x  c #281B56",
"c  c #271D59",
"v  c #291B5A",
"b  c #1B244A",
"n  c #1F2E4E",
"m  c #1D2551",
"M  c #242146",
"N  c #2B214B",
"B  c #202E4E",
"V  c #352747",
"C  c #3B3A46",
"Z  c #2D2254",
"A  c #212F52",
"S  c #24235C",
"D  c #28215D",
"F  c #302552",
"G  c #362A58",
"H  c #35295A",
"J  c #213152",
"K  c #23315B",
"L  c #2B1D63",
"P  c #2D1F69",
"I  c #173A63",
"U  c #183A63",
"Y  c #1A3C6B",
"T  c #2D206A",
"R  c #283267",
"E  c #3E3167",
"W  c #2F2271",
"Q  c #4E2A47",
"!  c #473A47",
"~  c #513441",
"^  c #563553",
"/  c #402866",
"(  c #464442",
")  c #534947",
"_  c #524D54",
"`  c #64594A",
"'  c #7F7864",
"]  c #847A1F",
"[  c #874838",
"{  c #894939",
"}  c #9D5138",
"|  c #A65F32",
" . c #857A20",
".. c #887D35",
"X. c #A97B3B",
"o. c #965F43",
"O. c #83744B",
"+. c #9A6150",
"@. c #8C831D",
"#. c #958A1C",
"$. c #9B9019",
"%. c #A39918",
"&. c #ADA519",
"*. c #B2A515",
"=. c #B3A51B",
"-. c #B7AB19",
";. c #BDB211",
":. c #948822",
">. c #90842B",
",. c #9E9922",
"<. c #A69A34",
"1. c #B7A823",
"2. c #C0B50E",
"3. c #C6BB0E",
"4. c #C4B717",
"5. c #C7B837",
"6. c #B0C533",
"7. c #CDC30C",
"8. c #D7C80E",
"9. c #DBD30A",
"0. c #CEC214",
"q. c #D8CA17",
"w. c #F4CB01",
"e. c #EADE06",
"r. c #E4D509",
"t. c #E6DB08",
"y. c #F6D201",
"u. c #F8D702",
"i. c #F9DC01",
"p. c #E6E006",
"a. c #ECE105",
"s. c #F5E504",
"d. c #FBE402",
"f. c #F5EA04",
"g. c #FEEE01",
"h. c #F4E60A",
"j. c #FDEE0A",
"k. c #FEF001",
"l. c #FDEE13",
"z. c #F6E81B",
"x. c #FDEF1A",
"c. c #FEF01D",
"v. c #D1C433",
"b. c #FCEF29",
"n. c #FDF02D",
"m. c #FEF136",
"M. c #A69F71",
"N. c #CD8C47",
"B. c #D9A150",
"V. c #E8A140",
"C. c #EBBB49",
"Z. c #C4BC6F",
"A. c #F4ED4F",
"S. c #FEF248",
"D. c #FEF355",
"F. c #FDF35A",
"G. c #FCF366",
"H. c #FEF678",
"J. c #27768D",
"K. c #267693",
"L. c #1171A1",
"P. c #4F4081",
"I. c #594990",
"U. c #614F9C",
"Y. c #26899F",
"T. c #16B1D9",
"R. c #FDF685",
"E. c #FDF78B",
"W. c #F0EB98",
"Q. c #FDF893",
"!. c #D9D5BE",
"~. c #FEF8A6",
"^. c #EFEDBC",
"/. c #FEF9B2",
"(. c #FEFBC6",
"). c #E7E4D4",
"_. c #FCFAD4",
"`. c #FCFBDA",
"'. c #FCFCE3",
"]. c #FDFDEC",
"[. c #FCFDF5",
"{. c #FDFEFC",
/* pixels */
". . . g k k . .   . . . . . .   . @ . . . .   . . . g k k @ # . . . . g k k . .   . . . . . . . . @ . . . .   . . . . g k k . . ",
". . g x v k . # N # . . .   . # # k @ . . . h @ . k x v k N E N . . g x v k . # N # . . .   . # # k X . . . h @ . . g x v k . . ",
". @ x P x @   N P.N % o . h h F h X . .   h H h k T W x h E U.E # @ x P x @   N P.N % o . h h F h X . .   h H # . @ x P x @ . . ",
". k v x g . . # N ~ o.9 j H h # . . . . . . M J D W T k . N E N @ k v x g . . # N ~ o.9 j H h # . .   . . @ M A f k v x g . . . ",
". k k @ . . . . % o.B.o.: h .   . . h . .   n K.R x k . . . # . . k k @ . . .   % o.B.o.: h @ . . . h . .   B K.A h k @ . . . . ",
". . . . . . . . o ~ +.^ #   . .   g x h .   h R z h h . . . . . . . . . . . .   o ~ +.^ #   . .   g x h     h K h . . . . . . . ",
". X .   . . . . X x / x X   . # < # g . .   . X . h H h   . . . . X .   . . .   X x / x X . . # < # g . . . . . . X .   . . . . ",
"@ k @ # . . . . @ z x g . . . < O.<   . @ @ . . . . h # h . . . X k # # .   .   @ z x g . . . < O.<   . @ @ .   X k # # .   . . ",
". X h F h h . . . @ @ .   . . # < # . @ z x h . . .   # H h . . . X h F h h @ . . @ @ . . . . # < #   X z x h . . X h F h h . . ",
". . . # h H h   . . . . . .     . .   @ x T x @ . . X J M . . . . . . # h H h . . . . . . .   . . .   X x P x X   . . # h H h   ",
"h . .   . h . . . . @ k k # h .   X b X g x z @ .   B K.B o ; e e e 1 o @ h @ . . . @ k k # h .   X b X g x z @ g . . . . h . . ",
"c g   . .   . . . @ z x k h H h X U L.U X @ h . .   h K h 1  .-.;.-.@.7 . . . . . @ z x k h H h X U L.U X @ h h x g   . .   . . ",
"h # < # . . .   . k v z @ @ h @ b L.T.L.b l E N . . . . = d v.A.n.s.8.i & . . . . k v z @ . h @ b L.T.L.b l E N h # < # . . . . ",
"  < O.< . . . . . k k @ . .   . X I L.I h E U.E h . . o ) M.^.`.(.F.h.2.u O . . . k k @ . . . . X U L.I h E U.E # < O.< . . . . ",
". # < # . . . . . . . . . . . .   X b X . N E Z k X . C M.).{.{.[.`.D.h.*.e o . . . . . . . . .   X b X . N E N . # < # . . . . ",
"  . . . . . . . . . . . . . . . . . . . . . # @ k X , ' !.[.{.{.{.[.(.m.r.@.; . . . . . . . . . . . . . . . # . . . . .     . . ",
"N # o - o   . @ k k @ # . . . . @ k k . .     . X # ` Z._.{.{.[.{.{.[.~.z.2.r # k k @ # . . . . @ k k . . .   . . . . . . . . . ",
"I.N q | q o k v v k N E N . . h x v k .   . . .   7 <.W.].{.`.R.`.{.{.'.F.t.:.! v k N E N . . g x v k . . . . . . . . k z k . . ",
"Z > | V.| V T W v h E U.E # @ x P x @ . . . . . # u 0.R.[.[.E.x.G._.[.].G.s.4.` x h E U.E # @ x P x @ . . . . . @ h h v P v X . ",
"z h q | q x W T k . N E N @ k v x g . . . . .   7 ,.e.m./.~.n.g.j.S.E.H.b.g.r.>., . N E N @ k v x g . . . . .   h H h x c x % o ",
"v z # - l v v k . . . # . . k k @ . . . . . . & a 8.g.g.l.l.g.g.g.g.j.j.g.g.s.-.e   . # . . k k @ . . . . . . . @ h # k k Q { 6 ",
"v x @ . k k h h . . .   . . . . . . . . . . O u 3.s.g.g.g.g.g.g.g.g.g.g.g.g.g.9.i & . . . . . . . . . . . . . . .   . X % { N.} ",
"x z @ . . . h H h   . . . . .   . X . . . . 1 %.a.g.g.g.g.g.g.g.g.g.g.g.g.g.g.h.%.1 . . . . X . . . . . . . .   . . X k h 5 { 6 ",
"K h . . . . . j N #   . . . . # # k X . . o y 2.g.g.g.g.g.g.j.l.x.x.l.j.g.g.g.g.7.u # . . @ k # # . . . . . # N #   . X . @ + o ",
"Y.B . h @ .   N P.N % o . h h F h X . . . # d 8.g.g.j.n.D.H.Q.~././.~.R.S.j.g.g.r...=   . . X h F h h . o % N P.N . . # . . . h ",
"J X h H h . . # N ~ o.9 j H h # . . . . . -  .r.g.l.H.(.].{.{.{.{.{.{.{.`.F.g.g.e.:.; . . . . . # h H j 9 o.~ F k k N E N . h c ",
". X # h .   .   % o.B.o.: h @   . . h . . 3 *.f.g.F.'.{.{.{.{.{.{.{.{.{.{.~.j.g.f.&.1 . . h . .   . h : o.B.o.: z z E U.E # . h ",
"@ z z g X . . . o ~ +.^ #   . .   g x g . e ;.g.g.G.].{.{.].'._.(.(.'.{.[.Q.j.g.f.*.8 . h x #   . .   # ^ +.~ # z k N E N o h @ ",
"@ z v v z X . . X x / x X . . # < # g . o r 3.g.g.x.H.E.H.G.S.m.c.x.S.Q.Q.n.g.g.s.*.3 . . # # < # . . X x / x g k @ . # . h H h ",
". g v T v g . . @ z x g . . . < O.<   . =  .r.g.g.g.g.j.g.g.g.g.g.g.g.l.l.g.g.g.s.*.7 X .   < O.< . . . g x z @ . . . . . . h @ ",
"  @ v L v z @ . . @ @ .   . . # < # . X ! 1.s.g.g.g.g.g.g.g.g.g.g.g.g.g.g.g.g.g.s.=.! z @   # < # . . . . @ @ . . . . . . @ X . ",
"@ h x x x z @ . .   . . . .   . . .   X ! 1.s.g.g.g.g.g.g.g.g.d.d.g.g.g.g.g.g.g.s.1._ x @     . . . . . . . . . . . . . g x z @ ",
"h H j @ @ @ . . . . @ k k # h .   X b X 8 =.s.g.g.g.g.d.i.u.y.w.w.w.y.i.d.g.g.g.s.=.! g X b X . . h # k k @ . . . . . @ x P x @ ",
"@ h @ . # . . . . @ z v k h H h X U L.I 8 *.s.g.g.g.i.w.w.w.w.w.w.w.w.w.w.u.g.g.s.*.7 X U L.U X h H h k x z @ . . . . @ z D K X ",
". @ k h F # . . . k v z @ @ h @ b L.T.L.( *.s.g.g.i.w.w.w.w.w.w.w.w.w.w.w.w.y.d.s.1.0 b L.T.L.b @ h . @ z x k . . h . . X A J.J ",
". k L k h . . h @ k k @ . .   . X U L.I 8 -.s.g.g.y.w.w.w.w.w.w.w.w.w.w.w.w.w.i.s.5._ h I L.U X     . . @ k k . h H h . . X n X ",
". @ k @ . . . h . . . . . . . .   X b X 3 *.s.k.d.w.w.w.w.w.w.w.w.w.w.w.w.w.w.y.s.1.0 . X b X   . . . . . . . . . h @ . . # . . ",
". . . . . . . . . @ h @ . . . . . .   . 3 *.s.g.d.w.w.w.w.w.w.w.w.w.w.w.w.w.w.y.s.*.8 . .   . . . . . . . . . . .   . . h x h   ",
". . . . . . . . . h H h       . . . . . 8 *.s.g.g.y.w.w.w.w.w.w.w.w.w.w.w.w.w.u.s.*.) h   . . . . . . . @ @ . . . . # . . h . . ",
". . . . . . . . . @ h . . # . . . . . @ ! -.s.g.g.i.w.w.w.w.w.w.w.w.w.w.w.w.y.d.f.*.8 . . # . . . . . @ z z @ . . # F # . . . . ",
". . . @ k k .   X B X   # F # . . .   X ! -.g.g.g.g.i.w.w.w.w.w.w.w.w.w.w.y.d.g.f.&.8 . # F # . . . . @ z z @ . . . # h k k . . ",
". . g x v k .   B J.B . # h . .     . . 8 *.f.g.g.g.g.d.y.w.w.w.w.w.w.y.i.g.g.g.f.6.t . # h . . . . . . @ @ . . . . g x v k . . ",
". @ x P x @ . . X B X @ z x h .   o + @ ; $.e.g.g.g.g.g.g.d.d.i.d.d.d.g.g.g.g.g.h.,.1 X z x g .   o + o   . # . . @ x P x @ . . ",
". k v x g . . . .     @ x P x X o 4 { 4 + s q.g.g.g.g.g.g.g.g.g.g.g.k.g.g.g.g.k.t.] & X x P x X o 4 { 4 o N E N X k v x h . . . ",
". k k @ . . . . . h . . g x z X + { N.{ % ` v.g.g.g.g.g.g.g.g.g.g.g.g.g.g.g.g.g.9.p # . g x z X + { N.{ % E U.E h k k @ . . . . ",
". . . . . . .   h H h   . @ @ . @ 5 { 4 o y 4.g.g.g.g.g.g.g.g.g.g.g.g.g.g.g.g.f.-.` h . . @ @ . @ 4 { 4 @ N E N . . . . . . . . ",
". X . . . . . . . h . . . . .   . @ + @ X 2 ,.a.g.g.g.g.g.g.g.g.g.g.g.g.g.g.g.t.@., . . . . .   . @ + @ . g l k X X . . . . . . ",
"@ k # # . . . . . . g . . . # N # . X k k Z d 7.g.g.g.g.g.g.g.g.g.g.g.g.g.g.g.7.u o g . . . # N # . X k k x x k @ k @ # .   . . ",
". X h F h h . . . h x h     N P.N . k v c v ! &.s.g.g.g.g.g.g.g.g.g.g.g.g.g.h.%.1 g x h     N P.N . k v c v x g . X h F h h @ . ",
"  . . # h H h . . . h . . . # N # . k c P v V #.a.g.g.g.g.g.g.g.g.g.g.g.g.g.9.i & . h . . . # N # . k c P c k X   . . # h H h   ",
"h . . . @ h . . . . . . . . .   . g x v v v j u 3.f.g.g.g.g.g.g.g.g.g.g.g.f.-._ h   . . . . .   . g x v v v k @ # . .   . h @ . ",
"c g . . . . . . . . . . .   . . . k x c R k @ & i 8.g.g.g.g.g.g.g.g.g.g.g.7.s J.B   . . . . . . . k x c S k @ h x #   . . . . . ",
"h # < # . . . . . @ @ . . h . . . k k Y L.U X # ! >.r.g.g.g.g.g.g.g.g.g.t.#.2 J X @ @ . . h . . . k k Y L.U X . @ # < # . . . . ",
"  < O.< . . .   @ z x g h H h   . . b L.T.L.m N P.( $.9.f.g.g.g.g.g.g.f.;.r H # X z x g h H h   . . b L.T.L.m .   < O.< . . . . ",
". # < # . . .   @ x T x h h . . . . X U L.Y D h N # 3 @.7.f.g.g.g.g.f.3.p & h X @ x T x h h . . . . X U L.Y D h   # < # . . . . ",
". .   . .   . . . g x v k . . . . . . X b X @ .     o 1 i 3.p.a.a.a.7. ., h X . . g x v k . . . . . . X b X @ . . . . . . . . . ",
". . . . . . . . o - # k k . . . . . . .   . h . . h @ k V u @.@.@.@.p 2 x L z X o - # k k . . . . . . .   . h . . . . . . . . . ",
".   . k k k . o w X.w # . . . . .   . . X h H h h H h k x x = & & & O @ z D K * w X.w # . . . . .   . . X h H h . . . k k k . . ",
"@ h # v P v X - X.C.X.- . . . . # N # @ z x j . @ h @ @ z v k . . h . . X A J.C X.C.X.-   . . . # N # @ z x j . . h h v P v X . ",
"h H j x c x % O w X.y h . . .   N P.N k v x @ . .   . . @ k k . h H h     X n * w X.w # . . .   N P.N k v x @   h H j x c x % @ ",
"@ h # k l Q { 4 # - # x #   . . # N h k k k . . . . . . . . . . o h o . . # . . o - h x h   . . # N # k k k . . . h # k l Q { 6 ",
".   . @ % { N.{ + . . h . . . . .   . . . . . . . . . .     . .     . . h x h . . . . h . . . . .   . . . . . . .   . @ % { N.} ",
". . X k h 5 { 4 @ . . .   . . . . . . . . . . . . . . . @ @ . .   . # . . h . . . . . . . . . . . . . . . . . . . . X k h 5 [ 6 ",
". . . @ X @ $ @ . . . . . . . . . . . . . . . . . . . @ z z @ .   h H h   . . . . . . . . . . . . . . . . . . . . . . @ X @ $ @ "
};
