/* XPM */
static char *a26h6_2ddic[] = {
/* columns rows colors chars-per-pixel */
"64 64 209 2 ",
"   c #0A080D",
".  c #100F0C",
"X  c #15140A",
"o  c #18170B",
"O  c #1D1C0D",
"+  c #0B0715",
"@  c #0D0B13",
"#  c #0E0A1B",
"$  c #110E14",
"%  c #110C1D",
"&  c #161214",
"*  c #191415",
"=  c #15111B",
"-  c #1B141D",
";  c #1D1919",
":  c #21130F",
">  c #211F0E",
",  c #221E13",
"<  c #241C1D",
"1  c #24210E",
"2  c #2A260D",
"3  c #2E290D",
"4  c #332C0D",
"5  c #3B320C",
"6  c #262310",
"7  c #292711",
"8  c #2D2A13",
"9  c #28231B",
"0  c #2E2A1B",
"q  c #312E15",
"w  c #322D1E",
"e  c #343216",
"r  c #373419",
"t  c #393618",
"y  c #3D3A1A",
"u  c #130E24",
"i  c #140D2B",
"p  c #171123",
"a  c #191423",
"s  c #1F1A23",
"d  c #16112B",
"f  c #19132D",
"g  c #160F32",
"h  c #1D1535",
"j  c #1B1833",
"k  c #1E1639",
"l  c #1E1B3C",
"z  c #221C24",
"x  c #261D2A",
"c  c #231A35",
"v  c #271A37",
"b  c #20173D",
"n  c #231A3C",
"m  c #311B37",
"M  c #311D3B",
"N  c #132135",
"B  c #2A2424",
"V  c #2B2628",
"C  c #342826",
"Z  c #342B2B",
"A  c #3B3329",
"S  c #2C2532",
"D  c #2F2A32",
"F  c #352536",
"G  c #312A37",
"H  c #372539",
"J  c #342C3A",
"K  c #382E3D",
"L  c #3B3434",
"P  c #3A3439",
"I  c #41360C",
"U  c #453A0C",
"Y  c #4C3E0B",
"T  c #413E1B",
"R  c #523119",
"E  c #4A312C",
"W  c #492838",
"Q  c #502B37",
"!  c #453431",
"~  c #493633",
"^  c #433A3B",
"/  c #483838",
"(  c #563634",
")  c #543F3B",
"_  c #583F39",
"`  c #4F400B",
"'  c #53440B",
"]  c #58470A",
"[  c #5D4B0A",
"{  c #45411D",
"}  c #4A461F",
"|  c #614D0A",
" . c #695409",
".. c #6B5509",
"X. c #725A09",
"o. c #795F08",
"O. c #7C6108",
"+. c #4E4A20",
"@. c #504C21",
"#. c #555123",
"$. c #5A5626",
"%. c #5E5927",
"&. c #5F5929",
"*. c #55423C",
"=. c #5A433D",
"-. c #635E29",
";. c #66612B",
":. c #6B652C",
">. c #6F692E",
",. c #716B2F",
"<. c #626132",
"1. c #746E30",
"2. c #767031",
"3. c #7B7533",
"4. c #7E7835",
"5. c #1F1940",
"6. c #211742",
"7. c #231A42",
"8. c #281B47",
"9. c #23194A",
"0. c #261A54",
"q. c #291B57",
"w. c #291B5A",
"e. c #1D2B49",
"r. c #272446",
"t. c #2C214B",
"y. c #30254F",
"u. c #373445",
"i. c #3D3444",
"p. c #3E3649",
"a. c #252955",
"s. c #302552",
"d. c #352B56",
"f. c #35295A",
"g. c #213152",
"h. c #24325C",
"j. c #2C1F67",
"k. c #2D1F69",
"l. c #2B266A",
"z. c #3D3165",
"x. c #3E3168",
"c. c #2F2271",
"v. c #4E2A47",
"b. c #443947",
"n. c #443A4C",
"m. c #513441",
"M. c #513852",
"N. c #402866",
"B. c #4B404A",
"V. c #554146",
"C. c #5B4443",
"Z. c #4B4153",
"A. c #584857",
"S. c #654948",
"D. c #644D57",
"F. c #76575A",
"G. c #5F5363",
"H. c #625565",
"J. c #6B5966",
"K. c #765D66",
"L. c #76606B",
"P. c #7D626B",
"I. c #8D6D07",
"U. c #856808",
"Y. c #947207",
"T. c #9B7806",
"R. c #A37E06",
"E. c #824A27",
"W. c #874838",
"Q. c #89493A",
"!. c #9D5435",
"~. c #A06832",
"^. c #A97B3B",
"/. c #965F43",
"(. c #815D5E",
"). c #83744B",
"_. c #9A6150",
"`. c #876468",
"'. c #966D6E",
"]. c #946E71",
"[. c #997072",
"{. c #A47573",
"}. c #A78005",
"|. c #AB8305",
" X c #B58A05",
".X c #B68B04",
"XX c #BC9004",
"oX c #C39404",
"OX c #CC9C03",
"+X c #D09E03",
"@X c #D4A103",
"#X c #DBA602",
"$X c #DEA902",
"%X c #E2AB02",
"&X c #E8AF01",
"*X c #EDB301",
"=X c #F1B601",
"-X c #F6B901",
";X c #FCBE00",
":X c #C48837",
">X c #CD8C47",
",X c #D9A150",
"<X c #EBBB49",
"1X c #23728B",
"2X c #267593",
"3X c #4F4081",
"4X c #5A4990",
"5X c #614F9C",
"6X c #26899F",
/* pixels */
"k k k 6.9.9.k k k k k k k k k k k b k k k k k k k k 6.9.9.b n k k k k 6.9.9.k k k k k k k k k k k b k k k k k k k k k 6.9.9.k k ",
"k k 6.q.w.9.k n t.n k k k k k n n 9.b k k k 7.b k 9.q.q.9.t.x.t.k k 6.q.w.9.k n t.n k k k k k n n 9.k k k k 7.b k k 7.q.w.9.k k ",
"k b q.k.q.b k t.3Xt.M n k 7.7.s.7.k k k k 7.f.7.9.k.c.q.7.x.5Xx.n b q.k.q.b k t.3Xt.M n k 7.7.s.7.k k k k 7.f.n k 6.q.k.q.b k k ",
"k 9.w.q.6.k k n t.m./.Q 7.f.7.n k k k k k b r.g.a.c.k.9.k t.x.t.k 9.w.q.7.k k n t.m./.Q 7.f.7.n b k k k k b r.g.5.9.w.q.7.k k k ",
"k 9.9.b k k k k M /.,X/.H 7.k k k k b k k k e.2Xl.q.9.k k k n k k 9.9.b k k k k M /.,X/.H 7.k k k k 7.k k k g.2Xg.6.9.b k k k k ",
"k k k k k k k k n m._.M.n k k k k k k u u u d e.g i u u u u f k k k k k k k k k n m._.M.n k k k k 6.q.7.k k 7.h.7.k k k k k k k ",
"k k k k k k k k k q.N.q.k k k j S f = & & $ @ @ @   @ @ $ $ p f h h h h k k k k k q.z.q.k k k n K n b k k k k k k k k k k k k k ",
"b 9.b n k k k k b 0.q.6.k k f - 0 < / S.C.b.i.K S x x V P ) C @ @ # @ @ u k k k b 0.q.7.k k k K ).K k k b b k k k 9.n n k k k k ",
"k k 7.s.7.7.k k k b b k d u % = ; L (.{.'.`.L.J.A.Z.n.p.A.`.S.C C C Z Z z f k k k k k k k k k n K n k k 0.q.7.k k k n s.7.7.k k ",
"k k k n 7.f.7.k k k k u @   $ < V L *.S.C.C.C.V.^ P P D L ) ) ~ ! ! ~ ~ B & = a a a a a a a a a p a f k q.k.q.b k k k n 7.f.7.k ",
"7.k k k k 7.k k k k u & O > > 7 6 > 1 1 6 1 6 6 6 6 1 1 1 1 6 6 6 6 1 6 1 > > > > 1 1 > > > > > > , , z n q.0.b 7.k k k k 7.k k ",
"w.6.k k k k k k k d - 6 r { y T T e 7 6 6 6 7 e T T y y t 7 6 7 6 7 e y { T T t 8 6 7 7 7 q t y T T t 8 9 c 7.7.q.6.k k k k k k ",
"7.n K n k k k k u $ 6 T ;.2.2.1.:.} 8 7 7 7 T ;.1.1.1.>.} 7 7 1 1 y -.1.1.,.:.+.8 1 6 7 y -.1.2.1.,.$.q 6 9 d.t.7.n K n k k k k ",
"k K ).K k k k u $ , { >.3.4.3.,.@.8 1 1 1 y -.1.1.1.,.#.8 1 7 7 t &.1.2.1.>.#.8 7 6 6 e $.1.3.4.3.%.r 7 1 6 p.z.n K ).K k k k k ",
"k n K n k h d @ * r :.3.2.3.1.+.8 1 > > 1 8 e e e e q 6 > 1 1 1 8 q e e e q 7 1 1 1 1 7 q e t +.#.e 1 1 6 8 C n k n K n k k k k ",
"k k k k k u @ - < t >.3.3.1.{ 1 > > > > > > > > > > > > > > > > > > > > > > > > > > > > > > > > 6 1 1 6 r #.y x k k k k k k k k ",
"t.n c F c %   - 9 y ,.4.1.{ 1 > > > > > > > > > > > > > > > > > > > > > > > > > > > > > > > > > > > 1 e $.>.{ z k k k k k k k k ",
"4Xt.( !.E % @ z 9 y ,.1.+.6 > > > O O O > > O O O O O > > > O O > > > O O O O O > > > > O O O > > > 6 $.3.1.y z k k k 9.0.9.k k ",
"s.H ~.:XR - S K B T :.+.6 > > > 4  .O.| 4 5  .X. .X...4 > 1 ] I > > > U X.X.X.] 1 > > 4  .O.[ 4 > > 1 $.3.2.T z k 7.7.w.k.w.k k ",
"0.7.( E.: V A.A.Z e } 8 > > > 4 .X*X%X*XT.[ %X*X;X*X$X' O 4 #XR.> > O I.;X&X*X*XO.O 4 XX*X%X*XT.1 > > } 3.2.T z 7.f.7.q.w.q.M c ",
"w.0.n x $ ! `.K.L 1 7 6 1 > O [ =XX.4 ] ' 2 5 X.=X .5 2 O  .;X%X5 O O I.%XY 5 oXOX1 | =X .4 ] ' > > > { 3.-.8 s k 7.n 9.9.v.Q.Q ",
"w.q.b f @ ~ `.P.P 1 1 > > > O ' =X.X .5 > > O [ *X' O > 1 .X+X%Xo.O O I.&X .| @XoX1 [ -X|. .5 > > > > T -.y 1 ; k k k 5.M Q.>X!.",
"q.0.h u - / F.P./ > > 6 1 > > 2 I.#X*X&XU.1 O [ *X' O O U &XX.}.oX2 O I.;X=X;X&X| O 2 I.#X*X&XU.1 > > e e 6 O * d k k 9.7.W Q.Q ",
"h.5.% $ S i.A.F.) > 1 y e > > > > 4 U |.%X4 O | *X' O O U.-XT..X=X' O I.%X .%X.X1 > > > 4 Y .X$X4 > > 1 1 1 1 , = f k k k b m c ",
"6Xe.# @ G p.b.V.! 6 y -.y > O ] T.[ ] .X#X4 O | *X' O 3 OX*X#X#X-XY.O I.$X4 U.=X| O [ T.[ ] XX@X4 > > > > 1 1 Z S = d n k k k 7.",
"g.l # $ D p.u.u.Z e ;.2.y > O [ @X*X*X$XX.> O [ $X` O ] %X..4 4 R.OX3 U.OX4 4 OX.X2 | @X*X*X$XX.> > > > 1 7 6 ^ i.@ f x.t.k n w.",
"k k % @ S b.b.b.V t 1.3.y > > > 4 Y ' 5 > > > 3 U 2 > 4 U 1 O O 4 U 1 4 I 1 O 5 U 1 O 4 Y ' 5 > > > > 1 e +.t ) B.- r.4Xx.n k 7.",
"b 9.i @ S A.F.F.A t 1.3.y > > > > O O O 1 4 3 > O > 1 4 5 5 5 4 > 3 5 5 5 4 4 5 5 5 5 1 O O > > > > > 8 $.>.T *.F.C.F r.7.n 7.b ",
"b 9.i $ P K.'.'./ t 1.1.e > > > > > > > 1 .XU.O > > 2 .X%X#X%XT.1 T.&X$X$X.X.X%X%X$X+XU O > > > > > > t 2.2.} *.`.F.C @ f 7.f.7.",
"k k i - S.'.'.P.^ t >.@.6 > > > > > > > 1 oXY.O > > 2 OX}.[ [ Y 1 .XoX[ [ ' ' X.*XY.[ 3 > > > > > > > T 3.2.{ ! A.M.z @ f k 7.b ",
"k k i < F.'.P.H.L e } 1 O > > > > > > > 1 oXY.O > > 2 OXR.] ] 2 > .X.XY Y 2 O 4 $X .O > > > > > > > > { 3.1.y L n.u.S a u f k k ",
"b 7.i < F.].K.G.L O 6 O O > > > > > > > 1 oXY.O > > 2 OX*X#X@XY O .X-X$X#X] O 5 $X .O > > > > > > > > { 3.-.q ^ A.n.b.S @ i 9.b ",
"7.s.u < F.[.`.J.L O > O O > > > > > > > 1 oXY.O O O 2 OXY.4 5 1 1 .X.XU U 2 O 5 $X .O > > > > > > > > T ;.y > ^ H.A.Z.G @ g 9.b ",
"b n % & V.`.[.`./ O > O 1 > > > > > > > 1 oXOXI.Y. .3 +XoXI.I. .1 .X}.O O > O 5 %X .O > > > > > > > > e r 1 O P H.H.A.G @ d g.5.",
"k k u @ G D.`.'.*.O O e q > > > > > > > 1 Y.oXoXoXY.2 T.oXoXoXI.1 I.O.> > > > 4 }.] O > > > > > > > > 1 O O O ^ J.H.Z.S @ N 1Xg.",
"k 6.i @ S n.D.`.*.O e -.y > > > > > > > > 1 1 1 1 1 > 1 1 1 1 1 > 1 1 > > > > > 1 1 > > > > > > > > > O O O O *.P.H.J = u j e.l ",
"k k u @ S i.n.D.~ q %.1.y > > > > > > > > > > > > > > > > > > > > > > > > > > > > > > > > > > > > > > > O 6 O =.[.K.Z @ f 7.k k ",
"k k # @ G b.p.b.V t ,.3.y > > > > > > > > > > > > > > > > > > > > > > > > > > > > > > > > > > > > > > O 7 +.q =.[.F.Z @ k q.6.k ",
"k k # @ G n.p.u.B t 1.3.y > > > > > > > > > > > > > > > > > > > > > > > > > > > > > > > > > > > > > > 6 +.>.y =.F.! x f k b k k ",
"k k u % x K i.i.B t 1.1.t > > > > > > > > > > > > > > > > > > > > > > > > > > > > > > > > > > > > > > t ,.1.T *.C.& h n k k k k ",
"k k k f % z u.p.B t >.#.7 > > > > > > > > > > > > > > > > > > > > > > > > > > > > > > > > > > > > > > T 3.>.y ^ b.$ u b 9.9.k k ",
"k k 6.6.+ & G i.B 8 } 7 O > > > > > > > > > > > > > > > > > > > > > > > > > > > > > > > > > > > > > > { 3.,.t P b.$ u q.w.9.k k ",
"k b q.0.+ $ S K B O 1 O O > > > > > > > > > > > > > > > > > > > > > > > > > > > > > > > > > > > > > > { 3.-.8 Z G = k j.q.b k k ",
"k 9.w.6.+ $ x F 9 O O X O > > > > > > > > > > > > > > > > > > > > > > > > > > > > > > > > > > > > > > T -.e O ; = h 0.q.7.k k k ",
"k 9.9.k u % - x < O O O 1 > > > > > > > > > > > > > > > > > > > > > > > > > > > > > > > > > > > > > > e q o O X + k 9.b k k k k ",
"k k k k k u @ - ; X O q q > > > > > > > > > > > > > > > > > > > > > > > > > > > > > > > > > > > > > > 1 O O O . # h k k k k k k ",
"k k k k k h u @ X O q %.y > > > > > > > > > > > > > > > > > > > > > > > > > > > > > > > > > > > > > > O X O X = h k k k k k k k ",
"b 9.b n k k k u . 6 %.3.y > > > > > > > > > > > > > > > > > > > > > > > > > > > > > > > > > > > > > > O X O O a b 9.n n k k k k ",
"k k 7.s.7.7.k k = e ,.2.y O > > > > > > > > > > > > > > > > > > > > > > > > > > > > > > > > > > > > > O O T q a k k n s.7.7.b k ",
"k k k n 7.f.7.k - t 1.3.} > > > > > > > > > > > > > > > > > > > > > > > > > > > > > > > > > > > > > > 1 { :.e p k k k n 7.f.7.k ",
"7.k k k b 7.k k a e ,.3.{ > > > > > > > > > > > > > > > > > > > > > > > > > > > > > > > > > > > > > 1 } ,.1.e a n k k k k 7.b k ",
"w.6.k k k k k k f q >.#.6 O > > > > > > > > > > > > > > > > > > > > > > > > > > > > > > > > > > > > T 1.3.1.t j q.b k k k k k k ",
"7.n K n k k k k h C +.1 O O O > > > > > > > > > > > > > > > > > > > > > > > > > > > > > > > > > > t >.3.3.2.A k 6.n K n k k k k ",
"k K ).K k k k k k n 6 O O O 8 { q 1 1 1 1 > > > > > 1 1 1 1 1 > > > > > > 1 1 1 1 1 1 > > > > 1 { >.3.3.3.<.G k k K ).K k k k k ",
"k n K n k k k k k 0.k o O 7 %.3.1.-.$.T 1 O O O 1 } %.$.%.$.{ 1 O O O 6 { $.-.&.%.} 6 O o o 1 } 1.3.4.3.<.J q.7.k n K n k k k k ",
"k k k k k k k k k 6.0.c 9 +.:.>.,.,.$.8 X X X O { ;.>.,.,.%.q X X X O T ;.,.,.1.-.e o X X O T ;.>.>.>.&.D l b k k k k k k k k k ",
"k k k k k k k k n H 7.9.n V C 0 0 w 9 & & * & * 0 w 0 w 0 6 . . X . X 6 w w 0 0 6 , & & & & 0 w w C V c k k 7.k k k k k k k k k ",
"k k k 9.9.9.k n _ ^._ v k k k h h h h h k 7.y.h h r.h k 6.6.h f f f f f k 7.e.j ~ ~._ c k h h h h k k k k 8.f.7.k k k 9.9.9.k k ",
"b 7.n w.k.w.k F ^.<X^.F k k k k n t.n b 0.q.8.k b 7.n b 0.w.9.k k 7.k k k g.1Xp.^.<X^.F k k k k n t.n b 0.q.8.k k 7.7.w.k.w.k k ",
"7.f.8.q.w.q.M v ) ^._ 7.k k k k t.3Xt.9.w.q.b k k k k k b 9.9.k 7.f.7.k k l e.n _ ^.*.n k k k k t.3Xt.9.w.q.b k 7.f.8.q.w.q.M b ",
"b 7.n 9.8.v.Q.W v F n q.7.k k k n t.n 9.9.9.k k k k k k k k k k k 7.b k k n k k n F n q.n k k k n t.n 9.9.9.k k k 7.n 9.8.v.Q.Q ",
"k k k k M Q.>XQ.m k k 7.k k k k k k k k k k k k k k k k k k k k k k k k 7.q.7.k k k k n k k k k k k k k k k k k k k k b M Q.>X!.",
"k k k 9.7.W Q.W b k k k k k k k k k k k k k k k k k k k b b k k k k n k k 7.k k k k k k k k k k k k k k k k k k k k k 9.7.W W.Q ",
"k k k b k b m b k k k k k k k k k k k k k k k k k k k b 0.0.b k k 7.f.7.k k k k k k k k k k k k k k k k k k k k k k k b k b m b "
};
