/* XPM */
static char *akgcu_wa5ht[] = {
/* columns rows colors chars-per-pixel */
"64 64 196 2 ",
"   c #1E1537",
".  c #1E1639",
"X  c #1E1A3C",
"o  c #221737",
"O  c #241B36",
"+  c #2F1B37",
"@  c #20173D",
"#  c #221A3C",
"$  c #281F3A",
"%  c #311B37",
"&  c #311D3A",
"*  c #2D2435",
"=  c #23203D",
"-  c #2B233C",
";  c #352536",
":  c #352C33",
">  c #33233B",
",  c #37273A",
"<  c #382E3D",
"1  c #3B3232",
"2  c #3B3338",
"3  c #43372F",
"4  c #433B2F",
"5  c #492837",
"6  c #502B37",
"7  c #443A36",
"8  c #4F323B",
"9  c #573536",
"0  c #583F39",
"q  c #54411D",
"w  c #786A18",
"e  c #4D442D",
"r  c #574A29",
"t  c #5B532A",
"y  c #4D4431",
"u  c #544A35",
"i  c #5A5031",
"p  c #635826",
"a  c #664F32",
"s  c #685838",
"d  c #7C7322",
"f  c #79702A",
"g  c #796B36",
"h  c #7A7532",
"j  c #1F1740",
"k  c #1F1C41",
"l  c #211741",
"z  c #231A42",
"x  c #281D41",
"c  c #23194A",
"v  c #281A4A",
"b  c #271A54",
"n  c #281B57",
"m  c #271D59",
"M  c #291B5A",
"N  c #1B244A",
"B  c #1F2E4E",
"V  c #262244",
"C  c #2B214B",
"Z  c #202E4E",
"A  c #362A48",
"S  c #3A3649",
"D  c #252758",
"F  c #302552",
"G  c #332857",
"H  c #35295A",
"J  c #213152",
"K  c #24315B",
"L  c #3C3057",
"P  c #2B1C61",
"I  c #2D1F69",
"U  c #183A63",
"Y  c #193B67",
"T  c #2E2163",
"R  c #2D206A",
"E  c #283267",
"W  c #3E3167",
"Q  c #2F2271",
"!  c #4E2A47",
"~  c #513441",
"^  c #563553",
"/  c #402866",
"(  c #514844",
")  c #6C5842",
"_  c #554C6A",
"`  c #897A1D",
"'  c #907715",
"]  c #894A37",
"[  c #89493A",
"{  c #9A5436",
"}  c #A65F32",
"|  c #8B6F24",
" . c #847924",
".. c #857837",
"X. c #A97B3B",
"o. c #965F43",
"O. c #83744B",
"+. c #9A6150",
"@. c #4A8C74",
"#. c #888016",
"$. c #8D821D",
"%. c #958A18",
"&. c #9A8F1B",
"*. c #9C921C",
"=. c #AB9110",
"-. c #A49918",
";. c #B39C16",
":. c #ADA315",
">. c #B2A615",
",. c #B5AA14",
"<. c #BEB211",
"1. c #938A26",
"2. c #9B9526",
"3. c #938936",
"4. c #948934",
"5. c #AE932C",
"6. c #ADB524",
"7. c #C7A90E",
"8. c #C9BB0B",
"9. c #D9BA0A",
"0. c #C9A519",
"q. c #C4B813",
"w. c #E3BE08",
"e. c #C8BB32",
"r. c #CCC40C",
"t. c #D6CA0B",
"y. c #DED409",
"u. c #DBDC16",
"i. c #ECC905",
"p. c #F4CB02",
"a. c #E4DC06",
"s. c #E8D807",
"d. c #EBDC06",
"f. c #E2D50A",
"g. c #E4DA09",
"h. c #F5D303",
"j. c #F5DB03",
"k. c #F8DB02",
"l. c #ECE206",
"z. c #EFE407",
"x. c #F3E504",
"c. c #FBE302",
"v. c #F4E804",
"b. c #FFEE00",
"n. c #FCEC0D",
"m. c #FCF002",
"M. c #EAEB10",
"N. c #FCED15",
"B. c #FBED1D",
"V. c #E0D324",
"C. c #FAED23",
"Z. c #FEF026",
"A. c #FDF13F",
"S. c #938B64",
"D. c #A39C6E",
"F. c #CD8C47",
"G. c #D19541",
"H. c #D9A150",
"J. c #EAB246",
"K. c #C5BE77",
"L. c #9ED85A",
"P. c #DBD359",
"I. c #E2DA52",
"U. c #F8ED4A",
"Y. c #FDF248",
"T. c #F8EF53",
"R. c #FEF354",
"E. c #FEF35B",
"W. c #E0DB7B",
"Q. c #FDF465",
"!. c #FDF574",
"~. c #24748E",
"^. c #367F83",
"/. c #267693",
"(. c #1171A1",
"). c #4F4081",
"_. c #594990",
"`. c #614F9C",
"'. c #817D86",
"]. c #26899F",
"[. c #16B1D9",
"{. c #A9A791",
"}. c #A9A6B3",
"|. c #FEF788",
" X c #FEF89D",
".X c #F7F3AD",
"XX c #FDFBCB",
"oX c #EDEDD9",
"OX c #F1F0D4",
"+X c #FDFBD3",
"@X c #FBFADB",
"#X c #E0E0E5",
"$X c #F9F9E5",
"%X c #FDFDE4",
"&X c #FDFDF2",
"*X c #FCFDFC",
/* pixels */
". . . l c c . .   . . . . . .   . @ . . . .   . . . l c c @ # . . . . l c c . .   . . . . . . . . @ . . . . . . . . . l c c . . ",
". . l n M c . # C # . . .   . # # c @ . . . z @ . c n M c C W C . . l n M c . # C # . . .   . # # c . . . . z @ . . l n M c . . ",
". @ n I n @   C ).C & o . z z F z . . . . z H z c R Q n z W `.W # @ n I n @   C ).C & o . z z F z . . .   z H z . @ n I n @ . . ",
". c M n l . . # C ~ o.8 x H z # . . . . . . V J D Q R c . C W C @ c M n z . . # C ~ o.8 x H z # . .   . . @ V J k c M n l . . . ",
". c c @ . . . . & o.H.o.> z .   . . z . .   B /.E n c . . . # . . c c @ . . . . & o.H.o.> z @ . . . z . .   Z /.J c c @ . . . . ",
". . . . . . . . o ~ +.^ #   . .   l n z .   z E b z z . . . . . . . . . . . . . o ~ +.^ # . . .   l n z     z K z . . . . . . . ",
". . .   . . . . . n W n . . . $ < $ l . . . . . . z H z   . . . . . .   . . . . . n / n . . . $ < $ l . . . . . . . .   . . . . ",
"@ c @ # . . . . @ b n l . . . < O.<   . . . . . . . z # z . . . . c # # .   . . @ b n z . . . < O.<   . @ @ .   . c # # .   . . ",
". . z F z z . . . @ @ .   . . $ < $ . . b n z . . .   # H z . . . . z F z z @ . . @ @ . . . . $ < $ . . b n z . . . z F z z . . ",
". . . # z H z   . . . . . .     . .   . n I n @ . . X J V . . .     . # z H z . . . . . . .   . . .   . n I n .   . . # z H z   ",
"z . . . . z . . . . @ c c # z . . X N X l n b @ .   Z /.Z   O 1 y e 1 o . z o . . . @ c c # z .   X N X l n b @ z . . . . z . . ",
"m l . . .   . . . @ b n c z H z X U (.U X @ z . .   z K k o e *.q.<.*.e o . . . . @ b n c z H z X U (.U X @ z z n l . . .   . . ",
"z $ < $ . . . . . c M b @ @ z @ N (.[.(.N C W C . . . . @ 7 3.I.T.B.s.-.e o . . . c M b @ . z @ N (.[.(.N v W C z $ < $ . . . . ",
"  < O.< . . . . . c c @ . .   . X U (.U z W `.W z . . o 4 3.W.+X%X XC.f.` * . . . c c @ . . . . X U (.U z W `.W # < O.< . . . . ",
". $ < $ . . . . . . . . . . . .   X N X . C W C c @ o 4 1.I.+X*X*X&X|.n.,.e   . . . . . . . . . . X N X . C W C . $ < $ . . . . ",
"  . . . . . . . . . . . . . . . . . . . . . # @ c @ : $.V..X*X*X*X*X@XA.y.` : . . . . . . . . . . . . . . . # . . . . . . . . . ",
"C # o % o   . @ c c @ # . . . . @ c c . . .   . . o p 8.T.%X*X*X*X*X*X XN.t. ., c c . # . . . . @ c c . . . . . . . . . . . . . ",
"_.C 9 } 9 o c M M c C W C . . z n M c . . . . . . : %.d.!.*X*X+XXX*X*X@XY.c.8.s n c C W C . . l n M c . . . . . . . . c b c . . ",
"F , } J.} A R Q M z W `.W # @ n I n @ . . . . . o i q.c.E.%X%X!.!.%X&X@XU.b.g...F c W `.W # @ n I n @ . . . . . @ z z M I M . . ",
"b z 9 } 9 n Q R c . C W C @ c M n l . . . . . . > 4.f.b.N.E.E.N.N.R.!.Y.N.c.l.5.7 . C W C . c M n l . . . . . . z H z n m n & o ",
"M b # ; v M M c . . . # . . c c @ . . . . . . . e ,.x.b.b.b.b.b.b.b.b.b.b.c.x.8.p O . # . . c c @ . . . . . . . @ z # c c ! [ 6 ",
"M n @ . c c z z . . . . . . . . . . . . . . . * d y.b.b.b.b.b.b.b.b.b.b.b.b.b.d.*.4 o     . . . . . . . . . . . .   . . & [ F.{ ",
"n b @ . . . z H z   . . . . .   . . . . . .   e ,.x.b.b.b.b.b.b.b.b.b.b.b.b.b.c.t. .( S A $ . . . . . . . . .   . . . c z 5 [ 6 ",
"K z . . . . . x C # . . . . . # # c . . . o 2 $.f.b.b.b.b.b.b.b.b.b.b.b.b.b.b.b.C.P.{.{.S.s 7 ; # . . . . . # C #   . . . @ + o ",
"].Z . z @ .   C ).C & o . z z F z . . V 2 i 4.8.v.b.b.b.b.b.b.b.b.b.b.b.b.b.n.Q..X@X$XoX.Xe.:. .( - z @ o & C ).C . . # . . . z ",
"J X z H z . . # C ~ o.8 x H z # . # _ '.D.e.f.x.b.b.b.b.b.b.b.b.b.b.b.b.b.b.C.XX*X*X*X*X@XU.x.f.-.u H x 8 o.~ F c c C W C . z m ",
". . # z . . .   & o.H.o.> z @ O 1 _ }.#XOXU.b.b.b.b.b.b.b.b.b.b.b.b.b.b.b.b.n.E..XXX+X+X|.B.c.v.y. .- > o.H.o.> b b W `.W # . z ",
"@ b b l . . . . o ~ +.^ #   O t *.K.oXXX|.B.b.b.b.b.b.b.b.b.b.b.b.b.b.b.b.b.b.b.N.Z.Z.Z.N.b.b.c.d.-.1 # ^ +.~ # b c C W C o z @ ",
"@ b M M b . . . . n / n . . 1 *.d.C.Y.Z.n.b.b.b.b.b.b.b.b.b.b.b.b.b.b.b.b.b.b.b.b.b.b.b.b.b.b.b.x.>.4 . n / n l c . . # . z H z ",
". l M R m l . . @ b n z . . e <.c.b.b.b.b.b.b.b.b.b.b.b.b.b.b.b.b.b.b.b.b.b.b.b.b.b.b.b.b.b.c.b.c.>.4 . l n b @ . . . . . @ z @ ",
"  @ M P M b @ . . @ . . . . e q.c.b.b.b.b.b.b.b.b.b.b.b.b.b.b.b.b.b.b.b.b.b.b.b.b.b.b.m.c.k.h.k.x.>.4 . . @ @ . . . . . . @ . . ",
"@ z n n M b @ . . . . . . . 4 ,.x.b.b.b.b.b.b.b.b.b.b.b.b.b.b.b.b.b.b.b.b.b.b.b.b.b.b.b.k.p.p.p.s.&.: . . . . . . . . . z n b @ ",
"z H x @ @ @ . . . . @ c c @ 2 &.l.b.b.b.b.b.b.b.b.b.b.b.b.b.b.b.b.b.b.b.b.b.b.b.b.b.b.k.p.p.p.p.9.d - c c @ . . . . . @ n I n @ ",
"@ z @ . # . . . . @ b M c z L f t.m.b.b.b.b.b.b.b.b.b.b.b.b.b.b.b.b.b.b.b.b.b.b.b.b.c.p.p.p.p.p.0.) x c n b @ . . . . @ b D K X ",
". @ c z F # . . . c M b @ . z 1 1.u.b.b.b.b.b.b.b.b.b.b.b.b.b.b.b.b.b.b.b.b.b.b.b.b.k.p.p.p.p.w.' < . @ b n c . . z . . . J ~.J ",
". c P c z . . z @ c c @ . .   . 1 1.u.b.b.b.b.b.b.b.b.b.b.b.b.b.b.b.b.b.b.b.b.b.b.c.h.p.p.p.p.7.r o . . @ c c . z H z . . X B X ",
". @ c @ . . . z . . . . . . . . . 4 -.d.b.b.b.b.b.b.b.b.b.b.b.b.b.b.b.b.b.b.b.b.b.c.p.p.p.p.w.' : . . . . . . . . z @ . . # . . ",
". . . . . . . . . . z . . . . . . o t q.v.b.b.b.b.b.b.b.b.b.b.b.b.b.b.b.b.b.b.b.b.c.h.p.p.i.;.e o . . . . . . . .   . . z n z   ",
". . . . . . . . . z H z . . . . . . : %.s.b.b.b.b.b.b.b.b.b.b.b.b.b.b.b.b.b.b.b.b.b.c.k.c.s.` * . . . . @ @ . . . . # . . z . . ",
". . . . . . . . . @ z . . # . . . . o t q.v.b.b.b.b.b.b.b.b.b.b.b.b.b.b.b.b.b.b.b.b.b.b.m.a.d O . . . @ b b @   . # F # . . . . ",
". . . @ c c .   X Z X   # F # . . . . ; 1.s.b.b.b.b.b.b.b.b.b.b.b.b.b.b.b.b.b.b.b.b.b.b.b.g.d O . .   @ b b @   . . # z c c . . ",
". . l n M c .   Z ~.Z . # z . . . . . *  .f.b.b.b.b.b.b.b.b.b.b.b.b.b.b.b.b.b.b.b.b.b.b.b.g.d O . . . . @ @ . . . . l n M c . . ",
". @ n I n @ . . X Z X @ b n z .   o + 3 -.x.b.b.b.b.b.b.b.b.b.b.b.b.b.b.b.b.b.b.b.b.b.b.b.f.d O . o + @   . # . . @ n I n @ . . ",
". c M n l . . . .     @ n I n . o 5 ] | t.c.b.b.b.b.b.b.b.b.b.b.b.b.b.b.b.b.b.b.b.b.b.b.b.f...$ o 5 [ 5 @ C W C . c M n z . . . ",
". c c @ . . . . . z . . z n b . + [ G.0.d.b.b.b.b.b.b.b.b.b.b.b.b.b.b.b.b.b.b.b.b.b.b.b.b.f...$ + [ F.[ & W `.W z c c @ . . . . ",
". . . . . . .   z H z . . @ @ . @ 5 { ;.z.b.b.b.b.b.b.b.b.b.b.b.b.b.b.b.b.b.b.b.b.b.b.b.b.g.d O @ 5 [ 5 @ C W C . . . . . . . . ",
". . . . . . . . . z . . . . .   . @ 3 *.v.b.b.b.b.b.b.b.b.b.b.b.b.b.b.b.b.b.b.b.b.b.b.b.m.a.d O . @ + @ . z v c . . . . . . . . ",
"@ c # # .   . . . . z . . . # C # . : 2.v.b.b.b.b.b.b.b.b.b.b.b.b.b.b.b.b.b.b.b.b.b.b.b.m.a.d A # . . c c n n c @ c # # .   . . ",
". . z F z z . . . z n z     C ).C . A 2.v.b.b.b.b.b.b.b.b.b.b.b.b.b.b.b.b.b.b.b.b.b.b.b.b.t.g _ C . c M m M n l . . z F z z @ . ",
". . . # z H z . . . z . . . # C # . A 2.v.b.b.b.b.b.b.b.b.b.b.b.b.b.b.b.b.b.b.b.b.b.b.b.x.:.y C # . c m R m c .   . . # z H z   ",
"z . . . @ z . . . . . . . . .   . j A 2.x.b.b.b.b.b.b.b.b.b.b.c.k.j.c.b.b.b.b.b.b.b.b.b.d.$.*   . l n M M M c @ l . .   . z . . ",
"m l . . . . . . . . . . .   . . . c A 1.l.b.b.b.b.b.b.b.b.c.k.h.9.7.s.b.b.b.b.b.b.b.b.b.d.$.* . . c n m T c @ z n l   . . . . . ",
"z $ < $ . . . . . @ @ . . z . . . c C h u.b.b.b.b.b.b.b.c.h.i.7.` p *.y.v.b.b.b.b.b.b.b.g. .* . . c c Y (.Y X . @ $ < $ . . . . ",
"  < O.< . . .   @ b n l z H z   . . N ^.L.M.b.b.b.b.b.c.i.7.*.g 2 $ 4 ` <.l.b.b.b.b.b.c.t.g - . . . N (.[.(.N .   < O.< . . . . ",
". $ < $ . . .   @ n R n z z . . . . X U @.6.l.m.b.x.8.=.' r 1 - # c # * t :.a.b.b.b.m.d.*.7 @ . . . X U (.Y D z   $ < $ . . . . ",
". .   . .   . . . l n M c . . . . . . X Z i -.r.r.:.w q 3 O . . . . . . $ u *.r.a.a.y.>.u o . . . . . X N X @ . . . . . . . . . ",
". . . . . . . . o , # c c . . . . . . .   $ 7 t r 3 ; V z @ . . . . . @ n T S p #.%.d u x . . . . . . .   . z . . . . . . . . . ",
".   . c c c . o 0 X.0 O . . . . .   . . . z H z z H z c M b @ . . . . @ b D K - a 5.a $ . . . . .   . . . z H z . . . c c c . . ",
". z z M I M . ; X.J.X., . . . . # C # @ b n x . . z @ @ b n c . . z . . . J ~.S X.J.X.; . . . . # C # @ b n x . . z z M I M . . ",
"z H z n m n & O 0 X.u z . . .   C ).C c M n @ . . . . . @ c c . z H z .   X B = 0 X.0 # . . .   C ).C c M n @   z H x n m n & @ ",
"@ z # c v ! [ 5 O ; z n z   . . # C z c c c . . . . . . . . . . . z @ . . # . . O ; # n z   . . # C z c c c . . . z # c v ! [ 6 ",
".   . @ & [ F.[ + . . z . . . . .   . . . . . . . . . .     . . .       z n z .   . . z . . . . .   . . . . . . .   . @ & [ F.{ ",
". . . c z 5 [ 5 @ . . .   . . . . . . . . . . . . . . . @ @ . . . . # . . z . . . . . . . . . . . . . . . . . . . . . c z 5 [ 6 ",
". . . @ . @ % @ . . . . . . . . . . . . . . . . . . . @ b b @ . . z G z   . . . . . . . . . . . . . . . . . . . . . . @ . @ % @ "
};
