/* XPM */
static char *a18do_3xm1j[] = {
/* columns rows colors chars-per-pixel */
"64 64 254 2 ",
"   c #010101",
".  c #09090C",
"X  c #070616",
"o  c #141412",
"O  c #111015",
"+  c #1A1A17",
"@  c #2A281B",
"#  c #090825",
"$  c #0B0926",
"%  c #101128",
"&  c #0A1638",
"*  c #1D1537",
"=  c #161832",
"-  c #1E1639",
";  c #1F1A3C",
":  c #291E2B",
">  c #251937",
",  c #20173C",
"<  c #221A3C",
"1  c #311C3A",
"2  c #1E2026",
"3  c #2A2927",
"4  c #312E29",
"5  c #38362A",
"6  c #23273C",
"7  c #352439",
"8  c #382E3D",
"9  c #343433",
"0  c #3A3A38",
"q  c #4F3338",
"w  c #504E36",
"e  c #635C3B",
"r  c #191940",
"t  c #231843",
"y  c #221B42",
"u  c #23194A",
"i  c #261B54",
"p  c #291B57",
"a  c #291C5A",
"s  c #1D2944",
"d  c #212245",
"f  c #23254A",
"g  c #2C244A",
"h  c #232A4D",
"j  c #37334A",
"k  c #242D53",
"l  c #292659",
"z  c #322856",
"x  c #243355",
"c  c #25355B",
"v  c #28385C",
"b  c #2D1F69",
"n  c #1B2B69",
"m  c #2B2A65",
"M  c #293965",
"N  c #33396F",
"B  c #4B3650",
"V  c #433465",
"C  c #36455A",
"Z  c #284768",
"A  c #29446A",
"S  c #324C69",
"D  c #2B4A75",
"F  c #364675",
"G  c #2D5579",
"H  c #335378",
"J  c #3E687D",
"K  c #5B5D44",
"L  c #524D52",
"P  c #62594B",
"I  c #5E6658",
"U  c #6E6A4E",
"Y  c #494466",
"T  c #5B546C",
"R  c #4F5071",
"E  c #64596B",
"W  c #615C71",
"Q  c #596461",
"!  c #6B666A",
"~  c #716C71",
"^  c #89493B",
"/  c #9D5138",
"(  c #8A7A3D",
")  c #A77239",
"_  c #925C45",
"`  c #887551",
"'  c #847A6D",
"]  c #E6BE3B",
"[  c #F1C934",
"{  c #8A835A",
"}  c #9A8F56",
"|  c #978A58",
" . c #A8954D",
".. c #A69858",
"X. c #B7A458",
"o. c #948A6E",
"O. c #A79D72",
"+. c #B4A870",
"@. c #BEB27A",
"#. c #D49848",
"$. c #D2B257",
"%. c #C8B668",
"&. c #C5BA7A",
"*. c #E6C754",
"=. c #DBC568",
"-. c #D5C879",
";. c #E4CA6D",
":. c #E7D579",
">. c #31538A",
",. c #335A88",
"<. c #2E6989",
"1. c #32668B",
"2. c #336796",
"3. c #367699",
"4. c #264AB1",
"5. c #3679A7",
"6. c #3A7CB4",
"7. c #4A4F87",
"8. c #4A7194",
"9. c #6D718F",
"0. c #4A75A8",
"q. c #737BA1",
"w. c #2C59CC",
"e. c #3162D7",
"r. c #376EEA",
"t. c #817C87",
"y. c #318D99",
"u. c #2A89AB",
"i. c #3A85A8",
"p. c #3A88B5",
"a. c #3D96B8",
"s. c #11B2B4",
"d. c #3DA2BD",
"f. c #78928E",
"g. c #4A87A4",
"h. c #519CA8",
"j. c #4498BA",
"k. c #6E92B4",
"l. c #3C8FC1",
"z. c #3E97C6",
"x. c #3DA8CC",
"c. c #2FB3E4",
"v. c #449AC3",
"b. c #44A8C8",
"n. c #4FB3CE",
"m. c #43A9D7",
"M. c #48B7D7",
"N. c #69A3DE",
"B. c #43AEE0",
"V. c #45B3E3",
"C. c #48BBE8",
"Z. c #38C6C7",
"A. c #48C5DD",
"S. c #53C8D6",
"D. c #75D1D9",
"F. c #4BC7E6",
"G. c #4CCBE4",
"H. c #4AC3ED",
"J. c #55C7E4",
"K. c #53CDED",
"L. c #4CD3E8",
"P. c #53D4EC",
"I. c #52DAED",
"U. c #59DAEE",
"Y. c #4DC9F1",
"T. c #54CDF2",
"R. c #55D3F3",
"E. c #5AD5F4",
"W. c #55DDF0",
"Q. c #5CDBF4",
"!. c #6ED6ED",
"~. c #62DDF5",
"^. c #66DDF6",
"/. c #5DE2F3",
"(. c #63E4F6",
"). c #69E6F6",
"_. c #66E3F8",
"`. c #6AE5F9",
"'. c #6CEAF9",
"]. c #76E6F7",
"[. c #73EDFB",
"{. c #7BEDFB",
"}. c #75F1FD",
"|. c #7BF3FE",
" X c #7EF8FF",
".X c #878686",
"XX c #918F90",
"oX c #969696",
"OX c #A39981",
"+X c #B5AD8D",
"@X c #909EA6",
"#X c #AEB2B0",
"$X c #C3BB91",
"%X c #C5BFB2",
"&X c #BEC5A3",
"*X c #CDC287",
"=X c #D4CA8B",
"-X c #D5CC8C",
";X c #DAD299",
":X c #E5D988",
">X c #E6D996",
",X c #E9E295",
"<X c #F4E69B",
"1X c #D7DCA9",
"2X c #CFD4B0",
"3X c #E6DEAA",
"4X c #D4E6B6",
"5X c #E8E8B1",
"6X c #90B3C9",
"7X c #A6BADA",
"8X c #B4D9D2",
"9X c #ADE3D3",
"0X c #9CCFF6",
"qX c #A3D3F4",
"wX c #95E2E3",
"eX c #86E7F7",
"rX c #83ECFB",
"tX c #8BEDFB",
"yX c #96ECFB",
"uX c #84F4FD",
"iX c #8BF4FD",
"pX c #8CF8FF",
"aX c #94F4FE",
"sX c #9BF5FE",
"dX c #94F8FF",
"fX c #9DF8FF",
"gX c #B8EAE8",
"hX c #A4EFFC",
"jX c #A9F7F6",
"kX c #A4F5FD",
"lX c #ACF6FD",
"zX c #A4F8FF",
"xX c #ACF9FE",
"cX c #BCF7F4",
"vX c #B3F6FD",
"bX c #BBF6FE",
"nX c #B4F9FE",
"mX c #BCFAFE",
"MX c #CED4D0",
"NX c #D3EBCF",
"BX c #E6E9D1",
"VX c #DBDCE4",
"CX c #CEF0ED",
"ZX c #D9F4EA",
"AX c #C8F7F6",
"SX c #C4FAFE",
"DX c #CCFBFF",
"FX c #D9F6F3",
"GX c #D4FCFF",
"HX c #DBFDFF",
"JX c #E8EEE9",
"KX c #E4FDFF",
"LX c #E8F9FA",
"PX c #F7FAFA",
/* pixels */
"- - - t u u - - * , , * * * - * - , - - - ; ; ; ; d h c c x v x x x x k l l d ; ; ; - - * - * * - , - - - - - - - - - t u u - - ",
"- - t p p u - , g , - - * * , , , u , ; ; t h h x Z G ,.,.1.3.1.<.<.,.,.>.D v x c d ; ; - * - , , u , - - , t , - - t p p u - - ",
"- , p b p , - g 7.g 1 < , t t z t ; , d h v H G <.5.p.a.a.b.n.b.d.d.x.z.a.i.3.1.0.S j h t t t z , - - - * t z < - , p b p , - - ",
"- u p p t - - , g B _ q t z t , , d h v G <.i.a.x.m.M.M.A.F.G.G.G.G.G.F.A.M.b.d.a.g.f.R M N d t < - - - - - d x t u p p y - - - ",
"- t u , - - - - 7 _ #._ 7 t , ; h v G 3.i.d.x.A.A.G.G.L.L.L.I.I.I.I.I.P.I.P.G.A.M.n.D.h.1.G x d < ; t - - * h <.k t u , - - - - ",
"- - - - - - - - < B _ B , ; d x D 3.a.x.M.A.G.G.L.L.L.I.I.I.W././././././.Q.W.P.L.G.J.M.d.i.1.Z x f l t * * t c t - - - - - - - ",
"- - - * - - - - - p m p t h Z J i.x.M.A.G.L.U.).(./.I.I.W././.(.(./././.).(.)./.Q.P.L.G.A.M.a.3.J C h < - - - - - - - * - - - - ",
", u , , - - - - , i a f h Z <.j.S.A.L.I.).kXmXaX'.(.).].tXsXkXlXzXiX'.).).(.).(.(./.Q.I.L.G.A.n.n.8.S h t , - * - u , , - * - - ",
"- - t z t t ; * - , d x G 3.d.A.G.L.].lXDXvXrX{.aXvXSXmXnXlXlXxXkXpX}.'.).(.(./././.).).(.Q.U.U.S.b.8.H m l t - - , t z t t , - ",
"- - - , t z t - ; d x G i.b.A.L.U.sXGXnXuXiXvXSXxXaXiXiXaXkXlXnXnXlXkXsXuX[.).(././.(.).}.|.[.'.).!.n.g.,.N l ; * * , , t z t * ",
"t - - - ; t ; ; d x G i.b.A.L.].mXSXiXiXmXSXsXuXaXxXSXSXmXnXnXnXnXnXmXDXDXDXvXiX'.).).'.[.{.uXiX|.].!.n.g.>.m t t - - - , t - - ",
"a t - - - * ; t x G i.M.G.I.eXGXlX{.lXDXzXiXsXnXnXsXpXuXiXsXxXmXnXxXzXxXsXsXxXSXSXsX[.}.}.[.|.fXzXiX[.!.n.3.D k l t - - - * - - ",
"t < 8 < - - ; h G i.n.G.I.aXGXsXrXmXnXuXsXnXzXuX XpXzXxXxXnXSXDXDXSXDXGXGXDXnXaXfXxXfXuX XuXuXuXsXxXrX(.J.b.0.F h < 8 < - - - - ",
"* 8 ` 8 - ; f Z 3.b.G.U.aXGXaXiXmXaX|.fXzXdXpXpXdXfXxXmXSXDXGXHXHXGXHXHXGXDXDXGXSXzXpXiXaXaXaXuX|.aXsX).P.F.n.0.v j ` 8 - - - - ",
"- < 8 < ; d v <.d.A.I.tXHXaXiXnXiX|.dXiX XdXxXzXxXnXmXmXnXcXCXNXNXCXDXDXGXGXGXGXGXKXDXzXxXxXsXiXuX[.uXsX_.K.M.p.G x j < - * * - ",
"* - - - ; k G i.M.L.].GXsXiXxXuXuXpX|.|.pXfXmXSXxXzXxXcXNX,X-X&.-.:X5XZXHXGXGXHXKXHXKXKXDXxXaXuX[.[.'.aXsXQ.G.b.3.Z f ; - * - - ",
"g < > 7 d Z 3.b.L.(.SXlX{.zXuXuXiX X|. XdXxXmXSXnXnXgX5X-X{ 4 + + w +.:X4XFXHXKXHXKXKXKXLXDXdX|.'.[.[.[.zXyXE.F.j.1.v t - - - - ",
"7.g q ) L 1.a.A.U.kXDX{.sXuX}.pX X XpXdXzXzXnXDXCX4X:XO.0 o w o.U @ + U %.:XNXHXKXKXKXHXGXKXSXuX'.'.[.[.{.mXrXP.M.i.D l i u - - ",
"z 7 / #.o.g.M.P.].GXiXiXpX}.|.}.|.iXfXzXfXzXAXBX,X&.K o 5 } *XNX2X@.U + 3 { ;.,XBXKXLXGXmXSXGXkX}.[.'.uX{.kXbX^.F.b.2.N b p - - ",
"i t q ` 8.b.G.U.lXlX|.fX|.|.|.}.|.dXxXnXnXNX<X-.U + @ ` &.-X;XNXNX;X=X+.w o 5 ..;.<XJXKXDXzXzXxXuX|.}.|.aX{.SXyXP.M.p.>.m a 1 > ",
"a i f S i.M.L.].mX{.iXuX XuX|. XuXdXzXCX5X:X{ 3 + e +.=X-X;X+XXXoX$X;X-X*X} 5 o w X.:.5XLXmXfXsXaXuXuX|.pXuXsXDX^.F.v.2.M B ^ q ",
"a l k G a.A.I.sXsX[.uX}.|.uXpXdXfXjXNX,X+.w . 5 | @.*X-X1XoXj $ $ j oX1X=X=X&.U @ + U %.:.BXnXxXzXfXiX|.{.aX{.DXyXK.M.i.F _ #./ ",
"p l M 3.b.G.(.xX{.|.[.[.}. XpXzXcX5X-.K o + K o.+.&.*X1X#XY % $ $ $ j 2X;X=X&.%...w o 3 } ;.NXSXnXfXuX X[.iXrXkXSX^.J.v.,.B ^ q ",
"c h Z i.M.L.{.sX'.}.'.[.|.dXdXzXNX:Xw . q ! ~ o.O.@.*XBX9.$ $ $ $ $ % #X5X=X&.%.X. .( 5 o | :.CXnXsXiX X|.uXkXiXGX].F.b.2.v 7 , ",
"u.Z G a.A.I.aXuX'.}.'.[.aXnXpXxX5X| . j E ! ~ o.O.+X*XJX9.$ $ $ $ $ % #XBX*X&.+.X. ...| 5 4 $.NXnXzXaXpXaXuXzXrXSXyXK.M.5.Z d t ",
"c v 1.b.G.Q.aX[.[.[.'.}.SXnXpXAX<XU O B E E ! ' o.+X$XJXMXj $ $ $ $ Y JXBX*X&.+...} @X6XI o X.4XSXmXzXpXpX|.sXaXkXbXE.C.a.G k l ",
"t v 3.M.G.).pX'.'.'.'.uXHXxXzXFX,XK O B T E E ~ o.OX+X2XBXMXt.W W XXVXBX;X$X@.+...} 6XqXI o X.1XSXmXzXiXiXiXiXzXyXGX^.K.b.,.k t ",
"f D i.M.P.].uX).'.'.'.sXGXxXmXFX,XK O B Y T T W ' o.+X+X=XMXLXPXPXCX2X=X$X@.+.O.} | 6XqXQ o X.1XSXmXzXpXuXaXiXnXtXGX].K.b.1.v t ",
"f D p.M.P.{.{.).'.'.'.xXGXSXSXFX,XK O V Y T T E ~ o.OX+X$X8XFXCXFXAX8X$X+X+.O.} | { 6XqXQ o X.1XSXmXnXzXaXzXpXSXiXGXtXK.n.3.F d ",
"f D j.F.U.{.[.'.'.'.'.mXGXGXGXFX,XK O V Y T T T ! .XXXOX+XZXFX0XqXLXBX+X+.O.o.| { { 6XqXQ o X.3XGXDXSXxXsXxXaXSXaXSXyXK.n.3.M d ",
"f G j.J.Q.|.[.'.'.}.|.SXGXHXGXFX:XK X R k.9.T E ! t.' o.%XPXFX0XqXLXPX$XO.o.{ ` ` ` k.6XL o X.3XHXDXDXnXsXxXsXSXsXmXhXK.M.3.M d ",
"h H j.J.Q.|.[.'.}.aXpXDXHXHXHXFX:XK X 7.0Xk.R W W W ~ f.JXCXwXwXwXwXLXVXf.{ ' { ' U I ! q o X.3XHXGXDXmXzXxXsXmXkXbXhXK.M.5.N d ",
"k ,.j.J.Q.[.[.'.[.nXfXDXGXHXHXFX:XK X 7.0Xk.Y R W y.s.s.wX9XgXPXPXwXgXD.s.s.g.o.~ P P P 4 o X.1XGXDXDXnXsXxXaXmXsXvXhXK.m.6.N d ",
"h H a.A.Q.'.'.).'.mXkXSXDXGXGXCX:XK X 7.0Xk.Y Y R y.s.S.CXLXD.gXgXgXPXgXZ.s.g.! P P L q : o X.1XSXSXSXxXaXzXiXmXyXbXyXY.m.5.D f ",
"f D p.A.P.).'.(.).lXxXnXDXGXDXCX:XK X 7.qXk.R Y Y R k.LXPXLXD.Z.S.FXPXPXLXf.E T L L j 8 : o X.1XSXmXSXzXiXxXiXmXeXbXtXF.m.i.u.c ",
"f D p.M.P.(.).(.(.kXnXzXDXGXDXFX:XK X >.0X0.m N R R 9.MXVXJXLXS.s.Z.8XVXMX9.T T Y j g 7 % o X.1XSXSXmXzXiXnXrXSXrXSXeXH.b.2.Z d ",
"d Z i.M.L./.).(.(.iXSXzXHXHXGXFX:.K X a >.F m N F 7.7.7.9.q.@XD.n.u.8.9.9.R R Y z z g - $ O X.1XSXDXmXxXaXnXrXSX{.DX!.C.z.1.c ; ",
"t v 3.b.G.Q.).).'.uXGXzXGXGXGXCX:.K   $ $ % % = = = 6 6 6 6 d C C 6 6 6 6 = = % % % X X X O X.1XmXDXmXzXkXvXaXvXeXbXT.V.l.2.k ; ",
"< x 1.b.G.Q.).'.'.[.SXzXmXSXGXAX:.U     2 L 9 . 0 0 3 3 3 3 9 4 9 9 0 3 9 4 9 9 3 9 9 4   o X.4XmXDXnXaXmXkXlXyX{.tXH.M.p.G f ; ",
", h G a.J.Q.).).).'.kXmXsXDXGXDX>X...   Q ~ L . ~ oXt.oX.XoX.X.X! XXoXXX.X.XoXoXoX~ ~ !   5 $.NXDXSXnXaXDXtXbX]._.~.C.m.5.Z d ; ",
"; d Z i.M.P.Q.(.).uXuXDXaXSXGXKXNX=.K . + + 9 9 3 4 9 9 4 9 9 9 9 0 4 9 0 9 0 3 9 9 0 3 2 ..:XGXHXSXzXzXbXtXbXE.E.Y.C.z.2.M t - ",
"- t M 5.m.F.R.Q.(.sXaXvXmXnXHXKXHX1X=.{ 3     % $ $ % & & & & s s & & & & & & $ X   . w X.=.CXHXGXDXsXDXaXvXyXY.Y.H.V.l.>.m t - ",
"- t M 2.z.M.P.Q.(.tXSXsXHXxXDXDXHXSX4X;.%.U + X n 4.4.w.w.e.e.N.N.e.w.w.4.4.n r X 5 } =.-XZXDXHXDXnXnXDXiXSX^.Y.H.C.m.6.>.f ; - ",
"- u m >.i.M.F.E.(.'.SXlXmXDXzXSXSXGXDXJX>X=.X.w O r 4.e.e.r.N.7XN.r.e.e.4.n X 2 U $.-.NXGXGXKXDXSXaXGXaXbXhXR.Y.H.V.z.2.M t - - ",
"- u f v 1.a.F.P.~._.tXDXaXGXxXsXmXDXKXKXKXNX-X=...5 X n e.r.N.+XoXr.r.4.& o K %.;.1XAXHXGXHXGXGXsXmXvXyXSX^.R.Y.C.m.6.D h ; - - ",
"- - , f Z i.M.K.E.Q.(.vXmXsXGXsXnXHXKXKXDXmXmXNX:.$.` C 0.6X#X*.$.oXk.0.L ..=.>XZXGXGXSXHXGXGXxXnXSX{.vXeXR.Y.H.V.z.2.v t - - - ",
"- - - t v 1.a.C.K.R.Q.].DXlXxXHXSXHXHXDXSXnXSXGXFX3X;.%.#X2X[ [ [ ] $X&X=.:XNXHXKXGXDXHXDXHXxXkXGXtXrXtXR.Y.H.C.m.5.D h ; - - - ",
", u , t f Z 3.b.F.P.R.Q.tXGXnXGXKXGXSXnXxXmXDXSXmXSXZX;X=.3X:.[ [ ;.>X-.NXDXGXHXGXHXHXDXGXzXsXGXtX'.[.Q.Y.H.C.B.l.2.M d ; * - - ",
"- - t z d c ,.p.M.F.R.Q.'.lXKXGXHXHXxXpXaXxXmXmXmXmXDXDX9X4X:.:.*.=.NXFXHXDXSXDXHXHXGXGXsXkXDXtX~.Q.Q.Q.T.C.V.z.5.Z k z t t , - ",
"- - - , t N Z 1.a.M.Y.Q.uXlXGXLXDXnXmXaXuXsXzXkXxXnXSXnXzXjXNXFXCX8XvXxXxXxXSXDXGXHXSXaXvXSXeXQ.E.E.R.E.T.C.m.p.G k t , t z y * ",
"t - - - , t h Z 3.b.F.^.aXGXGXGXKXnXiXlXxXsXiXiXaXsXxXsXpXpXfXxXsXuX|.uXkXnXDXGXmXaXaXmXvX].Q.R.R.E.R.Y.C.V.l.,.M d ; * - t - - ",
"a t - - * - < k G i.n.!.tXSXLXGXmXGXSXaXzXnXkXiX|.uXaX}.}.}. XpXuXuXzXSXGXSXzXrX'.[.iXtX`.Q.R.R.E.R.Y.C.V.z.2.Z m t - - - - - - ",
"t < 8 < * - ; t c ,.j.D.eXaXvXKXGXsXmXHXmXaXaXaXiXiXuX'.'.'.[.|.}.[.rXrX{.[._.(.~._._.`.^.Q.E.Q.R.H.C.V.B.6.D k t < 8 < - - - - ",
"* 8 ` 8 * * - ; f N 8.k.D.eXeXyXSXGXzXkXSXDXzXuX[.iXuX[.[.'.[.|.[.)._.(.(._.~.Q.Q.Q.~.~.~.^.^.R.H.C.B.c.c.u.M t - 8 ` 8 - - - - ",
"- < 8 < - - - - t m >.8.k.D.!.!.^.hXHXDXsXaXlXmXzXsX{.'.).).'.[.'._.~.~.~._._.~.Q.Q.Q.^.'.`.T.H.C.m.l.5.u.D m t - < 8 < - - - - ",
"- - * - - - - - - t m N 8.g.n.J.K.~.rXbXHXSXsXrXaXzXsXaXiXrX{.rX{.[.'.'.`._.^.Q.Q._.`.'.Q.Y.H.V.m.p.2.D c d t - - - - - - - - - ",
"- * - - - - - - < 7 t f M H 8.j.M.K.~.'.tXvXGXGXbXsX{.].].].[.{.[.'._.~.~.^.].{.{.`.E.Y.H.C.V.z.p.,.M h ; , t , - - - - - - - - ",
"* * - u u u - < q ) q < t h Z 1.p.n.J.~._.`.].yXbXDXDXDXbXlXkXkXyXyXyXaXaXiXrX`.E.Y.C.C.V.m.l.5.G v f ; , t z t - - - u u u - - ",
", t , p b p - 7 ) ] ) 7 - ; f v H 0.j.n.J.E.E.E.^.~.^.].tXyXhXhXyXtXeX].~.T.Y.H.C.C.V.m.z.5.1.Z c z t t i p t - , t y p b p - * ",
"t z t i a p 1 > w ) w t - - ; t v 8.2.5.v.n.M.J.K.H.H.H.H.H.Y.T.Y.Y.H.H.C.C.C.V.m.n.v.6.1.D v f l 7.g u p i , * t z y i a p 1 > ",
"< t , u u B ^ q > 7 t p , * - - t z c D ,.3.i.j.b.m.m.V.V.V.C.C.C.C.V.V.B.m.x.z.p.5.1.>.M f t ; , g , t u u - - , t , u u B ^ q ",
"- - - , 1 ^ #.^ 1 - - t - - - - - - ; f k M D ,.2.5.p.p.l.z.z.z.z.z.z.l.p.6.5.1.G Z c k t ; - - - - - - - - - - - - - , 1 ^ #./ ",
"- - , u t q ^ q < - - - - - - - - - - - ; t f k v M D G ,.1.1.1.1.1.1.,.G D M c h d t ; - - - - - - - - - - - - - - , u t q ^ q ",
"- - - , - , 1 , - - - - - - - - - - - - - - ; ; t d f k M N M v c M F c k f d t ; - - - - - - - - - - - - - - - - - - , - , 1 , "
};
