/* XPM */
static char *adl9d_qkn4e[] = {
/* columns rows colors chars-per-pixel */
"64 64 249 2 ",
"   c #040407",
".  c #090818",
"X  c #110F19",
"o  c #181616",
"O  c #26251C",
"+  c #332F1C",
"@  c #0A0825",
"#  c #151626",
"$  c #1B1B2A",
"%  c #0F1231",
"&  c #1D1537",
"*  c #1E1639",
"=  c #1F1A3C",
"-  c #271A37",
";  c #20173C",
":  c #221A3C",
">  c #311C3A",
",  c #202127",
"<  c #2A2923",
"1  c #352538",
"2  c #382E3D",
"3  c #333230",
"4  c #4B2F36",
"5  c #573C39",
"6  c #554F34",
"7  c #6C623B",
"8  c #0D1B45",
"9  c #1F1A40",
"0  c #231843",
"q  c #221B42",
"w  c #23194A",
"e  c #261B54",
"r  c #291B57",
"t  c #271D59",
"y  c #291C5A",
"u  c #15204A",
"i  c #212245",
"p  c #23254A",
"a  c #2D244A",
"s  c #232A4D",
"d  c #37344C",
"f  c #242D53",
"g  c #292659",
"h  c #322757",
"j  c #243355",
"k  c #25355B",
"l  c #28385C",
"z  c #2D1F69",
"x  c #172F73",
"c  c #2B2A65",
"v  c #293965",
"b  c #323A71",
"n  c #4D354B",
"m  c #402967",
"M  c #284768",
"N  c #29446A",
"B  c #364E67",
"V  c #324C69",
"C  c #2B4B74",
"Z  c #2A4977",
"A  c #354774",
"S  c #2D5579",
"D  c #335378",
"F  c #494A49",
"G  c #544E50",
"H  c #585655",
"J  c #665952",
"K  c #6F694C",
"L  c #7B7149",
"P  c #4A4666",
"I  c #53506D",
"U  c #645A6B",
"Y  c #5F676A",
"T  c #666766",
"R  c #706A6E",
"E  c #797375",
"W  c #89493B",
"Q  c #9D5138",
"!  c #A77239",
"~  c #925C45",
"^  c #857749",
"/  c #947052",
"(  c #877D64",
")  c #758473",
"_  c #EFC737",
"`  c #938656",
"'  c #A69554",
"]  c #B39D55",
"[  c #B8A35B",
"{  c #968C6E",
"}  c #A69969",
"|  c #B5AA75",
" . c #B9AB70",
".. c #CC8C48",
"X. c #DFAB4D",
"o. c #D0B767",
"O. c #C6B878",
"+. c #F1CD45",
"@. c #D9C26E",
"#. c #E2CA77",
"$. c #344F89",
"%. c #2F5C87",
"&. c #335A88",
"*. c #2F6487",
"=. c #31638C",
"-. c #33698A",
";. c #336796",
":. c #2C7390",
">. c #367699",
",. c #274BAA",
"<. c #3679A7",
"1. c #3A7CB4",
"2. c #514B85",
"3. c #4C7093",
"4. c #6F728D",
"5. c #4876A9",
"6. c #2B59CF",
"7. c #3468E1",
"8. c #2C8AAB",
"9. c #3A86A8",
"0. c #3A88B5",
"q. c #3D96B8",
"w. c #19AFAF",
"e. c #3DA2BD",
"r. c #22BBBD",
"t. c #498CA3",
"y. c #4498BA",
"u. c #6699A2",
"i. c #6A94B5",
"p. c #46A4BD",
"a. c #3C8FC1",
"s. c #3D94C4",
"d. c #3E9AC9",
"f. c #3DA8CC",
"g. c #2FB3E4",
"h. c #4995C5",
"j. c #6898DF",
"k. c #44A8C8",
"l. c #46B2CC",
"z. c #55B3CF",
"x. c #43A9D7",
"c. c #48B7D7",
"v. c #71B1CA",
"b. c #43AEE0",
"n. c #45B3E3",
"m. c #48B9E4",
"M. c #47BAE9",
"N. c #49BEEB",
"B. c #29C4C5",
"V. c #48C5DD",
"C. c #54C7DA",
"Z. c #6FCED8",
"A. c #4BC7E6",
"S. c #4CCBE4",
"D. c #4AC3ED",
"F. c #55C7E4",
"G. c #53CDED",
"H. c #4CD2E7",
"J. c #4CD3E9",
"K. c #53D4EC",
"L. c #52DAED",
"P. c #59DAEE",
"I. c #4DC6F0",
"U. c #4DCAF1",
"Y. c #54CDF2",
"T. c #55D3F3",
"R. c #5AD5F4",
"E. c #55DDF0",
"W. c #5CDBF4",
"Q. c #6ED6ED",
"!. c #62DDF5",
"~. c #66DDF6",
"^. c #5DE2F3",
"/. c #63E4F6",
"(. c #69E6F6",
"). c #66E3F8",
"_. c #6AE5F9",
"`. c #6CEAF9",
"'. c #76E6F7",
"]. c #73EDFB",
"[. c #7BEDFB",
"{. c #75F1FD",
"}. c #7BF3FE",
"|. c #7EF8FF",
" X c #8F8B8F",
".X c #97A28C",
"XX c #B5AB89",
"oX c #8295AF",
"OX c #87A3B3",
"+X c #C7BC87",
"@X c #BEC1AA",
"#X c #D4CA8A",
"$X c #D1C894",
"%X c #ECCF81",
"&X c #E6D289",
"*X c #E7DA97",
"=X c #D2D1B0",
"-X c #ECDEA2",
";X c #EEE7B1",
":X c #F4EAB7",
">X c #839FC7",
",X c #89AED2",
"<X c #99CADB",
"1X c #9ADEE0",
"2X c #ACDAFB",
"3X c #9BE1E5",
"4X c #86E7F7",
"5X c #83ECFB",
"6X c #8BEDFB",
"7X c #94EDFB",
"8X c #99EBFB",
"9X c #84F4FD",
"0X c #8BF4FD",
"qX c #8CF8FE",
"wX c #94F4FE",
"eX c #9BF5FE",
"rX c #94F8FF",
"tX c #9EF8FF",
"yX c #ACE5E6",
"uX c #A4EFFC",
"iX c #A4F5FD",
"pX c #ACF6FD",
"aX c #A4F8FF",
"sX c #ACF9FF",
"dX c #B3F6FD",
"fX c #BBF6FE",
"gX c #B4F9FE",
"hX c #BCFAFE",
"jX c #D5D2CF",
"kX c #E2DFD2",
"lX c #ECECCF",
"zX c #F4EDCD",
"xX c #F4F2C6",
"cX c #E6F2DB",
"vX c #CDE8EC",
"bX c #C4F7FE",
"nX c #C4FBFE",
"mX c #CCFBFF",
"MX c #DDF8F5",
"NX c #D4FCFF",
"BX c #DBFDFF",
"VX c #E8EEE9",
"CX c #F5F9E8",
"ZX c #E7F6F5",
"AX c #E3FDFF",
"SX c #EBFEFE",
"DX c #F4F8F3",
"FX c #F3FFFF",
"GX c #FAFFFF",
/* pixels */
"* * * 0 w w * * & * * * * & * & * ; * * * = = = = i s k k j k j j j j f g g i = = * * * * * * & * ; * * * * * * * * * 0 w w * * ",
"* * 0 r r w * ; a ; * * & & * ; ; w ; = = 0 s s j M S &.%.-.>.-.*.*.*.&.&.C v j k i = = * * * ; ; w ; * * ; 0 ; * * 0 r r w * * ",
"* ; r z r ; * a 2.a > : ; 0 0 h 0 ; ; i s l D S -.<.0.q.q.k.c.k.e.e.d.d.q.9.:.-.5.A d p 0 0 0 h ; * * * & 0 h : * ; r z r ; * * ",
"* w r r 0 * * ; a n ~ 4 0 h 0 ; ; i s l S -.9.q.f.l.c.c.V.A.S.S.S.S.S.A.V.c.k.e.q.t.u.I v b i 0 : * * * * * i j 9 w r r 0 * * * ",
"* 0 w ; * * * * > ~ X.~ 1 0 ; = s l S :.9.e.f.V.V.S.S.H.H.J.L.L.L.L.L.K.L.K.S.V.c.z.v.u.-.C l i : = 0 * * & s :.f 0 w ; * * * * ",
"* * * * * * * * : n ~ n : = i j C :.q.f.l.V.S.S.H.J.J.L.L.L.E.^.^.^.^.^.^.W.E.L.H.S.C.c.e.9.*.M j p g 0 & & q k 0 * * * * * * * ",
"* * * & * * * * * r m r 0 s M S 9.f.c.V.S.H.P.(./.^.L.L.E.^.^././.^.^.^.(./.(.^.W.L.J.S.V.l.q.>.D v s : * * * * * * * & * * * * ",
"; w ; ; * * * * ; e t p s M :.y.C.V.H.L.(.iXhXwX`./.(.'.6XeXiXpXaX0X`.(.(./.(./././.W.L.J.S.V.l.v.3.V s 0 ; * & * w ; ; * & * * ",
"* * 0 h 0 0 = & * ; i j S >.e.V.S.J.'.pXmXdX5X[.wXdXnXhXgXpXpXsXiXqX{.`.`././.^.^.^.(.(./.W.P.P.C.p.3.D c g 0 * * * 0 h 0 0 ; * ",
"* * * ; 0 h 0 * = i j S 9.k.V.H.P.eXNXgX9X0XdXnXsXwX0X0XwXiXpXgXgXpXiXeX9X].(./.^.^./.(.{.}.].`.(.Q.z.t.&.b g = & & ; ; 0 h 0 & ",
"0 * * * = 0 = = i j S 9.l.V.J.'.hXnX0X0XhXnXeX9XwXsXnXnXhXgXgXgXgXgXhXmXmXmXdX0X`.(.(.`.].[.9X0X}.].Q.z.t.$.c 0 0 * * * ; 0 * * ",
"y 0 * * * & = 0 j S 9.l.S.L.4XNXpX[.pXmXaX0XeXgXgXeXqX9X0XeXsXhXgXsXaXsXeXeXsXnXnXeX].{.{.].}.tXaX0X].Q.z.>.C f g q * * * & * * ",
"0 : 2 : * * = s C 9.l.S.L.wXNXeX5XhXgX9XeXgXaX9X|.qXaXsXsXgXnXmXmXnXmXNXNXmXgXwXtXsXtX9X|.9X9X9XeXsX5X/.F.k.5.A s : 2 : * * * * ",
"& 2 ^ 2 * = p M >.k.S.P.wXNXwX0XhXwX}.tXaXrXqXqXrXtXsXhXnXmXNXBXBXNXBXBXNXmXmXNXnXaXqX0XwXwXwX9X|.wXeX(.K.A.z.5.l d ^ 2 * * * * ",
"* : 2 : = i l -.e.V.L.6XBXwX0XgX0X}.rX0X|.rXsXaXsXgXhXhXgXgXnXNXmXnXmXmXNXNXNXNXNXAXmXaXsXsXeX0X9X].9XeX).G.c.0.S j d : * & & * ",
"& * * * = f S 9.c.J.'.NXeX0XsX9X9XqX}.}.qXtXhXnXsXsXsXgXgXhXnXNXmXnXNXNXBXNXmXBXAXBXAXAXmXsXwX9X].].`.wXeXW.S.k.>.M p = * & * * ",
"a ; - 1 i M >.l.H./.nXpX[.aX9X9X0X|.}.|.rXsXhXnXgXgXgXhXhXhXmXBXNXmXNXNXNXNXBXAXBXAXAXAXSXmXrX}.`.].].].aX7XR.A.y.-.k 0 ; * * * ",
"2.a 5 ! G *.q.V.P.iXmX[.eX9X{.qX|.|.qXrXtXaXgXmXmXhXhXmXBXNXBXAXBXNXNXNXNXNXBXBXSXAXAXBXNXAXnX9X`.`.].].[.hX5XK.c.9.C g e w * * ",
"a 1 Q X.{ t.c.K.'.NX0X0XqX{.}.{.}.0XtXaXtXaXnXBXBXBXSXFXFXCXxX;X;XlXMXBXNXBXBXSXSXSXSXNXhXhXNXaX{.].`.9X[.iXfX~.S.k.;.b z y * * ",
"e 0 5 / 3.k.S.P.pXpX}.tX}.}.}.{.}.rXsXgXgXmXAXAXFXGXFXDXxX&X` 6 6 } *XlXAXAXSXSXSXFXAXAXmXaXaXsX9X}.{.}.wX[.nX7XK.c.0.$.c y > ; ",
"y e p B 9.c.H.'.hX[.0X9X|.9X}.|.9XrXaXhXBXSXAXFXGXGXzX-X} 3 3 K J + 6  .-XcXFXFXFXSXSXAXAXhXtXtXwX9X9X}.qX9XeXmX~.A.k.;.v n W 4 ",
"y y f S q.V.L.eXeX].9X{.}.9XqXrXtXsXsXNXSXSXFXFXCX;X .6 < L O.=X=X| 6 < K o.;XCXFXFXSXSXBXBXhXsXaXtX0X}.}.wX[.mX7XG.c.9.A ~ ..Q ",
"r g v :.k.S./.sX[.}.].].{.|.qXaXhXNXmXAXAXFXCX:X#XK O 6 | #X$X=X=X$X#X} 6 + ` #.:XDXSXBXAXBXBXnXgXtX9X|.].0X5XiXbX!.F.h.&.n W 4 ",
"k f M 9.c.J.[.eX`.{.`.].}.rXrXaXNXAXSXAXSXxX*X` < 3 ` O.#X=X Xa a E $X#XO.^ + 6 ' %XlXSXSXSXAXmXgXeX0X|.}.9XiX0XNX'.A.k.;.l 1 : ",
"8.M S q.V.L.wX9X`.{.`.].wXgXqXsXBXAXSXFXxX .4 O G { | +X*X X: @ @ %  X*X#XO.' 6 O 7 o.lXFXFXBXnXgXaXwXqXwX9XaX5XbX8XG.c.<.M i 0 ",
"k l -.k.S.W.wX].].].`.{.nXgXqXnXNXAXAXCX#X< 3 J E { | +XkXP @ @ @ @ R kX#XO.[ ' ^ + 6 #.DXAXAXnXnXhXaXqXqX}.eXwXiXfXR.m.y.C f g ",
"0 l >.l.S.(.qX`.`.`.`.9XBXsXaXBXNXAXAXxX` o I U R { | +XVX4.@ @ @ @  XlX#XO.[ ' .X) O [ cXSXSXNXnXhXaX0X0X0X0XaX7XNX~.G.k.%.f 0 ",
"p C 9.c.K.].9X(.`.`.`.eXNXsXhXBXAXAXSX:XL $ P U U E { XX=XjX XP I  XkX=XO. .' ` <XOXO ] zXFXSXBXnXhXaXqX9XwX0XgX6XNX'.G.k.-.l 0 ",
"p C 0.c.K.[.[.(.`.`.`.sXNXnXnXNXBXBXSX:XL # P I U R { .XXX=XvXVXVXvX$X+X| | ' ` <XOXO ] zXFXSXAXnXhXgXiXwXaXqXnX0XNX6XG.l.>.A i ",
"p C y.A.P.[.].`.`.`.`.hXNXNXNXNXBXBXAX:XL # m I U U E  XXX@XvXvXvXvX$X| | } ` ` <XOXO ] zXFXSXSXNXmXnXsXeXsXwXnXwXnX8XG.l.>.v i ",
"p C y.F.W.}.].`.`.{.}.nXNXBXNXNXBXBXSX:XL # 2.4.U U E  X{ jXSX2X2XSX=X| } ` ^ ( ,Xu.O ] zXGXFXSXBXmXmXgXeXsXeXnXeXhXuXG.c.>.v i ",
"s D y.F.W.}.].`.].wXqXmXBXBXBXAXAXAXFX:XL # i.,XI U U R u.VXyX3X3XyXVX.X) ( ( K R H o ] zXGXFXAXBXNXmXhXaXsXeXhXiXfXuXG.c.<.b i ",
"f &.y.C.W.].].`.].gXtXmXNXBXBXBXAXAXSX:XL # i.,XP I 3.w.r.yX3XZXMXyXyXr.w.) E J J 4 o ] zXGXFXBXNXmXmXgXeXsXwXhXeXdXuXG.x.1.b i ",
"s D q.V.W.`.`.(.`.hXiXnXmXNXNXmXNXNXBX;XL # i.,XP P I q.1XFXyXZ.1XZXSX1Xt.Y H G n 2 o ] zXFXAXmXnXhXnXsXwXaX0XhX7XfX8XU.x.<.C p ",
"p C 0.V.K.(.`./.(.pXsXgXmXNXmXmXNXNXAX;XL @ i.v.b P I 4.jXDXZXZ.B.1XVXVX4.I P n d > o ] zXFXAXnXnXhXnXaX0XsX0XhX6XfX6XA.x.9.8.k ",
"p C 0.c.K./.(././.iXgXaXmXNXmXBXBXBXAX;XL @ b $.c b P 2.4.4.oXv.e.9.4.4.I P h a 0 % X ] zXFXBXmXnXnXhXaX0XgX5XnX5XbX4XD.k.;.M i ",
"i M 9.c.J.^.(././.0XnXaXBXBXNXBXmXNXNX;XL   . @ # # $ $ $ $ $ 2 2 , $ $ # # X X X . X ] zXAXNXmXnXmXhXsXwXgX5XbX[.mXQ.M.d.=.j = ",
"0 l >.l.S.W.(./.`.9XNXaXNXNXNXmXnXnXmX;X`   o T F < R T T T T T H R T T T R T T T < o o.cXNXmXnXnXmXhXaXaXdXwXdX4XfXY.m.s.;.f = ",
": j -.k.S.W.(.`.`.].nXaXhXnXNXhXnXmXBXcXo.4 X 3 3 3 F G G F F F F G F G F G F F F o 7 &XZXNXnXnXnXmXgXwXhXiXpX8X[.6XD.c.0.S p = ",
"; s S q.F.W.(.(.(.`.iXhXeXmXNXmXNXBXAXAX;Xo.K o   # % % 8 8 u j j u 8 8 8 % .   O ^ @.cXBXBXNXmXmXnXgXqXmX6XfX'.).!.N.x.<.M i * ",
"= i C 9.c.K.W./.(.9X9XmXwXnXNXAXBXBXNXBXAXzX%X[ 6 # x ,.6.6.7.j.j.6.6.6.,.8 $ 7 o.*XVXBXNXNXBXNXBXnXaXaXfX6XfXR.T.I.M.d.;.v 0 * ",
"* 0 v <.x.A.T.!./.eXwXdXhXgXBXAXBXmXnXmXSXGXDX:X#.' 3 8 ,.7.7.,X>X7.6.x $ 6 [ &XlXSXBXBXNXmXmXBXNXmXeXmXwXdX8XU.I.N.n.a.&.c 9 * ",
"* 0 v ;.s.c.K.W./.6XnXeXBXsXmXmXBXnXnXNXSXGXGXGXCX-Xo.^ B h.OX@.o.oX5.F ' #.:XZXBXBXBXNXNXNXmXBXmXgXgXmX0XnX~.I.D.M.x.1.$.p = * ",
"* w c $.9.c.A.R./.`.nXpXhXmXaXnXnXmXmXAXSXAXAXFXGXGXzX&XO.@X#._ _ @.$X@.-XZXFXAXNXmXBXNXNXNXAXmXnXwXNXwXfXuXT.I.D.n.d.;.v 0 * * ",
"* w p k -.q.A.T.!.).6XmXwXNXsXeXhXmXAXSXAXmXnXBXFXGXFXFXxX&X*X+._ &X*XcXBXBXAXAXNXmXmXBXNXBXNXNXeXhXdX7XbX~.T.I.N.x.1.C s = * * ",
"* * ; p M 9.c.G.R.W./.dXhXeXNXeXgXBXSXAXmXhXhXBXSXSXSXFXFXZXxXxX;XkXAXAXBXNXBXAXBXNXNXnXBXNXNXsXgXnX[.dX4XT.I.D.n.s.;.k 0 * * * ",
"* * = 0 k -.q.m.G.T.W.'.mXpXsXBXnXBXBXmXnXgXnXNXBXAXSXSXAXAXAXFXSXBXBXBXBXBXNXBXAXNXmXBXmXBXsXiXNX6X5X6XT.I.D.M.x.<.C s = * * * ",
"; w ; 0 p M >.k.A.G.T.W.6XNXgXNXSXNXnXgXaXhXmXmXnXnXBXSXAXAXAXSXAXBXBXBXNXNXNXBXNXBXBXmXNXaXeXNX6X`.].W.U.D.N.b.a.;.v i = * * * ",
"* * 0 h i k %.0.c.A.T.W.`.pXSXNXBXBXsXqXwXsXnXhXhXhXmXmXgXhXNXAXBXNXNXBXBXmXnXmXBXBXNXNXeXiXmX6X!.W.W.W.Y.N.n.d.<.M f h 0 0 ; * ",
"* * * ; q c M -.q.c.U.W.9XsXNXFXmXgXhXwX9XeXaXiXsXgXnXgXaXaXhXNXmXhXgXsXsXsXnXmXNXBXnXwXdXnX4XW.R.R.T.R.Y.N.x.0.S f 0 ; 0 h q & ",
"0 * * * : 0 s M >.k.A.~.wXNXNXNXAXdX0XaXsXeX0X0XwXeXsXeXqXqXeXsXeX9X}.9XiXgXmXNXhXwXwXhXdX'.W.T.T.R.T.I.N.n.a.%.v i = & * 0 * * ",
"y 0 * * * * : f C 9.z.~.0XnXSXNXhXNXhXwXaXgXiX0X}.9XwX{.{.{.|.qX9X9XiXnXNXnXaX5X`.].0X6X_.W.T.T.R.T.I.N.n.s.;.M c 0 * * * * * * ",
"0 : 2 : * * = 0 k &.y.Z.4XwXdXAXNXeXhXBXhXwXwXwX0X0X9X`.`.`.].}.].].5X5X[.].)./.!.).)._.~.R.R.W.T.I.M.n.b.1.C f 0 : 2 : * * * * ",
"& 2 ^ 2 * * * = p b 3.i.Z.4X4X7XbXNXaXiXnXmXaX9X].0X9X].].`.].}.].(.)././.).!.W.W.!.!.!.!.~.~.T.D.M.b.g.g.8.v 0 * 2 ^ 2 * * * * ",
"* : 2 : * * * * 0 c $.3.i.Z.Q.Q.~.uXBXmXeXwXpXhXaXeX[.`.(.(.`.].`.).!.!.!.).).!.W.W.W.~.`._.Y.D.M.x.s.<.8.C c 0 * : 2 : * * * * ",
"* * & & & * * * * 0 c b 3.t.v.F.G.!.5XfXBXnXeX5XwXaXeXwX0X5X[.9X[.].`.`._.).~.W.W.)._.`.W.U.D.n.x.0.;.C k 9 0 * * * * * * * * * ",
"* * * * * * * * : 1 0 g v D 3.y.c.G.!.`.6XdXNXNXfXeX[.'.'.'.].[.].`.).!.!.~.'.[.[._.R.U.D.M.n.d.0.%.v s = ; 0 ; * * * * ; * * * ",
"* & * w w w * : 5 ! 5 : 0 s M -.0.l.F.!.)._.'.7XfXmXmXmXfXpXiXiX8X7X7XwXwX0X5X_.R.I.N.M.n.x.s.<.S k p = ; 0 h 0 * * * w w w * * ",
"; 0 ; r z r * 1 ! +.! 1 * = p l D 5.y.z.F.R.R.R.~.!.~.'.6X8XuXuX8X6X4X'.!.Y.I.D.N.N.n.x.s.<.=.M k h 0 0 e r 0 * ; 0 q r z r * * ",
"0 h 0 e y r > - 5 ! 6 0 * * = 0 l 3.;.<.h.z.c.F.G.D.D.D.D.I.I.Y.I.I.D.D.N.M.M.n.x.z.h.1.;.C k p g 2.a w r e ; & 0 h q e y r > ; ",
"; 0 ; w w n W 4 - 1 : e ; & * = 0 h k C &.>.9.y.k.x.x.n.n.n.M.M.M.M.n.n.b.x.f.s.0.<.=.$.v p 0 = ; a ; 0 w w * * ; 0 ; w w n W 4 ",
"* * * ; > W ..W > * * 0 * & * * * * = p f v C %.;.<.0.0.s.s.d.d.d.d.s.a.0.1.<.=.S M k f 0 = * * * * * * * * * * * * * ; > W ..Q ",
"* * ; w 0 4 W 4 ; * * * * * * * * * * * = 0 p f k v C S %.=.=.=.=.=.=.%.S C v k s i 9 = * * * * * * * * * * * * * * ; w 0 4 W 4 ",
"* * * ; * ; > ; * * * * * * * * * * * * * * = = 0 i p f v b v k k v A k f p i 0 = * * * * * * * * * * * * * * * * * * ; * ; > ; "
};
