/* XPM */
static char *a8gz9_hpkmv[] = {
/* columns rows colors chars-per-pixel */
"64 64 249 2 ",
"   c #090A10",
".  c #2A241E",
"X  c #0A0826",
"o  c #120E29",
"O  c #1D1537",
"+  c #101834",
"@  c #1D1836",
"#  c #1E1639",
"$  c #1F1A3C",
"%  c #211822",
"&  c #251937",
"*  c #20173C",
"=  c #221A3C",
"-  c #311C3A",
";  c #393527",
":  c #252434",
">  c #35253A",
",  c #382E3D",
"<  c #3A3A3B",
"1  c #4B2E35",
"2  c #573C39",
"3  c #4A442E",
"4  c #4A4533",
"5  c #5A5235",
"6  c #665D3D",
"7  c #6F653F",
"8  c #76683A",
"9  c #0D1947",
"0  c #1C1C43",
"q  c #231843",
"w  c #221B42",
"e  c #23194A",
"r  c #261B54",
"t  c #291B57",
"y  c #271D59",
"u  c #291C5A",
"i  c #19234A",
"p  c #132452",
"a  c #212245",
"s  c #23254A",
"d  c #2C244A",
"f  c #232A4D",
"g  c #36334B",
"h  c #242D53",
"j  c #292659",
"k  c #322757",
"l  c #243355",
"z  c #25355B",
"x  c #2A345A",
"c  c #253B5C",
"v  c #2D1F69",
"b  c #142864",
"n  c #2B2A65",
"m  c #293965",
"M  c #323B70",
"N  c #4E3348",
"B  c #40336A",
"V  c #37425E",
"C  c #284768",
"Z  c #29446A",
"A  c #364566",
"S  c #2C506B",
"D  c #2B4B74",
"F  c #2A4977",
"G  c #364775",
"H  c #2D5579",
"J  c #335378",
"K  c #3E687D",
"L  c #464546",
"P  c #4F4F53",
"I  c #5B5A59",
"U  c #726B50",
"Y  c #53506D",
"T  c #63596B",
"R  c #56636A",
"E  c #716B6A",
"W  c #89493B",
"Q  c #9D5138",
"!  c #84733F",
"~  c #A77239",
"^  c #925C45",
"/  c #847548",
"(  c #996950",
")  c #867C6A",
"_  c #EEC63D",
"`  c #978752",
"'  c #A79457",
"]  c #B6A25D",
"[  c #8F8A71",
"{  c #A69C69",
"}  c #B5A973",
"|  c #B9AC75",
" . c #CC8C48",
".. c #D9A350",
"X. c #E6BC46",
"o. c #C4AC65",
"O. c #CBBA77",
"+. c #E6C758",
"@. c #2F4C8E",
"#. c #2F5C87",
"$. c #335A88",
"%. c #2F6487",
"&. c #31638C",
"*. c #346989",
"=. c #336796",
"-. c #2C7390",
";. c #367699",
":. c #2A52B4",
">. c #3679A7",
",. c #3A7CB4",
"<. c #534D85",
"1. c #497293",
"2. c #7E7E96",
"3. c #4477A5",
"4. c #3363DA",
"5. c #2987AC",
"6. c #3A85A8",
"7. c #3A88B5",
"8. c #3D96B8",
"9. c #1AA9A9",
"0. c #3DA2BD",
"q. c #51888F",
"w. c #708489",
"e. c #4A87A4",
"r. c #4498BA",
"t. c #629EAF",
"y. c #4AA4BE",
"u. c #65B1BA",
"i. c #3C8FC1",
"p. c #3D94C4",
"a. c #3E9AC9",
"s. c #3EA4C2",
"d. c #3BAED9",
"f. c #2FB3E4",
"g. c #449AC3",
"h. c #649FDA",
"j. c #44A8C8",
"k. c #46B2CC",
"l. c #55B3CF",
"z. c #43A9D7",
"x. c #48B6D7",
"c. c #45BAD5",
"v. c #43AEE0",
"b. c #45B3E3",
"n. c #48B9E4",
"m. c #47BAE9",
"M. c #49BEEB",
"N. c #29C0C6",
"B. c #46C5DD",
"V. c #49C4DD",
"C. c #54C7DA",
"Z. c #75CFD8",
"A. c #4CC4E3",
"S. c #4CCBE4",
"D. c #4AC3ED",
"F. c #4BCAE8",
"G. c #55C7E4",
"H. c #53CDED",
"J. c #4CD2E7",
"K. c #4CD3E9",
"L. c #53D4EC",
"P. c #5BD4E9",
"I. c #52DAED",
"U. c #59DBEE",
"Y. c #4DC6F0",
"T. c #4DCAF1",
"R. c #54CDF2",
"E. c #55D3F3",
"W. c #5AD5F4",
"Q. c #55DDF0",
"!. c #5CDBF4",
"~. c #6ED6ED",
"^. c #62DDF5",
"/. c #6ADBF5",
"(. c #64DFF8",
"). c #5DE2F3",
"_. c #63E4F6",
"`. c #69E6F6",
"'. c #66E3F8",
"]. c #6AE5F9",
"[. c #6CEAF9",
"{. c #76E6F7",
"}. c #73EDFB",
"|. c #7BEDFB",
" X c #75F1FD",
".X c #7BF3FE",
"XX c #7EF8FF",
"oX c #8A8B8C",
"OX c #999F9C",
"+X c #B8B08F",
"@X c #AEB2AE",
"#X c #C5BC90",
"$X c #BBC2B6",
"%X c #D5CA8F",
"&X c #E5CE88",
"*X c #EBD898",
"=X c #D5D1AD",
"-X c #EEDDA2",
";X c #F1E2AA",
":X c #F5E9B7",
">X c #F6E6BA",
",X c #89B5E0",
"<X c #8BC9D2",
"1X c #99CDE1",
"2X c #B8DFFF",
"3X c #9EE0EB",
"4X c #86E7F7",
"5X c #83ECFB",
"6X c #8BEDFB",
"7X c #94EDFB",
"8X c #99EBFB",
"9X c #84F4FD",
"0X c #8BF4FD",
"qX c #8CF8FE",
"wX c #94F4FE",
"eX c #9BF5FE",
"rX c #94F8FF",
"tX c #9EF8FF",
"yX c #ADE4E8",
"uX c #A4EFFC",
"iX c #A4F5FD",
"pX c #ACF6FD",
"aX c #A4F8FF",
"sX c #ACF9FF",
"dX c #B3F6FD",
"fX c #BBF6FE",
"gX c #B4F9FE",
"hX c #BCFAFE",
"jX c #C7C7D0",
"kX c #C2E1D2",
"lX c #F6ECC4",
"zX c #F5EFCD",
"xX c #FAF6DD",
"cX c #D5D9E4",
"vX c #DFECE9",
"bX c #C8F5F8",
"nX c #C4FBFE",
"mX c #CCFBFF",
"MX c #D7F4F3",
"NX c #D4FCFF",
"BX c #DBFDFF",
"VX c #E2EDE7",
"CX c #FCF9E9",
"ZX c #E6F4F8",
"AX c #E4FEFF",
"SX c #EBFEFF",
"DX c #FDFCF5",
"FX c #F4FFFF",
"GX c #FBFFFE",
/* pixels */
"# # # q e e # # O # # # # O # O # * # # # # $ $ $ a f z m l z l l l l h z j a $ $ # # # # # # O # * # # # # # # # # # q e e # # ",
"# # q t t e # * d * # # O O # * * e * $ $ q f f l C @.$.#.*.;.*.%.%.%.$.$.F m l x a $ $ # # # * * e * # # * q * # # q t t e # # ",
"# * t v t * # d <.d - = # q q k q * * a f c J H *.>.7.8.8.j.x.j.0.0.s.a.8.6.-.*.3.G x f q q q k * # # # O q k = # * t v t * # # ",
"# e t t q # # * d N ^ 1 q k q * * a f c S *.6.8.s.k.c.c.B.B.S.S.S.S.S.A.V.c.j.8.8.e.w.Y m M s q = # # # # # a l 0 e t t q # # # ",
"# q e * # # # # - ^ ..^ > q * $ f c H -.6.0.d.B.B.S.S.J.J.K.I.I.I.I.I.L.I.L.S.B.c.l.u.t.*.F c a $ $ q # # O f -.h q e * # # # # ",
"# # # # # # # # = N ( N = $ a l S -.8.s.c.B.S.S.J.K.K.I.I.I.Q.).).).).).).Q.Q.I.K.S.C.x.r.6.%.C l a j q O O q z q # # # O # # # ",
"# # # O # # # # # t k t q f C K 6.s.c.B.S.J.U.`._.).I.I.Q.).)._._.).).).`._.`.).Q.I.K.S.V.k.8.;.K V f = # # # # # # # O # # # # ",
"* e * * # # # # * r y a f C -.r.C.B.J.I.`.iXhXwX[._.`.{.6XeXiXpXaX0X[.`.`._.`._._._.Q.I.K.S.V.k.u.1.A f q * # O # e * * # O # # ",
"# # q k q q $ # # * a l S ;.0.B.S.K.{.pXmXdX5X|.wXdXnXhXgXpXpXsXiXqX X[.[._._.).).).`.`._.Q.U.P.C.y.1.J n j q # # # q k q q * # ",
"# # # * q k q # $ a l H 6.j.B.J.U.eXNXgX9X0XdXnXsXwX0X0XwXiXpXgXgXpXiXeX9X}.`._.).)._.`. X.X}.[.`.~.l.e.$.M j * # # * * q k q O ",
"q # # # $ q $ $ a l H 6.k.B.K.{.hXnX0X0XhXnXeX9XwXsXnXnXhXgXgXgXgXgXhXmXmXmXdX0X[.`.[.[.}.|.9X0X.X}.~.l.e.$.n q q # # # * q * # ",
"u q # # O O $ = l H 6.k.S.I.4XNXpX|.pXmXaX0XeXgXgXeXqX9X0XeXsXhXgXsXaXsXeXeXsXnXnXeX}. X X}..XtXaX0X}.~.l.;.F h j w # # # O # # ",
"q = , = # # $ f S 6.k.S.I.7XNXeX5XhXgX9XeXgXaX9XXXqXaXsXsXgXnXmXmXnXmXNXNXmXgXwXtXsXtX9XXX9X9X9XeXsX5X_.G.j.3.G f = , = # # # # ",
"O , / , # $ s C ;.j.S.U.wXNXwX0XhXwX.XtXaXrXqXqXrXtXsXhXnXmXNXBXBXNXBXBXNXmXmXNXnXaXqX0XwXwXwX9XXXwXeX`.L.A.l.3.c g / , # # # # ",
"# = , = $ a c *.0.B.I.6XBXwX0XgX0X.XrX0XXXrXsXaXsXgXhXhXgXgXnXNXmXnXmXmXNXNXNXNXNXAXmXaXsXsXeX0X9X}.9XeX'.H.x.7.H l g = # O O # ",
"O # # # $ h H 8.c.K.{.NXeX0XsX9X9XqX.X.XqXtXhXnXsXsXsXgXgXhXnXNXmXnXNXNXBXNXNXBXAXBXBXAXmXsXwX9X}.}.[.wXeX!.S.j.;.C s $ # O # # ",
"d = & > a C ;.k.J._.nXpX|.aX9X9X0XXX.XXXrXsXhXnXgXgXgXhXhXhXmXBXNXmXNXNXNXNXBXAXBXAXAXAXSXmXrX.X[.}.}.}.aX7XW.A.r.*.z q # # # # ",
"<.d 2 ~ P %.8.V.U.iXmX|.eX9X XqXXXXXqXrXaXaXgXmXmXhXhXmXBXNXBXAXBXNXNXNXNXNXBXBXSXAXAXBXNXAXnX9X[.[.}.}.|.hX5XL.x.6.F j r e # # ",
"d > Q ..[ e.c.L.{.NX0X0XqX X.X X.X0XtXaXtXaXnXBXBXBXSXFXFXSXFXFXSXAXBXBXNXBXBXSXSXSXSXNXhXhXNXaX X}.[.9X|.iXhX(.S.j.=.M v u # # ",
"r q 2 ( 1.j.S.U.pXpX.XtX.X.X.X X.XrXsXgXgXmXAXAXFXGXFXFXFXFXFXGXGXFXSXAXAXAXSXSXSXFXAXAXmXaXaXsX9X.X}..XwX|.nX7XL.x.7.@.n u - * ",
"u r s A 6.c.J.{.hX|.0X9XXX9X.XXX9XrXaXhXBXSXAXFXGXGXFXFXGXGXxXlXlXCXGXGXFXSXFXFXFXSXSXAXAXhXtXtXwX9X9X.XqX9XeXmX^.A.g.=.m N W 1 ",
"u u h H 8.B.I.eXeX}.9X X.X9XqXrXtXsXsXNXSXSXFXFXFXGXGXGXCX;X{ 6 U | :XCXGXGXGXGXFXFXSXSXBXBXhXsXaXtX0X.X|.wX|.mX7XH.x.6.G ^  .Q ",
"t j m -.j.S._.sX|..X}.}. XXXqXaXhXNXmXAXAXFXGXFXFXGXDX:X| 5 3 [ E 1 7 O.:XDXGXGXGXFXSXBXAXBXBXnXgXtX9XXX}.0X5XiXnX^.A.g.$.N W 1 ",
"z h C 6.c.K.|.eX[. X[.}..XrXrXaXNXAXSXAXSXFXFXGXDXzX%XU ; U #X=X=X| U 1 / &XzXDXGXFXSXSXSXSXAXmXgXtX0XXX.X9XiX0XNX{.F.j.=.c > = ",
"5.C H 8.B.I.wX9X[. X[.}.wXgXqXsXBXAXSXFXFXFXFXxX*X` ; 5 } %X#XoXoX#X%X{ 5 3 ' *XxXFXFXFXFXFXBXnXgXaXwXqXwX9XaX5XnX8XH.x.>.C a q ",
"c c *.j.S.!.wX}.}.}.[. XnXgXqXnXNXAXAXFXGXGXlX} 3 ; / | %X=XY o X P =X%XO./ ; 5 o.lXGXGXFXAXAXnXnXhXaXqXqX.XeXwXiXfXW.n.r.F h j ",
"q c ;.k.S.`.qX[.[.[.[.9XBXsXaXBXBXAXAXSXFXxX{ . L E [ | =XOXo X X o @X%XO.] ` 5 ; o.CXFXFXSXSXNXnXhXaX0X0X0X0XaX7XNX/.H.j.#.h q ",
"a F 6.c.L.}.9X`.[.[.[.eXNXsXhXBXAXAXSXSXFX:X5 > T E [ } =XjX= X X d jX=XO.] ' OX4 ! lXFXFXFXSXBXnXhXaXqX9XwX0XgX6XNX{.H.j.*.x q ",
"s F 7.c.L.|.|.`.[.[.[.sXNXnXnXNXBXBXSXFXGX;X4 g Y T E [ +X=X@X2.oX@X=X%X| ' [ 1XP 8 >XFXFXFXSXAXnXhXgXiXwXaXqXnX0XNX6XH.k.;.G a ",
"s F r.A.U.|.}.[.[.[.[.hXNXNXNXNXBXBXAXSXGX;X4 d Y T T [ +X+XkXZXZXkX#X| { ` [ 1XP 8 >XGXFXFXSXSXNXmXnXsXeXsXwXnXwXnX8XL.x.;.m a ",
"s S r.G.!..X}.[.[. X.XnXNXBXNXNXBXBXAXFXGX;X4 g Y T T ) [ +XvX2X2XVX+X{ ` ` [ 1XP 8 >XGXGXGXFXSXBXmXmXgXeXsXeXnXeXfXuXH.x.;.m q ",
"f J r.G.!..X}.[.}.wXqXmXBXBXBXAXAXAXFXFXGX;X4 M ,X<.T E E $XMX3X3XMX$X[ [ ) E w.< 8 >XGXGXGXFXAXBXNXmXhXaXsXeXhXiXfXuXH.x.>.M a ",
"h $.r.C.!.}.}.[.}.gXtXmXNXBXBXBXAXAXSXFXGX;X3 A ,XY Y 1.9.Z.yXMXMXyXZ.9.q.E I P . 8 >XGXGXGXFXBXNXmXmXgXeXsXwXhXeXdXuXH.x.,.M a ",
"f J 8.V.!.[.[.`.[.hXiXnXmXNXNXmXNXNXBXFXGX-X3 A ,X<.Y K u.MXMXZ.3XSXMXu.R I P N % 8 >XGXFXFXAXmXnXhXnXsXwXaX0XhX7XfX8XT.z.>.F s ",
"s F 7.V.L.`.[._.`.pXsXgXmXNXmXmXNXNXAXFXGX-X3 m h.G B Y 2.jXcX<XN.<XjXOXY P g d o 8 >XGXFXFXAXmXnXhXnXaX0XsX0XhX4XfX6XF.z.6.5.z ",
"s F 7.c.L._.`._._.iXgXaXmXNXmXBXBXBXAXFXGX-X3 X i 0 s x x A Y 1.*.S V g d = @ o   8 >XGXGXFXBXmXnXnXhXaX0XgX5XnX5XnX4XD.j.=.C a ",
"a C 6.x.L.!.`._._.0XnXaXBXBXNXBXmXmXNXAXFX-X5   , < % L < < g L < L g L L L < <   / lXGXFXAXNXmXnXmXhXsXwXgX5XnX|.mX/.m.a.&.l $ ",
"q c ;.k.F.Q.`.`.[.9XNXaXNXNXNXmXnXnXmXAXFXlX'   < < ; I I I I I P I I I T I I L . o.CXGXAXNXmXnXnXmXhXaXiXdXwXdX4XfXR.n.p.=.h $ ",
"= l *.j.S.!.`.[.[.}.nXaXhXnXNXhXmXmXBXSXGXDX*X' ;   o + i p p c c p p 9 9 X   3 ] >XGXFXAXNXnXnXnXmXgXwXhXeXpX8X|.4XD.x.7.H s $ ",
"* f H 8.G.!.`.`.`.[.iXhXeXmXNXmXNXBXAXAXFXGXDX>XO./ : b :.4.4.h.h.4.4.@.9 ; ` &XzXGXSXAXBXBXNXmXmXnXgXqXmX6XfX{.'.^.M.z.>.C a # ",
"$ a S 6.x.L.!._.`.9X9XmXwXnXNXAXBXBXNXBXAXGXGXGXCX;Xo.6 i :.h.@XOX4.@.: U O.>XDXGXSXAXBXNXNXBXNXBXnXaXaXfX6XfX!.W.Y.m.a.=.m q # ",
"# q m >.z.F.E.!._.eXwXdXhXgXBXAXBXmXnXmXSXGXGXGXGXGXxX*X] oX+X+.X.+XOXo.;XCXFXFXFXSXBXBXNXmXmXBXNXmXeXmXwXdX8XT.Y.D.b.i.$.n 0 # ",
"# q m =.p.c.L.!._.6XnXeXBXsXmXmXBXnXnXNXSXGXGXGXGXGXGXFXzX*X*X_ _ &X*XxXFXGXFXAXBXBXBXNXNXNXmXBXmXgXgXmX0XnX/.Y.D.m.z.,.@.s $ # ",
"# e n @.6.k.F.W._.[.nXpXhXmXaXnXnXmXmXAXSXAXAXFXGXGXFXFXGXZXzX:X-XzXSXSXAXSXFXAXNXmXBXNXNXNXAXmXnXwXNXwXfXuXE.Y.D.b.a.=.m q # # ",
"# e s z *.8.A.E.^.'.6XmXwXNXsXeXhXmXAXSXAXmXnXBXFXGXFXFXFXSXSXFXSXAXAXAXBXBXAXAXNXmXmXBXNXBXNXNXeXhXdXwXnX/.E.Y.M.z.,.F f $ # # ",
"# # * s C 6.x.H.W.!._.dXhXeXNXeXgXBXSXAXmXhXhXNXSXAXSXFXFXSXSXFXSXAXAXAXBXNXBXAXBXNXNXnXBXNXNXsXgXnX|.dX4XE.Y.D.b.p.=.z q # # # ",
"# # $ q z *.8.n.H.E.!.{.mXpXsXBXnXBXBXmXnXgXnXNXBXAXSXSXAXAXAXFXAXBXBXBXBXBXNXBXAXNXmXBXmXBXpXiXNX6X5X4XE.Y.D.m.z.>.F f $ # # # ",
"* e * q s C ;.j.A.H.E.!.6XNXgXNXSXNXnXgXaXhXmXmXnXnXBXSXAXAXAXSXSXAXAXBXNXNXNXBXNXBXBXmXNXaXeXNX6X[.}.!.T.D.M.v.i.=.m a $ # # # ",
"# # q k a x #.7.x.F.E.!.[.pXSXNXBXBXsXqXwXsXnXhXhXhXmXmXgXhXNXAXBXNXNXBXBXmXnXmXBXBXNXNXeXiXmX6X^.!.!.!.R.M.b.a.>.C h k q q * # ",
"# # # * q n C *.p.x.T.!.9XsXNXFXmXgXhXwX9XeXaXiXsXgXnXgXaXaXhXNXmXnXgXsXsXsXnXmXNXBXnXwXdXnX4X!.W.W.E.W.R.M.z.7.H h q * q k w O ",
"q # # # = q f C ;.j.A.(.wXNXNXNXAXdX0XaXsXeX0X0XwXeXsXeXqXqXeXsXeX9X.X9XiXgXmXNXhXwXwXhXdX{.!.E.E.W.E.Y.M.b.i.#.m a $ O # q # # ",
"u q # # # # = h F 6.l./.0XnXSXNXhXNXhXwXaXgXiX0X.X9XwX X X XXXqX9X9XiXnXNXnXaX5X[.}.0X6X'.!.E.E.W.E.Y.M.b.p.=.C n q # # # # # # ",
"q = , = # # $ q l $.r.Z.4XwXdXAXNXeXhXBXhXwXwXwX0X0X9X[.[.[.}..X}.|.5X5X|.}.'._.^.'.'.].(.W.W.!.E.D.m.b.d.,.F h q = , = # # # # ",
"O , / , # # # $ a M 1.t.Z.4X4X7XnXNXaXiXnXmXaX9X}.0X9X}.}.[.}..X}.`.'._._.'.^.!.!.^.^.^.(.(.(.E.D.m.v.d.f.5.m q # , / , # # # # ",
"# = , = # # # # q n @.1.t.Z.~.~./.uXBXmXeXwXpXhXaXeX|.[.`.`.[.}.[.'.^.^.^.'.'.^.^.!.!.(.[.].R.D.m.z.p.>.5.F n q # = , = # # # # ",
"# # O O O # # # # q n M 1.e.l.G.H.^.5XfXBXnXeX5XwXaXeXwX0X5X|.9X|.}.[.[.].'.(.!.!.'.].[.!.T.D.b.d.7.=.F z 0 q # # # # # # # # # ",
"# # # # # # # # = > q s m J 3.r.x.H.^.[.6XdXNXNXfXeX|.{.{.{.}.|.}.[.'.(.(.(.{.|.|.].!.T.D.m.b.a.7.#.m f $ * q * # # # # * # # # ",
"# O # e e e # = 2 ~ 2 = q f C *.7.k.G./.'.].{.7XfXmXmXbXfXpXiXiX8X7X7XwXwX0X5X].W.Y.M.m.b.z.p.>.H z s $ * q k q # # # e e e # # ",
"* q * t v t # > ~ X.~ > # $ s c J 3.r.l.P.^.W.W.(.^./.{.6X8XuXuX8X6X4X{.^.R.Y.D.M.M.b.z.p.>.&.C l k q q r t q # * q w t v t # # ",
"q k q r u t - & 2 ~ 4 q # # $ q x 1.=.>.g.l.x.A.H.D.D.D.D.Y.Y.R.Y.Y.D.D.M.m.m.b.z.l.g.,.=.F z s j <.d e t r * O q k w r u t - * ",
"* q * e e N W 1 & > = t * O # $ q k x F $.;.6.r.j.z.z.b.b.b.m.m.m.m.b.b.v.z.a.p.7.>.&.@.m s q $ * d q q e e # # * q * e e N W 1 ",
"# # # * - W  .W - # # q # # # # # # $ a h m F #.=.>.7.7.p.p.a.a.a.a.p.i.7.,.>.&.H C l h q $ # # # # # # # # # # # # # * - W  .Q ",
"# # * e q 1 W 1 = # # # # # # # # # # # $ q s h z m F H #.&.&.&.&.&.&.#.H F m l f a q $ # # # # # # # # # # # # # # * e q 1 W 1 ",
"# # # * # * - * # # # # # # # # # # # # # # $ $ q a s h m M m z l m G x h s a 0 $ # # # # # # # # # # # # # # # # # # * # * - * "
};
