/* XPM */
static char *a3z8p_erua7[] = {
/* columns rows colors chars-per-pixel */
"128 64 71 1 ",
"  c #000000",
". c #070601",
"X c #070707",
"o c #080701",
"O c #0B0902",
"+ c #0C0A02",
"@ c #0B0B0B",
"# c #0C0C0C",
"$ c #120E03",
"% c #120F04",
"& c #131004",
"* c #111111",
"= c #151515",
"- c #1A1A1A",
"; c #1E1E1E",
": c #202020",
"> c #272727",
", c #2A2A2A",
"< c #2D2D2D",
"1 c #333333",
"2 c #363636",
"3 c #383838",
"4 c #3D3D3D",
"5 c #414141",
"6 c #444444",
"7 c #4A4A4A",
"8 c #4F4F4F",
"9 c #505050",
"0 c #545454",
"q c #585858",
"w c #5E5E5E",
"e c #636363",
"r c #676767",
"t c #6A6A6A",
"y c #6D6D6D",
"u c #727272",
"i c #767676",
"p c #787878",
"a c #7D7D7D",
"s c #808080",
"d c #868686",
"f c #898989",
"g c #8E8E8E",
"h c #929292",
"j c #949494",
"k c #9B9B9B",
"l c #9F9F9F",
"z c #A3A3A3",
"x c #A7A7A7",
"c c #A8A8A8",
"v c #AFAFAF",
"b c #B1B1B1",
"n c #B6B6B6",
"m c #B9B9B9",
"M c #BEBEBE",
"N c #C1C1C1",
"B c #C6C6C6",
"V c #C8C8C8",
"C c #CFCFCF",
"Z c #D0D0D0",
"A c #D4D4D4",
"S c #D8D8D8",
"D c #DEDEDE",
"F c #E2E2E2",
"G c #E7E7E7",
"H c #E9E9E9",
"J c #EEEEEE",
"K c #F3F3F3",
"L c #F4F4F4",
"P c #F8F8F8",
"I c #FFFFFF",
/* pixels */
"                                                                                                                                ",
"                                                                                                                                ",
"                                                                                                                                ",
"                                                                                                                                ",
"                                                                                                                                ",
"                                                                                                                                ",
"                                                                                                                                ",
"                                                                                                                                ",
"                                                                                                                                ",
"                                                                                                                                ",
"                                                                                                                                ",
"                                                                                                                                ",
"                                                    .$%%%&O        o$$$$$$$$$$$+                                                ",
"                                                    .O+OO+.        .O+O+O+O+O+O.                                                ",
"                                                                                                                                ",
"                                                                                                                                ",
"                                                                                                                                ",
"                                                                                                                                ",
"                                                                                                                                ",
"                                                                                                                                ",
"                                                                                                                                ",
"                                                                                                                                ",
"         X##@      X####@    X#######    X##X    #####                   X##X      X####X  ####@  X#@       @####X X####@       ",
"         <hcq      5lxxxu#   9xxxxxcf;   3ll4   :dcxcf-                  4lz5      9xxxct@:gcxcf:@tvd;     *axxcl4 7zxxct#      ",
"         6DIdX     tLIIIv*   aIIIIIIC,   0KJq   1CIIIA,                  eJPt      aIIIIz#2AIIIA3*zIC,     -MIIIKwXuLIIIx=      ",
"         5SIsXX    rKIIIc**7wfnnmmFISi0: 0JJwXX 1VIIIA<XX           X    wHLr X    iPIIIl@2AIIIZ3#kISi0>   =mIIIJwXyLIIIz=      ",
"         5SIs#*    rKIIIc*1BKh:;:,xIILHe 0JJe*# 1VIIIA2*#          @*X   wHLr@*    pPIIIl#3AIIIZ3*lIILJt   =mIIIJwXuLIIIz;#X    ",
"         5SIs#*  =;iLIIIc*1CIg@ @*lIIILr 0JJe** 1VIIIA2*#          #=X   qHLe##    pPIIIl#4AIIIZ3*lIPHFi;= =mIIIHqXuKIIIz;*X    ",
"         5SIs@* @amAPIIIc*1CIj=#@*lIIILr qKJe*# 1BIIIA2*#          #=X   qHLr##    iPIIIl#4ZIIIZ3*lISuwlMg*=mIIIJqXuLIIIz;*X    ",
"         5SIs@@ *cIIIIIIv*1CIj-*X*kPIILrXeKJe*# 1BIIIA2*#          @=X   wHLe#*    pPIIIl#4AIIIZ3*lIC,=vIm-=mIIIJqXuLIIIz;*@    ",
"         <kmjtttyVIIIPCma#1CIj-*X*lIIILrXeKJe** 1BIIIA2*#          @*X   wHLr@2te; pPIIIl#4AIIIZ4*lIC,=anltuAIIIJqXuLIIIz;#X    ",
"         X-,kJJJJPIIIJy:-*2CIj-*X*lIIILrXeKJe*# 1BIIIA2*#          @*X   qHLrXrGD8 pPIIIl#4AIIIZ3*lIC,#--0DJPIIIJqXuKIIIz;*X    ",
"           #hKKIIIIPKF0X=*2CIj-*X*kPIILrXeKJe*# 1VIIIA2*#          #=X   qHLrXrKJ9 iPIIIl#4AIIIZ3*lIC<#X 6DKLIIIJw@uKIIIz;*X    ",
"           X3waJIIICuq<==X<CIj-*X*kPIILrXeKJe## 1VIIIA2*#          @*X   wHLrXrKH0XiPIIIl#4AIIIZ3*lIC<#@ -9rZIIIJwXuKIIIz;*X    ",
"              4FIIIn>@=-* ,VIj-*X*kPIILrXeKJe## 1VIIIA2*#          @=X   wHLrXrKHqXiPIIIl#4AIIIZ3*lIC,*@   =mIIIJq@iLIIIz;*X    ",
"              6GIIIm,*=*@ ,VIj-*X*kPIILrXeKJe*# 1VIIIA2*#          @*X   qHLrXrKHqXpPIIIl#4AIIIZ4*lIC<*@   =mIIIHq@8lzzcu;*@    ",
"              6GIIIm<*@   <CIj=# #kPIILrXeKKe#@ <BIIIS2*#          @*X   wJLr rKJqXiPIIIz#4AIIIZ3*lIC<##   =mIIIHq@*@@#*=-=X    ",
"              6GIIIm<*@   <MHh>;;>zIPHFeXqDSr;;;5VILHB2*#          #=X   0AFu;rDAw;sPPJGj#4ZIIIZ3*lIC<*@   =mIIIHq@=;;;;-=*X    ",
"              6GIIIm<*@   #36dBBBVGISe7<*>58cBBBZKIb87:-#          #=X   =49xVl78cVFIHa63*4AIIIA3*lIC<#@   =mIIIJqXwNVBVs=      ",
"              7GIIIM,*@      aIIIIIIZ,@--# -VIIIIIIk@*--#          #=X     ;mIv#=BIIIG8 =*4AIIIA4*zIC<#@   -MIIIJw@pLIIIx=      ",
"              ,gkkli:*@      7jklllls>*=*# *pkkklllr==**@          @#      =ylt#*ujjkg3*=#>ajjks,=rkp:=#   #ujjkh5#7jkkke*@     ",
"              X#*=;;--@      X**=;-;---@    #**-;;;;-=X                     ##*-=##*----*  ##*--=-*##=-@    @#*-;-=*##=---=X    ",
"                 @**==@         #****==@      X****==*                        X==X X**==#    X**==X  *=@      X***=#  #*==*X    ",
"                 X@XXX          X@@@@XX       X@@@@@@X                         XX  XXXXXX    XXXXX  X@@        X@@XX  XXXXX     ",
"                                                                                                                                ",
"                                                                                                                                ",
"                                                                                                                                ",
"                                                                                                                                ",
"                                                                                                                                ",
"                                                                                                                                ",
"                                                                                                                                ",
"                                                                                                                                ",
"                                                                                                                                ",
"                                                                                                                                ",
"                                                                                                                                ",
"                                                                                                                                ",
"                                                                                                                                ",
"                                                                                                                                ",
"                                                                                                                                ",
"                                                                                                                                ",
"                                                                                                                                ",
"                                                                                                                                ",
"                                                                                                                                ",
"                                                                                                                                "
};
